<?xml version="1.0" standalone="no"?>
<!DOCTYPE svg PUBLIC "-//W3C//DTD SVG 1.1//EN" "http://www.w3.org/Graphics/SVG/1.1/DTD/svg11.dtd" >
<svg xmlns="http://www.w3.org/2000/svg" xmlns:xlink="http://www.w3.org/1999/xlink" version="1.1">
<metadata>
Created by FontForge 20170731 at Fri Jul 30 04:44:40 2021
 By Aleksey,,,
Copyright (c) 2011 by Jonathan Hill. All rights reserved. wf-rip
</metadata>
<defs>
<font id="NeoGram-Regular" horiz-adv-x="1566" >
  <font-face 
    font-family="NeoGram"
    font-weight="400"
    font-stretch="normal"
    units-per-em="2048"
    panose-1="0 0 5 0 0 0 0 0 0 0"
    ascent="1608"
    descent="-440"
    x-height="1024"
    cap-height="1434"
    bbox="-92 -451 2333 2150"
    underline-thickness="102"
    underline-position="-307"
    unicode-range="U+0020-FB02"
  />
<missing-glyph horiz-adv-x="614" 
 />
    <glyph glyph-name="f_f_i" unicode="ffi" horiz-adv-x="1632" 
d="M422 1442h129v-94h-82q-51 0 -81 -29t-30 -82v-213h193v-94h-193v-930h-141v930h-160v94h160v213q0 93 57 149t148 56zM1036 1442h129v-94h-84q-50 0 -80 -29t-30 -82v-213h194v-94h-194v-930h-142v930h-159v94h159v213q0 93 57 149t150 56zM1368 1210v232h141v-232h-141
zM1368 0v1024h141v-1024h-141z" />
    <glyph glyph-name="f_f_l" unicode="ffl" horiz-adv-x="1644" 
d="M422 1442h129v-94h-82q-51 0 -81 -29t-30 -82v-213h193v-94h-193v-930h-141v930h-160v94h160v213q0 93 57 149t148 56zM1036 1442h129v-94h-84q-50 0 -80 -29t-30 -82v-213h194v-94h-194v-930h-142v930h-159v94h159v213q0 93 57 149t150 56zM1370 0v1434h141v-1434h-141z
" />
    <glyph glyph-name="fi" unicode="fi" horiz-adv-x="1050" 
d="M446 1442h129v-94h-81q-51 0 -81 -29t-30 -82v-213h192v-94h-192v-930h-141v930h-160v94h160v213q0 93 56.5 149t147.5 56zM768 1210v232h141v-232h-141zM768 0v1024h141v-1024h-141z" />
    <glyph glyph-name="fl" unicode="fl" horiz-adv-x="1052" 
d="M446 1442h129v-94h-81q-51 0 -81 -29t-30 -82v-213h192v-94h-192v-930h-141v930h-160v94h160v213q0 93 56.5 149t147.5 56zM768 0v1434h141v-1434h-141z" />
    <glyph glyph-name=".notdef" horiz-adv-x="614" 
 />
    <glyph glyph-name=".null" horiz-adv-x="0" 
 />
    <glyph glyph-name="nonmarkingreturn" horiz-adv-x="682" 
 />
    <glyph glyph-name="space" unicode=" " horiz-adv-x="614" 
 />
    <glyph glyph-name="exclam" unicode="!" horiz-adv-x="397" 
d="M135 453v989h141v-989h-141zM135 0l10 266h121l10 -266h-141z" />
    <glyph glyph-name="quotedbl" unicode="&#x22;" horiz-adv-x="692" 
d="M137 952v506h115v-506h-115zM440 952v506h113v-506h-113z" />
    <glyph glyph-name="numbersign" unicode="#" horiz-adv-x="1142" 
d="M756 948l102 486h109l-105 -486h195v-106h-217l-80 -377h297v-109h-320l-75 -356h-109l76 356h-244l-76 -356h-108l75 356h-196v109h219l82 377h-301v106h323l103 486h108l-104 -486h246zM408 465h243l82 377h-246z" />
    <glyph glyph-name="dollar" unicode="$" horiz-adv-x="1355" 
d="M621 1462v174h116v-174q473 -21 473 -366v-39h-145v45q0 127 -98 186.5t-289 59.5q-188 0 -283.5 -59t-95.5 -187v-37q0 -115 168 -176l518 -170q262 -86 262 -326v-31q0 -169 -135.5 -275t-374.5 -118v-172h-116v172q-239 12 -374.5 117t-135.5 276v91h145v-97
q0 -128 108.5 -198t313.5 -70q206 0 315 70t109 198v35q0 152 -170 211l-531 174q-120 40 -183.5 111.5t-63.5 169.5v39q0 345 467 366z" />
    <glyph glyph-name="percent" unicode="%" horiz-adv-x="1701" 
d="M309 -70l948 1512h125l-948 -1512h-125zM111 1010v82q0 155 82.5 232t232.5 77q152 0 235.5 -77t83.5 -232v-82q0 -134 -86 -218.5t-231 -84.5t-231 83.5t-86 219.5zM643 1010v82q0 118 -54 171.5t-161 53.5q-108 0 -161.5 -53t-53.5 -172v-82q0 -101 57.5 -160
t157.5 -59q99 0 157 59.5t58 159.5zM958 279v79q0 156 83 234t235 78q151 0 234 -78t83 -234v-79q0 -136 -86 -220t-231 -84q-143 0 -230.5 85t-87.5 219zM1491 279v79q0 119 -53.5 173.5t-161.5 54.5t-161.5 -54.5t-53.5 -173.5v-79q0 -100 58 -160t157 -60t157 60t58 160z
" />
    <glyph glyph-name="ampersand" unicode="&#x26;" horiz-adv-x="1480" 
d="M274 1112v78q0 132 83 200t237 68q338 0 338 -268v-78q0 -142 -123 -213l-168 -100l463 -490q86 106 166 312l108 -41q-86 -235 -188 -361l209 -219h-168l-129 137q-174 -168 -465 -168q-239 0 -381 103q-139 106 -139 274v86q0 201 166 303l163 99l-112 118
q-60 66 -60 160zM813 1116v74q0 84 -53.5 122t-159.5 38q-203 0 -203 -160v-78q0 -59 39 -98l123 -131l191 116q63 40 63 117zM1012 231l-480 504l-167 -100q-107 -64 -107 -207v-82q2 -117 101.5 -188t269.5 -72q238 0 383 145z" />
    <glyph glyph-name="quotesingle" unicode="'" horiz-adv-x="380" 
d="M137 952v506h115v-506h-115z" />
    <glyph glyph-name="parenleft" unicode="(" horiz-adv-x="542" 
d="M334 1497h119q-232 -466 -232 -924q0 -478 234 -938h-121q-252 479 -252 938q0 227 66 467.5t186 456.5z" />
    <glyph glyph-name="parenright" unicode=")" horiz-adv-x="544" 
d="M88 1497h121q119 -217 185.5 -458t66.5 -466q0 -461 -254 -938h-119q231 460 231 938q0 461 -231 924z" />
    <glyph glyph-name="asterisk" unicode="*" horiz-adv-x="839" 
d="M358 1188v246h117v-248l238 80l45 -111l-234 -76l150 -194l-94 -74l-160 209l-141 -205l-101 62l137 200l-235 78l45 111z" />
    <glyph glyph-name="plus" unicode="+" horiz-adv-x="991" 
d="M436 702v385h121v-385h383v-114h-383v-385h-121v385h-383v114h383z" />
    <glyph glyph-name="comma" unicode="," horiz-adv-x="393" 
d="M137 -25v283h139v-283q0 -77 -50 -130.5t-146 -65.5v84q57 37 57 112z" />
    <glyph glyph-name="hyphen" unicode="-" horiz-adv-x="845" 
d="M137 588v114h570v-114h-570z" />
    <glyph glyph-name="period" unicode="." horiz-adv-x="405" 
d="M137 0v258h142v-258h-142z" />
    <glyph glyph-name="slash" unicode="/" horiz-adv-x="856" 
d="M49 0l639 1434h119l-637 -1434h-121z" />
    <glyph glyph-name="zero" unicode="0" horiz-adv-x="1304" 
d="M125 588v190q0 323 135 480t391 157q258 0 393.5 -156.5t135.5 -480.5v-190q0 -277 -142 -451q-138 -172 -387 -172q-246 0 -387 172q-139 174 -139 451zM1030 582v196q0 276 -95.5 396t-283.5 120q-189 0 -283 -123t-94 -393v-196q0 -230 100.5 -362t276.5 -132
q178 0 278.5 132t100.5 362z" />
    <glyph glyph-name="one" unicode="1" horiz-adv-x="665" 
d="M395 1401h127v-1401h-149v1235q-60 -70 -154.5 -122.5t-198.5 -78.5v111q132 30 209 86q86 63 166 170z" />
    <glyph glyph-name="two" unicode="2" horiz-adv-x="1165" 
d="M274 989h-145v101q0 162 116 243.5t330 81.5q465 0 465 -325v-66q0 -157 -112 -281q-54 -59 -111 -110q-35 -31 -137 -107l-133 -98l-109 -90q-110 -97 -159 -213h761v-125h-956q11 173 111 297q43 52 70 79.5t77 65.5q62 51 86 66l98 65q9 9 17 13l135 100q49 37 106 98
q111 111 111 240v66q0 108 -79.5 159t-240.5 51q-301 0 -301 -210v-101z" />
    <glyph glyph-name="three" unicode="3" horiz-adv-x="1292" 
d="M332 1016h-150v76q0 323 459 323q219 0 339 -80.5t120 -242.5v-86q0 -86 -54 -151.5t-151 -94.5q132 -31 203 -111.5t71 -206.5v-110q0 -165 -142.5 -264t-385.5 -99q-241 0 -385 99q-141 102 -141 264v98h149v-98q0 -122 96.5 -186t280.5 -64q188 0 284.5 64t96.5 186
v112q0 245 -344 248h-90v107h74q139 1 214.5 54t75.5 146v93q0 107 -77.5 157.5t-233.5 50.5q-160 0 -234.5 -50t-74.5 -158v-76z" />
    <glyph glyph-name="four" unicode="4" horiz-adv-x="1226" 
d="M51 455l694 944h150v-936h246v-123h-246v-340h-139v340h-705v115zM201 463h555v774z" />
    <glyph glyph-name="five" unicode="5" horiz-adv-x="1210" 
d="M127 641l154 758h768v-123h-652l-110 -504q103 146 362 146q222 0 346.5 -103.5t124.5 -308.5v-115q0 -190 -137 -309q-135 -117 -367 -117q-227 0 -362 117q-135 120 -135 309v60h149v-60q0 -142 91.5 -222.5t256.5 -80.5q170 0 262.5 80.5t92.5 222.5v115
q0 163 -89 238t-266 75q-266 0 -333 -178h-156z" />
    <glyph glyph-name="six" unicode="6" horiz-adv-x="1251" 
d="M131 391v584q0 228 124 333t359 105q195 0 317 -83t154 -247h-129q-52 227 -338 224q-168 -2 -252.5 -78t-84.5 -240v-223q88 163 358 166q85 0 156.5 -13t135 -43t107.5 -77t69.5 -118t25.5 -163v-127q0 -189 -138 -309q-135 -117 -364 -117q-227 0 -365 117
q-135 120 -135 309zM985 391v127q0 165 -90 239t-264 74q-179 0 -264.5 -74.5t-85.5 -238.5v-127q0 -142 92.5 -222.5t257.5 -80.5q169 0 261.5 81t92.5 222z" />
    <glyph glyph-name="seven" unicode="7" horiz-adv-x="1058" 
d="M59 1278v121h938v-109q-298 -295 -442.5 -604t-144.5 -686h-150q0 704 574 1278h-775z" />
    <glyph glyph-name="eight" unicode="8" horiz-adv-x="1298" 
d="M188 1001v91q0 323 459 323q139 0 239 -31.5t160 -105.5t60 -186v-91q0 -87 -54 -150.5t-153 -94.5q277 -68 277 -318v-106q0 -162 -144 -264q-144 -99 -385 -99t-385 99q-141 102 -141 264v106q0 251 272 318q-98 31 -151.5 95t-53.5 150zM961 1006v86q0 106 -78 154
t-236 48q-162 0 -237.5 -47.5t-75.5 -154.5v-86q0 -93 81 -145t232 -52q153 0 233.5 51.5t80.5 145.5zM1028 332v110q0 131 -93.5 189.5t-287.5 58.5q-197 0 -287 -58t-90 -190v-110q0 -113 98 -176.5t279 -63.5q184 0 282.5 62t98.5 178z" />
    <glyph glyph-name="nine" unicode="9" horiz-adv-x="1255" 
d="M121 883v106q0 191 136.5 307.5t367.5 116.5q227 0 362 -117t135 -307v-573q0 -451 -483 -451q-193 0 -315 84t-154 248h127q55 -226 340 -223q169 2 252.5 76.5t83.5 240.5v244q-84 -164 -359 -164q-84 -2 -156 10.5t-135 43t-107 78t-69.5 119t-25.5 161.5zM973 883
v106q0 142 -91.5 222.5t-256.5 80.5q-169 0 -262 -80.5t-93 -222.5v-106q0 -164 90.5 -239t264.5 -75q179 0 263.5 75t84.5 239z" />
    <glyph glyph-name="colon" unicode=":" horiz-adv-x="405" 
d="M137 766v258h142v-258h-142zM137 0v258h142v-258h-142z" />
    <glyph glyph-name="semicolon" unicode=";" horiz-adv-x="378" 
d="M115 766v258h141v-258h-141zM115 -25v283h141v-283q0 -77 -50 -130.5t-149 -65.5v84q58 37 58 112z" />
    <glyph glyph-name="less" unicode="&#x3c;" horiz-adv-x="1232" 
d="M51 610v123l1063 512v-131l-926 -444l926 -443v-129z" />
    <glyph glyph-name="equal" unicode="=" horiz-adv-x="1071" 
d="M92 711v116h887v-116h-887zM92 565v115h887v-115h-887z" />
    <glyph glyph-name="greater" unicode="&#x3e;" horiz-adv-x="1234" 
d="M1049 670l-926 444v131l1061 -512v-123l-1061 -512v129z" />
    <glyph glyph-name="question" unicode="?" horiz-adv-x="991" 
d="M229 1110h-145v72q0 143 104.5 213.5t300.5 70.5q422 0 422 -284v-49q0 -136 -90 -244q-30 -39 -45 -51q-10 -10 -27 -25.5t-28.5 -25.5t-11.5 -11q-96 -93 -140 -176q-36 -73 -39 -194h-145q3 150 47 239q45 96 170 215l31 29q18 14 55 51q28 30 53 84.5t25 108.5v49
q0 174 -277 174q-260 0 -260 -174v-72zM383 2v258h149v-258h-149z" />
    <glyph glyph-name="at" unicode="@" horiz-adv-x="1302" 
d="M123 451v178q0 320 139 478.5t397 158.5t397.5 -158.5t139.5 -478.5v-178q0 -144 -41 -265h-274v105q-73 -98 -222 -98q-145 0 -231 83t-86 218v84q0 156 82.5 233.5t234.5 77.5t236 -77.5t84 -233.5v-316h92q21 88 21 189v178q0 551 -433 551q-432 0 -432 -551v-178
q0 -244 115 -392q118 -145 317 -145q133 0 228 68l10 -97q-96 -57 -238 -57q-249 0 -393 172q-143 171 -143 451zM877 496v82q0 119 -54.5 173t-163.5 54q-106 0 -160.5 -53t-54.5 -174v-82q0 -100 58 -160t157 -60q100 0 159 60t59 160z" />
    <glyph glyph-name="A" unicode="A" horiz-adv-x="1488" 
d="M86 0l584 1434h151l584 -1434h-156l-162 406h-684l-161 -406h-156zM436 514h619l-310 780z" />
    <glyph glyph-name="B" unicode="B" horiz-adv-x="1318" 
d="M143 0v1434h557q465 0 465 -330v-82q0 -100 -64 -174t-177 -105q129 -29 200.5 -109t71.5 -198v-98q0 -156 -145 -248q-146 -90 -385 -90h-523zM1020 1014v80q0 221 -320 221h-407v-514h407q154 0 237 58t83 155zM1051 354v88q0 244 -385 244h-373v-567h373q177 0 281 64
t104 171z" />
    <glyph glyph-name="C" unicode="C" horiz-adv-x="1454" 
d="M125 618v183q0 665 643 665q254 0 395 -113t180 -358h-141q-38 186 -140 267t-294 81q-252 0 -374 -129t-122 -415v-181q0 -250 128.5 -391t367.5 -141q181 0 284.5 87t147.5 263h141q-43 -230 -186.5 -350.5t-386.5 -120.5q-302 0 -473 174q-170 176 -170 479z" />
    <glyph glyph-name="D" unicode="D" horiz-adv-x="1411" 
d="M143 0v1434h478q325 0 497 -157.5t172 -481.5v-170q0 -281 -178 -453t-491 -172h-478zM1141 625v170q0 270 -128.5 393t-391.5 123h-328v-1188h328q246 0 383 134t137 368z" />
    <glyph glyph-name="E" unicode="E" horiz-adv-x="1189" 
d="M143 0v1434h998v-123h-848v-506h815v-123h-815v-559h858v-123h-1008z" />
    <glyph glyph-name="F" unicode="F" horiz-adv-x="1126" 
d="M143 0v1434h942v-123h-792v-506h760v-123h-760v-682h-150z" />
    <glyph glyph-name="G" unicode="G" horiz-adv-x="1542" 
d="M125 618l2 181q0 667 655 667q550 0 629 -460h-149q-36 179 -154 258t-326 79q-259 0 -383.5 -128t-124.5 -416v-181q0 -247 133 -387.5t375 -140.5q225 0 350 123.5t136 347.5v51h-471v101h610v-713h-104l-5 262q-147 -295 -516 -295q-308 0 -483 178q-174 180 -174 473
z" />
    <glyph glyph-name="H" unicode="H" horiz-adv-x="1411" 
d="M1120 805v629h150v-1434h-150v682h-827v-682h-150v1434h150v-629h827z" />
    <glyph glyph-name="I" unicode="I" horiz-adv-x="423" 
d="M143 0v1434h150v-1434h-150z" />
    <glyph glyph-name="J" unicode="J" horiz-adv-x="866" 
d="M584 420v1014h147v-1014q0 -204 -129 -330q-128 -125 -344 -125q-129 0 -233 55v109q101 -43 211 -43h22q155 1 240.5 89.5t85.5 244.5z" />
    <glyph glyph-name="K" unicode="K" horiz-adv-x="1447" 
d="M293 672l848 762h188l-672 -603l674 -831h-176l-600 733l-262 -233v-500h-150v1434h150v-762z" />
    <glyph glyph-name="L" unicode="L" horiz-adv-x="1101" 
d="M143 0v1434h150v-1311h792v-123h-942z" />
    <glyph glyph-name="M" unicode="M" horiz-adv-x="1669" 
d="M834 184l505 1250h187v-1434h-135v1190l-488 -1190h-139l-485 1190v-1190h-138v1434h189z" />
    <glyph glyph-name="N" unicode="N" horiz-adv-x="1427" 
d="M1139 231v1203h149v-1434h-160l-837 1202v-1202h-150v1434h158z" />
    <glyph glyph-name="O" unicode="O" 
d="M125 618l2 183q0 665 655 665q660 0 660 -667v-181q0 -293 -174 -473q-175 -178 -486 -178q-308 0 -483 178q-174 180 -174 473zM1292 618v181q0 285 -126 414.5t-384 129.5t-383 -128.5t-125 -413.5v-183q0 -247 133 -387.5t375 -140.5q244 0 377 140t133 388z" />
    <glyph glyph-name="P" unicode="P" horiz-adv-x="1214" 
d="M143 0v1434h484q118 0 213 -21t167.5 -64t112 -114.5t39.5 -167.5v-96q0 -157 -145 -260q-144 -99 -387 -99h-334v-612h-150zM1014 975v90q0 250 -387 250h-334v-584h334q180 0 283.5 65.5t103.5 178.5z" />
    <glyph glyph-name="Q" unicode="Q" 
d="M121 612v183q0 665 657 665q660 0 660 -665v-183q0 -303 -191 -479l191 -158l-70 -75l-199 166q-163 -105 -391 -105q-308 0 -483 178q-174 180 -174 473zM1288 612v183q0 285 -126 414.5t-384 129.5q-254 0 -381 -127t-127 -417v-183q0 -247 133 -387.5t375 -140.5
q164 0 283 72l-225 188l69 78l230 -195q153 132 153 385z" />
    <glyph glyph-name="R" unicode="R" horiz-adv-x="1363" 
d="M143 0v1434h539q240 0 376 -89.5t136 -265.5v-90q0 -123 -90 -207.5t-250 -113.5l393 -668h-168l-379 643h-407v-643h-150zM1049 991v86q0 238 -367 238h-389v-555h389q169 0 268 63t99 168z" />
    <glyph glyph-name="S" unicode="S" horiz-adv-x="1376" 
d="M164 1057v39q0 186 134.5 278t389.5 92q120 0 215.5 -21t168 -64t111 -115.5t38.5 -169.5v-39h-146v45q0 127 -98 186.5t-289 59.5q-188 0 -283.5 -59t-95.5 -187v-37q0 -115 168 -176l518 -168q262 -89 262 -328v-31q0 -181 -153 -288t-416 -107t-415 107t-152 288v91
h145v-97q0 -128 108.5 -198t313.5 -70q206 0 315 70t109 198v35q0 152 -170 211l-530 174q-121 40 -184.5 111.5t-63.5 169.5z" />
    <glyph glyph-name="T" unicode="T" horiz-adv-x="1259" 
d="M53 1311v123h1153v-123h-510v-1311h-149v1311h-494z" />
    <glyph glyph-name="U" unicode="U" horiz-adv-x="1415" 
d="M1135 518v916h149v-916q0 -247 -154 -401q-155 -152 -421 -152q-263 0 -418 152q-154 154 -154 401v916h150v-916q0 -202 111 -316t311 -114q202 0 314 114t112 316z" />
    <glyph glyph-name="V" unicode="V" horiz-adv-x="1394" 
d="M698 154l453 1280h158l-535 -1434h-153l-535 1434h158z" />
    <glyph glyph-name="W" unicode="W" horiz-adv-x="2119" 
d="M1495 182l360 1252h154l-434 -1434h-150l-368 1225l-365 -1225h-149l-434 1434h151l361 -1252l364 1252h148z" />
    <glyph glyph-name="X" unicode="X" horiz-adv-x="1564" 
d="M782 827l475 607h183l-566 -717l572 -717h-182l-482 606l-481 -606h-182l573 717l-567 717h182z" />
    <glyph glyph-name="Y" unicode="Y" horiz-adv-x="1517" 
d="M756 696l504 738h178l-607 -877v-557h-149v557l-604 877h176z" />
    <glyph glyph-name="Z" unicode="Z" horiz-adv-x="1193" 
d="M80 1311v123h1038v-91l-854 -1220h862v-123h-1056v90l852 1221h-842z" />
    <glyph glyph-name="bracketleft" unicode="[" horiz-adv-x="479" 
d="M137 -369v1923h309v-94h-167v-1734h167v-95h-309z" />
    <glyph glyph-name="backslash" unicode="\" horiz-adv-x="856" 
d="M684 0l-637 1434h121l639 -1434h-123z" />
    <glyph glyph-name="bracketright" unicode="]" horiz-adv-x="477" 
d="M31 1460v94h309v-1923h-309v95h168v1734h-168z" />
    <glyph glyph-name="asciicircum" unicode="^" horiz-adv-x="1116" 
d="M92 659l393 775h146l393 -775h-133l-334 652l-332 -652h-133z" />
    <glyph glyph-name="underscore" unicode="_" horiz-adv-x="1400" 
d="M137 -377v115h1125v-115h-1125z" />
    <glyph glyph-name="grave" unicode="`" horiz-adv-x="538" 
d="M328 1184l-252 274h133l233 -274h-114z" />
    <glyph glyph-name="a" unicode="a" horiz-adv-x="1179" 
d="M299 756h-129q30 152 141.5 227.5t292.5 75.5q218 0 331.5 -96.5t113.5 -307.5v-655h-121l-4 182q-50 -95 -165.5 -156t-248.5 -61q-179 0 -289 90q-106 87 -100 234q2 69 30 120.5t73.5 80.5t104.5 48t123.5 26t129 11t123 7.5t104 10.5t72.5 24t28 45v26
q0 274 -305 277q-134 0 -209.5 -49.5t-95.5 -159.5zM909 373v159q-34 -22 -102 -30q-64 -8 -137 -10q-71 -4 -82 -5l-78 -8q-53 -3 -80 -12q-93 -27 -121 -61q-47 -51 -47 -125q0 -93 75.5 -152t203.5 -59q147 0 254 82q105 80 114 221z" />
    <glyph glyph-name="b" unicode="b" horiz-adv-x="1177" 
d="M137 442v992h142v-574q102 199 374 199q441 3 441 -488v-129q0 -214 -129 -346q-128 -131 -351 -131q-222 0 -350 131q-127 133 -127 346zM954 442v129q0 194 -84.5 282.5t-255.5 88.5q-170 0 -252.5 -88t-82.5 -283v-129q0 -168 88 -264t247 -96q160 0 250 96t90 264z
" />
    <glyph glyph-name="c" unicode="c" horiz-adv-x="1157" 
d="M125 440l2 131q0 246 123 367t354 121q392 0 445 -348h-125q-26 125 -103 178t-217 53q-171 0 -254.5 -88.5t-83.5 -282.5v-131q0 -172 87.5 -267t250.5 -95q262 0 320 233h125q-31 -166 -146.5 -257t-298.5 -91q-221 0 -350 128t-129 349z" />
    <glyph glyph-name="d" unicode="d" horiz-adv-x="1181" 
d="M899 862v574h141v-1436h-120l-5 174q-56 -99 -152 -153t-224 -54q-205 0 -330 131t-125 348v129q0 244 116 365t326 121q274 0 373 -199zM899 446v129q0 195 -83 283t-253 88q-171 0 -254.5 -88.5t-83.5 -282.5v-129q0 -168 89 -264t249 -96t248 95.5t88 264.5z" />
    <glyph glyph-name="e" unicode="e" horiz-adv-x="1222" 
d="M125 442v129q0 245 127.5 366.5t361.5 121.5q237 0 365.5 -121.5t128.5 -366.5v-39l-2 -28h-840v-80q0 -168 91.5 -264.5t256.5 -96.5q148 0 237.5 77t106.5 214h140q-26 -180 -154.5 -284.5t-329.5 -104.5q-225 0 -355.5 132t-133.5 345zM266 590h701q0 193 -88 282
t-265 89q-175 0 -261.5 -89t-86.5 -282z" />
    <glyph glyph-name="f" unicode="f" horiz-adv-x="612" 
d="M422 1442h129v-94h-82q-51 0 -81 -29t-30 -82v-213h193v-94h-193v-930h-141v930h-160v94h160v213q0 93 57 149t148 56z" />
    <glyph glyph-name="g" unicode="g" horiz-adv-x="1196" 
d="M121 475v107q0 220 115.5 347.5t316.5 127.5q127 0 224 -54t155 -153l2 174h123v-1016q0 -210 -113.5 -306.5t-331.5 -96.5q-182 0 -295.5 73.5t-136.5 217.5h119q40 -208 313 -205q154 0 228.5 66.5t74.5 217.5v220q-95 -195 -372 -195q-422 3 -422 475zM915 481v107
q0 168 -88 264t-247 96q-156 0 -237 -94t-81 -266v-107q0 -199 76 -285.5t242 -86.5q169 0 252 88.5t83 283.5z" />
    <glyph glyph-name="h" unicode="h" horiz-adv-x="1130" 
d="M145 0v1434h140v-574q102 199 370 199q199 0 292 -112t93 -363v-584h-139v571q0 204 -63 287.5t-220 83.5q-167 0 -250 -89.5t-83 -281.5v-571h-140z" />
    <glyph glyph-name="i" unicode="i" horiz-adv-x="405" 
d="M143 1210v232h142v-232h-142zM143 0v1024h142v-1024h-142z" />
    <glyph glyph-name="j" unicode="j" horiz-adv-x="430" 
d="M160 1210v232h141v-232h-141zM160 -143v1167h141v-1194q0 -81 -47 -130.5t-139 -61.5q-63 -5 -78 -5h-33v103q52 0 62 2q50 7 72 35.5t22 83.5z" />
    <glyph glyph-name="k" unicode="k" horiz-adv-x="1097" 
d="M145 0v1434h142v-891l530 485h174l-442 -403l504 -625h-166l-430 530l-170 -151v-379h-142z" />
    <glyph glyph-name="l" unicode="l" horiz-adv-x="417" 
d="M145 0v1434h142v-1434h-142z" />
    <glyph glyph-name="m" unicode="m" horiz-adv-x="1724" 
d="M143 1024h131v-164q88 196 316 199q219 3 287 -170q95 170 333 170q194 0 284.5 -112.5t90.5 -362.5v-584h-141v573q0 206 -60 291q-58 82 -210 82q-109 -2 -169 -45t-83 -139q12 -83 12 -189v-573h-139v573q0 208 -52.5 290.5t-181.5 82.5q-276 0 -276 -373v-573h-142
v1024z" />
    <glyph glyph-name="n" unicode="n" horiz-adv-x="1173" 
d="M143 1024h129v-164q99 199 375 199q200 0 295.5 -113.5t95.5 -361.5v-584h-139v571q0 204 -62.5 287.5t-222.5 83.5q-163 0 -247 -88t-84 -283v-571h-140v1024z" />
    <glyph glyph-name="o" unicode="o" horiz-adv-x="1226" 
d="M123 442v129q0 245 127.5 366.5t361.5 121.5q237 0 364.5 -121.5t127.5 -366.5v-129q0 -213 -133 -346q-131 -131 -359 -131q-227 0 -358 131t-131 346zM965 442v129q0 194 -88 282.5t-265 88.5q-174 0 -261 -86t-87 -285v-129q0 -168 91.5 -264t256.5 -96t259 96t94 264
z" />
    <glyph glyph-name="p" unicode="p" horiz-adv-x="1187" 
d="M145 1024h123l4 -172q53 99 151 153t226 54q205 0 330 -131t125 -348v-129q0 -244 -116 -365t-326 -121q-276 0 -375 199v-533h-142v1393zM963 451v129q0 168 -90 264t-250 96q-159 0 -247.5 -96t-88.5 -264v-129q0 -195 84 -284t254 -89t254 89t84 284z" />
    <glyph glyph-name="q" unicode="q" horiz-adv-x="1179" 
d="M86 453v129q0 212 129 344q130 133 350 133q221 0 348 -133q129 -132 129 -344v-951h-141v533q-102 -199 -375 -199q-440 0 -440 488zM901 453v129q0 168 -88.5 264t-247.5 96q-162 0 -251 -96t-89 -264v-129q0 -194 83.5 -282.5t254.5 -88.5q173 0 255.5 88t82.5 283z
" />
    <glyph glyph-name="r" unicode="r" horiz-adv-x="669" 
d="M143 1024h129v-219q94 248 371 254v-117q-175 -6 -267.5 -112t-92.5 -308v-522h-140v1024z" />
    <glyph glyph-name="s" unicode="s" horiz-adv-x="1097" 
d="M158 756v28q0 275 387 275q187 0 289.5 -68t103.5 -205v-24h-129v24q-3 175 -264 175q-251 0 -254 -166l-2 -25q0 -39 37 -73.5t98 -53.5l344 -113q209 -71 209 -249v-13q0 -138 -116.5 -220.5t-315.5 -82.5q-195 0 -309 80t-119 215v57h129v-55q2 -93 80.5 -147
t218.5 -54q138 0 216.5 51t80.5 138l2 14q3 115 -133 162l-369 121q-184 61 -184 209z" />
    <glyph glyph-name="t" unicode="t" horiz-adv-x="618" 
d="M207 1024v233h141v-233h193v-94h-193v-754q0 -47 27.5 -77.5t81.5 -30.5h84v-97h-129q-94 0 -149.5 49t-55.5 138v772h-160v94h160z" />
    <glyph glyph-name="u" unicode="u" horiz-adv-x="1171" 
d="M891 453v571h139v-1024h-129v164q-99 -199 -379 -199q-198 0 -292.5 109t-94.5 346v604h139v-571q0 -204 63 -287.5t222 -83.5q165 0 248.5 90t83.5 281z" />
    <glyph glyph-name="v" unicode="v" horiz-adv-x="1077" 
d="M539 131l313 893h145l-383 -1024h-153l-383 1024h145z" />
    <glyph glyph-name="w" unicode="w" horiz-adv-x="1611" 
d="M1128 131l265 893h139l-328 -1024h-135l-264 838l-266 -838h-136l-325 1024h139l262 -893l264 893h123z" />
    <glyph glyph-name="x" unicode="x" horiz-adv-x="1222" 
d="M608 625l318 399h168l-398 -496l416 -528h-164l-338 434l-338 -434h-163l415 528l-397 496h170z" />
    <glyph glyph-name="y" unicode="y" horiz-adv-x="1079" 
d="M547 111l327 913h142l-520 -1393h-113l127 361h-41l-387 1032h143z" />
    <glyph glyph-name="z" unicode="z" horiz-adv-x="925" 
d="M88 911v113h752v-84l-578 -827h588v-113h-772v84l577 827h-567z" />
    <glyph glyph-name="braceleft" unicode="{" horiz-adv-x="606" 
d="M401 1554h146v-94h-92q-57 0 -82 -42.5t-25 -145.5v-367q0 -98 -33.5 -186t-93.5 -123q60 -41 93.5 -125.5t33.5 -189.5v-363q0 -112 26 -152t81 -40h92v-95h-146q-101 0 -147.5 62.5t-46.5 189.5v365q0 125 -27.5 192t-103.5 107l-6 2v96l8 2q60 10 94.5 92.5
t34.5 198.5v369q0 123 46 185t148 62z" />
    <glyph glyph-name="bar" unicode="|" horiz-adv-x="389" 
d="M137 -96v1603h123v-1603h-123z" />
    <glyph glyph-name="braceright" unicode="}" horiz-adv-x="606" 
d="M59 1460v94h146q102 0 148 -60.5t46 -186.5v-369q0 -71 13.5 -133t42.5 -106t69 -52l13 -2v-96l-13 -4q-76 -40 -100.5 -109.5t-24.5 -187.5v-365q0 -126 -46 -189t-148 -63h-146v95h91q58 0 83 41.5t25 150.5v363q0 103 34 188.5t93 126.5q-60 35 -93.5 123t-33.5 186
v367q0 106 -25.5 147t-82.5 41h-91z" />
    <glyph glyph-name="asciitilde" unicode="~" horiz-adv-x="1198" 
d="M221 371l-98 55q94 175 223 190q44 9 78 9q61 0 164 -35q39 -10 90 -30.5t86 -31.5t61 -8q51 4 86.5 37.5t79.5 104.5l92 -62q-46 -72 -86 -119q-49 -54 -118 -67q-14 -2 -41 -2q-74 0 -217 55q-24 6 -63.5 21t-71 22.5t-66.5 7.5h-12q-107 -3 -187 -147z" />
    <glyph glyph-name="uni00A0" unicode="&#xa0;" horiz-adv-x="614" 
 />
    <glyph glyph-name="exclamdown" unicode="&#xa1;" horiz-adv-x="393" 
d="M145 807l-10 266h141l-10 -266h-121zM135 -369v990h141v-990h-141z" />
    <glyph glyph-name="cent" unicode="&#xa2;" horiz-adv-x="1107" 
d="M508 1053v174h117v-172q351 -18 401 -344h-125q-26 125 -101.5 178t-217.5 53q-169 0 -252.5 -88.5t-83.5 -282.5v-131q0 -171 88 -266.5t248 -95.5q263 0 321 233h123q-30 -157 -133.5 -247t-267.5 -97v-135h-117v137q-189 20 -296.5 145t-107.5 326v131q0 441 404 482z
" />
    <glyph glyph-name="sterling" unicode="&#xa3;" horiz-adv-x="1284" 
d="M125 668v110h131q-77 128 -96 185q-21 65 -21 172q0 331 457 331q424 0 430 -352h-119q-9 237 -311 234q-160 0 -236.5 -57t-72.5 -175q0 -94 22 -155q19 -47 105 -183h479v-110h-442q38 -86 38 -203v-29q-9 -150 -135 -276q62 24 133 24h11q61 0 170 -41
q106 -40 168 -43q77 0 147 36.5t147 121.5l58 -92q-87 -102 -173.5 -147.5t-191.5 -45.5q-80 0 -213 50q-128 49 -182 49q-118 0 -250 -99l-53 95q226 176 229 366q3 134 -53 234h-176z" />
    <glyph glyph-name="yen" unicode="&#xa5;" horiz-adv-x="1525" 
d="M760 696l504 738h178l-438 -631h206v-94h-268l-106 -152v-90h374v-94h-374v-373h-150v373h-373v94h373v90l-106 152h-267v94h205l-436 631h176z" />
    <glyph glyph-name="brokenbar" unicode="&#xa6;" horiz-adv-x="389" 
d="M137 860v647h123v-647h-123zM137 -96v647h123v-647h-123z" />
    <glyph glyph-name="section" unicode="&#xa7;" horiz-adv-x="1101" 
d="M160 874v29q0 275 387 275q188 0 290 -67t103 -204v-24h-131v24q-3 172 -262 172q-251 0 -254 -164l-2 -24q0 -38 35.5 -72.5t95.5 -54.5l348 -115q207 -68 207 -250v-10q0 -135 -109 -215q109 -71 109 -203v-10q0 -138 -115.5 -220.5t-314.5 -82.5q-197 0 -311.5 80.5
t-116.5 214.5v55h129v-55q2 -93 80.5 -147t218.5 -54q141 0 219 53t78 140l2 12q3 115 -133 162l-369 121q-184 61 -184 206v29q0 155 129 219q-129 62 -129 180zM713 547l-281 92q-139 -35 -139 -152l-2 -24q0 -38 31.5 -71t85.5 -52l323 -107l21 -8q92 53 92 150l2 10
q3 115 -133 162z" />
    <glyph glyph-name="dieresis" unicode="&#xa8;" horiz-adv-x="757" 
d="M137 1300v103h117v-103h-117zM502 1300v103h119v-103h-119z" />
    <glyph glyph-name="copyright" unicode="&#xa9;" horiz-adv-x="1736" 
d="M868 1468q153 0 292.5 -59.5t240 -159.5t160 -239.5t59.5 -292.5q2 -120 -35.5 -235t-108.5 -208.5t-164.5 -164.5t-208.5 -108.5t-235 -35.5q-153 0 -292.5 59.5t-239.5 160t-159.5 240t-59.5 292.5q-3 150 57 290t162 242t242 162t290 57zM1200 1290q-153 90 -332 90
q-180 0 -332.5 -88.5t-240.5 -242.5q-67 -110 -82.5 -245t17.5 -259t112.5 -233t192.5 -171q152 -88 333 -88q179 0 332.5 88.5t241.5 241.5q69 111 84.5 246.5t-18 259.5t-114 232.5t-194.5 168.5zM512 668v100q0 383 367 383q148 0 228.5 -68.5t100.5 -214.5h-88
q-25 108 -80 153.5t-161 45.5q-138 0 -205.5 -71t-67.5 -228v-100q0 -139 70.5 -216t202.5 -77q102 0 156.5 49.5t80.5 148.5h90q-24 -135 -106.5 -207.5t-220.5 -72.5q-170 0 -268.5 101t-98.5 274z" />
    <glyph glyph-name="ordfeminine" unicode="&#xaa;" horiz-adv-x="813" 
d="M238 1239h-93q18 97 88 146t179 49q134 0 203 -58.5t69 -187.5v-395h-90l-2 84q-35 -49 -98.5 -77t-137.5 -28q-110 0 -176 55.5t-61 143.5q0 56 26 88t76 57q26 13 66 19q17 2 139 14q59 2 106 10q49 8 52 33v14q0 156 -172 156q-150 3 -174 -123zM584 1020v82
q-26 -13 -123 -19q-10 -1 -23.5 -1.5t-22.5 -1t-14 -1.5q-69 0 -106 -16q-78 -30 -78 -98q2 -51 44 -83t114 -32q86 0 145.5 46.5t63.5 123.5z" />
    <glyph glyph-name="guillemotleft" unicode="&#xab;" horiz-adv-x="880" 
d="M100 469v139l281 262v-137l-203 -194l203 -193v-137zM467 469v139l281 262v-137l-203 -194l203 -193v-137z" />
    <glyph glyph-name="logicalnot" unicode="&#xac;" horiz-adv-x="1734" 
 />
    <glyph glyph-name="registered" unicode="&#xae;" horiz-adv-x="1736" 
d="M868 1468q153 0 292.5 -59.5t240 -159.5t160 -239.5t59.5 -292.5q2 -120 -35.5 -235t-108.5 -208.5t-164.5 -164.5t-208.5 -108.5t-235 -35.5q-153 0 -292.5 59.5t-239.5 160t-159.5 240t-59.5 292.5q-3 150 57 290t162 242t242 162t290 57zM1200 1290q-153 90 -332 90
q-180 0 -332.5 -88.5t-240.5 -242.5q-67 -110 -82.5 -245t17.5 -259t112.5 -233t192.5 -171q152 -88 333 -88q179 0 332.5 88.5t241.5 241.5q69 111 84.5 246.5t-18 259.5t-114 232.5t-194.5 168.5zM571 305v840h318q140 0 218.5 -53t78.5 -156v-53q0 -72 -51 -122t-142 -69
l228 -387h-105l-221 373h-229v-373h-95zM1096 885v49q0 133 -209 133h-221v-313h221q98 0 153.5 34.5t55.5 96.5z" />
    <glyph glyph-name="degree" unicode="&#xb0;" horiz-adv-x="819" 
d="M702 1176q0 -121 -84 -211q-83 -86 -208 -86q-123 0 -209 86q-84 87 -84 211q0 120 86 206t207 86q123 0 206 -86q86 -86 86 -206zM410 1384q-85 0 -148 -63q-61 -64 -61 -145q0 -90 61 -151.5t148 -61.5q91 0 151 61t60 152q0 87 -60.5 147.5t-150.5 60.5z" />
    <glyph glyph-name="plusminus" unicode="&#xb1;" horiz-adv-x="1734" 
 />
    <glyph glyph-name="twosuperior" unicode="&#xb2;" horiz-adv-x="802" 
d="M252 1176h-100v69q0 98 70.5 148.5t199.5 50.5q283 0 283 -199v-43q0 -83 -50 -149t-163 -150q-77 -54 -105 -76q-39 -27 -76 -67.5t-55 -79.5h449v-90h-584q-2 96 84 207q12 16 57 55q20 17 62 47l73 51q54 37 105 78q41 36 70.5 83t29.5 91v43q0 115 -180 115
q-170 0 -170 -115v-69z" />
    <glyph glyph-name="threesuperior" unicode="&#xb3;" horiz-adv-x="880" 
d="M260 1192h-102v53q0 199 276 199q281 0 281 -199v-61q0 -98 -101 -144q142 -41 142 -188v-59q0 -100 -86.5 -161t-235.5 -61q-145 0 -231 61.5t-86 160.5v67h104v-67q0 -140 213 -140q219 0 219 140v61q0 134 -196 137h-62v80h54q79 1 120 29.5t41 79.5v65
q0 117 -176 117q-174 0 -174 -117v-53z" />
    <glyph glyph-name="acute" unicode="&#xb4;" horiz-adv-x="538" 
d="M76 1184l233 274h133l-252 -274h-114z" />
    <glyph glyph-name="mu" unicode="&#xb5;" horiz-adv-x="1705" 
 />
    <glyph glyph-name="paragraph" unicode="&#xb6;" horiz-adv-x="1318" 
d="M571 1434h648v-123h-170v-1635h-125v1635h-281v-1635h-125v938q-187 12 -307.5 127.5t-120.5 272.5q0 197 128.5 308.5t352.5 111.5z" />
    <glyph glyph-name="cedilla" unicode="&#xb8;" horiz-adv-x="604" 
d="M152 -156l108 156h96l-75 -100q24 4 38 4q17 0 27 -2q70 -6 114 -42t44 -96q0 -76 -53.5 -116t-143.5 -45h-14q-113 0 -203 35l19 65q82 -31 170 -31q122 3 122 92q0 34 -27.5 52t-70.5 18q-60 0 -100 -27z" />
    <glyph glyph-name="onesuperior" unicode="&#xb9;" horiz-adv-x="483" 
d="M256 1434h86v-844h-104v715q-77 -77 -209 -107v84q78 18 126.5 51t100.5 101z" />
    <glyph glyph-name="ordmasculine" unicode="&#xba;" horiz-adv-x="843" 
d="M123 1061v78q0 149 77 222t220 73q145 0 223 -73t78 -222v-78q0 -129 -81.5 -210t-219.5 -81q-135 0 -216 80.5t-81 210.5zM621 1061v78q0 110 -49.5 159.5t-151.5 49.5q-99 0 -147 -49.5t-48 -159.5v-78q0 -95 51.5 -150t143.5 -55q96 0 148.5 54t52.5 151z" />
    <glyph glyph-name="guillemotright" unicode="&#xbb;" horiz-adv-x="884" 
d="M340 539l-203 194v137l281 -262v-139l-281 -260v137zM709 539l-205 194v137l280 -262v-139l-280 -260v137z" />
    <glyph glyph-name="onequarter" unicode="&#xbc;" horiz-adv-x="1587" 
d="M311 -35l670 1503h121l-668 -1503h-123zM260 1434h88v-844h-106v715q-77 -77 -209 -107v84q79 18 126.5 51t100.5 101zM840 281l413 563h103v-553h147v-88h-147v-203h-99v203h-417v78zM950 291h307v426z" />
    <glyph glyph-name="onehalf" unicode="&#xbd;" horiz-adv-x="1675" 
d="M311 -35l670 1503h121l-668 -1503h-123zM260 1434h88v-844h-106v715q-77 -77 -209 -107v84q79 18 126.5 51t100.5 101zM1106 586h-102v59q0 101 71.5 151t200.5 50q283 0 283 -201v-33q0 -83 -51 -150t-162 -147q-89 -63 -105 -75q-39 -29 -77 -70.5t-54 -77.5h449v-92
h-584q-2 102 84 207q12 16 57 55q16 13 36.5 28.5t23.5 18.5l75 51q87 62 142 117q63 63 63 135v33q0 117 -180 117q-170 0 -170 -117v-59z" />
    <glyph glyph-name="threequarters" unicode="&#xbe;" horiz-adv-x="1892" 
d="M614 -35l670 1503h121l-668 -1503h-123zM242 1190h-103v53q0 199 277 199q282 0 282 -199v-51q0 -96 -102 -143q143 -40 143 -191v-57q0 -100 -87.5 -160.5t-235.5 -60.5q-146 0 -232 60.5t-86 160.5v65h105v-65q0 -139 213 -139q219 0 219 139v59q0 136 -197 139h-61v80
h53q78 0 121 29t43 80v55q0 117 -178 117q-174 0 -174 -117v-53zM1143 281l413 563h103v-553h147v-88h-147v-203h-98v203h-418v78zM1253 291h308v426z" />
    <glyph glyph-name="questiondown" unicode="&#xbf;" horiz-adv-x="991" 
d="M457 838v260h149v-260h-149zM459 692h145q-3 -141 -49 -239t-166 -215l-31 -29q-28 -22 -57 -51q-26 -30 -51 -85t-25 -106v-51q0 -89 69 -130.5t208 -41.5q258 0 258 172v74h145v-74q0 -143 -104.5 -214t-298.5 -71q-422 0 -422 285v51q0 135 88 242q29 37 43 51
q67 62 72 62q97 94 137 176q39 74 39 194z" />
    <glyph glyph-name="Agrave" unicode="&#xc0;" horiz-adv-x="1488" 
d="M819 1593l-252 275h133l236 -275h-117zM86 0l584 1434h151l584 -1434h-156l-162 406h-684l-161 -406h-156zM436 514h619l-310 780z" />
    <glyph glyph-name="Aacute" unicode="&#xc1;" horiz-adv-x="1488" 
d="M539 1593l233 275h135l-254 -275h-114zM86 0l584 1434h151l584 -1434h-156l-162 406h-684l-161 -406h-156zM436 514h619l-310 780z" />
    <glyph glyph-name="Acircumflex" unicode="&#xc2;" horiz-adv-x="1488" 
d="M492 1593l188 275h131l188 -275h-108l-146 211l-145 -211h-108zM86 0l584 1434h151l584 -1434h-156l-162 406h-684l-161 -406h-156zM436 514h619l-310 780z" />
    <glyph glyph-name="Atilde" unicode="&#xc3;" horiz-adv-x="1488" 
d="M504 1700l-66 39q64 129 166 129q47 3 82 -13q11 -3 64 -24q96 -45 129 -45q23 0 45 16q8 6 13.5 11t9.5 8t9 10.5t7.5 10.5t10.5 16t13 20l66 -41q-38 -64 -71.5 -94.5t-74.5 -34.5q-8 -2 -26 -2q-51 0 -138 37q-10 4 -33 13.5t-35.5 14t-31 9t-35.5 4.5q-57 0 -104 -84
zM86 0l584 1434h151l584 -1434h-156l-162 406h-684l-161 -406h-156zM436 514h619l-310 780z" />
    <glyph glyph-name="Adieresis" unicode="&#xc4;" horiz-adv-x="1488" 
d="M502 1710v102h119v-102h-119zM868 1710v102h117v-102h-117zM86 0l584 1434h151l584 -1434h-156l-162 406h-684l-161 -406h-156zM436 514h619l-310 780z" />
    <glyph glyph-name="Aring" unicode="&#xc5;" horiz-adv-x="1488" 
d="M936 1774q0 -78 -57 -135.5t-136 -57.5q-77 0 -134.5 57.5t-57.5 135.5t57 135t135 57t135.5 -57t57.5 -135zM743 1898q-51 0 -86.5 -36t-35.5 -88q-1 -37 21.5 -67.5t55.5 -45t70.5 -8.5t62.5 35q29 25 35 62.5t-8 70.5t-45.5 55.5t-69.5 21.5zM86 0l584 1434h151
l584 -1434h-156l-162 406h-684l-161 -406h-156zM436 514h619l-310 780z" />
    <glyph glyph-name="AE" unicode="&#xc6;" horiz-adv-x="1796" 
d="M94 0l582 1434h1055v-123h-850v-506h817v-123h-817v-559h858v-123h-1006v406h-323l-160 -406h-156zM444 514h289v731z" />
    <glyph glyph-name="Ccedilla" unicode="&#xc7;" horiz-adv-x="1423" 
d="M111 618v183q0 665 641 665q254 0 396.5 -113.5t178.5 -357.5h-139q-41 186 -142.5 267t-293.5 81q-250 0 -372 -129t-122 -413v-183q0 -251 127 -391.5t367 -140.5q181 0 284.5 87t147.5 263h143q-43 -229 -184 -349.5t-377 -121.5h-14l-47 -65q8 2 26 2q19 0 35 -2
q63 -5 112.5 -41.5t49.5 -94.5q0 -81 -62 -122t-159 -43q-102 0 -193 39l18 65q85 -33 146 -33q145 0 145 94q0 31 -30 50.5t-68 19.5q-59 0 -100 -27l-52 37l86 125q-259 25 -403.5 197t-144.5 452z" />
    <glyph glyph-name="Egrave" unicode="&#xc8;" horiz-adv-x="1189" 
d="M713 1593l-252 275h135l233 -275h-116zM143 0v1434h998v-123h-848v-506h815v-123h-815v-559h858v-123h-1008z" />
    <glyph glyph-name="Eacute" unicode="&#xc9;" horiz-adv-x="1189" 
d="M432 1593l234 275h135l-252 -275h-117zM143 0v1434h998v-123h-848v-506h815v-123h-815v-559h858v-123h-1008z" />
    <glyph glyph-name="Ecircumflex" unicode="&#xca;" horiz-adv-x="1189" 
d="M385 1593l188 275h132l188 -275h-109l-145 211l-145 -211h-109zM143 0v1434h998v-123h-848v-506h815v-123h-815v-559h858v-123h-1008z" />
    <glyph glyph-name="Edieresis" unicode="&#xcb;" horiz-adv-x="1189" 
d="M395 1710v102h119v-102h-119zM762 1710v102h117v-102h-117zM143 0v1434h998v-123h-848v-506h815v-123h-815v-559h858v-123h-1008z" />
    <glyph glyph-name="Igrave" unicode="&#xcc;" horiz-adv-x="423" 
d="M287 1593l-252 275h133l233 -275h-114zM141 0v1434h150v-1434h-150z" />
    <glyph glyph-name="Iacute" unicode="&#xcd;" horiz-adv-x="423" 
d="M6 1593l236 275h133l-252 -275h-117zM143 0v1434h150v-1434h-150z" />
    <glyph glyph-name="Icircumflex" unicode="&#xce;" horiz-adv-x="423" 
d="M-41 1593l191 275h129l190 -275h-109l-145 211l-145 -211h-111zM143 0v1434h150v-1434h-150z" />
    <glyph glyph-name="Idieresis" unicode="&#xcf;" horiz-adv-x="423" 
d="M-29 1710v102h117v-102h-117zM336 1710v102h119v-102h-119zM143 0v1434h150v-1434h-150z" />
    <glyph glyph-name="Eth" unicode="&#xd0;" horiz-adv-x="1513" 
d="M244 797v637h477q325 0 497.5 -158t172.5 -481v-170q0 -280 -179 -453q-178 -172 -491 -172h-477v680h-131v117h131zM1241 625v170q0 270 -128.5 393t-391.5 123h-328v-514h291v-117h-291v-557h328q248 0 384 134t136 368z" />
    <glyph glyph-name="Ntilde" unicode="&#xd1;" horiz-adv-x="1427" 
d="M475 1700l-65 39q64 129 165 129q37 6 74 -8q5 -2 13 -4.5t16 -6.5q11 -3 14 -6l29 -12q96 -45 129 -45q23 0 45 16q8 6 13.5 11t9.5 8t9 10.5t7.5 10.5t10.5 16t13 20l68 -41q-40 -65 -73 -95t-74 -34q-8 -2 -27 -2q-50 0 -137 37q-4 3 -18 8.5t-30.5 12t-21.5 8.5
q-28 12 -65 12q-58 0 -105 -84zM1139 231v1203h149v-1434h-160l-837 1202v-1202h-150v1434h158z" />
    <glyph glyph-name="Ograve" unicode="&#xd2;" 
d="M858 1593l-252 275h133l236 -275h-117zM125 618l2 181q0 667 655 667q660 0 660 -667v-181q0 -293 -174 -473q-175 -178 -486 -178q-308 0 -483 178q-174 180 -174 473zM1292 618v181q0 285 -126 414.5t-384 129.5q-259 0 -383.5 -128t-124.5 -416v-181
q0 -247 133 -387.5t375 -140.5q244 0 377 140t133 388z" />
    <glyph glyph-name="Oacute" unicode="&#xd3;" 
d="M578 1593l233 275h133l-252 -275h-114zM125 618l2 181q0 667 655 667q660 0 660 -667v-181q0 -293 -174 -473q-175 -178 -486 -178q-308 0 -483 178q-174 180 -174 473zM1292 618v181q0 285 -126 414.5t-384 129.5q-259 0 -383.5 -128t-124.5 -416v-181
q0 -247 133 -387.5t375 -140.5q244 0 377 140t133 388z" />
    <glyph glyph-name="Ocircumflex" unicode="&#xd4;" 
d="M530 1593l189 275h131l188 -275h-108l-146 211l-145 -211h-109zM125 618l2 181q0 667 655 667q660 0 660 -667v-181q0 -293 -174 -473q-175 -178 -486 -178q-308 0 -483 178q-174 180 -174 473zM1292 618v181q0 285 -126 414.5t-384 129.5q-259 0 -383.5 -128
t-124.5 -416v-181q0 -247 133 -387.5t375 -140.5q244 0 377 140t133 388z" />
    <glyph glyph-name="Otilde" unicode="&#xd5;" 
d="M543 1700l-66 39q65 129 166 129q47 3 82 -13q7 -2 63 -24q96 -45 130 -45q21 0 43 16t31 27t34 49l66 -41q-38 -64 -71.5 -94.5t-76.5 -34.5q-6 -2 -24 -2q-51 0 -138 37q-4 3 -18 8.5t-30.5 12t-20.5 8.5q-28 12 -66 12q-57 0 -104 -84zM125 618v183q0 665 657 665
q660 0 660 -665v-183q0 -293 -174 -473q-175 -178 -486 -178q-308 0 -483 178q-174 180 -174 473zM1292 618v183q0 284 -126 413t-384 129t-383 -128.5t-125 -413.5v-183q0 -247 133 -387.5t375 -140.5q244 0 377 140t133 388z" />
    <glyph glyph-name="Odieresis" unicode="&#xd6;" 
d="M541 1710v102h118v-102h-118zM907 1710v102h117v-102h-117zM125 618l2 183q0 665 655 665q660 0 660 -667v-181q0 -293 -174 -473q-175 -178 -486 -178q-308 0 -483 178q-174 180 -174 473zM1292 618v181q0 285 -126 414.5t-384 129.5t-383 -128.5t-125 -413.5v-183
q0 -247 133 -387.5t375 -140.5q244 0 377 140t133 388z" />
    <glyph glyph-name="multiply" unicode="&#xd7;" horiz-adv-x="968" 
d="M397 643l-272 272l86 86l272 -272l271 270l82 -81l-271 -271l273 -272l-86 -86l-273 272l-270 -270l-82 82z" />
    <glyph glyph-name="Oslash" unicode="&#xd8;" 
d="M1087 1536h121l-63 -143q297 -146 297 -594v-181q0 -293 -174 -473q-175 -178 -486 -178q-142 0 -252 39l-49 -108h-121l68 153q-147 79 -225 226.5t-78 340.5v181q0 667 657 667q154 0 260 -32zM274 799v-181q0 -312 207 -448l510 1149q-88 24 -209 24
q-126 0 -217.5 -28.5t-158 -92t-99.5 -169t-33 -254.5zM1292 618v181q0 355 -200 475l-510 -1153q91 -31 200 -31q244 0 377 140t133 388z" />
    <glyph glyph-name="Ugrave" unicode="&#xd9;" horiz-adv-x="1415" 
d="M784 1593l-252 275h136l233 -275h-117zM1135 518v916h149v-916q0 -247 -154 -401q-155 -152 -421 -152q-263 0 -418 152q-154 154 -154 401v916h150v-916q0 -202 111 -316t311 -114q202 0 314 114t112 316z" />
    <glyph glyph-name="Uacute" unicode="&#xda;" horiz-adv-x="1415" 
d="M504 1593l233 275h135l-251 -275h-117zM1135 518v916h149v-916q0 -247 -154 -401q-155 -152 -421 -152q-263 0 -418 152q-154 154 -154 401v916h150v-916q0 -202 111 -316t311 -114q202 0 314 114t112 316z" />
    <glyph glyph-name="Ucircumflex" unicode="&#xdb;" horiz-adv-x="1415" 
d="M457 1593l190 275h129l191 -275h-111l-145 211l-146 -211h-108zM1135 518v916h149v-916q0 -247 -154 -401q-155 -152 -421 -152q-263 0 -418 152q-154 154 -154 401v916h150v-916q0 -202 111 -316t311 -114q202 0 314 114t112 316z" />
    <glyph glyph-name="Udieresis" unicode="&#xdc;" horiz-adv-x="1415" 
d="M467 1710v102h119v-102h-119zM834 1710v102h116v-102h-116zM1135 518v916h149v-916q0 -247 -154 -401q-155 -152 -421 -152q-263 0 -418 152q-154 154 -154 401v916h150v-916q0 -202 111 -316t311 -114q202 0 314 114t112 316z" />
    <glyph glyph-name="Yacute" unicode="&#xdd;" horiz-adv-x="1517" 
d="M551 1593l235 275h134l-252 -275h-117zM756 696l504 738h178l-607 -877v-557h-149v557l-604 877h176z" />
    <glyph glyph-name="Thorn" unicode="&#xde;" horiz-adv-x="1200" 
d="M143 0v1434h150v-213h330q254 0 393 -90.5t139 -274.5v-96q0 -160 -145 -260q-144 -99 -387 -99h-330v-401h-150zM1006 760v96q0 128 -94 186t-289 58h-330v-578h330q184 0 283.5 62.5t99.5 175.5z" />
    <glyph glyph-name="germandbls" unicode="&#xdf;" horiz-adv-x="1251" 
d="M287 2h-148v1143q0 321 463 321q220 0 340.5 -79.5t120.5 -241.5v-129q0 -85 -54.5 -149t-152.5 -95q133 -33 203.5 -113t70.5 -206v-91q0 -161 -143 -262q-140 -98 -385 -98h-203v121h203q185 0 283 64t98 180v90q0 133 -95.5 192.5t-293.5 59.5v106q154 1 236.5 54
t82.5 147v121q0 209 -311 209q-161 0 -238 -50.5t-77 -158.5v-1135z" />
    <glyph glyph-name="agrave" unicode="&#xe0;" horiz-adv-x="1179" 
d="M672 1184l-252 274h133l235 -274h-116zM299 756h-129q30 152 141.5 227.5t292.5 75.5q218 0 331.5 -96.5t113.5 -307.5v-655h-121l-4 182q-54 -96 -166 -157q-117 -60 -248 -60q-179 0 -289 90q-106 87 -100 232q2 78 37 133.5t90.5 83.5t125.5 45.5t143 21t143 8.5
t125 10t89 23t35 50v26q0 274 -305 277q-132 0 -208 -48t-97 -161zM909 373v159q-21 -15 -65 -24q-38 -7 -174 -16q-72 -4 -84 -5q-109 -7 -156 -20q-93 -27 -121 -61q-47 -51 -47 -125q0 -93 75.5 -152t203.5 -59q147 0 254 82q105 80 114 221z" />
    <glyph glyph-name="aacute" unicode="&#xe1;" horiz-adv-x="1179" 
d="M391 1184l234 274h135l-252 -274h-117zM299 756h-129q30 152 141.5 227.5t292.5 75.5q218 0 331.5 -96.5t113.5 -307.5v-655h-121l-4 182q-54 -96 -166 -157q-117 -60 -248 -60q-179 0 -289 90q-106 87 -100 232q2 78 37 133.5t90.5 83.5t125.5 45.5t143 21t143 8.5
t125 10t89 23t35 50v26q0 274 -305 277q-132 0 -208 -48t-97 -161zM909 373v159q-21 -15 -65 -24q-38 -7 -174 -16q-72 -4 -84 -5q-109 -7 -156 -20q-93 -27 -121 -61q-47 -51 -47 -125q0 -93 75.5 -152t203.5 -59q147 0 254 82q105 80 114 221z" />
    <glyph glyph-name="acircumflex" unicode="&#xe2;" horiz-adv-x="1179" 
d="M344 1184l188 274h132l188 -274h-109l-145 211l-145 -211h-109zM299 756h-129q30 152 141.5 227.5t292.5 75.5q218 0 331.5 -96.5t113.5 -307.5v-655h-121l-4 182q-54 -96 -166 -157q-117 -60 -248 -60q-179 0 -289 90q-106 87 -100 232q2 78 37 133.5t90.5 83.5
t125.5 45.5t143 21t143 8.5t125 10t89 23t35 50v26q0 274 -305 277q-132 0 -208 -48t-97 -161zM909 373v159q-21 -15 -65 -24q-38 -7 -174 -16q-72 -4 -84 -5q-109 -7 -156 -20q-93 -27 -121 -61q-47 -51 -47 -125q0 -93 75.5 -152t203.5 -59q147 0 254 82q105 80 114 221z
" />
    <glyph glyph-name="atilde" unicode="&#xe3;" horiz-adv-x="1179" 
d="M356 1290l-65 39q65 129 166 129q49 3 82 -12q15 -4 21 -6.5t16 -7.5t26 -11q96 -45 129 -45q21 0 45 17q22 16 30.5 26.5t33.5 48.5l67 -41q-40 -65 -73 -95t-74 -34q-8 -2 -27 -2q-50 0 -137 37q-4 3 -18 8.5t-30.5 12t-21.5 8.5q-28 12 -65 12q-58 0 -105 -84z
M299 756h-129q30 152 141.5 227.5t292.5 75.5q218 0 331.5 -96.5t113.5 -307.5v-655h-121l-4 182q-54 -96 -166 -157q-117 -60 -248 -60q-179 0 -289 90q-106 87 -100 234q2 69 30 120.5t73.5 80.5t104.5 48t123.5 26t129 11t123 7.5t104 10.5t72.5 24t28 45v26
q0 274 -305 277q-132 0 -208 -48t-97 -161zM909 373v159q-21 -15 -65 -24q-38 -7 -174 -16q-72 -4 -84 -5q-109 -7 -156 -20q-93 -27 -121 -61q-47 -51 -47 -125q0 -93 75.5 -152t203.5 -59q147 0 254 82q105 80 114 221z" />
    <glyph glyph-name="adieresis" unicode="&#xe4;" horiz-adv-x="1179" 
d="M354 1300v103h119v-103h-119zM721 1300v103h117v-103h-117zM299 756h-129q30 152 141.5 227.5t292.5 75.5q218 0 331.5 -96.5t113.5 -307.5v-655h-121l-4 182q-54 -96 -166 -157q-117 -60 -248 -60q-179 0 -289 90q-106 87 -100 234q2 69 30 120.5t73.5 80.5t104.5 48
t123.5 26t129 11t123 7.5t104 10.5t72.5 24t28 45v26q0 274 -305 277q-134 0 -209.5 -49.5t-95.5 -159.5zM909 373v159q-16 -12 -73 -26q-41 -7 -54 -8l-112 -6q-72 -4 -84 -5q-109 -7 -156 -20q-93 -27 -121 -61q-47 -51 -47 -125q0 -93 75.5 -152t203.5 -59q147 0 254 82
q105 80 114 221z" />
    <glyph glyph-name="aring" unicode="&#xe5;" horiz-adv-x="1179" 
d="M788 1364q0 -78 -56.5 -135.5t-135.5 -57.5q-76 0 -134.5 58.5t-58.5 134.5q0 78 57.5 135t135.5 57t135 -57t57 -135zM684 1452q-37 37 -87 37t-87 -37t-37 -87t37 -87t87 -37t87 37t37 87t-37 87zM299 756h-129q30 152 141.5 227.5t292.5 75.5q218 0 331.5 -96.5
t113.5 -307.5v-655h-121l-4 182q-54 -96 -166 -157q-117 -60 -248 -60q-179 0 -289 90q-106 87 -100 234q2 69 30 120.5t73.5 80.5t104.5 48t123.5 26t129 11t123 7.5t104 10.5t72.5 24t28 45v26q0 274 -305 277q-132 0 -208 -48t-97 -161zM909 373v159q-16 -12 -73 -26
q-41 -7 -54 -8q-15 -1 -47.5 -3t-64.5 -3q-71 -4 -82 -5l-78 -8q-53 -3 -80 -12q-93 -27 -121 -61q-47 -51 -47 -125q0 -93 75.5 -152t203.5 -59q150 0 254 82q105 80 114 221z" />
    <glyph glyph-name="ae" unicode="&#xe6;" horiz-adv-x="2070" 
d="M311 756h-129q30 152 141.5 227.5t292.5 75.5q336 0 410 -234q105 234 432 234q237 0 364.5 -121.5t127.5 -366.5v-39v-28h-840v-80q0 -168 91.5 -264.5t256.5 -96.5q146 0 236.5 77.5t107.5 213.5h140q-26 -180 -154.5 -284.5t-329.5 -104.5q-136 0 -238.5 53
t-158.5 150v-168h-121l-4 182q-54 -96 -166 -157q-117 -60 -248 -60q-179 0 -289 90q-106 87 -100 234q2 77 37 132.5t90.5 83t126 45t143.5 21.5t143 9t125 9.5t89 22.5t35 50v26q0 274 -306 277q-133 0 -207.5 -49.5t-97.5 -159.5zM1110 590h700q0 193 -87.5 282
t-264.5 89q-175 0 -261.5 -89t-86.5 -282zM922 373v159q-20 -15 -66 -24q-38 -7 -174 -16q-71 -4 -82 -5l-78 -8q-53 -3 -80 -12q-92 -26 -120 -61q-48 -52 -48 -125q0 -93 75.5 -152t203.5 -59q150 0 254 82q106 81 115 221z" />
    <glyph glyph-name="ccedilla" unicode="&#xe7;" horiz-adv-x="1126" 
d="M106 440v131q0 245 124.5 366.5t355.5 121.5q391 0 444 -348h-127q-24 125 -100.5 178t-216.5 53q-171 0 -254.5 -88.5t-83.5 -282.5v-131q0 -172 87.5 -267t250.5 -95q261 0 319 233h125q-31 -162 -141.5 -253t-286.5 -95l-47 -63q8 2 27 2q11 0 43 -4q59 -5 106 -41.5
t47 -92.5q0 -81 -62 -122t-159 -43q-101 0 -192 39l18 65q85 -33 147 -33q146 0 146 94q0 31 -31.5 50.5t-69.5 19.5q-59 0 -100 -27l-49 37l84 123q-188 23 -296 148.5t-108 324.5z" />
    <glyph glyph-name="egrave" unicode="&#xe8;" horiz-adv-x="1222" 
d="M688 1184l-252 274h133l236 -274h-117zM125 442v129q0 245 127.5 366.5t361.5 121.5q237 0 365.5 -121.5t128.5 -366.5v-39l-2 -28h-840v-80q0 -168 91.5 -264.5t256.5 -96.5q148 0 237.5 77t106.5 214h140q-26 -180 -154.5 -284.5t-329.5 -104.5q-225 0 -355.5 132
t-133.5 345zM266 590h701q0 193 -88 282t-265 89q-175 0 -261.5 -89t-86.5 -282z" />
    <glyph glyph-name="eacute" unicode="&#xe9;" horiz-adv-x="1222" 
d="M408 1184l233 274h135l-254 -274h-114zM125 442v129q0 245 127.5 366.5t361.5 121.5q237 0 365.5 -121.5t128.5 -366.5v-39l-2 -28h-840v-80q0 -168 91.5 -264.5t256.5 -96.5q148 0 237.5 77t106.5 214h140q-26 -180 -154.5 -284.5t-329.5 -104.5q-225 0 -355.5 132
t-133.5 345zM266 590h701q0 193 -88 282t-265 89q-175 0 -261.5 -89t-86.5 -282z" />
    <glyph glyph-name="ecircumflex" unicode="&#xea;" horiz-adv-x="1222" 
d="M360 1184l189 274h131l188 -274h-108l-146 211l-145 -211h-109zM125 442v129q0 245 127.5 366.5t361.5 121.5q237 0 365.5 -121.5t128.5 -366.5v-39l-2 -28h-840v-80q0 -168 91.5 -264.5t256.5 -96.5q148 0 237.5 77t106.5 214h140q-26 -180 -154.5 -284.5t-329.5 -104.5
q-225 0 -356 131q-130 130 -133 346zM266 590h701q0 193 -88 282t-265 89q-175 0 -261.5 -89t-86.5 -282z" />
    <glyph glyph-name="edieresis" unicode="&#xeb;" horiz-adv-x="1222" 
d="M371 1300v103h118v-103h-118zM737 1300v103h117v-103h-117zM125 442v129q0 245 127.5 366.5t361.5 121.5q237 0 365.5 -121.5t128.5 -366.5v-39l-2 -28h-840v-80q0 -168 91.5 -264.5t256.5 -96.5q148 0 237.5 77t106.5 214h140q-26 -180 -154.5 -284.5t-329.5 -104.5
q-225 0 -356 131q-130 130 -133 346zM266 590h701q0 193 -88 282t-265 89q-175 0 -261.5 -89t-86.5 -282z" />
    <glyph glyph-name="igrave" unicode="&#xec;" horiz-adv-x="419" 
d="M291 1184l-252 274h133l234 -274h-115zM143 0v1024h142v-1024h-142z" />
    <glyph glyph-name="iacute" unicode="&#xed;" horiz-adv-x="419" 
d="M10 1184l234 274h133l-252 -274h-115zM143 0v1024h142v-1024h-142z" />
    <glyph glyph-name="icircumflex" unicode="&#xee;" horiz-adv-x="419" 
d="M-37 1184l191 274h129l190 -274h-108l-146 211l-145 -211h-111zM145 0v1024h142v-1024h-142z" />
    <glyph glyph-name="idieresis" unicode="&#xef;" horiz-adv-x="419" 
d="M-25 1300v103h117v-103h-117zM340 1300v103h119v-103h-119zM145 0v1024h142v-1024h-142z" />
    <glyph glyph-name="eth" unicode="&#xf0;" horiz-adv-x="1323" 
d="M1176 1460l41 -80l-183 -96q90 -122 90 -289v-604q0 -189 -135 -309q-135 -117 -364 -117t-367 117q-135 120 -135 309v150q0 208 121 309.5t342 103.5q295 3 389 -166v252q0 109 -55 185l-209 -111l-41 78l184 98q-86 65 -215 68q-250 3 -332 -168l-80 80
q111 196 414 196q198 -3 330 -114zM975 391v150q0 164 -85 238.5t-265 74.5q-175 0 -264 -76t-89 -237v-150q0 -142 93 -222.5t260 -80.5q166 0 258 80.5t92 222.5z" />
    <glyph glyph-name="ntilde" unicode="&#xf1;" horiz-adv-x="1173" 
d="M358 1290l-65 39q65 129 166 129q48 3 82 -12q14 -4 20 -6.5t16.5 -7.5t26.5 -11q96 -45 127 -45q21 0 45 17q22 16 30.5 26t35.5 49l65 -41q-39 -64 -71.5 -94.5t-75.5 -34.5q-6 -2 -25 -2q-50 0 -137 37q-9 5 -72 29q-28 12 -63 12q-58 0 -105 -84zM143 1024h129v-164
q99 199 375 199q200 0 295.5 -113.5t95.5 -361.5v-584h-139v571q0 204 -62.5 287.5t-222.5 83.5q-167 0 -249 -89.5t-82 -281.5v-571h-140v1024z" />
    <glyph glyph-name="ograve" unicode="&#xf2;" horiz-adv-x="1226" 
d="M123 442v129q0 245 127.5 366.5t361.5 121.5q237 0 364.5 -121.5t127.5 -366.5v-129q0 -213 -133 -346q-131 -131 -359 -131q-227 0 -358 131t-131 346zM965 442v129q0 194 -88 282.5t-265 88.5q-174 0 -261 -86t-87 -285v-129q0 -168 91.5 -264t256.5 -96t259 96t94 264
zM690 1184l-252 274h133l234 -274h-115z" />
    <glyph glyph-name="oacute" unicode="&#xf3;" horiz-adv-x="1226" 
d="M123 442v129q0 245 127.5 366.5t361.5 121.5q237 0 364.5 -121.5t127.5 -366.5v-129q0 -213 -133 -346q-131 -131 -359 -131q-227 0 -358 131t-131 346zM965 442v129q0 194 -88 282.5t-265 88.5q-174 0 -261 -86t-87 -285v-129q0 -168 91.5 -264t256.5 -96t259 96t94 264
zM410 1184l233 274h133l-252 -274h-114z" />
    <glyph glyph-name="ocircumflex" unicode="&#xf4;" horiz-adv-x="1226" 
d="M360 1184l191 274h129l190 -274h-108l-146 211l-145 -211h-111zM123 442v129q0 245 127.5 366.5t361.5 121.5q237 0 364.5 -121.5t127.5 -366.5v-129q0 -213 -133 -346q-131 -131 -359 -131q-227 0 -358 131t-131 346zM965 442v129q0 194 -88 282.5t-265 88.5
q-174 0 -261 -86t-87 -285v-129q0 -168 91.5 -264t256.5 -96t259 96t94 264z" />
    <glyph glyph-name="otilde" unicode="&#xf5;" horiz-adv-x="1226" 
d="M375 1290l-66 39q65 129 166 129q24 1 45.5 -2.5t33.5 -8t34 -13.5t33 -13q96 -45 127 -45q21 0 45 17q7 5 11.5 8.5t9.5 8.5t7 7.5t7.5 9t7.5 10t9.5 14l12.5 17.5l66 -41q-38 -64 -71.5 -94.5t-76.5 -34.5q-6 -2 -24 -2q-51 0 -138 37q-11 6 -71 29q-28 12 -66 12
q-55 0 -102 -84zM123 442v129q0 245 127.5 366.5t361.5 121.5q237 0 364.5 -121.5t127.5 -366.5v-129q0 -213 -133 -346q-131 -131 -359 -131q-227 0 -358 131t-131 346zM965 442v129q0 194 -88 282.5t-265 88.5q-174 0 -261 -86t-87 -285v-129q0 -168 91.5 -264t256.5 -96
t259 96t94 264z" />
    <glyph glyph-name="odieresis" unicode="&#xf6;" horiz-adv-x="1226" 
d="M123 442v129q0 245 127.5 366.5t361.5 121.5q237 0 364.5 -121.5t127.5 -366.5v-129q0 -213 -133 -346q-131 -131 -359 -131q-227 0 -358 131t-131 346zM965 442v129q0 194 -88 282.5t-265 88.5q-174 0 -261 -86t-87 -285v-129q0 -168 91.5 -264t256.5 -96t259 96t94 264
zM373 1300v103h116v-103h-116zM737 1300v103h119v-103h-119z" />
    <glyph glyph-name="divide" unicode="&#xf7;" horiz-adv-x="993" 
d="M434 852v235h121v-235h-121zM53 588v114h887v-114h-887zM434 195v235h121v-235h-121z" />
    <glyph glyph-name="oslash" unicode="&#xf8;" horiz-adv-x="1232" 
d="M846 1126h88l-53 -120q227 -111 227 -435v-129q0 -213 -133 -346q-131 -131 -361 -131q-100 0 -182 27l-43 -94h-90l55 127q-109 60 -169 168.5t-60 248.5v129q0 245 127.5 366.5t361.5 121.5q105 0 191 -25zM266 571v-129q0 -209 140 -305l352 789q-66 16 -144 16
q-172 0 -260 -86.5t-88 -284.5zM967 442v129q0 239 -136 322l-352 -791q59 -20 135 -20q166 0 259.5 96t93.5 264z" />
    <glyph glyph-name="ugrave" unicode="&#xf9;" horiz-adv-x="1171" 
d="M891 453v571h139v-1024h-129v164q-99 -199 -379 -199q-198 0 -292.5 109t-94.5 346v604h139v-571q0 -204 63 -287.5t222 -83.5q165 0 248.5 90t83.5 281zM659 1184l-251 274h133l233 -274h-115z" />
    <glyph glyph-name="uacute" unicode="&#xfa;" horiz-adv-x="1171" 
d="M891 453v571h139v-1024h-129v164q-99 -199 -379 -199q-198 0 -292.5 109t-94.5 346v604h139v-571q0 -204 63 -287.5t222 -83.5q165 0 248.5 90t83.5 281zM379 1184l233 274h133l-251 -274h-115z" />
    <glyph glyph-name="ucircumflex" unicode="&#xfb;" horiz-adv-x="1171" 
d="M330 1184l190 274h129l191 -274h-109l-145 211l-146 -211h-110zM891 453v571h139v-1024h-129v164q-99 -199 -379 -199q-198 0 -292.5 109t-94.5 346v604h139v-571q0 -204 63 -287.5t222 -83.5q165 0 248.5 90t83.5 281z" />
    <glyph glyph-name="udieresis" unicode="&#xfc;" horiz-adv-x="1171" 
d="M342 1300v103h119v-103h-119zM707 1300v103h118v-103h-118zM891 453v571h139v-1024h-129v164q-99 -199 -379 -199q-198 0 -292.5 109t-94.5 346v604h139v-571q0 -204 63 -287.5t222 -83.5q165 0 248.5 90t83.5 281z" />
    <glyph glyph-name="yacute" unicode="&#xfd;" horiz-adv-x="1079" 
d="M336 1184l235 274h134l-252 -274h-117zM547 111l327 913h142l-520 -1393h-113l127 361h-41l-387 1032h143z" />
    <glyph glyph-name="thorn" unicode="&#xfe;" horiz-adv-x="1146" 
d="M145 -369v1803h142v-560q99 185 362 185q214 0 334.5 -123.5t120.5 -364.5v-131q0 -219 -123 -348q-121 -127 -319 -127q-129 0 -226.5 54t-148.5 153v-541h-142zM963 440v131q0 369 -338 369t-338 -352v-148q0 -172 87.5 -267t250.5 -95t250.5 95t87.5 267z" />
    <glyph glyph-name="ydieresis" unicode="&#xff;" horiz-adv-x="1079" 
d="M547 111l327 913h142l-520 -1393h-113l127 361h-41l-387 1032h143zM301 1300v103h117v-103h-117zM666 1300v103h118v-103h-118z" />
    <glyph glyph-name="Amacron" unicode="&#x100;" horiz-adv-x="1488" 
d="M86 0l584 1434h151l584 -1434h-156l-162 406h-684l-161 -406h-156zM436 514h619l-310 780zM496 1759v99h497v-99h-497z" />
    <glyph glyph-name="amacron" unicode="&#x101;" horiz-adv-x="1179" 
d="M299 756h-129q30 152 141.5 227.5t292.5 75.5q218 0 331.5 -96.5t113.5 -307.5v-655h-121l-4 182q-50 -95 -165.5 -156t-248.5 -61q-179 0 -289 90q-106 87 -100 234q2 69 30 120.5t73.5 80.5t104.5 48t123.5 26t129 11t123 7.5t104 10.5t72.5 24t28 45v26
q0 274 -305 277q-134 0 -209.5 -49.5t-95.5 -159.5zM909 373v159q-34 -22 -102 -30q-64 -8 -137 -10q-71 -4 -82 -5l-78 -8q-53 -3 -80 -12q-93 -27 -121 -61q-47 -51 -47 -125q0 -93 75.5 -152t203.5 -59q147 0 254 82q105 80 114 221zM348 1350v98h498v-98h-498z" />
    <glyph glyph-name="Abreve" unicode="&#x102;" horiz-adv-x="1488" 
d="M952 1868h68q-7 -115 -85.5 -183.5t-197.5 -68.5q-118 0 -195.5 68.5t-84.5 183.5h67q8 -80 64.5 -125t150.5 -45q93 0 148.5 45t64.5 125zM86 0l584 1434h151l584 -1434h-156l-162 406h-684l-161 -406h-156zM436 514h619l-310 780z" />
    <glyph glyph-name="abreve" unicode="&#x103;" horiz-adv-x="1179" 
d="M805 1458h67q-7 -115 -85 -183.5t-197 -68.5q-118 0 -196 68.5t-85 183.5h68q8 -80 64.5 -125t150.5 -45q92 0 148.5 45t64.5 125zM299 756h-129q30 152 141.5 227.5t292.5 75.5q218 0 331.5 -96.5t113.5 -307.5v-655h-121l-4 182q-54 -96 -166 -157q-117 -60 -248 -60
q-179 0 -289 90q-106 87 -100 232q2 78 37 133.5t90.5 83.5t125.5 45.5t143 21t143 8.5t125 10t89 23t35 50v26q0 274 -305 277q-132 0 -208 -48t-97 -161zM909 373v159q-16 -12 -73 -26q-41 -7 -54 -8q-15 -1 -47.5 -3t-64.5 -3q-71 -4 -82 -5l-78 -8q-53 -3 -80 -12
q-93 -27 -121 -61q-47 -51 -47 -125q0 -93 75.5 -152t203.5 -59q150 0 254 82q105 80 114 221z" />
    <glyph glyph-name="Aogonek" unicode="&#x104;" horiz-adv-x="1488" 
d="M86 0l584 1434h151l584 -1436h-74q-173 -81 -182 -197v-10q0 -44 32 -73t87 -29q75 0 135 63l39 -61q-88 -82 -185 -82q-87 -1 -138.5 44t-51.5 118v22q8 63 56 119t126 88l-162 406h-684l-161 -406h-156zM436 514h619l-310 780z" />
    <glyph glyph-name="aogonek" unicode="&#x105;" horiz-adv-x="1179" 
d="M299 756h-129q30 152 141.5 227.5t292.5 75.5q218 0 331.5 -96.5t113.5 -307.5v-655l-54 -8q-80 -40 -121.5 -91t-46.5 -100v-10q0 -44 32 -73t87 -29q75 0 135 63l39 -61q-88 -82 -184 -82q-86 -1 -138.5 44t-52.5 118v22q8 63 56.5 119t126.5 88l-4 182
q-50 -95 -165.5 -156t-248.5 -61q-179 0 -289 90q-106 87 -100 234q2 69 30 120.5t73.5 80.5t104.5 48t123.5 26t129 11t123 7.5t104 10.5t72.5 24t28 45v26q0 274 -305 277q-134 0 -209.5 -49.5t-95.5 -159.5zM909 373v159q-21 -15 -65 -24q-38 -7 -174 -16q-71 -4 -82 -5
l-78 -8q-53 -3 -80 -12q-93 -27 -121 -61q-47 -51 -47 -125q0 -93 75.5 -152t203.5 -59q150 0 254 82q105 80 114 221z" />
    <glyph glyph-name="Cacute" unicode="&#x106;" horiz-adv-x="1454" 
d="M520 1593l234 275h135l-252 -275h-117zM125 618v181q0 667 643 667q254 0 395 -113t180 -358h-141q-38 186 -140 267t-294 81q-252 0 -374 -129t-122 -415v-181q0 -250 128.5 -391t367.5 -141q181 0 284.5 87t147.5 263h141q-43 -230 -186.5 -350.5t-386.5 -120.5
q-302 0 -473 174q-170 176 -170 479z" />
    <glyph glyph-name="cacute" unicode="&#x107;" horiz-adv-x="1157" 
d="M373 1184l233 274h135l-252 -274h-116zM125 440l2 131q0 246 123 367t354 121q392 0 445 -348h-125q-26 125 -103 178t-217 53q-171 0 -254.5 -88.5t-83.5 -282.5v-131q0 -172 87.5 -267t250.5 -95q262 0 320 233h125q-31 -166 -146.5 -257t-298.5 -91q-221 0 -350 128
t-129 349z" />
    <glyph glyph-name="Cdotaccent" unicode="&#x10a;" horiz-adv-x="1454" 
d="M668 1710v102h118v-102h-118zM125 618v181q0 667 643 667q254 0 395.5 -114t179.5 -357h-141q-38 186 -140 267t-294 81q-252 0 -374 -129t-122 -415v-181q0 -250 128.5 -391t367.5 -141q183 0 285.5 90t146.5 260h141q-43 -230 -186.5 -350.5t-386.5 -120.5
q-302 0 -473 174q-170 176 -170 479z" />
    <glyph glyph-name="cdotaccent" unicode="&#x10b;" horiz-adv-x="1157" 
d="M520 1300v103h119v-103h-119zM125 440l2 131q0 246 123 367t354 121q392 0 445 -348h-125q-26 125 -103 178t-217 53q-171 0 -254.5 -88.5t-83.5 -282.5v-131q0 -172 87.5 -267t250.5 -95q262 0 320 233h125q-31 -166 -146.5 -257t-298.5 -91q-221 0 -350 128t-129 349z
" />
    <glyph glyph-name="Ccaron" unicode="&#x10c;" horiz-adv-x="1454" 
d="M725 1657l145 211h111l-190 -275h-129l-191 275h109zM125 618v181q0 667 643 667q254 0 395 -113t180 -358h-141q-38 186 -140 267t-294 81q-252 0 -374 -129t-122 -415v-181q0 -250 128.5 -391t367.5 -141q181 0 284.5 87t147.5 263h141q-43 -230 -186.5 -350.5
t-386.5 -120.5q-302 0 -473 174q-170 176 -170 479z" />
    <glyph glyph-name="ccaron" unicode="&#x10d;" horiz-adv-x="1157" 
d="M578 1247l147 211h109l-191 -274h-129l-190 274h108zM125 440l2 131q0 246 123 367t354 121q392 0 445 -348h-125q-26 125 -103 178t-217 53q-171 0 -254.5 -88.5t-83.5 -282.5v-131q0 -172 87.5 -267t250.5 -95q262 0 320 233h125q-31 -166 -146.5 -257t-298.5 -91
q-221 0 -350 128t-129 349z" />
    <glyph glyph-name="Dcaron" unicode="&#x10e;" horiz-adv-x="1411" 
d="M707 1657l145 211h109l-191 -275h-129l-188 275h108zM143 0v1434h478q325 0 497 -157.5t172 -481.5v-170q0 -281 -178 -453t-491 -172h-478zM1141 625v170q0 270 -128.5 393t-391.5 123h-328v-1188h328q246 0 383 134t137 368z" />
    <glyph glyph-name="dcaron" unicode="&#x10f;" horiz-adv-x="1449" 
d="M1251 1266v209h119v-209q0 -69 -44.5 -118t-127.5 -61v74q53 35 53 105zM899 862v574h141v-1436h-120l-5 174q-56 -99 -152 -153t-224 -54q-205 0 -330 131t-125 348v129q0 244 116 365t326 121q274 0 373 -199zM899 446v129q0 195 -83 283t-253 88q-171 0 -254.5 -88.5
t-83.5 -282.5v-129q0 -168 89 -264t249 -96t248 95.5t88 264.5z" />
    <glyph glyph-name="Dcroat" unicode="&#x110;" horiz-adv-x="1515" 
d="M244 797v637h477q325 0 497.5 -158t172.5 -481v-170q0 -280 -179 -453q-178 -172 -491 -172h-477v680h-131v117h131zM1241 625v170q0 270 -128.5 393t-391.5 123h-328v-514h291v-117h-291v-557h328q248 0 384 134t136 368z" />
    <glyph glyph-name="Emacron" unicode="&#x112;" horiz-adv-x="1189" 
d="M143 0v1434h998v-123h-848v-506h815v-123h-815v-559h858v-123h-1008zM389 1759v99h498v-99h-498z" />
    <glyph glyph-name="emacron" unicode="&#x113;" horiz-adv-x="1222" 
d="M125 442v129q0 245 127.5 366.5t361.5 121.5q237 0 365.5 -121.5t128.5 -366.5v-39l-2 -28h-840v-80q0 -168 91.5 -264.5t256.5 -96.5q148 0 237.5 77t106.5 214h140q-26 -180 -154.5 -284.5t-329.5 -104.5q-225 0 -355.5 132t-133.5 345zM266 590h701q0 193 -88 282
t-265 89q-175 0 -261.5 -89t-86.5 -282zM365 1350v98h497v-98h-497z" />
    <glyph glyph-name="Edotaccent" unicode="&#x116;" horiz-adv-x="1189" 
d="M580 1710v102h118v-102h-118zM143 0v1434h998v-123h-848v-506h815v-123h-815v-559h858v-123h-1008z" />
    <glyph glyph-name="edotaccent" unicode="&#x117;" horiz-adv-x="1222" 
d="M125 442v129q0 245 127.5 366.5t361.5 121.5q237 0 365.5 -121.5t128.5 -366.5v-39l-2 -28h-840v-80q0 -168 91.5 -264.5t256.5 -96.5q148 0 237.5 77t106.5 214h140q-26 -180 -154.5 -284.5t-329.5 -104.5q-225 0 -355.5 132t-133.5 345zM266 590h701q0 193 -88 282
t-265 89q-175 0 -261.5 -89t-86.5 -282zM555 1300v103h117v-103h-117z" />
    <glyph glyph-name="Eogonek" unicode="&#x118;" horiz-adv-x="1189" 
d="M143 0v1434h998v-123h-848v-506h815v-123h-815v-559h858v-123h-104q-93 -43 -137 -97t-48 -102q-2 -2 -2 -10q0 -44 32 -73t87 -29q77 0 137 63l39 -61q-88 -82 -186 -82q-86 -1 -138.5 44t-52.5 118q0 14 2 22q6 61 53.5 116.5t127.5 90.5h-818z" />
    <glyph glyph-name="eogonek" unicode="&#x119;" horiz-adv-x="1222" 
d="M125 442v129q0 245 127.5 366.5t361.5 121.5q237 0 365.5 -121.5t128.5 -366.5v-39l-2 -28h-840v-80q0 -168 91.5 -264.5t256.5 -96.5q148 0 237.5 77t106.5 214h140q-20 -143 -109 -241.5t-229 -130.5q-139 -80 -148 -181v-10q0 -45 30.5 -72.5t88.5 -27.5q71 0 135 61
l39 -59q-82 -82 -184 -82q-87 -1 -140 44t-53 118q0 14 2 22q15 101 117 172q-10 -2 -45 -2q-221 3 -347.5 134.5t-129.5 342.5zM266 590h701q0 193 -88 282t-265 89q-175 0 -261.5 -89t-86.5 -282z" />
    <glyph glyph-name="Ecaron" unicode="&#x11a;" horiz-adv-x="1189" 
d="M637 1657l145 211h111l-191 -275h-129l-190 275h109zM143 0v1434h998v-123h-848v-506h815v-123h-815v-559h858v-123h-1008z" />
    <glyph glyph-name="ecaron" unicode="&#x11b;" horiz-adv-x="1222" 
d="M125 442v129q0 245 127.5 366.5t361.5 121.5q237 0 365.5 -121.5t128.5 -366.5v-39l-2 -28h-840v-80q0 -168 91.5 -264.5t256.5 -96.5q148 0 237.5 77t106.5 214h140q-26 -180 -154.5 -284.5t-329.5 -104.5q-225 0 -355.5 132t-133.5 345zM266 590h701q0 193 -88 282
t-265 89q-175 0 -261.5 -89t-86.5 -282zM612 1247l146 211h110l-190 -274h-129l-191 274h109z" />
    <glyph glyph-name="Gbreve" unicode="&#x11e;" horiz-adv-x="1542" 
d="M979 1868h68q-7 -115 -85 -183.5t-196 -68.5t-195.5 68.5t-87.5 183.5h70q6 -80 62.5 -125t150.5 -45t149.5 45t63.5 125zM125 618l2 181q0 667 655 667q550 0 629 -460h-149q-36 179 -154 258t-326 79q-126 0 -217.5 -28.5t-158 -92t-99.5 -169t-33 -254.5v-181
q0 -247 133 -387.5t375 -140.5q225 0 350 123.5t136 347.5v51h-471v101h610v-713h-104l-5 262q-144 -295 -516 -295q-308 0 -483 178q-174 180 -174 473z" />
    <glyph glyph-name="gbreve" unicode="&#x11f;" horiz-adv-x="1196" 
d="M807 1458h67q-7 -115 -85 -183.5t-197 -68.5q-118 0 -196 68.5t-85 183.5h68q8 -80 64.5 -125t148.5 -45q94 0 150.5 45t64.5 125zM121 475v107q0 220 115.5 347.5t316.5 127.5q127 0 224 -54t155 -153l2 174h123v-1016q0 -210 -113.5 -306.5t-331.5 -96.5
q-182 0 -295.5 73.5t-136.5 217.5h119q40 -208 313 -205q154 0 228.5 66.5t74.5 217.5v220q-95 -195 -372 -195q-422 3 -422 475zM915 481v107q0 168 -88 264t-247 96q-156 0 -237 -94t-81 -266v-107q0 -199 76 -285.5t242 -86.5q169 0 252 88.5t83 283.5z" />
    <glyph glyph-name="Gdotaccent" unicode="&#x120;" horiz-adv-x="1542" 
d="M713 1710v102h118v-102h-118zM125 618l2 181q0 667 655 667q550 0 629 -460h-149q-36 179 -154 258t-326 79q-259 0 -383.5 -128t-124.5 -416v-181q0 -247 133 -387.5t375 -140.5q225 0 350 123.5t136 347.5v51h-471v101h610v-713h-104l-5 262q-147 -295 -516 -295
q-308 0 -483 178q-174 180 -174 473z" />
    <glyph glyph-name="gdotaccent" unicode="&#x121;" horiz-adv-x="1196" 
d="M121 475v107q0 220 115.5 347.5t316.5 127.5q127 0 224 -54t155 -153l2 174h123v-1016q0 -210 -113.5 -306.5t-331.5 -96.5q-182 0 -295.5 73.5t-136.5 217.5h119q40 -208 313 -205q154 0 228.5 66.5t74.5 217.5v220q-95 -195 -372 -195q-422 3 -422 475zM915 481v107
q0 168 -88 264t-247 96q-156 0 -237 -94t-81 -266v-107q0 -199 76 -285.5t242 -86.5q169 0 252 88.5t83 283.5zM541 1300v103h116v-103h-116z" />
    <glyph glyph-name="Gcommaaccent" unicode="&#x122;" horiz-adv-x="1542" 
d="M125 618l2 181q0 667 655 667q550 0 629 -460h-149q-36 179 -154 258t-326 79q-259 0 -383.5 -128t-124.5 -416v-181q0 -247 133 -387.5t375 -140.5q225 0 350 123.5t136 347.5v51h-471v101h610v-713h-104l-5 262q-147 -295 -516 -295q-308 0 -483 178q-174 180 -174 473
zM739 -272v143h119v-143q0 -70 -44.5 -118.5t-129.5 -60.5v72q55 34 55 107z" />
    <glyph glyph-name="gcommaaccent" unicode="&#x123;" horiz-adv-x="1196" 
d="M621 1239h-119v145q0 69 44.5 118t127.5 61v-74q-53 -35 -53 -105v-145zM121 475v107q0 220 115.5 347.5t316.5 127.5q128 0 225.5 -54t153.5 -153l2 174h123v-1016q0 -210 -113.5 -306.5t-331.5 -96.5q-182 0 -295.5 73.5t-136.5 217.5h119q40 -208 313 -205
q154 0 228.5 66.5t74.5 217.5v220q-95 -195 -372 -195q-422 3 -422 475zM915 481v107q0 168 -88 264t-247 96q-156 0 -237 -94t-81 -266v-107q0 -199 76 -285.5t242 -86.5q169 0 252 88.5t83 283.5z" />
    <glyph glyph-name="Hbar" unicode="&#x126;" horiz-adv-x="1456" 
d="M1143 1176v258h149v-258h152v-109h-152v-1067h-149v682h-828v-682h-149v1067h-154v109h154v258h149v-258h828zM315 805h828v262h-828v-262z" />
    <glyph glyph-name="hbar" unicode="&#x127;" horiz-adv-x="1222" 
d="M236 1303v131h139v-131h340v-93h-340v-350q99 199 368 199q199 0 293 -110t94 -365v-584h-139v571q0 205 -62 288t-222 83q-167 0 -249.5 -89.5t-82.5 -281.5v-571h-139v1210h-195v93h195z" />
    <glyph glyph-name="Itilde" unicode="&#x128;" horiz-adv-x="423" 
d="M-27 1700l-65 39q64 129 166 129q49 3 84 -13q9 -3 63 -24q96 -45 127 -45q23 0 45 16q7 5 11.5 8.5t9.5 8.5l7.5 7.5t8 9.5t7.5 10t10 14.5t12 17.5l65 -41q-39 -64 -71.5 -94.5t-75.5 -34.5q-8 -2 -25 -2q-50 0 -137 37q-9 5 -72 29q-28 12 -65 12q-55 0 -105 -84z
M145 0v1434h150v-1434h-150z" />
    <glyph glyph-name="itilde" unicode="&#x129;" horiz-adv-x="419" 
d="M-23 1290l-65 39q64 129 168 129q49 3 82 -12q14 -4 20 -6.5t16.5 -7.5t26.5 -11q96 -45 127 -45q21 0 45 17q22 16 30.5 26t35.5 49l65 -41q-39 -64 -71.5 -94.5t-75.5 -34.5q-6 -2 -25 -2q-50 0 -137 37q-9 5 -72 29q-28 12 -65 12q-58 0 -105 -84zM147 0v1024h142
v-1024h-142z" />
    <glyph glyph-name="Imacron" unicode="&#x12a;" horiz-adv-x="423" 
d="M-37 1759v99h498v-99h-498zM143 0v1434h150v-1434h-150z" />
    <glyph glyph-name="imacron" unicode="&#x12b;" horiz-adv-x="419" 
d="M-33 1350v98h498v-98h-498zM145 0v1024h142v-1024h-142z" />
    <glyph glyph-name="Iogonek" unicode="&#x12e;" horiz-adv-x="423" 
d="M141 0v1434h150v-1434q-173 -84 -182 -199v-8q0 -43 30 -73.5t88 -30.5q75 0 135 63l39 -61q-88 -82 -184 -82q-85 -1 -137.5 44.5t-52.5 115.5v24q11 63 56.5 118.5t117.5 86.5z" />
    <glyph glyph-name="iogonek" unicode="&#x12f;" horiz-adv-x="419" 
d="M158 1300v103h116v-103h-116zM143 0v1024h142v-1026q-88 -42 -133.5 -94.5t-47.5 -102.5v-8q0 -44 29.5 -74t87.5 -30q77 0 137 63l39 -61q-88 -82 -186 -82q-85 -1 -138 44.5t-53 115.5q0 12 3 24q8 61 54 116.5t120 90.5h-54z" />
    <glyph glyph-name="dotlessi" unicode="&#x131;" horiz-adv-x="419" 
d="M145 0v1024h142v-1024h-142z" />
    <glyph glyph-name="IJ" unicode="&#x132;" horiz-adv-x="1292" 
d="M1008 420v1014h149v-1014q0 -204 -129 -330q-128 -125 -344 -125q-129 0 -233 55v109q98 -43 211 -43h22q154 1 239 89.5t85 244.5zM143 0v1434h150v-1434h-150z" />
    <glyph glyph-name="ij" unicode="&#x133;" horiz-adv-x="837" 
d="M143 1210v232h142v-232h-142zM567 1210v232h142v-232h-142zM143 0v1024h142v-1024h-142zM567 -143v1167h142v-1194q0 -81 -47.5 -130.5t-139.5 -61.5q-63 -5 -78 -5h-32v103q51 0 61 2q50 7 72 35.5t22 83.5z" />
    <glyph glyph-name="Kcommaaccent" unicode="&#x136;" horiz-adv-x="1447" 
d="M293 672l848 762h188l-672 -603l674 -831h-176l-600 733l-262 -233v-500h-150v1434h150v-762zM672 -272v143h116v-143q0 -70 -44 -118.5t-128 -60.5v72q56 35 56 107z" />
    <glyph glyph-name="kcommaaccent" unicode="&#x137;" horiz-adv-x="1097" 
d="M145 0v1434h142v-891l530 485h174l-442 -403l504 -625h-166l-430 530l-170 -151v-379h-142zM532 -272v143h119v-143q0 -70 -44 -118.5t-128 -60.5v72q53 35 53 107z" />
    <glyph glyph-name="Lacute" unicode="&#x139;" horiz-adv-x="1101" 
d="M336 1593l233 275h133l-251 -275h-115zM143 0v1434h150v-1311h792v-123h-942z" />
    <glyph glyph-name="lacute" unicode="&#x13a;" horiz-adv-x="417" 
d="M4 1593l234 275h133l-252 -275h-115zM143 0v1434h142v-1434h-142z" />
    <glyph glyph-name="Lcommaaccent" unicode="&#x13b;" horiz-adv-x="1101" 
d="M143 0v1434h150v-1311h792v-123h-942zM508 -272v143h119v-143q0 -70 -44 -118.5t-128 -60.5v72q53 35 53 107z" />
    <glyph glyph-name="lcommaaccent" unicode="&#x13c;" horiz-adv-x="417" 
d="M143 0v1434h142v-1434h-142zM178 -272v143h117v-143q0 -68 -42 -118t-130 -61v72q55 34 55 107z" />
    <glyph glyph-name="Lcaron" unicode="&#x13d;" horiz-adv-x="1101" 
d="M678 1343v209h117v-209q0 -69 -44 -117.5t-128 -60.5v74q55 34 55 104zM143 0v1434h150v-1311h792v-123h-942z" />
    <glyph glyph-name="lcaron" unicode="&#x13e;" horiz-adv-x="657" 
d="M502 1343v209h119v-209q0 -69 -44.5 -117.5t-127.5 -60.5v74q53 35 53 104zM145 0v1434h142v-1434h-142z" />
    <glyph glyph-name="Ldot" unicode="&#x13f;" horiz-adv-x="1101" 
d="M143 0v1434h150v-1311h792v-123h-942zM707 582v258h141v-258h-141z" />
    <glyph glyph-name="ldot" unicode="&#x140;" horiz-adv-x="634" 
d="M420 512v258h139v-258h-139zM145 0v1434h142v-1434h-142z" />
    <glyph glyph-name="Lslash" unicode="&#x141;" horiz-adv-x="1214" 
d="M246 637v797h149v-693l430 301v-157l-430 -303v-459h793v-123h-942v477l-140 -96v160z" />
    <glyph glyph-name="lslash" unicode="&#x142;" horiz-adv-x="815" 
d="M221 631v803h139v-705l420 293v-150l-420 -294v-578h-139v479l-137 -96v152z" />
    <glyph glyph-name="Nacute" unicode="&#x143;" horiz-adv-x="1427" 
d="M510 1593l233 275h136l-252 -275h-117zM1139 231v1203h149v-1434h-160l-837 1202v-1202h-150v1434h158z" />
    <glyph glyph-name="nacute" unicode="&#x144;" horiz-adv-x="1173" 
d="M143 1024h129v-164q99 199 375 199q200 0 295.5 -113.5t95.5 -361.5v-584h-139v571q0 204 -62.5 287.5t-222.5 83.5q-163 0 -247 -88t-84 -283v-571h-140v1024zM393 1184l234 274h133l-252 -274h-115z" />
    <glyph glyph-name="Ncommaaccent" unicode="&#x145;" horiz-adv-x="1427" 
d="M1139 231v1203h149v-1434h-160l-837 1202v-1202h-150v1434h158zM684 -272v143h117v-143q0 -70 -43.5 -118.5t-128.5 -60.5v72q55 34 55 107z" />
    <glyph glyph-name="ncommaaccent" unicode="&#x146;" horiz-adv-x="1173" 
d="M143 1024h129v-164q99 199 375 199q200 0 295.5 -113.5t95.5 -361.5v-584h-139v571q0 204 -62.5 287.5t-222.5 83.5q-163 0 -247 -88t-84 -283v-571h-140v1024zM567 -272v143h117v-143q0 -70 -44 -118.5t-128 -60.5v72q55 34 55 107z" />
    <glyph glyph-name="Ncaron" unicode="&#x147;" horiz-adv-x="1427" 
d="M715 1657l145 211h111l-191 -275h-129l-190 275h108zM1139 231v1203h149v-1434h-160l-837 1202v-1202h-150v1434h158z" />
    <glyph glyph-name="ncaron" unicode="&#x148;" horiz-adv-x="1173" 
d="M598 1247l145 211h109l-188 -274h-132l-188 274h109zM143 1024h129v-164q99 199 375 199q200 0 295.5 -113.5t95.5 -361.5v-584h-139v571q0 204 -63 287.5t-222 83.5q-163 0 -247 -88t-84 -283v-571h-140v1024z" />
    <glyph glyph-name="Eng" unicode="&#x14a;" horiz-adv-x="1427" 
d="M1139 231v1203h149v-1395q-3 -201 -131 -326t-344 -125q-128 0 -233 54v108q103 -41 206 -41h27q143 2 227 75t97 208l-846 1210v-1202h-150v1434h158z" />
    <glyph glyph-name="eng" unicode="&#x14b;" horiz-adv-x="1173" 
d="M143 1024h129v-164q99 199 375 199q200 0 295.5 -113.5t95.5 -361.5v-754q0 -168 -184 -192q-63 -5 -78 -5h-33v103q52 0 62 2q91 15 94 112v721q0 204 -62.5 287.5t-222.5 83.5q-163 0 -247 -88t-84 -283v-571h-140v1024z" />
    <glyph glyph-name="Omacron" unicode="&#x14c;" 
d="M535 1759v99h497v-99h-497zM125 618l2 181q0 667 655 667q660 0 660 -667v-181q0 -293 -174 -473q-175 -178 -486 -178q-308 0 -483 178q-174 180 -174 473zM1292 618v181q0 285 -126 414.5t-384 129.5q-259 0 -383.5 -128t-124.5 -416v-181q0 -247 133 -387.5
t375 -140.5q244 0 377 140t133 388z" />
    <glyph glyph-name="omacron" unicode="&#x14d;" horiz-adv-x="1226" 
d="M123 442v129q0 245 127.5 366.5t361.5 121.5q237 0 364.5 -121.5t127.5 -366.5v-129q0 -213 -133 -346q-131 -131 -359 -131q-227 0 -358 131t-131 346zM965 442v129q0 194 -88 282.5t-265 88.5q-174 0 -261 -86t-87 -285v-129q0 -168 91.5 -264t256.5 -96t259 96t94 264
zM365 1350v98h497v-98h-497z" />
    <glyph glyph-name="Ohungarumlaut" unicode="&#x150;" 
d="M426 1593l233 275h136l-254 -275h-115zM762 1593l233 275h133l-251 -275h-115zM125 618l2 181q0 667 655 667q660 0 660 -667v-181q0 -293 -174 -473q-175 -178 -486 -178q-308 0 -483 178q-174 180 -174 473zM1292 618v181q0 285 -126 414.5t-384 129.5
q-259 0 -383.5 -128t-124.5 -416v-181q0 -247 133 -387.5t375 -140.5q244 0 377 140t133 388z" />
    <glyph glyph-name="ohungarumlaut" unicode="&#x151;" horiz-adv-x="1226" 
d="M258 1184l234 274h133l-252 -274h-115zM594 1184l233 274h134l-252 -274h-115zM123 442v129q0 245 127.5 366.5t361.5 121.5q237 0 364.5 -121.5t127.5 -366.5v-129q0 -213 -133 -346q-131 -131 -359 -131q-227 0 -358 131t-131 346zM965 442v129q0 194 -88 282.5
t-265 88.5q-174 0 -261 -86t-87 -285v-129q0 -168 91.5 -264t256.5 -96t259 96t94 264z" />
    <glyph glyph-name="OE" unicode="&#x152;" horiz-adv-x="2301" 
d="M131 618l2 183q0 665 655 665q286 0 443 -133v101h995v-123h-848v-506h815v-123h-815v-559h858v-123h-1005v117q-167 -150 -443 -150q-308 0 -483 178q-174 180 -174 473zM1208 315v815q-54 113 -155.5 163t-264.5 50q-126 0 -217.5 -28.5t-157.5 -91.5t-99 -168
t-33 -254v-183q0 -247 132.5 -387.5t374.5 -140.5q303 0 420 225z" />
    <glyph glyph-name="oe" unicode="&#x153;" horiz-adv-x="2103" 
d="M133 442v129q0 245 127.5 366.5t362.5 121.5q333 0 432 -244q95 244 428 244q230 0 361.5 -119t131.5 -369v-39l-2 -28h-839v-96q0 -160 92.5 -252.5t255.5 -92.5q146 0 236.5 77.5t107.5 213.5h139q-26 -180 -154 -284.5t-329 -104.5q-156 0 -266.5 68t-161.5 188
q-52 -120 -164 -188t-268 -68q-228 0 -359 131t-131 346zM1135 590h700q0 193 -87.5 282t-264.5 89q-175 0 -259.5 -86.5t-88.5 -284.5zM975 426v145q0 198 -89.5 284.5t-262.5 86.5q-174 0 -261.5 -86t-87.5 -285v-129q0 -168 92 -264t257 -96q161 0 256.5 94.5t95.5 249.5
z" />
    <glyph glyph-name="Racute" unicode="&#x154;" horiz-adv-x="1363" 
d="M143 0v1434h539q240 0 376 -89.5t136 -265.5v-90q0 -123 -90 -207.5t-250 -113.5l393 -668h-168l-379 643h-407v-643h-150zM1049 991v86q0 238 -367 238h-389v-555h389q169 0 268 63t99 168zM467 1593l233 275h134l-252 -275h-115z" />
    <glyph glyph-name="racute" unicode="&#x155;" horiz-adv-x="669" 
d="M123 1184l233 274h136l-252 -274h-117zM143 1024h129v-219q94 248 371 254v-117q-175 -6 -267.5 -112t-92.5 -308v-522h-140v1024z" />
    <glyph glyph-name="Rcommaaccent" unicode="&#x156;" horiz-adv-x="1363" 
d="M143 0v1434h539q240 0 376 -89.5t136 -265.5v-90q0 -123 -90 -207.5t-250 -113.5l393 -668h-168l-379 643h-407v-643h-150zM1049 991v86q0 238 -367 238h-389v-555h389q169 0 268 63t99 168zM641 -272v143h117v-143q0 -70 -44 -118.5t-128 -60.5v72q55 34 55 107z" />
    <glyph glyph-name="rcommaaccent" unicode="&#x157;" horiz-adv-x="669" 
d="M143 1024h129v-219q94 248 371 254v-117q-175 -6 -267.5 -112t-92.5 -308v-522h-140v1024zM297 -272v143h117v-143q0 -70 -43.5 -118.5t-128.5 -60.5v72q55 34 55 107z" />
    <glyph glyph-name="Rcaron" unicode="&#x158;" horiz-adv-x="1363" 
d="M672 1657l145 211h109l-189 -275h-131l-188 275h108zM143 0v1434h539q240 0 376 -89.5t136 -265.5v-90q0 -123 -90 -207.5t-250 -113.5l393 -668h-168l-379 643h-407v-643h-150zM1049 991v86q0 238 -367 238h-389v-555h389q169 0 268 63t99 168z" />
    <glyph glyph-name="rcaron" unicode="&#x159;" horiz-adv-x="669" 
d="M328 1247l145 211h111l-191 -274h-129l-190 274h108zM143 1024h129v-219q94 248 371 254v-117q-175 -6 -267.5 -112t-92.5 -308v-522h-140v1024z" />
    <glyph glyph-name="Sacute" unicode="&#x15a;" horiz-adv-x="1376" 
d="M481 1593l236 275h133l-252 -275h-117zM164 1057v39q0 370 524 370q120 0 215.5 -21t168 -64t111 -115.5t38.5 -169.5v-39h-146v45q0 127 -98 186.5t-289 59.5q-188 0 -283.5 -59t-95.5 -187v-37q0 -115 168 -176l518 -170q262 -86 262 -326v-31q0 -181 -153 -288
t-416 -107t-415 107t-152 288v91h145v-97q0 -128 108.5 -198t313.5 -70q206 0 315 70t109 198v35q0 152 -170 211l-530 174q-121 40 -184.5 111.5t-63.5 169.5z" />
    <glyph glyph-name="sacute" unicode="&#x15b;" horiz-adv-x="1097" 
d="M340 1184l233 274h134l-252 -274h-115zM158 756v28q0 275 387 275q187 0 289.5 -68t103.5 -205v-24h-129v24q-3 175 -264 175q-251 0 -254 -166l-2 -25q0 -38 36.5 -72.5t98.5 -54.5l344 -113q209 -71 209 -249v-13q0 -138 -116.5 -220.5t-315.5 -82.5q-195 0 -309 80
t-119 215v57h129v-55q2 -93 80.5 -147t218.5 -54q138 0 216.5 51t80.5 138l2 14q3 115 -133 162l-369 121q-184 61 -184 209z" />
    <glyph glyph-name="Scedilla" unicode="&#x15e;" horiz-adv-x="1376" 
d="M477 889l518 -168q262 -89 262 -328v-31q0 -173 -141 -280.5t-387 -114.5l-49 -61q32 3 65 0q69 -5 113.5 -40.5t44.5 -96.5q0 -75 -53.5 -115.5t-144.5 -46.5h-15q-111 0 -201 35l19 65q89 -29 158 -29h10q123 0 123 91q0 34 -27.5 51.5t-71.5 17.5q-61 0 -100 -26
l-51 38l84 119q-238 10 -375 116t-137 277v91h145v-97q0 -128 108.5 -198t313.5 -70q206 0 315 70t109 198v35q0 152 -170 211l-530 174q-121 40 -184.5 111.5t-63.5 169.5v39q0 186 134.5 278t389.5 92q120 0 215.5 -21t168 -64t111 -115.5t38.5 -169.5v-39h-146v45
q0 127 -98 186.5t-289 59.5q-189 0 -284 -59.5t-95 -186.5v-37q0 -115 168 -176z" />
    <glyph glyph-name="scedilla" unicode="&#x15f;" horiz-adv-x="1097" 
d="M158 756v28q0 275 387 275q187 0 289.5 -68t103.5 -205v-24h-129v24q-3 175 -264 175q-251 0 -254 -166l-2 -25q0 -38 36.5 -72.5t98.5 -54.5l344 -113q209 -71 209 -249v-13q0 -130 -104.5 -212.5t-286.5 -88.5l-47 -61q24 4 39 4q16 0 26 -2q70 -6 114 -41.5t44 -95.5
q0 -76 -54 -116.5t-145 -45.5h-14q-111 0 -201 35l19 65q79 -28 155 -28h13q122 0 122 90q0 35 -27 52t-71 17q-61 0 -100 -26l-49 36l82 117q-173 12 -273 91t-102 202v57h129v-55q2 -93 80.5 -147t218.5 -54q138 0 216.5 51t80.5 138l2 14q3 115 -133 162l-369 121
q-184 61 -184 209z" />
    <glyph glyph-name="Scaron" unicode="&#x160;" horiz-adv-x="1376" 
d="M688 1657l146 211h108l-190 -275h-129l-191 275h111zM164 1057v39q0 370 524 370q120 0 215.5 -21t168 -64t111 -115.5t38.5 -169.5v-39h-146v45q0 127 -98 186.5t-289 59.5q-188 0 -283.5 -59t-95.5 -187v-37q0 -115 168 -176l518 -170q262 -86 262 -326v-31
q0 -181 -153 -288t-416 -107t-415 107t-152 288v91h145v-97q0 -128 108.5 -198t313.5 -70q206 0 315 70t109 198v35q0 152 -170 211l-530 174q-121 40 -184.5 111.5t-63.5 169.5z" />
    <glyph glyph-name="scaron" unicode="&#x161;" horiz-adv-x="1097" 
d="M545 1247l145 211h109l-191 -274h-129l-188 274h108zM158 756v28q0 275 387 275q187 0 289.5 -68t103.5 -205v-24h-129v24q-3 175 -264 175q-251 0 -254 -166l-2 -25q0 -38 36.5 -72.5t98.5 -54.5l344 -113q209 -71 209 -249v-13q0 -138 -116.5 -220.5t-315.5 -82.5
q-195 0 -309 80t-119 215v57h129v-55q2 -93 80.5 -147t218.5 -54q138 0 216.5 51t80.5 138l2 14q3 115 -133 162l-369 121q-184 61 -184 209z" />
    <glyph glyph-name="tcommaaccent" unicode="&#x163;" horiz-adv-x="618" 
d="M207 1024v233h141v-233h193v-94h-193v-754q0 -47 27.5 -77.5t81.5 -30.5h84v-97h-129q-94 0 -149.5 49t-55.5 138v772h-160v94h160zM262 -272v143h119v-143q0 -70 -44.5 -118.5t-129.5 -60.5v72q55 34 55 107z" />
    <glyph glyph-name="Tcaron" unicode="&#x164;" horiz-adv-x="1259" 
d="M629 1657l145 211h109l-191 -275h-129l-190 275h110zM53 1311v123h1153v-123h-510v-1311h-149v1311h-494z" />
    <glyph glyph-name="tcaron" unicode="&#x165;" horiz-adv-x="753" 
d="M580 1266v209h116v-209q0 -69 -44 -118t-128 -61v74q56 35 56 105zM207 1024v233h141v-233h193v-94h-193v-754q0 -47 27.5 -77.5t81.5 -30.5h84v-97h-129q-94 0 -149.5 49t-55.5 138v772h-160v94h160z" />
    <glyph glyph-name="Tbar" unicode="&#x166;" horiz-adv-x="1259" 
d="M53 1311v123h1153v-123h-510v-1311h-149v1311h-494zM379 1759v99h498v-99h-498z" />
    <glyph glyph-name="tbar" unicode="&#x167;" horiz-adv-x="618" 
d="M207 1024v233h141v-233h193v-94h-193v-238h193v-94h-193v-422q0 -47 27.5 -77.5t81.5 -30.5h84v-97h-129q-94 0 -149.5 49t-55.5 138v440h-160v94h160v238h-160v94h160z" />
    <glyph glyph-name="Utilde" unicode="&#x168;" horiz-adv-x="1415" 
d="M469 1700l-66 39q65 129 166 129q49 3 84 -13q14 -5 64 -24q91 -45 127 -45q23 0 45 16q8 6 13.5 11t9.5 8t9 10.5t7.5 10.5t10.5 16t13 20l68 -41q-41 -65 -73.5 -95t-74.5 -34q-8 -2 -24 -2q-52 0 -139 37q-12 7 -70 29q-28 12 -66 12q-57 0 -104 -84zM1135 518v916
h149v-916q0 -247 -154 -401q-155 -152 -421 -152q-263 0 -418 152q-154 154 -154 401v916h150v-916q0 -202 110 -316t312 -114t314 114t112 316z" />
    <glyph glyph-name="utilde" unicode="&#x169;" horiz-adv-x="1171" 
d="M344 1290l-65 39q65 129 165 129q49 3 82 -12q14 -4 20 -6.5t17 -7.5t27 -11q96 -45 127 -45q21 0 45 17q7 5 11.5 8.5t9.5 8.5t7 7.5t7.5 9t7.5 10t9.5 14l12.5 17.5l66 -41q-38 -64 -71.5 -94.5t-76.5 -34.5q-6 -2 -24 -2q-50 0 -137 37q-9 5 -72 29q-28 12 -63 12
q-58 0 -105 -84zM891 453v571h139v-1024h-129v164q-99 -199 -379 -199q-199 0 -293 109t-94 348v602h139v-571q0 -204 63 -287.5t222 -83.5q165 0 248.5 90t83.5 281z" />
    <glyph glyph-name="Umacron" unicode="&#x16a;" horiz-adv-x="1415" 
d="M1135 518v916h149v-916q0 -247 -154 -401q-155 -152 -421 -152q-263 0 -418 152q-154 154 -154 401v916h150v-916q0 -202 111 -316t311 -114q202 0 314 114t112 316zM461 1759v99h497v-99h-497z" />
    <glyph glyph-name="umacron" unicode="&#x16b;" horiz-adv-x="1171" 
d="M336 1350v98h495v-98h-495zM891 453v571h139v-1024h-129v164q-99 -199 -379 -199q-198 0 -292.5 109t-94.5 346v604h139v-571q0 -204 63 -287.5t222 -83.5q165 0 248.5 90t83.5 281z" />
    <glyph glyph-name="Uring" unicode="&#x16e;" horiz-adv-x="1415" 
d="M903 1774q0 -78 -57.5 -135.5t-136.5 -57.5q-76 0 -134.5 58t-58.5 135q0 78 57 135t136 57q78 0 136 -57t58 -135zM709 1898q-51 0 -87 -36t-36 -88q-1 -37 22 -67.5t55.5 -45t70.5 -8.5t63 35q29 25 35 62.5t-8 70.5t-45.5 55.5t-69.5 21.5zM1135 518v916h149v-916
q0 -247 -154 -401q-155 -152 -421 -152q-263 0 -418 152q-154 154 -154 401v916h150v-916q0 -202 110 -316t312 -114t314 114t112 316z" />
    <glyph glyph-name="uring" unicode="&#x16f;" horiz-adv-x="1171" 
d="M776 1364q0 -78 -56.5 -135.5t-135.5 -57.5q-76 0 -134.5 58.5t-58.5 134.5q0 78 57.5 135t135.5 57t135 -57t57 -135zM672 1452q-37 37 -88 37t-88 -37t-37 -87t37 -87t88 -37t88 37t37 87t-37 87zM891 453v571h139v-1024h-129v164q-99 -199 -379 -199
q-198 0 -292.5 109t-94.5 346v604h139v-571q0 -204 63 -287.5t222 -83.5q165 0 248.5 90t83.5 281z" />
    <glyph glyph-name="Uhungarumlaut" unicode="&#x170;" horiz-adv-x="1415" 
d="M352 1593l236 275h133l-252 -275h-117zM688 1593l234 275h135l-252 -275h-117zM1135 518v916h149v-916q0 -247 -154 -401q-155 -152 -421 -152q-263 0 -418 152q-154 154 -154 401v916h150v-916q0 -202 111 -316t311 -114q202 0 314 114t112 316z" />
    <glyph glyph-name="uhungarumlaut" unicode="&#x171;" horiz-adv-x="1171" 
d="M227 1184l234 274h133l-252 -274h-115zM563 1184l234 274h133l-252 -274h-115zM891 453v571h139v-1024h-129v164q-99 -199 -379 -199q-198 0 -292.5 109t-94.5 346v604h139v-571q0 -204 63 -287.5t222 -83.5q165 0 248.5 90t83.5 281z" />
    <glyph glyph-name="Uogonek" unicode="&#x172;" horiz-adv-x="1415" 
d="M1135 518v916h149v-918q0 -202 -105.5 -343t-293.5 -185q-152 -84 -158 -187q-2 -2 -2 -10q0 -44 32 -73t87 -29q77 0 137 63l39 -61q-88 -82 -186 -82q-86 -1 -138.5 44t-52.5 118q0 14 2 22q15 107 121 176q-16 -2 -76 -2q-255 6 -405 156q-148 151 -148 395v916h150
v-916q0 -202 111 -316t311 -114q202 0 314 114t112 316z" />
    <glyph glyph-name="uogonek" unicode="&#x173;" horiz-adv-x="1171" 
d="M891 453v571h139v-1026l-57 -6q-83 -41 -125.5 -91t-44.5 -100q-2 -2 -2 -10q0 -44 32 -73t87 -29q77 0 137 63l39 -61q-88 -82 -187 -82q-85 -1 -137.5 44t-52.5 118q0 14 2 22q8 63 55 119.5t125 87.5v164q-99 -199 -379 -199q-198 0 -292.5 109t-94.5 346v604h139
v-571q0 -204 63 -287.5t222 -83.5q165 0 248.5 90t83.5 281z" />
    <glyph glyph-name="Wcircumflex" unicode="&#x174;" horiz-adv-x="2119" 
d="M807 1593l188 275h131l189 -275h-109l-145 211l-146 -211h-108zM1495 182l360 1252h154l-434 -1434h-150l-368 1225l-365 -1225h-149l-434 1434h151l361 -1252l364 1252h148z" />
    <glyph glyph-name="wcircumflex" unicode="&#x175;" horiz-adv-x="1611" 
d="M557 1184l188 274h129l191 -274h-109l-145 211l-145 -211h-109zM1128 131l265 893h139l-328 -1024h-135l-264 838l-266 -838h-136l-325 1024h139l262 -893l264 893h123z" />
    <glyph glyph-name="Ycircumflex" unicode="&#x176;" horiz-adv-x="1517" 
d="M504 1593l190 275h129l191 -275h-109l-147 211l-146 -211h-108zM756 696l504 738h178l-607 -877v-557h-149v557l-604 877h176z" />
    <glyph glyph-name="ycircumflex" unicode="&#x177;" horiz-adv-x="1079" 
d="M547 111l327 913h142l-520 -1393h-113l127 361h-41l-387 1032h143zM289 1184l190 274h129l191 -274h-111l-145 211l-146 -211h-108z" />
    <glyph glyph-name="Ydieresis" unicode="&#x178;" horiz-adv-x="1517" 
d="M756 696l504 738h178l-607 -877v-557h-149v557l-604 877h176zM516 1710v102h117v-102h-117zM881 1710v102h118v-102h-118z" />
    <glyph glyph-name="Zacute" unicode="&#x179;" horiz-adv-x="1193" 
d="M80 1311v123h1038v-91l-854 -1220h862v-123h-1056v90l852 1221h-842zM393 1593l234 275h133l-252 -275h-115z" />
    <glyph glyph-name="zacute" unicode="&#x17a;" horiz-adv-x="925" 
d="M258 1184l236 274h133l-252 -274h-117zM88 911v113h752v-84l-578 -827h588v-113h-772v84l577 827h-567z" />
    <glyph glyph-name="Zdotaccent" unicode="&#x17b;" horiz-adv-x="1193" 
d="M80 1311v123h1038v-91l-854 -1220h862v-123h-1056v90l852 1221h-842zM541 1710v102h116v-102h-116z" />
    <glyph glyph-name="zdotaccent" unicode="&#x17c;" horiz-adv-x="925" 
d="M406 1300v103h118v-103h-118zM88 911v113h752v-84l-578 -827h588v-113h-772v84l577 827h-567z" />
    <glyph glyph-name="Zcaron" unicode="&#x17d;" horiz-adv-x="1193" 
d="M598 1657l145 211h109l-190 -275h-130l-188 275h109zM80 1311v123h1038v-91l-854 -1220h862v-123h-1056v90l852 1221h-842z" />
    <glyph glyph-name="zcaron" unicode="&#x17e;" horiz-adv-x="925" 
d="M465 1247l145 211h109l-191 -274h-129l-190 274h110zM88 911v113h752v-84l-578 -827h588v-113h-772v84l577 827h-567z" />
    <glyph glyph-name="florin" unicode="&#x192;" horiz-adv-x="651" 
d="M463 1442h129v-94h-84q-51 0 -81 -29t-30 -82v-252h195v-92h-195v-1063q0 -81 -41 -126t-135 -62q-47 -9 -117 -9h-45v103q69 0 113 6q47 10 65.5 35.5t20.5 79.5v1036h-160v92h160v252q0 93 57 149t148 56z" />
    <glyph glyph-name="Gcaron" unicode="&#x1e6;" horiz-adv-x="1542" 
d="M772 1657l146 211h108l-190 -275h-129l-191 275h109zM125 618l2 181q0 667 655 667q550 0 629 -460h-149q-36 179 -154 258t-326 79q-259 0 -383.5 -128t-124.5 -416v-181q0 -247 133 -387.5t375 -140.5q225 0 350 123.5t136 347.5v51h-471v101h610v-713h-104l-5 262
q-147 -295 -516 -295q-308 0 -483 178q-174 180 -174 473z" />
    <glyph glyph-name="gcaron" unicode="&#x1e7;" horiz-adv-x="1196" 
d="M598 1247l145 211h109l-188 -274h-132l-188 274h109zM121 475v107q0 220 115.5 347.5t316.5 127.5q127 0 224 -54t155 -153l2 174h123v-1016q0 -211 -113 -307t-334 -96q-179 0 -293 73.5t-137 217.5h119q40 -208 311 -205q156 0 230.5 66t74.5 218v220
q-95 -195 -372 -195q-422 3 -422 475zM915 481v107q0 168 -88 264t-247 96q-156 0 -237 -94t-81 -266v-107q0 -199 76 -285.5t242 -86.5q169 0 252 88.5t83 283.5z" />
    <glyph glyph-name="Oslashacute" unicode="&#x1fe;" 
d="M811 1868h133l-252 -275h-114zM1087 1536h121l-63 -143q297 -146 297 -594v-181q0 -293 -174 -473q-175 -178 -486 -178q-142 0 -252 39l-49 -108h-121l68 153q-147 79 -225 226.5t-78 340.5v181q0 667 657 667q154 0 260 -32zM274 799v-181q0 -312 207 -448l510 1149
q-88 24 -209 24q-126 0 -217.5 -28.5t-158 -92t-99.5 -169t-33 -254.5zM1292 618v181q0 355 -200 475l-510 -1153q91 -31 200 -31q244 0 377 140t133 388z" />
    <glyph glyph-name="oslashacute" unicode="&#x1ff;" horiz-adv-x="1232" 
d="M643 1458h133l-252 -274h-114zM846 1126h88l-53 -120q227 -111 227 -435v-129q0 -213 -133 -346q-131 -131 -361 -131q-100 0 -182 27l-43 -94h-90l55 127q-109 60 -169 168.5t-60 248.5v129q0 245 127.5 366.5t361.5 121.5q105 0 191 -25zM266 571v-129q0 -209 140 -305
l352 789q-66 16 -144 16q-172 0 -260 -86.5t-88 -284.5zM967 442v129q0 239 -136 322l-352 -791q59 -20 135 -20q166 0 259.5 96t93.5 264z" />
    <glyph glyph-name="Scommaaccent" unicode="&#x218;" horiz-adv-x="1376" 
d="M164 1057v39q0 186 134.5 278t389.5 92q120 0 215.5 -21t168 -64t111 -115.5t38.5 -169.5v-39h-146v45q0 127 -98 186.5t-289 59.5q-188 0 -283.5 -59t-95.5 -187v-37q0 -115 168 -176l518 -168q262 -89 262 -328v-31q0 -181 -153 -288t-416 -107t-415 107t-152 288v91
h145v-97q0 -128 108.5 -198t313.5 -70q206 0 315 70t109 198v35q0 152 -170 211l-530 174q-121 40 -184.5 111.5t-63.5 169.5zM657 -272v143h119v-143q0 -70 -44.5 -118.5t-129.5 -60.5v72q55 34 55 107z" />
    <glyph glyph-name="scommaaccent" unicode="&#x219;" horiz-adv-x="1097" 
d="M158 756v28q0 275 387 275q187 0 289.5 -68t103.5 -205v-24h-129v24q-3 175 -264 175q-251 0 -254 -166l-2 -25q0 -39 37 -73.5t98 -53.5l344 -113q209 -71 209 -249v-13q0 -138 -116.5 -220.5t-315.5 -82.5q-195 0 -309 80t-119 215v57h129v-55q2 -93 80.5 -147
t218.5 -54q138 0 216.5 51t80.5 138l2 14q3 115 -133 162l-369 121q-184 61 -184 209zM516 -272v143h119v-143q0 -70 -44 -118.5t-128 -60.5v72q53 35 53 107z" />
    <glyph glyph-name="uni021A" unicode="&#x21a;" horiz-adv-x="1259" 
d="M53 1311v123h1153v-123h-510v-1311h-149v1311h-494zM596 -272v143h119v-143q0 -70 -44.5 -118.5t-129.5 -60.5v72q55 34 55 107z" />
    <glyph glyph-name="uni0228" unicode="&#x228;" horiz-adv-x="1189" 
d="M143 0v1434h998v-123h-848v-506h815v-123h-815v-559h858v-123h-446l-76 -100q24 4 37 4q18 0 28 -2q69 -6 112.5 -41.5t43.5 -96.5q0 -76 -53 -116t-144 -45h-14q-111 0 -201 35l17 65q85 -31 170 -31q123 3 123 92q0 33 -29 51.5t-70 18.5q-59 0 -100 -27l-51 37
l108 156h-463z" />
    <glyph glyph-name="uni0229" unicode="&#x229;" horiz-adv-x="1222" 
d="M125 442v129q0 245 127.5 366.5t361.5 121.5q237 0 365.5 -121.5t128.5 -366.5v-39l-2 -28h-840v-80q0 -168 91.5 -264.5t256.5 -96.5q148 0 237.5 77t106.5 214h140q-25 -171 -142.5 -275.5t-304.5 -111.5l-49 -61q23 2 47 2h19q70 -6 113.5 -41.5t43.5 -95.5
q0 -80 -55.5 -119.5t-140.5 -42.5h-27q-104 0 -188 35l16 65q85 -31 170 -31q123 3 123 93q0 32 -26.5 49.5t-65.5 17.5h-6q-57 0 -101 -24l-51 36l84 119q-199 15 -315 146q-114 129 -117 327zM266 590h701q0 193 -88 282t-265 89q-175 0 -261.5 -89t-86.5 -282z" />
    <glyph glyph-name="uni022A" unicode="&#x22a;" 
d="M535 1898v97h497v-97h-497zM541 1688v104h118v-104h-118zM907 1688v104h117v-104h-117zM125 618l2 183q0 665 655 665q660 0 660 -667v-181q0 -293 -174 -473q-175 -178 -486 -178q-308 0 -483 178q-174 180 -174 473zM1292 618v181q0 285 -126 414.5t-384 129.5
t-383 -128.5t-125 -413.5v-183q0 -247 133 -387.5t375 -140.5q244 0 377 140t133 388z" />
    <glyph glyph-name="uni022B" unicode="&#x22b;" horiz-adv-x="1226" 
d="M365 1536v96h497v-96h-497zM373 1286v105h116v-105h-116zM737 1286v105h119v-105h-119zM123 442v129q0 245 127.5 366.5t361.5 121.5q237 0 364.5 -121.5t127.5 -366.5v-129q0 -213 -133 -346q-131 -131 -359 -131q-227 0 -358 131t-131 346zM965 442v129
q0 194 -88 282.5t-265 88.5q-174 0 -261 -86t-87 -285v-129q0 -168 91.5 -264t256.5 -96t259 96t94 264z" />
    <glyph glyph-name="circumflex" unicode="&#x2c6;" horiz-adv-x="714" 
d="M104 1184l191 274h129l190 -274h-110l-146 211l-145 -211h-109z" />
    <glyph glyph-name="caron" unicode="&#x2c7;" horiz-adv-x="704" 
d="M352 1247l146 211h110l-190 -274h-129l-191 274h109z" />
    <glyph glyph-name="breve" unicode="&#x2d8;" horiz-adv-x="782" 
d="M600 1458h68q-7 -115 -85 -183.5t-196 -68.5t-195.5 68.5t-87.5 183.5h70q6 -80 62.5 -125t150.5 -45q93 0 150 45.5t63 124.5z" />
    <glyph glyph-name="dotaccent" unicode="&#x2d9;" horiz-adv-x="382" 
d="M137 1300v103h117v-103h-117z" />
    <glyph glyph-name="ring" unicode="&#x2da;" horiz-adv-x="616" 
d="M309 1556q78 0 135.5 -57t57.5 -135t-57 -135.5t-136 -57.5q-76 0 -134 58t-58 135t58 134.5t134 57.5zM397 1452q-37 37 -87 37t-87 -37t-37 -87t37 -87t87 -37t87 37t37 87t-37 87z" />
    <glyph glyph-name="ogonek" unicode="&#x2db;" horiz-adv-x="571" 
d="M289 0h86q-169 -82 -187 -199v-10q0 -44 32 -73t87 -29q74 0 137 63l37 -61q-85 -82 -184 -82q-86 -1 -138.5 44t-52.5 118q0 10 3 22q8 63 55 119.5t125 87.5z" />
    <glyph glyph-name="tilde" unicode="&#x2dc;" horiz-adv-x="860" 
d="M188 1290l-65 39q65 129 166 129q51 3 84 -12q16 -5 29 -11.5t32 -13.5q96 -45 129 -45q21 0 45 17q22 16 30.5 26.5t33.5 48.5l67 -41q-40 -65 -73 -95t-74 -34q-8 -2 -25 -2q-52 0 -139 37q-4 3 -18 8.5t-30.5 12t-21.5 8.5q-28 12 -65 12q-58 0 -105 -84z" />
    <glyph glyph-name="hungarumlaut" unicode="&#x2dd;" horiz-adv-x="942" 
d="M113 1184l233 274h133l-252 -274h-114zM449 1184l233 274h133l-252 -274h-114z" />
    <glyph glyph-name="dotbelowcomb" unicode="&#x323;" horiz-adv-x="0" 
d="M137 -377v105h117v-105h-117z" />
    <glyph glyph-name="pi" unicode="&#x3c0;" horiz-adv-x="253" 
 />
    <glyph glyph-name="Wgrave" unicode="&#x1e80;" horiz-adv-x="2119" 
d="M1135 1593l-252 275h133l235 -275h-116zM1495 182l360 1252h154l-434 -1434h-150l-368 1225l-365 -1225h-149l-434 1434h151l361 -1252l364 1252h148z" />
    <glyph glyph-name="wgrave" unicode="&#x1e81;" horiz-adv-x="1611" 
d="M1128 131l265 893h139l-328 -1024h-135l-264 838l-266 -838h-136l-325 1024h139l262 -893l264 893h123zM885 1184l-252 274h133l233 -274h-114z" />
    <glyph glyph-name="Wacute" unicode="&#x1e82;" horiz-adv-x="2119" 
d="M854 1593l233 275h136l-254 -275h-115zM1495 182l360 1252h154l-434 -1434h-150l-368 1225l-365 -1225h-149l-434 1434h151l361 -1252l364 1252h148z" />
    <glyph glyph-name="wacute" unicode="&#x1e83;" horiz-adv-x="1611" 
d="M1128 131l265 893h139l-328 -1024h-135l-264 838l-266 -838h-136l-325 1024h139l262 -893l264 893h123zM604 1184l234 274h133l-252 -274h-115z" />
    <glyph glyph-name="Wdieresis" unicode="&#x1e84;" horiz-adv-x="2119" 
d="M817 1710v102h119v-102h-119zM1184 1710v102h116v-102h-116zM1495 182l360 1252h154l-434 -1434h-150l-368 1225l-365 -1225h-149l-434 1434h151l361 -1252l364 1252h148z" />
    <glyph glyph-name="wdieresis" unicode="&#x1e85;" horiz-adv-x="1611" 
d="M567 1300v103h119v-103h-119zM932 1300v103h119v-103h-119zM1128 131l265 893h139l-328 -1024h-135l-264 838l-266 -838h-136l-325 1024h139l262 -893l264 893h123z" />
    <glyph glyph-name="Ygrave" unicode="&#x1ef2;" horiz-adv-x="1517" 
d="M756 696l504 738h178l-607 -877v-557h-149v557l-604 877h176zM834 1593l-252 275h133l233 -275h-114z" />
    <glyph glyph-name="ygrave" unicode="&#x1ef3;" horiz-adv-x="1079" 
d="M616 1184l-251 274h135l233 -274h-117zM547 111l327 913h142l-520 -1393h-113l127 361h-41l-387 1032h143z" />
    <glyph glyph-name="endash" unicode="&#x2013;" horiz-adv-x="1085" 
d="M137 498v114h809v-114h-809z" />
    <glyph glyph-name="emdash" unicode="&#x2014;" horiz-adv-x="1398" 
d="M137 498v114h1123v-114h-1123z" />
    <glyph glyph-name="quoteleft" unicode="&#x2018;" horiz-adv-x="395" 
d="M260 1075h-139v283q0 77 50 131.5t146 64.5v-84q-57 -34 -57 -112v-283z" />
    <glyph glyph-name="quoteright" unicode="&#x2019;" horiz-adv-x="395" 
d="M141 1272v282h142v-282q0 -78 -50.5 -132.5t-148.5 -64.5v84q57 34 57 113z" />
    <glyph glyph-name="quotesinglbase" unicode="&#x201a;" horiz-adv-x="393" 
d="M137 -25v283h139v-283q0 -77 -50 -130.5t-146 -65.5v84q57 37 57 112z" />
    <glyph glyph-name="quotedblleft" unicode="&#x201c;" horiz-adv-x="749" 
d="M272 1075h-141v283q0 77 50.5 131.5t146.5 64.5v-84q-56 -35 -56 -112v-283zM575 1075h-139v283q0 77 50.5 131.5t146.5 64.5v-84q-58 -34 -58 -112v-283z" />
    <glyph glyph-name="quotedblright" unicode="&#x201d;" horiz-adv-x="749" 
d="M174 1272v282h141v-282q0 -77 -51 -132t-147 -65v84q57 34 57 113zM479 1272v282h139v-282q0 -78 -50 -132.5t-146 -64.5v84q57 34 57 113z" />
    <glyph glyph-name="quotedblbase" unicode="&#x201e;" horiz-adv-x="751" 
d="M174 -25v283h141v-283q0 -77 -51 -130.5t-147 -65.5v84q57 37 57 112zM479 -25v283h139v-283q0 -77 -50 -130.5t-146 -65.5v84q57 37 57 112z" />
    <glyph glyph-name="dagger" unicode="&#x2020;" horiz-adv-x="677" 
d="M268 979v436h142v-436h215v-115h-215v-1126h-142v1126h-215v115h215z" />
    <glyph glyph-name="daggerdbl" unicode="&#x2021;" horiz-adv-x="681" 
d="M268 979v436h142v-436h215v-115h-215v-575h215v-115h-215v-436h-142v436h-215v115h215v575h-215v115h215z" />
    <glyph glyph-name="bullet" unicode="&#x2022;" horiz-adv-x="706" 
d="M592 637q0 -99 -70 -167.5t-168 -68.5q-97 0 -168 68q-69 69 -69 168t69 168t168 69t168 -69q70 -70 70 -168z" />
    <glyph glyph-name="ellipsis" unicode="&#x2026;" horiz-adv-x="1107" 
d="M137 0v258h142v-258h-142zM827 0v258h142v-258h-142zM483 0v258h140v-258h-140z" />
    <glyph glyph-name="perthousand" unicode="&#x2030;" horiz-adv-x="2422" 
d="M315 -70l949 1512h125l-949 -1512h-125zM119 1010v82q0 155 82.5 232t232.5 77q152 0 236 -77.5t84 -231.5v-82q0 -134 -87.5 -218.5t-232.5 -84.5q-142 0 -228.5 84t-86.5 219zM651 1010v82q0 119 -54 172t-163 53q-107 0 -160 -53t-53 -172v-82q0 -101 56.5 -160
t156.5 -59q102 0 159.5 59t57.5 160zM967 279v79q0 156 82.5 234t232.5 78q152 0 236 -78t84 -234v-79q0 -136 -87.5 -220t-232.5 -84q-142 0 -228.5 84t-86.5 220zM1698 279v79q0 156 82.5 234t232.5 78q152 0 236 -78t84 -234v-79q0 -136 -87.5 -220t-232.5 -84
q-142 0 -228.5 84t-86.5 220zM1499 279v79q0 121 -55.5 174.5t-161.5 53.5q-107 0 -160 -54.5t-53 -173.5v-79q0 -101 57 -160.5t156 -59.5q102 0 159.5 59.5t57.5 160.5zM2230 279v79q0 121 -55.5 174.5t-161.5 53.5q-107 0 -160 -54.5t-53 -173.5v-79q0 -101 57 -160.5
t156 -59.5q102 0 159.5 59.5t57.5 160.5z" />
    <glyph glyph-name="guilsinglleft" unicode="&#x2039;" horiz-adv-x="466" 
d="M57 469v139l283 262v-137l-205 -194l205 -193v-137z" />
    <glyph glyph-name="guilsinglright" unicode="&#x203a;" horiz-adv-x="477" 
d="M340 539l-203 194v137l281 -262v-139l-281 -260v137z" />
    <glyph glyph-name="fraction" unicode="&#x2044;" horiz-adv-x="864" 
d="M49 -8l645 1450h121l-645 -1450h-121z" />
    <glyph glyph-name="Euro" unicode="&#x20ac;" horiz-adv-x="1341" 
d="M104 829v95h111q19 253 157 398.5t363 145.5q182 0 310.5 -96t179.5 -268h-140q-95 245 -350 242q-163 0 -260.5 -114.5t-109.5 -307.5h581v-95h-588v-225h588v-94h-581q12 -195 109.5 -308.5t260.5 -113.5q255 -3 350 242h140q-51 -173 -179.5 -269t-310.5 -96
q-224 0 -362.5 146.5t-157.5 398.5h-111v94h107v225h-107z" />
    <glyph glyph-name="trademark" unicode="&#x2122;" horiz-adv-x="1845" 
d="M102 1337v97h691v-97h-291v-753h-113v753h-287zM1294 739l281 695h133v-850h-104v633l-258 -633h-103l-256 630v-630h-104v850h133z" />
    <glyph glyph-name="Omega" unicode="&#x2126;" horiz-adv-x="1705" 
 />
    <glyph glyph-name="oneeighth" unicode="&#x215b;" horiz-adv-x="1722" 
d="M311 -35l670 1503h121l-668 -1503h-123zM260 1434h88v-844h-106v715q-77 -77 -209 -107v84q79 18 126.5 51t100.5 101zM1004 606v53q0 100 73.5 150.5t206.5 50.5t207 -50.5t74 -150.5v-53q0 -99 -103 -143q144 -46 144 -191v-61q0 -100 -88 -161.5t-234 -61.5
q-145 0 -232 61.5t-87 161.5v61q0 144 141 191q-102 43 -102 143zM1460 610v52q0 60 -43.5 85t-132.5 25q-93 0 -134.5 -25.5t-41.5 -84.5v-52q0 -108 176 -108t176 108zM1501 211v65q0 73 -54 105.5t-163 32.5q-113 0 -164 -32.5t-51 -105.5v-65q0 -64 55.5 -99.5
t159.5 -35.5q106 0 161.5 34.5t55.5 100.5z" />
    <glyph glyph-name="threeeighths" unicode="&#x215c;" horiz-adv-x="2023" 
d="M612 -35l670 1503h119l-668 -1503h-121zM240 1190h-105v53q0 199 279 199q280 0 280 -199v-51q0 -97 -100 -143q141 -41 141 -191v-57q0 -100 -86.5 -160.5t-234.5 -60.5q-147 0 -233.5 60.5t-86.5 160.5v65h107v-65q0 -139 213 -139q219 0 219 139v59q0 136 -197 139
h-61v80h53q77 0 119.5 29t42.5 80v55q0 117 -176 117q-174 0 -174 -117v-53zM1305 606v53q0 100 73 150.5t205 50.5q130 0 205.5 -49t75.5 -152v-53q0 -99 -103 -143q144 -46 144 -191v-61q0 -100 -87.5 -161.5t-234.5 -61.5q-145 0 -232 61.5t-87 161.5v61q0 144 141 191
q-100 43 -100 143zM1761 610v52q0 59 -44 84.5t-134 25.5q-92 0 -134 -25.5t-42 -84.5v-52q0 -108 176 -108q178 0 178 108zM1800 211v65q0 74 -53 106t-164 32q-113 0 -163 -32.5t-50 -105.5v-65q0 -64 55 -99.5t158 -35.5q217 0 217 135z" />
    <glyph glyph-name="fiveeighths" unicode="&#x215d;" horiz-adv-x="2009" 
d="M596 -35l670 1503h120l-667 -1503h-123zM119 969l94 465h469v-88h-387l-55 -256q68 59 198 59q134 0 210.5 -64t76.5 -188v-68q0 -117 -84 -188.5t-221 -71.5t-221 71.5t-84 188.5v43h106v-43q0 -82 51.5 -127t147.5 -45t148.5 45t52.5 127v68q0 92 -50.5 135t-150.5 43
q-156 0 -193 -106h-108zM1288 606v53q0 103 75.5 152t205.5 49q133 0 206.5 -50.5t73.5 -150.5v-53q0 -100 -102 -143q143 -46 143 -191v-61q0 -100 -87.5 -161.5t-233.5 -61.5t-233 61.5t-87 161.5v61q0 144 142 191q-103 44 -103 143zM1747 610v52q0 59 -44.5 84.5
t-133.5 25.5q-93 0 -134.5 -25.5t-41.5 -84.5v-52q0 -108 176 -108q178 0 178 108zM1786 211v65q0 73 -52.5 105.5t-164.5 32.5q-113 0 -164 -32.5t-51 -105.5v-65q0 -64 56 -99.5t159 -35.5q106 0 161.5 34.5t55.5 100.5z" />
    <glyph glyph-name="seveneighths" unicode="&#x215e;" horiz-adv-x="1773" 
d="M375 -35l669 1503h121l-667 -1503h-123zM53 1346v88h574v-76q-178 -177 -263.5 -360.5t-84.5 -409.5h-107q-3 416 330 758h-449zM1069 606v53q0 100 73.5 150.5t205.5 50.5q133 0 206.5 -50.5t73.5 -150.5v-53q0 -100 -102 -143q143 -46 143 -191v-61q0 -100 -87 -161.5
t-234 -61.5q-146 0 -233 61.5t-87 161.5v61q0 144 141 191q-100 43 -100 143zM1526 610v52q0 59 -44 84.5t-134 25.5q-93 0 -135 -25.5t-42 -84.5v-52q0 -108 177 -108q178 0 178 108zM1565 211v65q0 73 -52.5 105.5t-164.5 32.5q-113 0 -164 -32.5t-51 -105.5v-65
q0 -64 56 -99.5t159 -35.5q106 0 161.5 34.5t55.5 100.5z" />
    <glyph glyph-name="partialdiff" unicode="&#x2202;" horiz-adv-x="1734" 
 />
    <glyph glyph-name="product" unicode="&#x220f;" horiz-adv-x="1734" 
 />
    <glyph glyph-name="summation" unicode="&#x2211;" horiz-adv-x="1734" 
 />
    <glyph glyph-name="minus" unicode="&#x2212;" horiz-adv-x="1163" 
d="M137 588v114h887v-114h-887z" />
    <glyph glyph-name="radical" unicode="&#x221a;" horiz-adv-x="1734" 
 />
    <glyph glyph-name="infinity" unicode="&#x221e;" horiz-adv-x="1734" 
 />
    <glyph glyph-name="integral" unicode="&#x222b;" horiz-adv-x="1734" 
 />
    <glyph glyph-name="approxequal" unicode="&#x2248;" horiz-adv-x="1142" 
 />
    <glyph glyph-name="notequal" unicode="&#x2260;" horiz-adv-x="999" 
d="M549 831l164 367h118l-163 -367h272v-110h-322l-114 -258h436v-111h-485l-156 -352h-123l158 352h-279v111h330l115 258h-445v110h494z" />
    <glyph glyph-name="lessequal" unicode="&#x2264;" horiz-adv-x="1185" 
d="M49 707v157l1061 459v-129l-926 -410l926 -407v-129zM49 0v119h1061v-119h-1061z" />
    <glyph glyph-name="greaterequal" unicode="&#x2265;" horiz-adv-x="1187" 
d="M1006 784l-928 410v129l1061 -459v-157l-1061 -459v129zM78 0v119h1061v-119h-1061z" />
    <glyph glyph-name="lozenge" unicode="&#x25ca;" horiz-adv-x="1734" 
 />
    <glyph glyph-name="A.sc" unicode="&#xe000;" horiz-adv-x="1073" 
d="M57 0l416 1024h125l414 -1024h-138l-110 274h-459l-108 -274h-140zM330 362h409l-204 525z" />
    <glyph glyph-name="Acaron" unicode="&#xe001;" horiz-adv-x="1488" 
d="M86 0l584 1434h151l584 -1434h-156l-162 406h-684l-161 -406h-156zM436 514h619l-310 780zM743 1657l146 211h110l-190 -275h-129l-191 275h109z" />
    <glyph glyph-name="Acircumflexdotbelow" unicode="&#xe002;" horiz-adv-x="1488" 
d="M492 1593l188 275h131l188 -275h-108l-146 211l-145 -211h-108zM86 0l584 1434h151l584 -1434h-156l-162 406h-684l-161 -406h-156zM436 514h619l-310 780zM688 -377v105h117v-105h-117z" />
    <glyph glyph-name="Adieresismacron" unicode="&#xe003;" horiz-adv-x="1488" 
d="M496 1898v97h497v-97h-497zM502 1688v104h119v-104h-119zM868 1688v104h117v-104h-117zM86 0l584 1434h151l584 -1434h-156l-162 406h-684l-161 -406h-156zM436 514h619l-310 780z" />
    <glyph glyph-name="B.sc" unicode="&#xe004;" horiz-adv-x="978" 
d="M135 0v1024h406q158 0 249 -60.5t91 -185.5v-53q0 -66 -38 -116.5t-106 -76.5q77 -30 120.5 -85.5t43.5 -131.5v-63q0 -116 -106 -184t-279 -68h-381zM756 719v53q0 77 -51.5 112.5t-161.5 35.5h-285v-342h285q103 0 158 37t55 104zM778 262v60q0 161 -254 161h-266v-379
h266q118 0 186 43t68 115z" />
    <glyph glyph-name="Bdotbelow" unicode="&#xe005;" horiz-adv-x="1318" 
d="M143 0v1434h557q465 0 465 -330v-82q0 -100 -64 -174t-177 -105q129 -29 200.5 -109t71.5 -198v-98q0 -156 -145 -248q-146 -90 -385 -90h-523zM1020 1014v80q0 221 -320 221h-407v-514h407q154 0 237 58t83 155zM1051 354v88q0 244 -385 244h-373v-567h373q177 0 281 64
t104 171zM541 -377v105h118v-105h-118z" />
    <glyph glyph-name="C.sc" unicode="&#xe006;" horiz-adv-x="1075" 
d="M111 442v127q0 486 467 486q189 0 292.5 -88.5t128.5 -274.5h-127q-26 135 -93 191.5t-201 56.5q-170 0 -252 -88t-82 -283v-127q0 -173 85.5 -266.5t248.5 -93.5q125 0 192.5 60t99.5 188h129q-27 -176 -133 -270.5t-288 -94.5q-217 0 -342 128t-125 349z" />
    <glyph glyph-name="CR" unicode="&#xe007;" horiz-adv-x="681" 
 />
    <glyph glyph-name="D.sc" unicode="&#xe008;" horiz-adv-x="1077" 
d="M135 0v1024h350q228 0 356 -112.5t128 -350.5v-108q0 -203 -131 -328q-128 -125 -353 -125h-350zM836 453v108q0 183 -85.5 265.5t-265.5 82.5h-217v-794h217q167 0 259 89.5t92 248.5z" />
    <glyph glyph-name="Dcircumflexbelow" unicode="&#xe009;" horiz-adv-x="1411" 
d="M143 0v1434h478q325 0 497 -157.5t172 -481.5v-170q0 -281 -178 -453t-491 -172h-478zM1141 625v170q0 270 -128.5 393t-391.5 123h-328v-1188h328q246 0 383 134t137 368zM444 -406l189 275h131l188 -275h-108l-146 211l-145 -211h-109z" />
    <glyph glyph-name="Ddotbelow" unicode="&#xe00a;" horiz-adv-x="1411" 
d="M143 0v1434h478q325 0 497 -157.5t172 -481.5v-170q0 -281 -178 -453t-491 -172h-478zM1141 625v170q0 270 -128.5 393t-391.5 123h-328v-1188h328q246 0 383 134t137 368zM639 -377v105h119v-105h-119z" />
    <glyph glyph-name="Dlinebelow" unicode="&#xe00b;" horiz-adv-x="1411" 
d="M143 0v1434h478q325 0 497 -157.5t172 -481.5v-170q0 -281 -178 -453t-491 -172h-478zM1141 625v170q0 270 -128.5 393t-391.5 123h-328v-1188h328q246 0 383 134t137 368zM449 -369v97h497v-97h-497z" />
    <glyph glyph-name="E.sc" unicode="&#xe00c;" horiz-adv-x="964" 
d="M135 0v1024h729v-104h-596v-336h574v-95h-574v-385h602v-104h-735z" />
    <glyph glyph-name="Ecircumflexdotbelow" unicode="&#xe00d;" horiz-adv-x="1189" 
d="M385 1593l188 275h132l188 -275h-109l-145 211l-145 -211h-109zM143 0v1434h998v-123h-848v-506h815v-123h-815v-559h858v-123h-1008zM580 -377v105h116v-105h-116z" />
    <glyph glyph-name="Edotbelow" unicode="&#xe00e;" horiz-adv-x="1189" 
d="M143 0v1434h998v-123h-848v-506h815v-123h-815v-559h858v-123h-1008zM580 -377v105h116v-105h-116z" />
    <glyph glyph-name="Etilde" unicode="&#xe00f;" horiz-adv-x="1189" 
d="M397 1700l-65 39q64 129 166 129q49 3 84 -13q14 -4 19.5 -6.5t15.5 -7t26 -10.5q96 -45 129 -45q23 0 45 16q6 4 10.5 8t8 6.5t7.5 7.5t6 7t6.5 9t6.5 9.5t9 13t10 15.5l67 -41q-40 -65 -73 -95t-74 -34q-8 -2 -25 -2q-52 0 -139 37q-4 3 -18 8.5t-30.5 12t-21.5 8.5
q-28 12 -65 12q-58 0 -105 -84zM143 0v1434h998v-123h-848v-506h815v-123h-815v-559h858v-123h-1008z" />
    <glyph glyph-name="F.sc" unicode="&#xe010;" horiz-adv-x="917" 
d="M135 0v1024h690v-104h-557v-342h533v-95h-533v-483h-133z" />
    <glyph glyph-name="G.sc" unicode="&#xe011;" horiz-adv-x="1167" 
d="M111 446v129q0 246 122 365t353 119q194 0 311.5 -86t146.5 -260h-124q-26 121 -107.5 176t-226.5 55q-175 0 -258.5 -87t-83.5 -282v-129q0 -167 89.5 -261.5t252.5 -94.5q157 0 240.5 83t88.5 237l3 32h-322v84h444v-526h-102l-4 162q-103 -189 -352 -189
q-224 0 -349 131q-122 131 -122 342z" />
    <glyph glyph-name="H.sc" unicode="&#xe012;" horiz-adv-x="1085" 
d="M819 588v436h133v-1024h-133v473h-551v-473h-133v1024h133v-436h551z" />
    <glyph glyph-name="Hdotbelow" unicode="&#xe013;" horiz-adv-x="1411" 
d="M1120 805v629h150v-1434h-150v682h-827v-682h-150v1434h150v-629h827zM641 -377v105h117v-105h-117z" />
    <glyph glyph-name="I.sc" unicode="&#xe014;" horiz-adv-x="401" 
d="M135 0v1024h133v-1024h-133z" />
    <glyph glyph-name="Icaron" unicode="&#xe015;" horiz-adv-x="423" 
d="M213 1657l145 211h109l-191 -275h-129l-188 275h109zM143 0v1434h150v-1434h-150z" />
    <glyph glyph-name="Idieresisacute" unicode="&#xe016;" horiz-adv-x="423" 
d="M6 1860l236 274h133l-252 -274h-117zM-29 1688v104h117v-104h-117zM336 1688v104h119v-104h-119zM143 0v1434h150v-1434h-150z" />
    <glyph glyph-name="Idot" unicode="&#xe017;" horiz-adv-x="423" 
d="M154 1710v102h118v-102h-118zM143 0v1434h150v-1434h-150z" />
    <glyph glyph-name="Idotbelow" unicode="&#xe018;" horiz-adv-x="423" 
d="M143 0v1434h150v-1434h-150zM160 -377v105h116v-105h-116z" />
    <glyph glyph-name="J.sc" unicode="&#xe019;" horiz-adv-x="712" 
d="M444 305v719h134v-723q0 -150 -95 -243t-252 -93q-100 0 -180 45v105q78 -35 158 -35h16q105 1 162 60t57 165z" />
    <glyph glyph-name="K.sc" unicode="&#xe01a;" horiz-adv-x="1085" 
d="M268 516l572 508h174l-488 -434l480 -590h-158l-412 500l-168 -146v-354h-133v1024h133v-508z" />
    <glyph glyph-name="L.sc" unicode="&#xe01b;" horiz-adv-x="897" 
d="M135 0v1024h133v-909h557v-115h-690z" />
    <glyph glyph-name="Lcircumflexbelow" unicode="&#xe01c;" horiz-adv-x="1101" 
d="M143 0v1434h150v-1311h792v-123h-942zM287 -406l188 275h129l191 -275h-109l-145 211l-146 -211h-108z" />
    <glyph glyph-name="Ldotbelow" unicode="&#xe01d;" horiz-adv-x="1101" 
d="M143 0v1434h150v-1311h792v-123h-942zM481 -377v105h119v-105h-119z" />
    <glyph glyph-name="M.sc" unicode="&#xe01e;" horiz-adv-x="1277" 
d="M635 170l352 854h156v-1024h-123v801l-332 -801h-106l-330 797v-797h-125v1024h156z" />
    <glyph glyph-name="Macute" unicode="&#xe01f;" horiz-adv-x="1669" 
d="M834 184l505 1250h187v-1434h-135v1190l-488 -1190h-139l-485 1190v-1190h-138v1434h189zM629 1593l233 275h133l-252 -275h-114z" />
    <glyph glyph-name="N.sc" unicode="&#xe020;" horiz-adv-x="1079" 
d="M823 223v801h133v-1024h-131l-567 801v-801h-133v1024h131z" />
    <glyph glyph-name="NULL" unicode="&#xe021;" horiz-adv-x="0" 
 />
    <glyph glyph-name="Ncircumflexbelow" unicode="&#xe022;" horiz-adv-x="1427" 
d="M461 -406l190 275h129l191 -275h-111l-145 211l-146 -211h-108zM1139 231v1203h149v-1434h-160l-837 1202v-1202h-150v1434h158z" />
    <glyph glyph-name="Ndotaccent" unicode="&#xe023;" horiz-adv-x="1427" 
d="M657 1710v102h119v-102h-119zM1139 231v1203h149v-1434h-160l-837 1202v-1202h-150v1434h158z" />
    <glyph glyph-name="Ndotbelow" unicode="&#xe024;" horiz-adv-x="1427" 
d="M1139 231v1203h149v-1434h-160l-837 1202v-1202h-150v1434h158zM655 -377v105h119v-105h-119z" />
    <glyph glyph-name="O.sc" unicode="&#xe025;" horiz-adv-x="1175" 
d="M111 442v129q0 246 122.5 365t354.5 119q233 0 356 -119.5t123 -364.5v-129q0 -212 -127.5 -343.5t-351.5 -131.5q-225 0 -350 131q-127 133 -127 344zM934 442v129q0 198 -86 283.5t-260 85.5q-176 0 -260 -87t-84 -282v-129q0 -166 89.5 -262t254.5 -96q166 0 256 95.5
t90 262.5z" />
    <glyph glyph-name="Ocaron" unicode="&#xe026;" 
d="M782 1657l146 211h108l-188 -275h-131l-189 275h109zM125 618v181q0 667 657 667q660 0 660 -667v-181q0 -293 -174 -473q-175 -178 -486 -178q-308 0 -483 178q-174 180 -174 473zM1292 618v181q0 285 -126 414.5t-384 129.5q-259 0 -383.5 -128t-124.5 -416v-181
q0 -247 133 -387.5t375 -140.5q244 0 377 140t133 388z" />
    <glyph glyph-name="Ocircumflexdotbelow" unicode="&#xe027;" 
d="M530 1593l189 275h131l188 -275h-108l-146 211l-145 -211h-109zM125 618l2 181q0 667 655 667q660 0 660 -667v-181q0 -293 -174 -473q-175 -178 -486 -178q-308 0 -483 178q-174 180 -174 473zM1292 618v181q0 285 -126 414.5t-384 129.5q-259 0 -383.5 -128
t-124.5 -416v-181q0 -247 133 -387.5t375 -140.5q244 0 377 140t133 388zM723 -377v105h119v-105h-119z" />
    <glyph glyph-name="Odotbelow" unicode="&#xe028;" 
d="M125 618l2 183q0 665 655 665q660 0 660 -667v-181q0 -293 -174 -473q-175 -178 -486 -178q-308 0 -483 178q-174 180 -174 473zM1292 618v181q0 285 -126 414.5t-384 129.5t-383 -128.5t-125 -413.5v-183q0 -247 133 -387.5t375 -140.5q244 0 377 140t133 388zM723 -377
v105h119v-105h-119z" />
    <glyph glyph-name="Omacronacute" unicode="&#xe029;" 
d="M575 1776l234 274h135l-252 -274h-117zM535 1591v99h497v-99h-497zM125 618l2 181q0 667 655 667q660 0 660 -667v-181q0 -293 -174 -473q-175 -178 -486 -178q-308 0 -483 178q-174 180 -174 473zM1292 618v181q0 285 -126 414.5t-384 129.5q-259 0 -383.5 -128
t-124.5 -416v-181q0 -247 133 -387.5t375 -140.5q244 0 377 140t133 388z" />
    <glyph glyph-name="Omacrongrave" unicode="&#xe02a;" 
d="M858 1776l-252 274h133l236 -274h-117zM535 1597v97h497v-97h-497zM125 618l2 183q0 665 655 665q660 0 660 -667v-181q0 -293 -174 -473q-175 -178 -486 -178q-308 0 -483 178q-174 180 -174 473zM1292 618v181q0 285 -126 414.5t-384 129.5t-383 -128.5t-125 -413.5
v-183q0 -247 133 -387.5t375 -140.5q244 0 377 140t133 388z" />
    <glyph glyph-name="Otildeacute" unicode="&#xe02b;" 
d="M578 1776l233 274h133l-252 -274h-114zM543 1554l-66 39q65 129 166 129q45 0 82 -12q5 -1 63 -27q98 -43 130 -43q22 0 43 15q7 5 11.5 8.5t9.5 9t7.5 7.5t8 10t7.5 10.5t9.5 15t11.5 17.5l66 -41q-38 -64 -71.5 -94.5t-76.5 -34.5q-6 -2 -24 -2q-53 0 -138 36
q-3 1 -69 29q-28 12 -66 12q-57 0 -104 -84zM125 618v183q0 665 657 665q660 0 660 -665v-183q0 -293 -174 -473q-175 -178 -486 -178q-308 0 -483 178q-174 180 -174 473zM1292 618v183q0 284 -126 413t-384 129t-383 -128.5t-125 -413.5v-183q0 -247 133 -387.5
t375 -140.5q244 0 377 140t133 388z" />
    <glyph glyph-name="P.sc" unicode="&#xe02c;" horiz-adv-x="968" 
d="M135 0v1024h354q179 0 283.5 -68.5t104.5 -201.5v-64q0 -118 -107.5 -191t-280.5 -73h-231v-426h-123zM764 690v62q0 166 -252 166h-254v-388h254q117 0 184.5 43.5t67.5 116.5z" />
    <glyph glyph-name="Q.sc" unicode="&#xe02d;" horiz-adv-x="1177" 
d="M111 442v129q0 246 122.5 365t354.5 119q233 0 356 -119.5t123 -364.5v-129q0 -228 -143 -356l143 -127l-53 -51l-150 131q-113 -70 -276 -70q-223 0 -350 131.5t-127 341.5zM934 442v129q0 195 -85 282t-261 87t-260 -87t-84 -282v-129q0 -225 155 -313q74 -45 189 -45
q111 0 188 47l-155 135l53 51l155 -135q105 89 105 260z" />
    <glyph glyph-name="R.sc" unicode="&#xe02e;" horiz-adv-x="1007" 
d="M135 0v1024h391q173 0 274 -66t101 -196v-60q0 -86 -66 -149t-176 -82l277 -471h-139l-252 446h-287v-446h-123zM784 705v57q0 158 -241 158h-285v-369h285q113 0 177 41t64 113z" />
    <glyph glyph-name="S.sc" unicode="&#xe02f;" horiz-adv-x="956" 
d="M94 752v26q0 138 100.5 208.5t284.5 70.5q183 0 285.5 -68.5t103.5 -204.5v-28h-125v28q-3 168 -264 168q-254 0 -254 -164v-24q0 -75 107 -115l368 -121q93 -31 144 -93.5t51 -149.5v-23q0 -133 -112.5 -214t-303.5 -81t-303.5 80.5t-112.5 214.5v70h127v-70
q0 -87 76.5 -137.5t212.5 -50.5q135 0 211 47.5t76 132.5v20q0 103 -115 144l-372 121q-87 31 -136 86.5t-49 126.5z" />
    <glyph glyph-name="Sdotbelow" unicode="&#xe030;" horiz-adv-x="1376" 
d="M164 1057v39q0 186 134.5 278t389.5 92q120 0 215.5 -21t168 -64t111 -115.5t38.5 -169.5v-39h-146v45q0 127 -98 186.5t-289 59.5q-188 0 -283.5 -59t-95.5 -187v-37q0 -115 168 -176l518 -168q262 -89 262 -328v-31q0 -181 -153 -288t-416 -107t-415 107t-152 288v91
h145v-97q0 -128 108.5 -198t313.5 -70q206 0 315 70t109 198v35q0 152 -170 211l-530 174q-121 40 -184.5 111.5t-63.5 169.5zM631 -377v105h117v-105h-117z" />
    <glyph glyph-name="T.sc" unicode="&#xe031;" horiz-adv-x="937" 
d="M51 909v115h838v-115h-359v-909h-131v909h-348z" />
    <glyph glyph-name="Tcedilla" unicode="&#xe032;" horiz-adv-x="1259" 
d="M53 1311v123h1153v-123h-510v-1323l-32 -4l-64 -84q28 4 39 4q17 0 27 -2q71 -6 114 -41.5t43 -96.5q0 -76 -52.5 -116t-143.5 -45h-15q-110 0 -200 35l16 65q85 -31 170 -31q123 3 123 92q0 33 -28.5 51.5t-69.5 18.5q-61 0 -101 -27l-51 37l104 148l-28 8v1311h-494z
" />
    <glyph glyph-name="Tcircumflexbelow" unicode="&#xe033;" horiz-adv-x="1259" 
d="M53 1311v123h1153v-123h-510v-1311h-149v1311h-494zM373 -406l190 275h129l191 -275h-109l-145 211l-146 -211h-110z" />
    <glyph glyph-name="Tdotbelow" unicode="&#xe034;" horiz-adv-x="1259" 
d="M53 1311v123h1153v-123h-510v-1311h-149v1311h-494zM569 -377v105h117v-105h-117z" />
    <glyph glyph-name="Tlinebelow" unicode="&#xe035;" horiz-adv-x="1259" 
d="M53 1311v123h1153v-123h-510v-1311h-149v1311h-494zM377 -369v97h497v-97h-497z" />
    <glyph glyph-name="U.sc" unicode="&#xe036;" horiz-adv-x="1093" 
d="M838 369v655h133v-655q0 -181 -113.5 -292.5t-304.5 -111.5t-304.5 113t-113.5 291v655h133v-655q0 -136 74.5 -211.5t210.5 -75.5t210.5 75.5t74.5 211.5z" />
    <glyph glyph-name="Ucaron" unicode="&#xe037;" horiz-adv-x="1415" 
d="M709 1657l147 211h109l-191 -275h-129l-190 275h108zM1135 518v916h149v-916q0 -247 -154 -401q-155 -152 -421 -152q-263 0 -418 152q-154 154 -154 401v916h150v-916q0 -202 111 -316t311 -114q202 0 314 114t112 316z" />
    <glyph glyph-name="Udieresisacute" unicode="&#xe038;" horiz-adv-x="1415" 
d="M504 1876l233 274h135l-251 -274h-117zM467 1688v104h119v-104h-119zM834 1688v104h116v-104h-116zM1135 518v916h149v-916q0 -247 -154 -401q-155 -152 -421 -152q-263 0 -418 152q-154 154 -154 401v916h150v-916q0 -202 111 -316t311 -114q202 0 314 114t112 316z" />
    <glyph glyph-name="Udieresiscaron" unicode="&#xe039;" horiz-adv-x="1415" 
d="M709 1939l147 211h109l-191 -274h-129l-190 274h108zM467 1688v104h119v-104h-119zM834 1688v104h116v-104h-116zM1135 518v916h149v-916q0 -247 -154 -401q-155 -152 -421 -152q-263 0 -418 152q-154 154 -154 401v916h150v-916q0 -202 111 -316t311 -114q202 0 314 114
t112 316z" />
    <glyph glyph-name="Udieresisgrave" unicode="&#xe03a;" horiz-adv-x="1415" 
d="M784 1876l-252 274h136l233 -274h-117zM467 1688v104h119v-104h-119zM834 1688v104h116v-104h-116zM1135 518v916h149v-916q0 -247 -154 -401q-155 -152 -421 -152q-263 0 -418 152q-154 154 -154 401v916h150v-916q0 -202 111 -316t311 -114q202 0 314 114t112 316z" />
    <glyph glyph-name="Udieresismacron" unicode="&#xe03b;" horiz-adv-x="1415" 
d="M461 1876v96h497v-96h-497zM467 1688v104h119v-104h-119zM834 1688v104h116v-104h-116zM1135 516v918h149v-918q0 -245 -154 -399q-155 -152 -421 -152q-263 0 -418 152q-154 154 -154 399v918h150v-918q0 -199 111 -313.5t311 -114.5q201 0 313.5 114.5t112.5 313.5z
" />
    <glyph glyph-name="Udotbelow" unicode="&#xe03c;" horiz-adv-x="1415" 
d="M1135 518v916h149v-916q0 -247 -154 -401q-155 -152 -421 -152q-263 0 -418 152q-154 154 -154 401v916h150v-916q0 -202 111 -316t311 -114q202 0 314 114t112 316zM651 -377v105h119v-105h-119z" />
    <glyph glyph-name="V.sc" unicode="&#xe03d;" horiz-adv-x="1017" 
d="M510 154l317 870h142l-385 -1024h-148l-385 1024h142z" />
    <glyph glyph-name="W.sc" unicode="&#xe03e;" horiz-adv-x="1478" 
d="M1047 190l251 834h132l-314 -1024h-119l-258 813l-256 -813h-118l-314 1024h131l252 -834l246 834h119z" />
    <glyph glyph-name="X.sc" unicode="&#xe03f;" horiz-adv-x="1081" 
d="M541 616l325 408h162l-405 -512l409 -512h-164l-327 408l-326 -408h-164l410 512l-406 512h164z" />
    <glyph glyph-name="Y.sc" unicode="&#xe040;" horiz-adv-x="1101" 
d="M551 528l344 496h158l-435 -629v-395h-133v395l-434 629h160z" />
    <glyph glyph-name="Z.sc" unicode="&#xe041;" horiz-adv-x="894" 
d="M72 909v115h755v-82l-585 -827h592v-115h-771v82l584 827h-575z" />
    <glyph glyph-name="Zdotbelow" unicode="&#xe042;" horiz-adv-x="1193" 
d="M80 1311v123h1038v-91l-854 -1220h862v-123h-1056v90l852 1221h-842zM557 -377v105h117v-105h-117z" />
    <glyph glyph-name="a.ss01" unicode="&#xe043;" horiz-adv-x="1189" 
d="M899 862v162h141v-1024h-120l-5 174q-56 -99 -152 -153t-224 -54q-205 0 -330 131t-125 348v129q0 244 116 365t326 121q274 0 373 -199zM899 446v129q0 195 -83 283t-253 88q-171 0 -254.5 -88.5t-83.5 -282.5v-129q0 -168 89 -264t249 -96t248 95.5t88 264.5z" />
    <glyph glyph-name="acaron" unicode="&#xe044;" horiz-adv-x="1179" 
d="M596 1247l145 211h111l-190 -274h-130l-190 274h109zM299 756h-129q30 152 141.5 227.5t292.5 75.5q218 0 331.5 -96.5t113.5 -307.5v-655h-121l-4 182q-54 -96 -166 -157q-117 -60 -248 -60q-179 0 -289 90q-106 87 -100 232q2 78 37 133.5t90.5 83.5t125.5 45.5t143 21
t143 8.5t125 10t89 23t35 50v26q0 274 -305 277q-132 0 -208 -48t-97 -161zM909 373v159q-16 -12 -73 -26q-41 -7 -54 -8l-112 -6q-72 -4 -84 -5q-109 -7 -156 -20q-93 -27 -121 -61q-47 -51 -47 -125q0 -93 75.5 -152t203.5 -59q147 0 254 82q105 80 114 221z" />
    <glyph glyph-name="acircumflexdotbelow" unicode="&#xe045;" horiz-adv-x="1179" 
d="M344 1184l188 274h132l188 -274h-109l-145 211l-145 -211h-109zM299 756h-129q30 152 141.5 227.5t292.5 75.5q218 0 331.5 -96.5t113.5 -307.5v-655h-121l-4 182q-54 -96 -166 -157q-117 -60 -248 -60q-179 0 -289 90q-106 87 -100 232q2 78 37 133.5t90.5 83.5
t125.5 45.5t143 21t143 8.5t125 10t89 23t35 50v26q0 274 -305 277q-132 0 -208 -48t-97 -161zM909 373v159q-21 -15 -65 -24q-38 -7 -174 -16q-72 -4 -84 -5q-109 -7 -156 -20q-93 -27 -121 -61q-47 -51 -47 -125q0 -93 75.5 -152t203.5 -59q147 0 254 82q105 80 114 221z
M551 -377v105h119v-105h-119z" />
    <glyph glyph-name="adieresismacron" unicode="&#xe046;" horiz-adv-x="1179" 
d="M348 1536v96h498v-96h-498zM354 1286v105h119v-105h-119zM721 1286v105h117v-105h-117zM299 756h-129q30 152 141.5 227.5t292.5 75.5q218 0 331.5 -96.5t113.5 -307.5v-655h-121l-4 182q-54 -96 -166 -157q-117 -60 -248 -60q-179 0 -289 90q-106 87 -100 234
q2 69 30 120.5t73.5 80.5t104.5 48t123.5 26t129 11t123 7.5t104 10.5t72.5 24t28 45v26q0 274 -305 277q-132 0 -208 -48t-97 -161zM909 373v159q-21 -15 -65 -24q-38 -7 -174 -16q-72 -4 -84 -5q-109 -7 -156 -20q-93 -27 -121 -61q-47 -51 -47 -125q0 -93 75.5 -152
t203.5 -59q147 0 254 82q105 80 114 221z" />
    <glyph glyph-name="adotbelow" unicode="&#xe047;" horiz-adv-x="1179" 
d="M299 756h-129q30 152 141.5 227.5t292.5 75.5q218 0 331.5 -96.5t113.5 -307.5v-655h-121l-4 182q-50 -95 -165.5 -156t-248.5 -61q-179 0 -289 90q-106 87 -100 234q2 69 30 120.5t73.5 80.5t104.5 48t123.5 26t129 11t123 7.5t104 10.5t72.5 24t28 45v26
q0 274 -305 277q-134 0 -209.5 -49.5t-95.5 -159.5zM909 373v159q-34 -22 -102 -30q-64 -8 -137 -10q-71 -4 -82 -5l-78 -8q-53 -3 -80 -12q-93 -27 -121 -61q-47 -51 -47 -125q0 -93 75.5 -152t203.5 -59q147 0 254 82q105 80 114 221zM551 -377v105h119v-105h-119z" />
    <glyph glyph-name="apple" unicode="&#xe048;" horiz-adv-x="28" 
 />
    <glyph glyph-name="bdotbelow" unicode="&#xe049;" horiz-adv-x="1177" 
d="M137 442v992h142v-574q102 199 374 199q441 3 441 -488v-129q0 -214 -129 -346q-128 -131 -351 -131q-222 0 -350 131q-127 133 -127 346zM954 442v129q0 194 -84.5 282.5t-255.5 88.5q-170 0 -252.5 -88t-82.5 -283v-129q0 -168 88 -264t247 -96q160 0 250 96t90 264z
M555 -377v105h119v-105h-119z" />
    <glyph glyph-name="circumflexbelowcomb" unicode="&#xe04a;" horiz-adv-x="0" 
d="M92 -406l191 275h129l190 -275h-110l-146 211l-145 -211h-109z" />
    <glyph glyph-name="dcircumflexbelow" unicode="&#xe04b;" horiz-adv-x="1181" 
d="M899 862v574h141v-1436h-120l-5 174q-56 -99 -152 -153t-224 -54q-205 0 -330 131t-125 348v129q0 244 116 365t326 121q274 0 373 -199zM899 446v129q0 195 -83 283t-253 88q-171 0 -254.5 -88.5t-83.5 -282.5v-129q0 -168 89 -264t249 -96t248 95.5t88 264.5zM295 -406
l190 275h129l191 -275h-109l-145 211l-148 -211h-108z" />
    <glyph glyph-name="ddotbelow" unicode="&#xe04c;" horiz-adv-x="1181" 
d="M899 862v574h141v-1436h-120l-5 174q-56 -99 -152 -153t-224 -54q-205 0 -330 131t-125 348v129q0 244 116 365t326 121q274 0 373 -199zM899 446v129q0 195 -83 283t-253 88q-171 0 -254.5 -88.5t-83.5 -282.5v-129q0 -168 89 -264t249 -96t248 95.5t88 264.5zM492 -377
v105h116v-105h-116z" />
    <glyph glyph-name="dlinebelow" unicode="&#xe04d;" horiz-adv-x="1181" 
d="M899 862v574h141v-1436h-120l-5 174q-56 -99 -152 -153t-224 -54q-205 0 -330 131t-125 348v129q0 244 116 365t326 121q274 0 373 -199zM899 446v129q0 195 -83 283t-253 88q-171 0 -254.5 -88.5t-83.5 -282.5v-129q0 -168 89 -264t249 -96t248 95.5t88 264.5zM299 -369
v97h498v-97h-498z" />
    <glyph glyph-name="dslash" unicode="&#xe04e;" horiz-adv-x="1228" 
d="M899 1282v154h141v-154h148v-96h-148v-1186h-120l-5 174q-56 -99 -152 -153t-224 -54q-205 0 -330 131t-125 348v129q0 244 116 365t326 121q274 0 373 -199v324h-233v96h233zM899 446v129q0 195 -83 283t-253 88q-171 0 -254.5 -88.5t-83.5 -282.5v-129q0 -168 89 -264
t249 -96t248 95.5t88 264.5z" />
    <glyph glyph-name="e.ss01" unicode="&#xe04f;" horiz-adv-x="1218" 
d="M125 442v129q0 245 127.5 366.5t361.5 121.5q189 0 320 -82q130 -78 139 -232q6 -82 -22.5 -144t-77 -98t-120 -58.5t-141 -30.5t-151.5 -8q-128 0 -295 20q2 -171 92.5 -267t255.5 -96q148 0 237.5 77t106.5 214h140q-26 -180 -154.5 -284.5t-329.5 -104.5
q-225 0 -355.5 132t-133.5 345zM266 594v-82q141 -18 252 -18q418 0 418 233q0 19 -2 29q-12 102 -96.5 153.5t-223.5 51.5q-171 0 -259.5 -86.5t-88.5 -280.5z" />
    <glyph glyph-name="ecircumflexdotbelow" unicode="&#xe050;" horiz-adv-x="1222" 
d="M360 1184l189 274h131l188 -274h-108l-146 211l-145 -211h-109zM125 442v129q0 245 127.5 366.5t361.5 121.5q237 0 365.5 -121.5t128.5 -366.5v-39l-2 -28h-840v-80q0 -168 91.5 -264.5t256.5 -96.5q148 0 237.5 77t106.5 214h140q-26 -180 -154.5 -284.5t-329.5 -104.5
q-225 0 -356 131q-130 130 -133 346zM266 590h701q0 193 -88 282t-265 89q-175 0 -261.5 -89t-86.5 -282zM553 -377v105h119v-105h-119z" />
    <glyph glyph-name="edotbelow" unicode="&#xe051;" horiz-adv-x="1222" 
d="M125 442v129q0 245 127.5 366.5t361.5 121.5q237 0 365.5 -121.5t128.5 -366.5v-39l-2 -28h-840v-80q0 -168 91.5 -264.5t256.5 -96.5q148 0 237.5 77t106.5 214h140q-26 -180 -154.5 -284.5t-329.5 -104.5q-225 0 -355.5 132t-133.5 345zM266 590h701q0 193 -88 282
t-265 89q-175 0 -261.5 -89t-86.5 -282zM553 -377v105h119v-105h-119z" />
    <glyph glyph-name="eight.dnom" unicode="&#xe052;" horiz-adv-x="884" 
d="M160 606v53q0 100 73.5 150.5t206.5 50.5t207 -50.5t74 -150.5v-53q0 -99 -103 -143q144 -46 144 -191v-61q0 -100 -87.5 -161.5t-234.5 -61.5q-145 0 -232 61.5t-87 161.5v61q0 144 141 191q-102 43 -102 143zM618 610v52q0 59 -43 84.5t-135 25.5q-93 0 -134.5 -25.5
t-41.5 -84.5v-52q0 -51 45.5 -79.5t130.5 -28.5q178 0 178 108zM657 211v65q0 73 -53.5 105.5t-163.5 32.5q-113 0 -164 -32.5t-51 -105.5v-65q0 -64 56 -99.5t159 -35.5q106 0 161.5 34.5t55.5 100.5z" />
    <glyph glyph-name="eight.lf" unicode="&#xe053;" horiz-adv-x="1298" 
d="M188 1001v91q0 323 459 323q139 0 239 -31.5t160 -105.5t60 -186v-91q0 -86 -54.5 -150t-152.5 -95q277 -68 277 -318v-106q0 -162 -144 -264q-144 -99 -385 -99t-385 99q-141 102 -141 264v106q0 251 272 318q-98 31 -151.5 95t-53.5 150zM961 1006v86q0 109 -79 155.5
t-235 46.5q-162 0 -237.5 -47.5t-75.5 -154.5v-86q0 -93 81 -145t232 -52q153 0 233.5 51.5t80.5 145.5zM1028 332v110q0 131 -93.5 189.5t-287.5 58.5q-197 0 -287 -58t-90 -190v-110q0 -113 98 -176.5t279 -63.5q184 0 282.5 62t98.5 178z" />
    <glyph glyph-name="eight.numr" unicode="&#xe054;" horiz-adv-x="884" 
d="M160 1192v55q0 100 73.5 149.5t206.5 49.5q132 0 206.5 -50.5t74.5 -148.5v-55q0 -96 -103 -143q144 -47 144 -189v-63q0 -99 -88 -161.5t-234 -62.5q-145 0 -232 62t-87 162v63q0 143 141 189q-102 47 -102 143zM618 1196v51q0 59 -43 86t-135 27q-93 0 -134.5 -26.5
t-41.5 -86.5v-51q0 -52 45.5 -80.5t130.5 -28.5q178 0 178 109zM657 797v65q0 74 -52.5 105.5t-164.5 31.5q-114 0 -164.5 -31.5t-50.5 -105.5v-65q0 -63 55.5 -98t159.5 -35q105 0 161 35t56 98z" />
    <glyph glyph-name="eight.osf" unicode="&#xe055;" horiz-adv-x="1298" 
d="M188 1001v91q0 323 459 323q139 0 239 -31.5t160 -105.5t60 -186v-91q0 -86 -54.5 -150t-152.5 -95q277 -68 277 -318v-106q0 -162 -144 -264q-144 -99 -385 -99t-385 99q-141 102 -141 264v106q0 251 272 318q-98 31 -151.5 95t-53.5 150zM961 1006v86q0 109 -79 155.5
t-235 46.5q-162 0 -237.5 -47.5t-75.5 -154.5v-86q0 -93 81 -145t232 -52q153 0 233.5 51.5t80.5 145.5zM1028 332v110q0 131 -93.5 189.5t-287.5 58.5q-197 0 -287 -58t-90 -190v-110q0 -113 98 -176.5t279 -63.5q184 0 282.5 62t98.5 178z" />
    <glyph glyph-name="eight.tf" unicode="&#xe056;" horiz-adv-x="1253" 
d="M166 1001v91q0 323 457 323q104 0 186.5 -18.5t144.5 -56t95.5 -100.5t33.5 -148v-91q0 -86 -54 -150t-152 -95q274 -68 274 -318v-106q0 -165 -142.5 -264t-385.5 -99q-242 0 -383 99q-142 103 -142 264v106q0 250 273 318q-99 31 -152 94.5t-53 150.5zM938 1006v86
q0 109 -79 155.5t-234 46.5q-162 0 -238 -47.5t-76 -154.5v-86q0 -93 81.5 -145t232.5 -52q155 0 234 51.5t79 145.5zM1004 332v110q0 131 -93.5 189.5t-287.5 58.5q-195 0 -286 -58t-91 -190v-110q0 -113 98 -176.5t279 -63.5q184 0 282.5 62t98.5 178z" />
    <glyph glyph-name="eight.tosf" unicode="&#xe057;" horiz-adv-x="1253" 
d="M168 1001v91q0 323 459 323q214 0 336 -78.5t122 -244.5v-91q0 -87 -53.5 -150.5t-152.5 -94.5q276 -68 276 -318v-106q0 -165 -142.5 -264t-385.5 -99q-241 0 -385 99q-142 103 -142 264v106q0 250 273 318q-98 31 -151.5 95t-53.5 150zM942 1006v86q0 110 -79 156
t-236 46q-161 0 -237.5 -47.5t-76.5 -154.5v-86q0 -93 82.5 -145t231.5 -52q156 0 235.5 51.5t79.5 145.5zM1006 332v110q0 131 -92.5 189.5t-286.5 58.5q-197 0 -288 -58t-91 -190v-110q0 -113 98.5 -176.5t280.5 -63.5q184 0 281.5 62t97.5 178z" />
    <glyph glyph-name="etilde" unicode="&#xe058;" horiz-adv-x="1222" 
d="M373 1290l-66 39q65 129 166 129q49 3 82 -12q15 -4 21 -6.5t16 -7.5t26 -11q96 -45 130 -45q21 0 45 17q6 4 10.5 8t8 6.5t7 7t5.5 7t6.5 8.5t6.5 9.5t8.5 13t10.5 15.5l66 -41q-38 -64 -71.5 -94.5t-74.5 -34.5q-8 -2 -26 -2q-51 0 -138 37q-4 3 -18 8.5t-30.5 12
t-20.5 8.5q-28 12 -66 12q-57 0 -104 -84zM125 442v129q0 245 127.5 366.5t361.5 121.5q237 0 365.5 -121.5t128.5 -366.5v-39l-2 -28h-840v-80q0 -168 91.5 -264.5t256.5 -96.5q148 0 237.5 77t106.5 214h140q-26 -180 -154.5 -284.5t-329.5 -104.5q-225 0 -355.5 132
t-133.5 345zM266 590h701q0 193 -88 282t-265 89q-175 0 -261.5 -89t-86.5 -282z" />
    <glyph glyph-name="f_b" unicode="&#xe059;" horiz-adv-x="1789" 
d="M422 1442h129v-94h-82q-51 0 -81 -29t-30 -82v-213h193v-94h-193v-930h-141v930h-160v94h160v213q0 93 57 149t148 56zM750 442v992h139v-574q102 199 375 199q442 3 442 -488v-129q0 -214 -129 -346q-128 -131 -350 -131t-350 131q-127 133 -127 346zM1565 442v129
q0 194 -83.5 282.5t-254.5 88.5q-168 0 -253 -86t-85 -285v-129q0 -168 88.5 -264t249.5 -96q159 0 248.5 96t89.5 264z" />
    <glyph glyph-name="f_f" unicode="&#xe05a;" horiz-adv-x="1224" 
d="M422 1442h129v-94h-82q-51 0 -81 -29t-30 -82v-213h193v-94h-193v-930h-141v930h-160v94h160v213q0 93 57 149t148 56zM1036 1442h129v-94h-84q-50 0 -80 -29t-30 -82v-213h194v-94h-194v-930h-142v930h-159v94h159v213q0 93 57 149t150 56z" />
    <glyph glyph-name="f_f_j" unicode="&#xe05c;" horiz-adv-x="1656" 
d="M422 1442h129v-94h-82q-51 0 -81 -29t-30 -82v-213h193v-94h-193v-930h-141v930h-160v94h160v213q0 93 57 149t148 56zM1036 1442h129v-94h-84q-50 0 -80 -29t-30 -82v-213h194v-94h-194v-930h-142v930h-159v94h159v213q0 93 57 149t150 56zM1384 1210v232h142v-232h-142
zM1384 -143v1167h142v-1194q0 -81 -47.5 -130.5t-139.5 -61.5q-68 -5 -77 -5h-33v103q51 0 61 2q50 7 72 35.5t22 83.5z" />
    <glyph glyph-name="f_h" unicode="&#xe05e;" horiz-adv-x="1744" 
d="M422 1442h129v-94h-82q-51 0 -81 -29t-30 -82v-213h193v-94h-193v-930h-141v930h-160v94h160v213q0 93 57 149t148 56zM758 0v1434h139v-574q99 199 369 199q199 0 293 -112.5t94 -362.5v-584h-140v571q0 204 -63.5 287.5t-220.5 83.5q-167 0 -249.5 -89.5t-82.5 -281.5
v-571h-139z" />
    <glyph glyph-name="f_j" unicode="&#xe05f;" horiz-adv-x="1042" 
d="M422 1442h129v-94h-82q-51 0 -81 -29t-30 -82v-213h193v-94h-193v-930h-141v930h-160v94h160v213q0 93 57 149t148 56zM772 1210v232h139v-232h-139zM772 -143v1167h139v-1194q0 -168 -184 -192q-67 -5 -78 -5h-33v103q50 0 62 2q50 7 72 35.5t22 83.5z" />
    <glyph glyph-name="f_k" unicode="&#xe060;" horiz-adv-x="1710" 
d="M422 1442h129v-94h-82q-51 0 -81 -29t-30 -82v-213h193v-94h-193v-930h-141v930h-160v94h160v213q0 93 57 149t148 56zM758 0v1434h141v-891l528 485h177l-443 -403l504 -625h-166l-430 530l-170 -151v-379h-141z" />
    <glyph glyph-name="five.dnom" unicode="&#xe061;" horiz-adv-x="819" 
d="M123 387l92 465h471v-88h-389l-55 -256q68 59 200 59q133 0 209 -64t76 -188v-67q0 -116 -83 -188t-222 -72q-136 0 -219.5 72t-83.5 188v43h104v-43q0 -81 51.5 -126.5t147.5 -45.5q97 0 149 45.5t52 126.5v67q0 95 -50.5 137t-150.5 42q-156 0 -193 -107h-106z" />
    <glyph glyph-name="five.lf" unicode="&#xe062;" horiz-adv-x="1210" 
d="M127 641l154 758h768v-123h-652l-110 -504q103 146 362 146q222 0 346.5 -103.5t124.5 -308.5v-115q0 -190 -137 -309q-135 -117 -367 -117q-227 0 -362 117q-135 120 -135 309v60h149v-60q0 -142 91.5 -222.5t256.5 -80.5q170 0 262.5 80.5t92.5 222.5v115
q0 163 -89 238t-266 75q-266 0 -333 -178h-156z" />
    <glyph glyph-name="five.numr" unicode="&#xe063;" horiz-adv-x="819" 
d="M123 969l92 465h471v-88h-387l-57 -256q68 59 200 59q133 0 209 -64t76 -188v-68q0 -117 -83 -188.5t-222 -71.5q-136 0 -219.5 71.5t-83.5 188.5v43h104v-43q0 -82 51.5 -127t147.5 -45q98 0 149.5 45t51.5 127v68q0 92 -50 135t-151 43q-156 0 -193 -106h-106z" />
    <glyph glyph-name="five.osf" unicode="&#xe064;" horiz-adv-x="1210" 
d="M127 266l154 758h768v-123h-652l-110 -504q103 146 362 146q104 0 188.5 -24t148.5 -72.5t99 -129t35 -186.5v-115q0 -191 -137 -307q-134 -119 -367 -119q-225 0 -361 118.5t-136 307.5v60h149v-60q0 -142 91.5 -222.5t256.5 -80.5q169 0 262 80.5t93 222.5v115
q0 166 -90.5 239.5t-264.5 73.5q-266 0 -333 -178h-156z" />
    <glyph glyph-name="five.tf" unicode="&#xe065;" horiz-adv-x="1253" 
d="M133 641l152 758h770v-123h-654l-110 -504q103 146 364 146q222 0 345.5 -103.5t123.5 -308.5v-115q0 -189 -135 -309q-135 -117 -366 -117q-228 0 -363 118t-135 308v60h147v-60q0 -142 93 -222.5t258 -80.5q170 0 262 80.5t92 222.5v115q0 162 -89 237.5t-265 75.5
q-266 0 -336 -178h-154z" />
    <glyph glyph-name="five.tosf" unicode="&#xe066;" horiz-adv-x="1253" 
d="M135 266l154 758h768v-123h-651l-111 -504q103 146 362 146q217 0 344 -101t127 -311v-115q0 -191 -137 -307q-134 -119 -364 -119q-231 0 -365 119q-135 117 -135 307v60h149v-60q0 -142 92.5 -222.5t258.5 -80.5t259 80.5t93 222.5v115q0 166 -90 239.5t-262 73.5
q-269 0 -336 -178h-156z" />
    <glyph glyph-name="four.dnom" unicode="&#xe067;" horiz-adv-x="798" 
d="M51 281l416 563h100v-553h148v-88h-148v-203h-98v203h-418v78zM164 291h305v426z" />
    <glyph glyph-name="four.lf" unicode="&#xe068;" horiz-adv-x="1226" 
d="M51 455l694 944h150v-936h246v-123h-246v-340h-139v340h-705v115zM201 463h555v774z" />
    <glyph glyph-name="four.numr" unicode="&#xe069;" horiz-adv-x="798" 
d="M51 870l416 564h100v-553h148v-90h-148v-201h-98v201h-418v79zM164 881h305v426z" />
    <glyph glyph-name="four.osf" unicode="&#xe06a;" horiz-adv-x="1226" 
d="M51 113l694 946h150v-936h246v-123h-246v-342h-139v342h-705v113zM201 123h555v774z" />
    <glyph glyph-name="four.tf" unicode="&#xe06b;" horiz-adv-x="1253" 
d="M82 455l694 944h148v-936h247v-123h-247v-340h-138v340h-704v115zM231 463h555v774z" />
    <glyph glyph-name="four.tosf" unicode="&#xe06c;" horiz-adv-x="1253" 
d="M82 113l692 946h150v-936h245v-123h-245v-342h-140v342h-702v113zM229 123h555v774z" />
    <glyph glyph-name="hdotbelow" unicode="&#xe06d;" horiz-adv-x="1130" 
d="M145 0v1434h140v-574q102 199 370 199q199 0 292 -112t93 -363v-584h-139v571q0 204 -63 287.5t-220 83.5q-167 0 -250 -89.5t-83 -281.5v-571h-140zM494 -377v105h118v-105h-118z" />
    <glyph glyph-name="icaron" unicode="&#xe06e;" horiz-adv-x="419" 
d="M217 1247l145 211h109l-190 -274h-129l-189 274h109zM145 0v1024h142v-1024h-142z" />
    <glyph glyph-name="idieresisacute" unicode="&#xe06f;" horiz-adv-x="419" 
d="M12 1458l234 275h133l-252 -275h-115zM-25 1286v105h117v-105h-117zM340 1286v105h119v-105h-119zM145 0v1024h142v-1024h-142z" />
    <glyph glyph-name="idotbelow" unicode="&#xe070;" horiz-adv-x="405" 
d="M143 1210v232h142v-232h-142zM143 0v1024h142v-1024h-142zM156 -377v105h116v-105h-116z" />
    <glyph glyph-name="increment" unicode="&#xe071;" horiz-adv-x="1705" 
 />
    <glyph glyph-name="lcircumflexbelow" unicode="&#xe072;" horiz-adv-x="417" 
d="M147 0v1434h142v-1434h-142zM-41 -406l188 275h132l188 -275h-109l-145 211l-145 -211h-109z" />
    <glyph glyph-name="ldotbelow" unicode="&#xe073;" horiz-adv-x="417" 
d="M145 0v1434h142v-1434h-142zM152 -377v105h118v-105h-118z" />
    <glyph glyph-name="macronbelowcomb" unicode="&#xe074;" horiz-adv-x="0" 
d="M137 -369v97h498v-97h-498z" />
    <glyph glyph-name="macute" unicode="&#xe075;" horiz-adv-x="1724" 
d="M678 1184l235 274h134l-252 -274h-117zM143 1024h131v-164q88 196 316 199q219 3 287 -170q95 170 333 170q194 0 284.5 -112.5t90.5 -362.5v-584h-141v573q0 206 -60 291q-58 82 -210 82q-109 -2 -169 -45t-83 -139q12 -83 12 -189v-573h-139v573q0 208 -52.5 290.5
t-181.5 82.5q-276 0 -276 -373v-573h-142v1024z" />
    <glyph glyph-name="middot" unicode="&#xe076;" horiz-adv-x="405" 
d="M137 512v258h139v-258h-139z" />
    <glyph glyph-name="ncircumflexbelow" unicode="&#xe077;" horiz-adv-x="1173" 
d="M143 1024h129v-164q99 199 375 199q200 0 295.5 -113.5t95.5 -361.5v-584h-139v571q0 204 -62.5 287.5t-222.5 83.5q-163 0 -247 -88t-84 -283v-571h-140v1024zM344 -406l188 275h132l188 -275h-109l-145 211l-145 -211h-109z" />
    <glyph glyph-name="ndotaccent" unicode="&#xe078;" horiz-adv-x="1173" 
d="M541 1300v103h116v-103h-116zM143 1024h129v-164q99 199 375 199q200 0 295.5 -113.5t95.5 -361.5v-584h-139v571q0 204 -63 287.5t-222 83.5q-163 0 -247 -88t-84 -283v-571h-140v1024z" />
    <glyph glyph-name="ndotbelow" unicode="&#xe079;" horiz-adv-x="1173" 
d="M143 1024h129v-164q99 199 375 199q200 0 295.5 -113.5t95.5 -361.5v-584h-139v571q0 204 -62.5 287.5t-222.5 83.5q-163 0 -247 -88t-84 -283v-571h-140v1024zM539 -377v105h118v-105h-118z" />
    <glyph glyph-name="nine.dnom" unicode="&#xe07a;" horiz-adv-x="864" 
d="M121 539v63q0 116 84 188t223 72q136 0 219.5 -72t83.5 -188v-340q0 -139 -77 -206.5t-218 -67.5q-120 0 -195.5 53.5t-93.5 159.5h93q27 -136 194 -133q97 2 145 44t48 136v114q-60 -72 -205 -75q-135 0 -218 60t-83 192zM625 539v63q0 80 -52 125t-145 45
q-97 0 -150 -45t-53 -125v-63q0 -92 50.5 -134.5t152.5 -42.5q101 0 149 42t48 135z" />
    <glyph glyph-name="nine.lf" unicode="&#xe07b;" horiz-adv-x="1255" 
d="M121 883v106q0 191 136.5 307.5t367.5 116.5q227 0 362 -117t135 -307v-573q0 -451 -483 -451q-193 0 -315 84t-154 248h127q55 -226 340 -223q169 2 252.5 76.5t83.5 240.5v244q-84 -164 -359 -164q-84 -2 -156 10.5t-135 43t-107 78t-69.5 119t-25.5 161.5zM973 883
v106q0 142 -91.5 222.5t-256.5 80.5q-169 0 -262 -80.5t-93 -222.5v-106q0 -164 90.5 -239t264.5 -75q179 0 263.5 75t84.5 239z" />
    <glyph glyph-name="nine.numr" unicode="&#xe07c;" horiz-adv-x="864" 
d="M121 1124v62q0 116 84 188t223 72q136 0 219.5 -72t83.5 -188v-340q0 -138 -77.5 -206.5t-217.5 -68.5q-115 0 -193 53.5t-96 159.5h93q27 -136 194 -133q96 3 144.5 43.5t48.5 136.5v115q-62 -74 -205 -74q-134 -3 -217.5 57.5t-83.5 194.5zM625 1124v62q0 80 -52 126
t-145 46q-98 0 -150.5 -45t-52.5 -127v-62q0 -92 50.5 -135t152.5 -43t149.5 41.5t47.5 136.5z" />
    <glyph glyph-name="nine.osf" unicode="&#xe07d;" horiz-adv-x="1255" 
d="M121 526v107q0 190 135 307q138 117 369 117q227 0 362 -117t135 -307v-574q0 -450 -483 -450q-193 0 -315 84t-154 248h127q52 -229 340 -226q169 5 252.5 79.5t83.5 240.5v244q-84 -164 -359 -164q-106 -2 -192.5 19t-155.5 68t-107 129.5t-38 194.5zM973 526v107
q0 141 -92 222t-256 81q-169 0 -262 -80.5t-93 -222.5v-107q0 -161 89 -237t266 -76q179 0 263.5 74.5t84.5 238.5z" />
    <glyph glyph-name="nine.tf" unicode="&#xe07e;" horiz-adv-x="1253" 
d="M125 883v106q0 191 136 307.5t366 116.5q227 0 362 -117t135 -307v-573q0 -451 -481 -451q-194 0 -316.5 84t-154.5 248h127q55 -226 340 -223q169 2 253.5 76.5t84.5 240.5v244q-47 -85 -134 -124.5t-225 -39.5q-106 -2 -193 19t-155.5 68t-106.5 130t-38 195zM977 883
v106q0 142 -92.5 222.5t-257.5 80.5q-169 0 -262 -80.5t-93 -222.5v-106q0 -164 91 -239t264 -75q179 0 264.5 75t85.5 239z" />
    <glyph glyph-name="nine.tosf" unicode="&#xe07f;" horiz-adv-x="1253" 
d="M127 526v107q0 190 135 307q138 117 367 117q228 0 363.5 -116.5t135.5 -307.5v-574q0 -450 -483 -450q-194 0 -315.5 83.5t-153.5 248.5h127q52 -229 340 -226q169 5 252.5 79.5t83.5 240.5v244q-44 -85 -132 -124.5t-226 -39.5q-107 -2 -193.5 19t-155.5 68t-107 129.5
t-38 194.5zM979 526v107q0 141 -92 222t-258 81q-167 0 -260 -80.5t-93 -222.5v-107q0 -161 89 -237t264 -76q177 0 263.5 74t86.5 239z" />
    <glyph glyph-name="ocaron" unicode="&#xe080;" horiz-adv-x="1226" 
d="M614 1247l146 211h108l-190 -274h-129l-189 274h109zM123 442v129q0 245 127.5 366.5t361.5 121.5q237 0 364.5 -121.5t127.5 -366.5v-129q0 -213 -133 -346q-131 -131 -359 -131q-227 0 -358 131t-131 346zM965 442v129q0 194 -88 282.5t-265 88.5q-174 0 -261 -86
t-87 -285v-129q0 -168 91.5 -264t256.5 -96t259 96t94 264z" />
    <glyph glyph-name="ocircumflexdotbelow" unicode="&#xe081;" horiz-adv-x="1226" 
d="M360 1184l191 274h129l190 -274h-108l-146 211l-145 -211h-111zM123 442v129q0 245 127.5 366.5t361.5 121.5q237 0 364.5 -121.5t127.5 -366.5v-129q0 -213 -133 -346q-131 -131 -359 -131q-227 0 -358 131t-131 346zM965 442v129q0 194 -88 282.5t-265 88.5
q-174 0 -261 -86t-87 -285v-129q0 -168 91.5 -264t256.5 -96t259 96t94 264zM555 -377v105h117v-105h-117z" />
    <glyph glyph-name="odotbelow" unicode="&#xe082;" horiz-adv-x="1226" 
d="M123 442v129q0 245 127.5 366.5t361.5 121.5q237 0 364.5 -121.5t127.5 -366.5v-129q0 -213 -133 -346q-131 -131 -359 -131q-227 0 -358 131t-131 346zM965 442v129q0 194 -88 282.5t-265 88.5q-174 0 -261 -86t-87 -285v-129q0 -168 91.5 -264t256.5 -96t259 96t94 264
zM555 -377v105h117v-105h-117z" />
    <glyph glyph-name="omacronacute" unicode="&#xe083;" horiz-adv-x="1226" 
d="M123 442v129q0 245 127.5 366.5t361.5 121.5q237 0 364.5 -121.5t127.5 -366.5v-129q0 -213 -133 -346q-131 -131 -359 -131q-227 0 -358 131t-131 346zM965 442v129q0 194 -88 282.5t-265 88.5q-174 0 -261 -86t-87 -285v-129q0 -168 91.5 -264t256.5 -96t259 96t94 264
zM410 1536l233 274h133l-252 -274h-114zM365 1337v97h497v-97h-497z" />
    <glyph glyph-name="omacrongrave" unicode="&#xe084;" horiz-adv-x="1226" 
d="M123 442v129q0 245 127.5 366.5t361.5 121.5q237 0 364.5 -121.5t127.5 -366.5v-129q0 -213 -133 -346q-131 -131 -359 -131q-227 0 -358 131t-131 346zM965 442v129q0 194 -88 282.5t-265 88.5q-174 0 -261 -86t-87 -285v-129q0 -168 91.5 -264t256.5 -96t259 96t94 264
zM690 1536l-252 274h133l234 -274h-115zM365 1337v97h497v-97h-497z" />
    <glyph glyph-name="one.dnom" unicode="&#xe085;" horiz-adv-x="485" 
d="M256 844h86v-844h-104v715q-78 -78 -209 -105v82q78 18 126.5 51t100.5 101z" />
    <glyph glyph-name="one.lf" unicode="&#xe086;" horiz-adv-x="665" 
d="M395 1401h127v-1401h-149v1235q-60 -70 -154.5 -122.5t-198.5 -78.5v111q132 30 209 86q86 63 166 170z" />
    <glyph glyph-name="one.numr" unicode="&#xe087;" horiz-adv-x="483" 
d="M256 1434h86v-844h-104v715q-77 -77 -209 -107v84q78 18 126.5 51t100.5 101z" />
    <glyph glyph-name="one.osf" unicode="&#xe088;" horiz-adv-x="559" 
d="M305 1024h111v-1024h-129v868q-99 -98 -262 -139v105q98 20 157 63q57 39 123 127z" />
    <glyph glyph-name="one.tf" unicode="&#xe089;" horiz-adv-x="868" 
d="M559 1401h127v-1401h-147v1235q-61 -70 -156.5 -122.5t-198.5 -78.5v111q132 30 209 86q86 63 166 170z" />
    <glyph glyph-name="one.tosf" unicode="&#xe08a;" horiz-adv-x="843" 
d="M506 1024h110v-1024h-131v868q-98 -98 -260 -139v105q95 20 158 63q57 39 123 127z" />
    <glyph glyph-name="otildeacute" unicode="&#xe08b;" horiz-adv-x="1226" 
d="M410 1536l233 274h133l-252 -274h-114zM375 1276l-66 39q64 128 166 131q45 0 82 -12q9 -3 64 -27q98 -43 127 -43q25 0 45 14q9 7 14.5 11.5t12.5 12.5t9 11t13 18.5t16 22.5l66 -41q-38 -63 -71.5 -93t-76.5 -36q-6 -2 -24 -2q-51 0 -138 37q-11 6 -71 29
q-28 12 -66 12q-55 0 -102 -84zM123 442v129q0 245 127.5 366.5t361.5 121.5q237 0 364.5 -121.5t127.5 -366.5v-129q0 -213 -133 -346q-131 -131 -359 -131q-227 0 -358 132t-131 345zM965 442v129q0 194 -88 282.5t-265 88.5q-174 0 -261 -86t-87 -285v-129
q0 -168 91.5 -264t256.5 -96t259 96t94 264z" />
    <glyph glyph-name="overscore" unicode="&#xe08c;" horiz-adv-x="772" 
d="M137 1350v98h498v-98h-498z" />
    <glyph glyph-name="sdotbelow" unicode="&#xe08d;" horiz-adv-x="1097" 
d="M158 756v28q0 275 387 275q187 0 289.5 -68t103.5 -205v-24h-129v24q-3 175 -264 175q-251 0 -254 -166l-2 -25q0 -39 37 -73.5t98 -53.5l344 -113q209 -71 209 -249v-13q0 -138 -116.5 -220.5t-315.5 -82.5q-195 0 -309 80t-119 215v57h129v-55q2 -93 80.5 -147
t218.5 -54q138 0 216.5 51t80.5 138l2 14q3 115 -133 162l-369 121q-184 61 -184 209zM489 -377v105h117v-105h-117z" />
    <glyph glyph-name="seven.dnom" unicode="&#xe08e;" horiz-adv-x="632" 
d="M31 756v90h573v-76q-178 -177 -263.5 -360.5t-84.5 -409.5h-106q-3 418 329 756h-448z" />
    <glyph glyph-name="seven.lf" unicode="&#xe08f;" horiz-adv-x="1058" 
d="M59 1278v121h938v-109q-298 -295 -442.5 -604t-144.5 -686h-150q0 704 574 1278h-775z" />
    <glyph glyph-name="seven.numr" unicode="&#xe090;" horiz-adv-x="632" 
d="M31 1346v88h573v-76q-178 -177 -263.5 -360.5t-84.5 -409.5h-106q-3 417 329 758h-448z" />
    <glyph glyph-name="seven.osf" unicode="&#xe091;" horiz-adv-x="1058" 
d="M59 901v123h938v-109q-287 -280 -440 -596q-147 -311 -147 -696h-150q0 704 574 1278h-775z" />
    <glyph glyph-name="seven.tf" unicode="&#xe092;" horiz-adv-x="1253" 
d="M156 1278v121h938v-109q-191 -188 -318 -377q-128 -192 -199 -424.5t-71 -488.5h-150q0 704 574 1278h-774z" />
    <glyph glyph-name="seven.tosf" unicode="&#xe093;" horiz-adv-x="1253" 
d="M158 901v123h940v-109q-289 -282 -441 -596q-149 -308 -149 -696h-150q0 702 576 1278h-776z" />
    <glyph glyph-name="six.dnom" unicode="&#xe094;" horiz-adv-x="858" 
d="M131 250l2 346q0 268 293 268q119 0 195 -53.5t94 -157.5h-92q-27 134 -195 131q-97 -2 -143.5 -43t-46.5 -137v-102q58 76 202 76q140 5 220.5 -58.5t80.5 -193.5v-76q0 -116 -84.5 -188t-220.5 -72t-220.5 72t-84.5 188zM637 250v76q0 92 -50 135t-151 43
q-104 0 -151 -41t-47 -137v-76q0 -80 51 -125t147 -45t148.5 45t52.5 125z" />
    <glyph glyph-name="six.lf" unicode="&#xe095;" horiz-adv-x="1251" 
d="M131 391v584q0 228 124 333t359 105q195 0 317 -83t154 -247h-129q-52 227 -338 224q-168 -2 -252.5 -78t-84.5 -240v-223q88 163 358 166q85 0 156.5 -13t135 -43t107.5 -77t69.5 -118t25.5 -163v-127q0 -189 -138 -309q-135 -117 -364 -117q-227 0 -365 117
q-135 120 -135 309zM985 391v127q0 165 -90 239t-264 74q-179 0 -264.5 -74.5t-85.5 -238.5v-127q0 -142 92.5 -222.5t257.5 -80.5q169 0 261.5 81t92.5 222z" />
    <glyph glyph-name="six.numr" unicode="&#xe096;" horiz-adv-x="858" 
d="M131 831l2 347q0 268 293 268q120 0 195.5 -53.5t93.5 -159.5h-92q-27 136 -195 133q-96 -2 -143 -44t-47 -136v-103q58 76 202 76q141 2 221 -60.5t80 -191.5v-76q0 -116 -83 -188t-222 -72q-136 0 -220.5 72t-84.5 188zM637 831v76q0 92 -50 135t-151 43
q-104 0 -151 -41t-47 -137v-76q0 -80 51 -124.5t147 -44.5t148.5 44.5t52.5 124.5z" />
    <glyph glyph-name="six.osf" unicode="&#xe097;" horiz-adv-x="1251" 
d="M131 391v584q0 228 124 333t359 105q195 0 317 -83t154 -247h-129q-52 227 -338 224q-168 -2 -252.5 -78t-84.5 -240v-223q88 163 358 166q85 0 156.5 -13t135 -43t107.5 -77t69.5 -118t25.5 -163v-127q0 -189 -138 -309q-135 -117 -364 -117q-227 0 -365 117
q-135 120 -135 309zM985 391v127q0 165 -90 239t-264 74q-179 0 -264.5 -74.5t-85.5 -238.5v-127q0 -142 92.5 -222.5t257.5 -80.5q169 0 261.5 81t92.5 222z" />
    <glyph glyph-name="six.tf" unicode="&#xe098;" horiz-adv-x="1253" 
d="M125 391v584q0 228 123 333t360 105q193 0 315 -83t154 -247h-127q-55 227 -340 224q-168 -2 -253 -78t-85 -240v-223q88 163 359 166q85 0 156.5 -13t135 -43t107 -77t69 -118t25.5 -163v-127q0 -189 -135 -309q-135 -117 -366 -117q-228 0 -363 117q-135 120 -135 309z
M977 391v127q0 165 -90 239t-264 74q-176 0 -263.5 -73.5t-87.5 -239.5v-127q0 -142 93 -222.5t258 -80.5q169 0 261.5 81t92.5 222z" />
    <glyph glyph-name="six.tosf" unicode="&#xe099;" horiz-adv-x="1253" 
d="M125 391v584q0 228 123 333t360 105q193 0 315 -83t154 -247h-127q-55 227 -340 224q-168 -2 -253 -78t-85 -240v-223q88 163 359 166q108 0 194.5 -21.5t156 -68t107 -128.5t37.5 -196v-127q0 -190 -137 -309q-135 -117 -366 -117q-228 0 -363 117q-135 120 -135 309z
M977 391v127q0 165 -90 239t-264 74q-179 0 -265 -74.5t-86 -238.5v-127q0 -142 93 -222.5t258 -80.5q170 0 262 80.5t92 222.5z" />
    <glyph glyph-name="tcedilla" unicode="&#xe09a;" horiz-adv-x="618" 
d="M207 1024v233h139v-233h195v-94h-195v-754q0 -47 29 -77.5t82 -30.5h84v-97h-129q-4 0 -50 6l-53 -69q24 4 39 4q17 0 27 -2q70 -6 113.5 -41.5t43.5 -95.5q0 -55 -28.5 -92t-71 -52.5t-98.5 -17.5h-17q-114 0 -198 35l18 65q79 -30 168 -30q123 3 123 92
q0 34 -26.5 51.5t-71.5 17.5q-60 -3 -101 -26l-51 37l107 151q-78 47 -78 154v772h-160v94h160z" />
    <glyph glyph-name="tcircumflexbelow" unicode="&#xe09b;" horiz-adv-x="618" 
d="M209 1024v233h141v-233h193v-94h-193v-754q0 -47 27.5 -77.5t81.5 -30.5h84v-97h-129q-94 0 -149.5 49t-55.5 138v772h-160v94h160zM41 -406l190 275h129l191 -275h-109l-145 211l-147 -211h-109z" />
    <glyph glyph-name="tdotbelow" unicode="&#xe09c;" horiz-adv-x="618" 
d="M207 1024v233h141v-233h193v-94h-193v-754q0 -47 27.5 -77.5t81.5 -30.5h84v-97h-129q-94 0 -149.5 49t-55.5 138v772h-160v94h160zM236 -377v105h116v-105h-116z" />
    <glyph glyph-name="three.dnom" unicode="&#xe09d;" horiz-adv-x="880" 
d="M260 608h-102v54q0 196 276 196q281 0 281 -196v-62q0 -97 -101 -143q142 -41 142 -189v-59q0 -100 -86.5 -160.5t-235.5 -60.5q-145 0 -231 60.5t-86 160.5v65h104v-65q0 -139 213 -139q219 0 219 139v61q0 135 -196 138h-62v79h54q78 0 119.5 28.5t41.5 80.5v66
q0 114 -176 114q-174 0 -174 -114v-54z" />
    <glyph glyph-name="three.lf" unicode="&#xe09e;" horiz-adv-x="1292" 
d="M332 1016h-150v76q0 323 459 323q219 0 339 -80.5t120 -242.5v-86q0 -86 -54 -151.5t-151 -94.5q132 -31 203 -111.5t71 -206.5v-110q0 -165 -142.5 -264t-385.5 -99q-241 0 -385 99q-141 102 -141 264v98h149v-98q0 -122 96.5 -186t280.5 -64q188 0 284.5 64t96.5 186
v112q0 245 -344 248h-90v107h74q139 1 214.5 54t75.5 146v93q0 107 -77.5 157.5t-233.5 50.5q-160 0 -234.5 -50t-74.5 -158v-76z" />
    <glyph glyph-name="three.numr" unicode="&#xe09f;" horiz-adv-x="880" 
d="M260 1192h-102v53q0 199 276 199q281 0 281 -199v-61q0 -98 -101 -144q142 -41 142 -188v-59q0 -100 -86.5 -161t-235.5 -61q-145 0 -231 61.5t-86 160.5v67h104v-67q0 -140 213 -140q219 0 219 140v61q0 134 -196 137h-62v80h54q79 1 120 29.5t41 79.5v65
q0 117 -176 117q-174 0 -174 -117v-53z" />
    <glyph glyph-name="three.osf" unicode="&#xe0a0;" horiz-adv-x="1292" 
d="M332 657h-150v76q0 324 459 324q219 0 339 -81t120 -243v-86q0 -86 -54 -150.5t-151 -95.5q132 -30 203 -110.5t71 -206.5v-111q0 -165 -142.5 -263.5t-385.5 -98.5q-244 0 -385 100q-141 99 -141 262v99h149v-99q0 -122 96.5 -185.5t280.5 -63.5q188 0 284.5 63.5
t96.5 185.5v115q0 242 -344 248h-90v104h74q138 1 214 55t76 146v92q0 211 -311 211q-160 0 -234.5 -50.5t-74.5 -160.5v-76z" />
    <glyph glyph-name="three.tf" unicode="&#xe0a1;" horiz-adv-x="1253" 
d="M315 1016h-149v76q0 323 459 323q219 0 339.5 -80.5t120.5 -242.5v-86q0 -87 -54 -152t-152 -94q132 -31 204 -111.5t72 -206.5v-110q0 -163 -143 -264q-144 -99 -387 -99q-241 0 -385 99q-142 103 -142 264v98h150v-98q0 -122 96.5 -186t280.5 -64q188 0 284.5 64
t96.5 186v112q0 245 -344 248h-91v107h76q136 1 212.5 54.5t76.5 145.5v93q0 108 -77 158t-234 50q-159 0 -234.5 -50t-75.5 -158v-76z" />
    <glyph glyph-name="three.tosf" unicode="&#xe0a2;" horiz-adv-x="1253" 
d="M317 657h-149v76q0 324 459 324q219 0 338.5 -81t119.5 -243v-86q0 -86 -53.5 -150.5t-150.5 -95.5q132 -31 203 -111t71 -206v-111q0 -165 -142.5 -263.5t-385.5 -98.5t-385 99t-142 263v99h150v-99q0 -122 96.5 -185.5t280.5 -63.5q188 0 284.5 63.5t96.5 185.5v115
q0 242 -344 248h-91v104h74q138 1 214.5 55t76.5 146v92q0 211 -311 211q-160 0 -235 -50.5t-75 -160.5v-76z" />
    <glyph glyph-name="tlinebelow" unicode="&#xe0a3;" horiz-adv-x="618" 
d="M209 1024v233h141v-233h193v-94h-193v-754q0 -47 27.5 -77.5t81.5 -30.5h84v-97h-129q-94 0 -149.5 49t-55.5 138v772h-160v94h160zM45 -369v97h498v-97h-498z" />
    <glyph glyph-name="two.dnom" unicode="&#xe0a4;" horiz-adv-x="802" 
d="M252 586h-100v69q0 99 70.5 150t199.5 51q283 0 283 -201v-43q0 -83 -51 -150t-162 -147q-89 -63 -105 -75q-37 -28 -75 -70t-56 -78h449v-92h-584q8 98 57 174q18 30 62 68l69 57q22 16 88 61q54 37 105 78q41 36 70.5 83t29.5 91v43q0 115 -180 115q-170 0 -170 -115
v-69z" />
    <glyph glyph-name="two.lf" unicode="&#xe0a5;" horiz-adv-x="1165" 
d="M274 989h-145v101q0 162 116 243.5t330 81.5q465 0 465 -325v-66q0 -157 -112 -281q-54 -59 -111 -110q-35 -31 -137 -107l-133 -98l-109 -90q-110 -97 -159 -213h761v-125h-956q11 173 111 297q43 52 70 79.5t77 65.5q62 51 86 66l98 65q9 9 17 13l135 100q49 37 106 98
q111 111 111 240v66q0 108 -79.5 159t-240.5 51q-301 0 -301 -210v-101z" />
    <glyph glyph-name="two.numr" unicode="&#xe0a6;" horiz-adv-x="802" 
d="M252 1176h-100v69q0 98 70.5 148.5t199.5 50.5q283 0 283 -199v-43q0 -83 -50 -149t-163 -150q-77 -54 -105 -76q-39 -27 -76 -67.5t-55 -79.5h449v-90h-584q-2 96 84 207q12 16 57 55q20 17 62 47l73 51q54 37 105 78q41 36 70.5 83t29.5 91v43q0 115 -180 115
q-170 0 -170 -115v-69z" />
    <glyph glyph-name="two.osf" unicode="&#xe0a7;" horiz-adv-x="942" 
d="M246 729h-127v74q0 125 89.5 189.5t252.5 64.5q171 0 263.5 -63.5t92.5 -190.5v-31q0 -106 -65.5 -190.5t-208.5 -190.5q-127 -88 -187.5 -147t-85.5 -127h547v-117h-733q10 86 27.5 138.5t58.5 101.5l51 57q10 12 66 57l67 49q10 8 76 54q106 71 178 143q82 82 82 172
v31q0 147 -227 147q-217 0 -217 -147v-74z" />
    <glyph glyph-name="two.tf" unicode="&#xe0a8;" horiz-adv-x="1253" 
d="M340 989h-145v101q0 162 116 243.5t330 81.5q465 0 465 -325v-66q0 -156 -113 -281q-54 -59 -106.5 -104.5t-141.5 -112.5l-133 -98l-108 -90q-121 -106 -160 -213h762v-125h-959q17 182 113 297q42 50 70 78.5t78 66.5q62 51 86 66l98 65q10 10 16 13l135 100
q52 40 107 98q111 111 111 240v66q0 108 -79.5 159t-240.5 51q-301 0 -301 -210v-101z" />
    <glyph glyph-name="two.tosf" unicode="&#xe0a9;" horiz-adv-x="1024" 
d="M307 729h-125v74q0 125 89.5 189.5t252.5 64.5q169 0 262 -64t93 -190v-31q0 -73 -34 -138t-89 -119t-150 -124q-127 -89 -188 -147.5t-84 -126.5h545v-117h-734q14 90 30.5 141t57.5 99l52 57q13 15 65 57q36 29 66 49l78 54q110 77 178 143q82 82 82 172v31
q0 147 -230 147q-217 0 -217 -147v-74z" />
    <glyph glyph-name="ucaron" unicode="&#xe0aa;" horiz-adv-x="1171" 
d="M584 1247l145 211h109l-189 -274h-131l-188 274h108zM891 453v571h139v-1024h-129v164q-99 -199 -379 -199q-198 0 -292.5 109t-94.5 346v604h139v-571q0 -204 63 -287.5t222 -83.5q165 0 248.5 90t83.5 281z" />
    <glyph glyph-name="udieresisacute" unicode="&#xe0ab;" horiz-adv-x="1171" 
d="M379 1485l233 274h133l-251 -274h-115zM342 1286v105h119v-105h-119zM707 1286v105h118v-105h-118zM891 453v571h139v-1024h-129v164q-99 -199 -379 -199q-198 0 -292.5 109t-94.5 346v604h139v-571q0 -204 63 -287.5t222 -83.5q165 0 248.5 90t83.5 281z" />
    <glyph glyph-name="udieresiscaron" unicode="&#xe0ac;" horiz-adv-x="1171" 
d="M584 1546l145 213h109l-189 -274h-131l-188 274h108zM342 1286v105h119v-105h-119zM707 1286v105h118v-105h-118zM891 453v571h139v-1024h-129v164q-99 -199 -379 -199q-198 0 -292.5 109t-94.5 346v604h139v-571q0 -204 63 -287.5t222 -83.5q165 0 248.5 90t83.5 281z
" />
    <glyph glyph-name="udieresisgrave" unicode="&#xe0ad;" horiz-adv-x="1171" 
d="M659 1485l-251 274h133l233 -274h-115zM342 1286v105h119v-105h-119zM707 1286v105h118v-105h-118zM891 453v571h139v-1024h-129v164q-99 -199 -379 -199q-198 0 -292.5 109t-94.5 346v604h139v-571q0 -204 63 -287.5t222 -83.5q165 0 248.5 90t83.5 281z" />
    <glyph glyph-name="udieresismacron" unicode="&#xe0ae;" horiz-adv-x="1171" 
d="M336 1505v97h495v-97h-495zM342 1286v105h119v-105h-119zM707 1286v105h118v-105h-118zM891 453v571h139v-1024h-129v164q-99 -199 -379 -199q-198 0 -292.5 109t-94.5 346v604h139v-571q0 -204 63 -287.5t222 -83.5q165 0 248.5 90t83.5 281z" />
    <glyph glyph-name="udotbelow" unicode="&#xe0af;" horiz-adv-x="1171" 
d="M891 453v571h139v-1024h-129v164q-99 -199 -379 -199q-198 0 -292.5 109t-94.5 346v604h139v-571q0 -204 63 -287.5t222 -83.5q165 0 248.5 90t83.5 281zM532 -377v105h119v-105h-119z" />
    <glyph glyph-name="zdotbelow" unicode="&#xe0b0;" horiz-adv-x="925" 
d="M88 911v113h752v-84l-578 -827h588v-113h-772v84l577 827h-567zM416 -377v105h119v-105h-119z" />
    <glyph glyph-name="zero.dnom" unicode="&#xe0b1;" horiz-adv-x="890" 
d="M125 365v112q0 193 83 289t238 96q153 0 236.5 -96.5t83.5 -288.5v-112q0 -169 -87 -273t-235 -104q-147 0 -233 105.5t-86 271.5zM662 360v117q0 157 -53.5 227t-164.5 70q-108 0 -160.5 -70t-52.5 -227v-117q0 -134 56.5 -209t158.5 -75t159 75t57 209z" />
    <glyph glyph-name="zero.lf" unicode="&#xe0b2;" horiz-adv-x="1304" 
d="M125 588v190q0 323 135 480t391 157q258 0 393.5 -156.5t135.5 -480.5v-190q0 -277 -142 -451q-138 -172 -387 -172q-246 0 -387 172q-139 174 -139 451zM1030 582v196q0 276 -95.5 396t-283.5 120q-189 0 -283 -123t-94 -393v-196q0 -230 100.5 -362t276.5 -132
q178 0 278.5 132t100.5 362z" />
    <glyph glyph-name="zero.numr" unicode="&#xe0b3;" horiz-adv-x="890" 
d="M125 948v113q0 193 83 289t238 96q153 0 236.5 -96.5t83.5 -288.5v-113q0 -169 -87 -273t-235 -104q-147 0 -233 104.5t-86 272.5zM662 944v117q0 157 -53.5 227t-164.5 70q-108 0 -160.5 -70t-52.5 -227v-117q0 -134 56.5 -209.5t158.5 -75.5t159 75.5t57 209.5z" />
    <glyph glyph-name="zero.osf" unicode="&#xe0b4;" horiz-adv-x="1056" 
d="M125 440l2 133q0 243 104 364.5t297 121.5q190 0 297 -119.5t107 -366.5v-133q0 -209 -109 -342t-295 -133t-295 133q-108 132 -108 342zM799 436v137q0 194 -67.5 282.5t-203.5 88.5t-202 -88t-66 -283v-137q0 -167 70.5 -261.5t197.5 -94.5q128 0 199.5 94.5
t71.5 261.5z" />
    <glyph glyph-name="zero.tf" unicode="&#xe0b5;" horiz-adv-x="1253" 
d="M98 588v190q0 323 135.5 480t391.5 157q251 0 388.5 -153.5t137.5 -483.5v-190q0 -278 -141 -451q-138 -172 -385 -172q-244 -1 -388 174t-139 449zM1004 582v196q0 275 -96.5 395.5t-282.5 120.5q-190 0 -284.5 -123t-94.5 -393v-196q0 -230 100.5 -362t278.5 -132
t278.5 132t100.5 362z" />
    <glyph glyph-name="zero.tosf" unicode="&#xe0b6;" horiz-adv-x="1024" 
d="M109 440v133q0 243 104 364.5t297 121.5q190 0 296.5 -119.5t106.5 -366.5v-133q0 -210 -108 -342q-109 -133 -295 -133t-295 133q-106 130 -106 342zM780 436v137q0 194 -67 282.5t-203 88.5t-202 -88t-66 -283v-137q0 -167 70.5 -261.5t197.5 -94.5q128 0 199 94.5
t71 261.5z" />
    <glyph glyph-name="commaaccent" unicode="&#xf6c3;" horiz-adv-x="0" 
d="M135 -272v143h117v-143q0 -70 -44 -118.5t-128 -60.5v72q55 34 55 107z" />
    </font>
</defs>
</svg>
