<?xml version="1.0" standalone="no"?>
<!DOCTYPE svg PUBLIC "-//W3C//DTD SVG 1.1//EN" "http://www.w3.org/Graphics/SVG/1.1/DTD/svg11.dtd" >
<svg xmlns="http://www.w3.org/2000/svg" xmlns:xlink="http://www.w3.org/1999/xlink" version="1.1">
<metadata>
Created by FontForge 20170731 at Fri Jul 30 04:44:40 2021
 By Aleksey,,,
Copyright (c) 2011 by Jonathan Hill. All rights reserved. wf-rip
</metadata>
<defs>
<font id="NeoGram-ExtraBold" horiz-adv-x="1171" >
  <font-face 
    font-family="NeoGram ExtraBold"
    font-weight="800"
    font-stretch="normal"
    units-per-em="2048"
    panose-1="0 0 9 0 0 0 0 0 0 0"
    ascent="1626"
    descent="-422"
    x-height="1024"
    cap-height="1434"
    bbox="-94 -541 2370 2243"
    underline-thickness="102"
    underline-position="-307"
    unicode-range="U+0020-FB02"
  />
<missing-glyph horiz-adv-x="614" 
 />
    <glyph glyph-name="f_f_i" unicode="ffi" horiz-adv-x="2004" 
d="M465 1458h213v-198h-74q-90 0 -90 -103v-133h164v-199h-164v-825h-326v825h-135v199h135v133q0 140 76.5 220.5t200.5 80.5zM1204 1458h211v-198h-72q-92 0 -92 -103v-133h164v-199h-164v-825h-323v825h-135v199h135v133q0 141 75.5 221t200.5 80zM1587 1186v270h324
v-270h-324zM1587 0v1024h324v-1024h-324z" />
    <glyph glyph-name="f_f_l" unicode="ffl" horiz-adv-x="2007" 
d="M465 1458h213v-198h-74q-90 0 -90 -103v-133h164v-199h-164v-825h-326v825h-135v199h135v133q0 140 76.5 220.5t200.5 80.5zM1204 1458h211v-198h-72q-92 0 -92 -103v-133h164v-199h-164v-825h-323v825h-135v199h135v133q0 141 75.5 221t200.5 80zM1587 0v1434h324v-1434
h-324z" />
    <glyph glyph-name="fi" unicode="fi" horiz-adv-x="1277" 
d="M473 1458h211v-198h-72q-92 0 -92 -103v-133h164v-199h-164v-825h-323v825h-136v199h136v133q0 141 75.5 221t200.5 80zM852 1186v270h324v-270h-324zM852 0v1024h324v-1024h-324z" />
    <glyph glyph-name="fl" unicode="fl" horiz-adv-x="1275" 
d="M473 1458h211v-198h-72q-92 0 -92 -103v-133h164v-199h-164v-825h-323v825h-136v199h136v133q0 141 75.5 221t200.5 80zM852 0v1434h324v-1434h-324z" />
    <glyph glyph-name=".notdef" horiz-adv-x="614" 
 />
    <glyph glyph-name=".null" horiz-adv-x="0" 
 />
    <glyph glyph-name="nonmarkingreturn" horiz-adv-x="682" 
 />
    <glyph glyph-name="space" unicode=" " horiz-adv-x="614" 
 />
    <glyph glyph-name="exclam" unicode="!" horiz-adv-x="493" 
d="M88 539v919h324v-919h-324zM88 0l29 379h268l27 -379h-324z" />
    <glyph glyph-name="quotedbl" unicode="&#x22;" horiz-adv-x="851" 
d="M88 913v596h246v-596h-246zM522 913v596h244v-596h-244z" />
    <glyph glyph-name="numbersign" unicode="#" horiz-adv-x="1200" 
d="M739 997l92 437h226l-94 -437h167v-223h-215l-43 -201h258v-223h-305l-73 -350h-226l76 350h-149l-74 -350h-225l73 350h-159v223h208l43 201h-251v223h299l92 437h223l-92 -437h149zM500 573h149l43 201h-149z" />
    <glyph glyph-name="dollar" unicode="$" horiz-adv-x="1368" 
d="M557 1454v182h252v-182q214 -26 331 -126.5t117 -278.5v-35h-344v53q0 71 -56.5 99t-174.5 28q-117 0 -170 -28t-53 -99v-27q0 -34 24 -57.5t90 -42.5l412 -137q305 -99 305 -371v-26q0 -170 -129 -283.5t-352 -142.5v-183h-252v183q-223 28 -351 142t-128 284v45h344
v-64q0 -76 60 -110.5t200 -34.5q145 0 204.5 35t59.5 110v41q0 82 -90 109l-450 147q-140 46 -215.5 131t-75.5 199v35q0 179 117 279t325 126z" />
    <glyph glyph-name="percent" unicode="%" horiz-adv-x="1695" 
d="M244 -47l946 1505h256l-946 -1505h-256zM78 1040v70q0 152 87 231.5t238 79.5q148 0 238 -78t90 -233v-70q0 -132 -90.5 -218.5t-237.5 -86.5t-236 87t-89 218zM524 1040v70q0 82 -28 112.5t-93 30.5q-64 0 -91 -31.5t-27 -111.5v-70q0 -135 118 -135q121 0 121 135z
M963 297v68q0 156 88.5 234.5t236.5 78.5q149 0 239.5 -78.5t90.5 -234.5v-68q0 -135 -91 -220t-239 -85q-146 0 -235.5 85t-89.5 220zM1409 297v68q0 83 -26.5 113t-94.5 30q-64 0 -91.5 -31.5t-27.5 -111.5v-68q0 -137 119 -137q121 0 121 137z" />
    <glyph glyph-name="ampersand" unicode="&#x26;" horiz-adv-x="1558" 
d="M217 1063v67q0 153 105 238.5t284 85.5q185 0 294.5 -83.5t109.5 -240.5v-67q0 -167 -164 -266l-74 -43l272 -287q75 84 136 209l250 -92q-71 -181 -189 -322l248 -262h-377l-78 82q-160 -109 -391 -109q-251 0 -407 116.5t-156 301.5v76q0 216 188 330l66 39l-49 53
q-68 77 -68 174zM743 1073v57q0 89 -122 89q-55 0 -88 -23.5t-33 -65.5v-67q0 -30 26 -53l68 -68l119 76q30 18 30 55zM825 299l-295 311l-61 -37q-55 -34 -55 -118v-64q0 -64 54.5 -108t149.5 -50q113 -3 207 66z" />
    <glyph glyph-name="quotesingle" unicode="'" horiz-adv-x="417" 
d="M88 913v596h246v-596h-246z" />
    <glyph glyph-name="parenleft" unicode="(" horiz-adv-x="681" 
d="M332 1497h278q-80 -180 -131 -350q-88 -295 -88 -580q0 -225 50.5 -448t168.5 -486h-278q-125 223 -193 461q-71 251 -71 473q0 217 71 471q75 257 193 459z" />
    <glyph glyph-name="parenright" unicode=")" horiz-adv-x="681" 
d="M70 1497h278q120 -206 191 -459q73 -250 73 -471q0 -222 -71 -473q-68 -238 -193 -461h-278q118 263 168.5 486t50.5 448q0 223 -50.5 445t-168.5 485z" />
    <glyph glyph-name="asterisk" unicode="*" horiz-adv-x="980" 
d="M360 1223v211h256v-213l199 67l98 -237l-202 -68l125 -164l-201 -160l-139 183l-121 -172l-219 131l123 180l-211 70l98 237z" />
    <glyph glyph-name="plus" unicode="+" horiz-adv-x="1069" 
d="M399 778v344h269v-344h344v-266h-344v-344h-269v344h-342v266h342z" />
    <glyph glyph-name="comma" unicode="," horiz-adv-x="520" 
d="M115 14v361h323v-361q0 -39 -9.5 -75.5t-35 -76t-65.5 -68.5t-107 -48.5t-153 -21.5v161q29 25 38 53.5t9 75.5z" />
    <glyph glyph-name="hyphen" unicode="-" horiz-adv-x="864" 
d="M88 512v266h688v-266h-688z" />
    <glyph glyph-name="period" unicode="." horiz-adv-x="495" 
d="M88 0v375h326v-375h-326z" />
    <glyph glyph-name="slash" unicode="/" horiz-adv-x="978" 
d="M43 0l639 1434h254l-637 -1434h-256z" />
    <glyph glyph-name="zero" unicode="0" horiz-adv-x="1320" 
d="M90 600v170q0 319 149.5 483t419.5 164q273 0 422.5 -163.5t149.5 -483.5v-170q0 -273 -152 -457q-150 -178 -420 -178q-267 0 -417 178q-152 184 -152 457zM883 582v188q0 203 -55 284t-169 81t-167.5 -84t-53.5 -281v-188q0 -163 58 -247.5t163 -84.5q106 0 165 84.5
t59 247.5z" />
    <glyph glyph-name="one" unicode="1" horiz-adv-x="792" 
d="M414 1405h276v-1405h-348v1012q-114 -81 -309 -99v238q159 12 239 78q43 36 73.5 74t68.5 102z" />
    <glyph glyph-name="two" unicode="2" horiz-adv-x="1216" 
d="M451 946h-345v96q0 181 134.5 278t365.5 97q240 0 377 -94.5t137 -280.5v-57q0 -120 -62.5 -219.5t-191.5 -204.5q-6 -4 -15 -11.5t-23.5 -19.5t-26.5 -22l-72 -55q-126 -107 -176 -166h567v-287h-1046q5 127 26.5 213t67.5 154q29 42 43 60.5t37.5 43t56.5 51.5
q51 43 82 64l94 65l27 19q148 106 208 173t60 142v57q0 62 -39.5 91.5t-130.5 29.5q-155 0 -155 -121v-96z" />
    <glyph glyph-name="three" unicode="3" horiz-adv-x="1310" 
d="M489 989h-348v51q0 97 39.5 170t110 116.5t161 65t199.5 21.5q108 0 198.5 -21.5t162 -65t111.5 -116.5t40 -170v-82q0 -64 -39.5 -121t-103.5 -81q96 -30 149.5 -108.5t53.5 -182.5v-90q0 -178 -158 -293q-155 -113 -414 -113q-256 0 -411 113q-158 115 -158 293v88h348
v-88q0 -85 48 -116.5t173 -31.5q131 0 178.5 31t47.5 117v100q0 66 -37.5 97.5t-118.5 31.5h-152v236h111q135 3 135 102v98q0 59 -37 87t-127 28q-91 0 -126.5 -26.5t-35.5 -88.5v-51z" />
    <glyph glyph-name="four" unicode="4" horiz-adv-x="1325" 
d="M43 555l672 846h323v-821h215v-283h-215v-299h-317v299h-678v258zM367 580h354v475z" />
    <glyph glyph-name="five" unicode="5" horiz-adv-x="1253" 
d="M106 608l146 791h838v-285h-578l-53 -256q100 71 264 68q205 -2 328 -104.5t123 -293.5v-102q0 -198 -152 -332q-150 -129 -397 -129q-246 0 -396 129q-149 131 -149 332v31h348v-31q0 -91 47.5 -133.5t149.5 -42.5q105 0 153.5 42.5t48.5 133.5v102q0 102 -47.5 144.5
t-154.5 42.5q-151 0 -203 -107h-316z" />
    <glyph glyph-name="six" unicode="6" horiz-adv-x="1267" 
d="M92 426v506q0 128 41 222.5t115.5 149.5t167.5 81t207 26q208 0 348 -97.5t172 -279.5h-289q-44 142 -199 142q-16 0 -24 -2q-90 -6 -141.5 -56.5t-51.5 -142.5v-117q70 70 224 76q18 2 53 2q73 0 138 -12t127 -41.5t107 -74.5t72 -115.5t27 -160.5v-106
q0 -198 -152 -332q-150 -129 -397 -129q-244 0 -394.5 130t-150.5 331zM838 426v106q0 102 -47 144.5t-154 42.5q-110 0 -154.5 -41.5t-44.5 -145.5v-106q0 -91 48 -133.5t151 -42.5q104 0 152.5 42.5t48.5 133.5z" />
    <glyph glyph-name="seven" unicode="7" horiz-adv-x="1161" 
d="M68 1118v283h1040v-215q-257 -248 -385 -535q-125 -280 -125 -653h-348q0 323 125.5 609t347.5 511h-655z" />
    <glyph glyph-name="eight" unicode="8" horiz-adv-x="1316" 
d="M147 946v94q0 97 39.5 170t110.5 116.5t161 65t199 21.5q108 0 198 -21.5t161 -65t111 -116.5t40 -170v-94q0 -65 -38 -121.5t-105 -83.5q96 -35 149.5 -111.5t53.5 -176.5v-78q0 -178 -158 -293q-155 -113 -412 -113q-256 0 -411 113q-158 115 -158 293v78q0 101 53 177
t150 111q-67 27 -105.5 83.5t-38.5 121.5zM829 963v81q0 52 -40.5 72.5t-131.5 20.5q-94 0 -133 -20t-39 -73v-81q0 -95 172 -95t172 95zM883 375v90q0 77 -48 103t-178 26q-129 0 -175 -26t-46 -103v-90q0 -66 51 -93.5t170 -27.5q121 0 173.5 27.5t52.5 93.5z" />
    <glyph glyph-name="nine" unicode="9" horiz-adv-x="1282" 
d="M88 879v71q0 203 150 332t399 129q243 0 393 -129q152 -131 152 -332v-473q0 -251 -150 -383q-147 -129 -383 -129q-207 0 -346.5 98t-171.5 279h287q47 -139 200 -139h23q193 17 193 198v152q-71 -71 -224 -74q-16 -2 -51 -2q-73 0 -138.5 12t-127.5 41.5t-106.5 74
t-71.5 115t-27 159.5zM834 879v71q0 91 -47.5 134.5t-149.5 43.5q-105 0 -154 -43.5t-49 -134.5v-71q0 -102 46.5 -143.5t156.5 -41.5q109 0 153 40.5t44 144.5z" />
    <glyph glyph-name="colon" unicode=":" horiz-adv-x="495" 
d="M88 649v375h326v-375h-326zM88 0v375h326v-375h-326z" />
    <glyph glyph-name="semicolon" unicode=";" horiz-adv-x="514" 
d="M109 649v375h323v-375h-323zM109 14v361h323v-361q0 -39 -9.5 -75.5t-35 -76t-66 -68.5t-108 -48.5t-154.5 -21.5v161q30 25 40 53.5t10 75.5z" />
    <glyph glyph-name="less" unicode="&#x3c;" horiz-adv-x="1241" 
d="M57 553v256l1104 518v-280l-805 -367l805 -367v-278z" />
    <glyph glyph-name="equal" unicode="=" horiz-adv-x="1097" 
d="M72 379v506h954v-506h-954z" />
    <glyph glyph-name="greater" unicode="&#x3e;" horiz-adv-x="1243" 
d="M887 680l-805 367v280l1102 -518v-256l-1102 -518v278z" />
    <glyph glyph-name="question" unicode="?" horiz-adv-x="1077" 
d="M414 1075h-344v51q0 163 125 250.5t337 87.5q223 0 351.5 -85t128.5 -253v-43q0 -105 -58 -206q-26 -42 -57 -76q-43 -47 -49 -51l-39 -35q-73 -66 -99.5 -116t-29.5 -126h-346q6 129 53 222.5t164 207.5l51 49q64 61 64 131v43q0 50 -30.5 71.5t-103.5 21.5
q-62 0 -90 -21.5t-28 -71.5v-51zM332 4v356h348v-356h-348z" />
    <glyph glyph-name="at" unicode="@" horiz-adv-x="1359" 
d="M82 451v167q0 320 164 484q167 164 434 164q272 0 436 -164q166 -163 166 -484v-167q0 -147 -51 -269h-412l-4 58q-53 -41 -135 -41q-146 0 -236 86.5t-90 218.5v69q0 152 87.5 233t238.5 81q149 0 239.5 -79t90.5 -235v-247h45q12 62 12 125v167q0 241 -100.5 356.5
t-286.5 115.5q-183 0 -283 -116t-100 -356v-167q0 -208 106 -332q107 -125 277 -125q89 0 154 35l30 -181q-82 -30 -184 -30q-267 0 -434 182q-164 182 -164 451zM803 504v69q0 83 -28 113.5t-95 30.5q-64 0 -91.5 -31t-27.5 -113v-69q0 -135 119 -135q123 0 123 135z" />
    <glyph glyph-name="A" unicode="A" horiz-adv-x="1570" 
d="M63 0l547 1434h353l546 -1434h-360l-92 272h-539l-94 -272h-361zM586 518h405l-205 590z" />
    <glyph glyph-name="B" unicode="B" horiz-adv-x="1333" 
d="M102 0v1434h605q113 0 204.5 -20.5t162.5 -63t110 -115t39 -170.5v-55q0 -88 -59.5 -160.5t-147.5 -104.5q105 -29 169 -111.5t64 -187.5v-88q0 -171 -157 -266q-157 -92 -416 -92h-574zM887 987v51q0 61 -48 92t-132 31h-256v-291h256q83 0 131.5 31t48.5 86zM913 410
v57q0 143 -237 143h-225v-338h225q113 0 175 36t62 102z" />
    <glyph glyph-name="C" unicode="C" horiz-adv-x="1458" 
d="M90 631v157q0 173 48 303.5t137.5 211t211 120t275.5 39.5q277 0 433 -133.5t185 -400.5h-327q-31 136 -95.5 193t-195.5 57q-84 0 -143 -19t-101 -63t-62 -120t-20 -188v-157q0 -201 79 -293t247 -92q125 0 191.5 59t97.5 191h327q-29 -260 -187 -396.5t-429 -136.5
q-316 0 -494 172.5t-178 495.5z" />
    <glyph glyph-name="D" unicode="D" horiz-adv-x="1413" 
d="M102 0v1434h527q155 0 280 -38t218.5 -115t144.5 -203t51 -294v-149q0 -278 -188 -457q-187 -178 -506 -178h-527zM975 635v149q0 200 -80.5 282.5t-265.5 82.5h-178v-864h178q170 0 258 89.5t88 260.5z" />
    <glyph glyph-name="E" unicode="E" horiz-adv-x="1255" 
d="M102 0v1434h1092v-285h-743v-266h714v-285h-714v-313h751v-285h-1100z" />
    <glyph glyph-name="F" unicode="F" horiz-adv-x="1200" 
d="M102 0v1434h1043v-285h-694v-266h665v-285h-665v-598h-349z" />
    <glyph glyph-name="G" unicode="G" horiz-adv-x="1533" 
d="M90 631v157q0 333 179.5 503.5t504.5 170.5q133 0 244 -29.5t199 -89.5t145 -157t76 -225h-351q-29 122 -99 169.5t-214 47.5q-88 0 -148 -18.5t-103.5 -62.5t-64 -120t-20.5 -189v-157q0 -180 87.5 -277.5t248.5 -97.5q278 0 336 254l4 27h-299v221h615v-758h-216
l-12 162q-159 -191 -428 -191q-317 0 -502 185q-182 185 -182 475z" />
    <glyph glyph-name="H" unicode="H" horiz-adv-x="1472" 
d="M1020 883v551h348v-1434h-348v598h-569v-598h-349v1434h349v-551h569z" />
    <glyph glyph-name="I" unicode="I" horiz-adv-x="550" 
d="M102 0v1434h349v-1434h-349z" />
    <glyph glyph-name="J" unicode="J" horiz-adv-x="933" 
d="M487 455v979h349v-979q0 -213 -144 -351q-143 -137 -381 -137q-147 0 -270 72v250q145 -43 231 -43q27 0 39 2q176 15 176 207z" />
    <glyph glyph-name="K" unicode="K" horiz-adv-x="1536" 
d="M451 856l573 578h420l-594 -574l610 -860h-399l-440 631l-170 -162v-469h-349v1434h349v-578z" />
    <glyph glyph-name="L" unicode="L" horiz-adv-x="1183" 
d="M102 0v1434h349v-1149h694v-285h-1043z" />
    <glyph glyph-name="M" unicode="M" horiz-adv-x="1734" 
d="M864 463l334 971h434v-1434h-307v881l-305 -881h-311l-297 881v-881h-316v1434h439z" />
    <glyph glyph-name="N" unicode="N" horiz-adv-x="1486" 
d="M1044 555v879h349v-1434h-353l-596 879v-879h-348v1434h353z" />
    <glyph glyph-name="O" unicode="O" horiz-adv-x="1550" 
d="M90 631v157q0 333 179.5 503.5t504.5 170.5q326 0 506 -170t180 -504v-157q0 -290 -182 -475t-504 -185q-317 0 -502 185q-182 185 -182 475zM1114 631v157q0 221 -80 304q-80 86 -260 86t-258 -87t-78 -303v-157q0 -180 87.5 -277.5t248.5 -97.5q167 0 253.5 96
t86.5 279z" />
    <glyph glyph-name="P" unicode="P" horiz-adv-x="1267" 
d="M102 0v1434h541q95 0 178.5 -14.5t157 -46t126 -78.5t82.5 -116t30 -155v-84q0 -179 -160 -291q-158 -110 -414 -110h-192v-539h-349zM881 948v68q0 77 -59.5 111t-178.5 34h-192v-352h192q112 0 175 36t63 103z" />
    <glyph glyph-name="Q" unicode="Q" horiz-adv-x="1554" 
d="M88 612v160q0 333 178.5 502.5t503.5 169.5q327 0 507.5 -169.5t180.5 -502.5v-160q0 -248 -137 -413l141 -119l-139 -156l-158 129q-162 -98 -393 -98q-321 0 -502 184q-182 185 -182 473zM1110 612v160q0 214 -78.5 301.5t-259.5 87.5q-178 0 -258 -85.5t-80 -303.5
v-160q0 -180 87 -277t251 -97q78 0 139 28l-151 127l141 158l150 -127q59 71 59 188z" />
    <glyph glyph-name="R" unicode="R" horiz-adv-x="1433" 
d="M102 0v1434h588q91 0 172 -14t152 -45.5t122.5 -77.5t81 -113t29.5 -150v-80q0 -111 -67.5 -197t-190.5 -130l369 -627h-387l-332 563h-188v-563h-349zM911 965v61q0 135 -221 135h-239v-325h239q101 0 161 32.5t60 96.5z" />
    <glyph glyph-name="S" unicode="S" horiz-adv-x="1388" 
d="M125 1014v35q0 202 151 307.5t416 105.5q123 0 224.5 -23.5t181.5 -71t125 -129t45 -189.5v-35h-344v53q0 71 -57 99t-175 28q-117 0 -170 -28t-53 -99v-27q0 -33 25 -57t90 -43l411 -137q305 -102 305 -371v-26q0 -198 -167 -316q-165 -119 -441 -119q-275 0 -440 119
q-164 120 -164 316v45h344v-64q0 -76 60 -110.5t200 -34.5q144 0 204 34.5t60 110.5v41q0 82 -90 109l-450 147q-140 44 -215.5 129.5t-75.5 200.5z" />
    <glyph glyph-name="T" unicode="T" horiz-adv-x="1329" 
d="M51 1149v285h1227v-285h-447v-1149h-348v1149h-432z" />
    <glyph glyph-name="U" unicode="U" horiz-adv-x="1415" 
d="M973 541v893h348v-893q0 -251 -166 -414q-165 -160 -446 -160q-280 0 -445 162q-164 164 -164 412v893h346v-893q0 -141 67.5 -215t195.5 -74q130 0 197 74t67 215z" />
    <glyph glyph-name="V" unicode="V" horiz-adv-x="1497" 
d="M750 365l319 1069h367l-510 -1434h-353l-510 1434h367z" />
    <glyph glyph-name="W" unicode="W" horiz-adv-x="2088" 
d="M1440 428l225 1006h352l-393 -1434h-342l-238 958l-235 -958h-342l-395 1434h352l225 -1006l234 1006h323z" />
    <glyph glyph-name="X" unicode="X" horiz-adv-x="1634" 
d="M815 973l307 461h420l-516 -717l533 -717h-422l-322 461l-321 -461h-420l532 717l-518 717h422z" />
    <glyph glyph-name="Y" unicode="Y" horiz-adv-x="1605" 
d="M801 862l336 572h405l-567 -879v-555h-348v555l-568 879h406z" />
    <glyph glyph-name="Z" unicode="Z" horiz-adv-x="1284" 
d="M78 1149v285h1126v-191l-669 -958h677v-285h-1142v190l667 959h-659z" />
    <glyph glyph-name="bracketleft" unicode="[" horiz-adv-x="606" 
d="M88 -369v2011h469v-198h-143v-1612h143v-201h-469z" />
    <glyph glyph-name="backslash" unicode="\" horiz-adv-x="978" 
d="M680 0l-637 1434h256l639 -1434h-258z" />
    <glyph glyph-name="bracketright" unicode="]" horiz-adv-x="604" 
d="M49 1444v198h467v-2011h-467v201h144v1612h-144z" />
    <glyph glyph-name="asciicircum" unicode="^" horiz-adv-x="1290" 
d="M72 612l417 822h312l418 -822h-293l-281 549l-280 -549h-293z" />
    <glyph glyph-name="underscore" unicode="_" horiz-adv-x="1333" 
d="M88 -393v262h1157v-262h-1157z" />
    <glyph glyph-name="grave" unicode="`" horiz-adv-x="735" 
d="M412 1165l-346 344h303l290 -344h-247z" />
    <glyph glyph-name="a" unicode="a" 
d="M410 725h-285q29 163 154 248.5t315 85.5q103 0 187 -23t151 -72t104 -133t37 -198v-633h-266l-12 121q-56 -71 -148 -112t-194 -44q-156 -3 -267 82q-106 84 -106 236q0 27 2 41q7 77 47.5 131t99 81.5t128 44t138 24.5t125.5 16.5t92.5 26.5t37.5 48v19q0 138 -156 141
q-6 2 -14 2q-82 0 -121 -30t-49 -103zM750 385v82q-28 -19 -138 -37q-76 -11 -114 -22q-97 -24 -92 -109q5 -45 41.5 -73.5t97.5 -28.5q93 0 148.5 48t56.5 140z" />
    <glyph glyph-name="b" unicode="b" horiz-adv-x="1189" 
d="M100 453v981h324v-523q100 145 295 148q395 0 395 -498v-108q0 -212 -139 -351q-137 -137 -371 -137q-231 0 -368 137q-136 139 -136 351zM791 453v108q0 131 -41.5 181.5t-143.5 50.5q-101 0 -141.5 -49.5t-40.5 -182.5v-108q0 -222 182 -222q185 0 185 222z" />
    <glyph glyph-name="c" unicode="c" horiz-adv-x="1157" 
d="M90 451v110q0 243 135.5 370.5t372.5 127.5q209 0 336.5 -103.5t144.5 -300.5h-291q-18 84 -57 111t-133 27q-101 0 -141.5 -50t-40.5 -182v-110q0 -123 42 -175.5t140 -52.5q92 0 132.5 28t60.5 109h288q-18 -192 -146.5 -296.5t-334.5 -104.5q-232 0 -370 130t-138 362
z" />
    <glyph glyph-name="d" unicode="d" horiz-adv-x="1191" 
d="M766 911v523h324v-1434h-267l-10 117q-113 -149 -303 -152q-87 0 -165.5 34.5t-138 96.5t-95 157t-35.5 208v108q0 246 112 367q114 123 283 123q200 3 295 -148zM766 461v108q0 133 -40.5 182.5t-141.5 49.5t-143 -48.5t-42 -183.5v-108q0 -221 185 -221q182 0 182 221z
" />
    <glyph glyph-name="e" unicode="e" horiz-adv-x="1206" 
d="M90 453v108q0 242 138.5 370t377.5 128q244 0 381.5 -126.5t136.5 -371.5v-119h-708v-43q0 -221 190 -221q72 0 118 35.5t58 101.5h324q-42 -160 -173.5 -254t-324.5 -94q-237 0 -376 136.5t-142 349.5zM416 616h387q0 126 -46 179t-151 53q-101 0 -145.5 -53t-44.5 -179
z" />
    <glyph glyph-name="f" unicode="f" horiz-adv-x="737" 
d="M465 1458h213v-198h-74q-90 0 -90 -103v-133h164v-199h-164v-825h-326v825h-135v199h135v133q0 140 76.5 220.5t200.5 80.5z" />
    <glyph glyph-name="g" unicode="g" horiz-adv-x="1187" 
d="M88 481v90q0 226 117 355q118 130 293 133q193 0 309 -152l10 117h268v-979q0 -114 -37.5 -198.5t-104.5 -132.5t-151 -70.5t-186 -22.5q-86 0 -164.5 17.5t-145 52t-108 93.5t-45.5 134h273q12 -123 178 -123h12q79 2 116.5 38t37.5 114v215q-38 -67 -116 -103t-177 -34
q-173 5 -276 120.5t-103 335.5zM760 502v90q0 221 -182 221q-85 0 -125.5 -54t-40.5 -167v-90q0 -132 36.5 -182t129.5 -50q99 0 140.5 52t41.5 180z" />
    <glyph glyph-name="h" unicode="h" horiz-adv-x="1183" 
d="M111 0v1434h323v-523q103 148 295 148q177 0 276 -113.5t99 -347.5v-598h-324v561q0 129 -35.5 180.5t-128.5 51.5q-97 0 -139.5 -54t-42.5 -178v-561h-323z" />
    <glyph glyph-name="i" unicode="i" horiz-adv-x="528" 
d="M109 1186v270h323v-270h-323zM109 0v1024h323v-1024h-323z" />
    <glyph glyph-name="j" unicode="j" horiz-adv-x="559" 
d="M139 1186v270h326v-270h-326zM139 -10v1034h326v-1112q0 -250 -285 -277q-25 -2 -74 -2t-124 7v223q40 -3 67 0q48 5 69 33t21 94z" />
    <glyph glyph-name="k" unicode="k" horiz-adv-x="1214" 
d="M111 0v1434h325v-760l330 362h377l-391 -399l434 -637h-371l-266 418l-113 -111v-307h-325z" />
    <glyph glyph-name="l" unicode="l" horiz-adv-x="530" 
d="M111 0v1434h325v-1434h-325z" />
    <glyph glyph-name="m" unicode="m" horiz-adv-x="1789" 
d="M102 1024h291v-113q109 145 285 148q99 0 177.5 -40.5t111.5 -107.5q136 148 342 148q178 0 279.5 -116.5t101.5 -342.5v-600h-326v569q0 132 -33.5 182t-116.5 50h-16q-62 -5 -95.5 -32.5t-45.5 -84.5v-47v-68v-569h-324v569q0 132 -35 182t-108 50t-118.5 -57.5
t-45.5 -174.5v-569h-324v1024z" />
    <glyph glyph-name="n" unicode="n" horiz-adv-x="1191" 
d="M102 1024h291v-113q103 149 309 146q178 0 285 -119t107 -340v-598h-324v561q0 129 -35.5 180.5t-128.5 51.5q-97 0 -138.5 -53.5t-41.5 -178.5v-561h-324v1024z" />
    <glyph glyph-name="o" unicode="o" horiz-adv-x="1202" 
d="M82 453v108q0 242 138 370t378 128q241 0 379.5 -126.5t138.5 -371.5v-108q0 -213 -141 -351q-138 -135 -377 -135q-238 0 -377 136t-139 350zM793 453v108q0 133 -43.5 182.5t-151.5 49.5q-106 0 -149 -50t-43 -182v-108q0 -222 192 -222q195 0 195 222z" />
    <glyph glyph-name="p" unicode="p" horiz-adv-x="1200" 
d="M111 1024h268l10 -117q112 152 305 152q179 0 305 -135q127 -133 127 -361v-108q0 -244 -112 -365q-113 -122 -283 -125q-200 0 -295 148v-482h-325v1393zM803 455v108q0 223 -185 223q-182 0 -182 -223v-108q0 -132 40.5 -182t141.5 -50q102 0 143.5 50.5t41.5 181.5z
" />
    <glyph glyph-name="q" unicode="q" horiz-adv-x="1191" 
d="M76 463v108q0 214 137 351t369 137q233 0 370 -137q138 -138 138 -351v-940h-326v482q-95 -145 -293 -148q-395 0 -395 498zM766 463v108q0 222 -182 222q-185 0 -185 -222v-108q0 -131 41.5 -181.5t143.5 -50.5q99 0 140.5 49t41.5 183z" />
    <glyph glyph-name="r" unicode="r" horiz-adv-x="765" 
d="M102 1024h291v-188q83 218 336 221v-269q-157 -5 -231 -67.5t-74 -214.5v-506h-322v1024z" />
    <glyph glyph-name="s" unicode="s" horiz-adv-x="1105" 
d="M119 719v22q0 156 116 237t312 81q197 0 314.5 -79t121.5 -230v-11h-299v11q-12 102 -137 102q-114 0 -123 -76l-2 -12v-8q0 -54 135 -97l199 -61q131 -39 195.5 -107t64.5 -176v-10q0 -149 -129 -244q-125 -94 -340 -94q-200 0 -326 87t-137 229v26h295v-22
q6 -60 49.5 -92.5t118.5 -32.5q71 0 110 24t45 66l5 18q2 4 2 13q0 35 -25 55.5t-70 36.5l-270 88q-108 36 -166.5 101.5t-58.5 154.5z" />
    <glyph glyph-name="t" unicode="t" horiz-adv-x="751" 
d="M178 1024v285h326v-285h164v-199h-164v-544q0 -91 84 -91h80v-206h-213q-277 0 -277 241v600h-135v199h135z" />
    <glyph glyph-name="u" unicode="u" horiz-adv-x="1189" 
d="M768 463v561h324v-1024h-291v113q-100 -146 -322 -146q-168 0 -274.5 100.5t-106.5 297.5v659h324v-561q0 -128 36.5 -180t129.5 -52q94 0 137 54t43 178z" />
    <glyph glyph-name="v" unicode="v" horiz-adv-x="1163" 
d="M584 293l209 731h331l-362 -1024h-356l-365 1024h332z" />
    <glyph glyph-name="w" unicode="w" horiz-adv-x="1708" 
d="M1167 276l189 748h311l-326 -1024h-301l-186 610l-186 -610h-301l-326 1024h311l189 -748l190 748h248z" />
    <glyph glyph-name="x" unicode="x" horiz-adv-x="1249" 
d="M623 741l186 283h377l-365 -494l377 -530h-362l-213 326l-209 -326h-363l377 530l-365 494h379z" />
    <glyph glyph-name="y" unicode="y" 
d="M580 270l239 752h314l-494 -1393h-252l113 369h-94l-365 1026h324z" />
    <glyph glyph-name="z" unicode="z" horiz-adv-x="1003" 
d="M82 766v258h842v-172l-416 -594h424v-258h-858v172l415 594h-407z" />
    <glyph glyph-name="braceleft" unicode="{" horiz-adv-x="733" 
d="M446 1642h226v-198h-76q-92 0 -92 -125v-418q0 -166 -84 -262q84 -104 84 -264v-418q0 -125 92 -125h76v-199h-226q-133 0 -199.5 77.5t-66.5 217.5v418q0 86 -18.5 130.5t-81.5 60.5h-17v204h19q54 4 76 50.5t22 136.5v422q0 139 66.5 215.5t199.5 76.5z" />
    <glyph glyph-name="bar" unicode="|" horiz-adv-x="444" 
d="M88 -221v1747h274v-1747h-274z" />
    <glyph glyph-name="braceright" unicode="}" horiz-adv-x="733" 
d="M59 1444v198h224q139 0 203.5 -78t64.5 -214v-422q0 -92 20.5 -137.5t77.5 -49.5h19v-204h-19q-66 -14 -86 -70q-12 -42 -12 -121v-418q0 -141 -66 -218t-202 -77h-224v199h74q92 0 92 125v418q0 160 84 264q-84 96 -84 262v418q0 125 -92 125h-74z" />
    <glyph glyph-name="asciitilde" unicode="~" horiz-adv-x="1228" 
d="M301 289l-219 125q93 164 186 217q94 61 195 61q15 0 51 -4q66 -5 161.5 -36t112.5 -31h13q67 6 137 129l211 -136q-60 -100 -100 -149.5t-88 -77.5q-61 -37 -144 -37q-39 0 -86 6q-43 4 -134.5 33t-123.5 29h-20q-85 -9 -152 -129z" />
    <glyph glyph-name="uni00A0" unicode="&#xa0;" horiz-adv-x="614" 
 />
    <glyph glyph-name="exclamdown" unicode="&#xa1;" horiz-adv-x="491" 
d="M115 713l-29 377h324l-27 -377h-268zM86 -369v920h324v-920h-324z" />
    <glyph glyph-name="cent" unicode="&#xa2;" horiz-adv-x="1132" 
d="M442 1042v185h252v-180q163 -27 259.5 -126t109.5 -266h-289q-20 84 -59 111t-133 27q-100 0 -141.5 -50.5t-41.5 -181.5v-110q0 -123 42.5 -175.5t140.5 -52.5q92 0 132 28t60 109h289q-15 -165 -113 -264.5t-256 -124.5v-139h-252v143q-172 33 -269 157t-97 319v110
q0 205 95.5 326.5t270.5 154.5z" />
    <glyph glyph-name="sterling" unicode="&#xa3;" horiz-adv-x="1298" 
d="M92 588v252h98q-37 89 -45 127q-10 52 -10 116q0 101 39 176t110 118.5t160.5 64t198.5 20.5q229 0 345 -109t126 -337h-266q-21 187 -205 184q-164 -6 -164 -137q0 -13 4 -37q3 -48 17 -80q18 -41 59 -106h332v-252h-273v-29q0 -60 -14 -106q-21 -83 -104 -148
q58 12 104 12q23 0 33 -2q33 -2 106.5 -22.5t106.5 -22.5h20q119 0 252 133l105 -210q-177 -216 -416 -216q-71 0 -149 22.5t-140 45.5t-96 23q-95 -3 -238 -91l-104 216q193 120 205 251q2 8 2 27q0 52 -19 117h-180z" />
    <glyph glyph-name="yen" unicode="&#xa5;" horiz-adv-x="1622" 
d="M807 862l338 572h405l-381 -590h136v-199h-261l-61 -90v-39h322v-199h-322v-317h-348v317h-318v199h318v39l-62 90h-256v199h132l-381 590h405z" />
    <glyph glyph-name="brokenbar" unicode="&#xa6;" horiz-adv-x="444" 
d="M88 764v762h274v-762h-274zM88 -221v762h274v-762h-274z" />
    <glyph glyph-name="section" unicode="&#xa7;" horiz-adv-x="1095" 
d="M117 893v25q0 156 116 235.5t314 79.5q129 0 225 -33t152 -103t57 -171v-13h-299v13q-12 100 -135 100q-117 0 -123 -74l-2 -12v-8q0 -52 125 -92l209 -66q128 -39 193 -107.5t65 -174.5v-11q0 -131 -99 -219q99 -77 99 -205v-8q0 -152 -129 -246q-125 -94 -338 -94
q-201 0 -327.5 88t-137.5 232v22h295l2 -22q4 -60 48.5 -92.5t119.5 -32.5q72 0 112.5 27t45.5 73l2 8v13q0 34 -22.5 53t-72.5 39l-268 88q-110 36 -168.5 101t-58.5 155v24q0 143 102 220q-102 73 -102 188zM612 551l-116 37q-69 -15 -72 -70l-2 -10v-8q0 -49 84 -80
l131 -45l25 -8q40 27 43 71l2 6v13q0 38 -24 58t-71 36z" />
    <glyph glyph-name="dieresis" unicode="&#xa8;" horiz-adv-x="872" 
d="M88 1245v213h256v-213h-256zM530 1245v213h256v-213h-256z" />
    <glyph glyph-name="copyright" unicode="&#xa9;" horiz-adv-x="1665" 
d="M831 1468q153 0 292 -59.5t240 -159.5t160.5 -239.5t59.5 -292.5q2 -120 -35.5 -235t-108.5 -208.5t-164.5 -164.5t-208.5 -108.5t-235 -35.5q-153 0 -292.5 59.5t-239.5 160t-159.5 240t-59.5 292.5q-3 150 57 290t162 242t242 162t290 57zM1233 1118q-166 166 -404 166
q-235 0 -401 -166q-164 -167 -164 -401q0 -235 164 -402q165 -165 401 -165q239 0 404 165q166 166 166 402q0 235 -166 401zM475 676v82q0 179 94.5 270.5t264.5 91.5q149 0 234 -75.5t97 -223.5h-184q-17 76 -48.5 104.5t-98.5 28.5q-88 0 -126 -43t-38 -153v-82
q0 -104 38.5 -149.5t125.5 -45.5q64 0 95.5 30.5t49.5 104.5h186q-12 -145 -98 -222t-233 -77q-168 0 -263.5 94t-95.5 265z" />
    <glyph glyph-name="ordfeminine" unicode="&#xaa;" horiz-adv-x="768" 
d="M283 1229h-179q18 100 94.5 152.5t192.5 52.5q131 0 211 -62t80 -196v-383h-168l-6 63q-75 -81 -203 -84q-98 -2 -161.5 51t-63.5 142v24q9 76 59 113q77 47 189 57q18 4 46 8t42.5 7t31.5 8t24 13t7 19v11q0 79 -88 82h-10q-47 0 -69.5 -17.5t-28.5 -60.5zM479 1026v45
q-20 -12 -73 -20h-9q-24 -3 -35.5 -5t-30 -7.5t-27.5 -12.5t-16 -20t-7 -31q2 -25 22.5 -41t56.5 -16q116 0 119 108z" />
    <glyph glyph-name="guillemotleft" unicode="&#xab;" horiz-adv-x="907" 
d="M74 406v233l329 250v-238l-174 -129l174 -127v-239zM489 406v233l332 250v-238l-174 -129l174 -127v-239z" />
    <glyph glyph-name="logicalnot" unicode="&#xac;" horiz-adv-x="1794" 
 />
    <glyph glyph-name="registered" unicode="&#xae;" horiz-adv-x="1665" 
d="M831 1468q153 0 292 -59.5t240 -159.5t160.5 -239.5t59.5 -292.5q2 -120 -35.5 -235t-108.5 -208.5t-164.5 -164.5t-208.5 -108.5t-235 -35.5q-153 0 -292.5 59.5t-239.5 160t-159.5 240t-59.5 292.5q-3 150 57 290t162 242t242 162t290 57zM1233 1118q-166 166 -404 166
q-235 0 -401 -166q-164 -167 -164 -401q0 -235 164 -402q165 -165 401 -165q239 0 404 165q166 166 166 402q0 235 -166 401zM522 352v750h316q123 0 202.5 -52.5t79.5 -158.5v-41q0 -57 -34.5 -102t-96.5 -70l193 -326h-209l-172 291h-92v-291h-187zM938 854v33
q0 63 -104 63h-125v-157h125q104 0 104 61z" />
    <glyph glyph-name="degree" unicode="&#xb0;" horiz-adv-x="747" 
d="M666 1176q0 -122 -86 -211q-83 -86 -207 -86q-123 0 -209 86q-84 87 -84 211q0 119 84 206q86 86 207 86q123 0 209 -86t86 -206zM373 1300q-51 0 -88 -37t-37 -87q0 -56 35.5 -92.5t89.5 -36.5t89.5 36.5t35.5 92.5q0 51 -37 87.5t-88 36.5z" />
    <glyph glyph-name="plusminus" unicode="&#xb1;" horiz-adv-x="1794" 
 />
    <glyph glyph-name="twosuperior" unicode="&#xb2;" horiz-adv-x="806" 
d="M322 1153h-213v61q0 110 81.5 169t221.5 59t226.5 -57t86.5 -171v-34q0 -72 -38 -132.5t-116 -125.5q-42 -37 -102 -80q-33 -23 -84 -78h340v-180h-637q3 120 47 211q17 35 55 73q45 42 64 56l80 57q4 4 16 10q81 57 120.5 99.5t39.5 89.5v34q0 68 -98 68q-90 0 -90 -68
v-61z" />
    <glyph glyph-name="threesuperior" unicode="&#xb3;" horiz-adv-x="868" 
d="M340 1182h-215v35q0 112 82.5 168.5t226.5 56.5q138 0 223.5 -55t85.5 -170v-54q0 -39 -21 -73.5t-56 -47.5q55 -18 84.5 -65t29.5 -111v-51q0 -109 -95.5 -177.5t-250.5 -68.5t-250.5 68t-95.5 178v55h217v-55q0 -49 28 -67.5t101 -18.5q76 0 103.5 18t27.5 68v59
q0 72 -90 72h-94v150h70q77 0 77 57v64q0 34 -21 49.5t-75 15.5q-52 0 -72 -15.5t-20 -49.5v-35z" />
    <glyph glyph-name="acute" unicode="&#xb4;" horiz-adv-x="735" 
d="M66 1165l292 344h301l-346 -344h-247z" />
    <glyph glyph-name="mu" unicode="&#xb5;" horiz-adv-x="1705" 
 />
    <glyph glyph-name="paragraph" unicode="&#xb6;" horiz-adv-x="1409" 
d="M602 1434h733v-285h-149v-1487h-273v1487h-192v-1487h-275v893q-168 40 -272 156q-102 120 -102 266q0 212 143 334q144 123 387 123z" />
    <glyph glyph-name="cedilla" unicode="&#xb8;" horiz-adv-x="638" 
d="M113 -168l110 168h168l-59 -88h20q33 0 60 -6q70 -14 111.5 -56t41.5 -106q0 -90 -65 -140t-170 -55h-25q-132 0 -233 43l24 119q76 -30 152 -33q106 0 106 66q0 20 -17 31.5t-46 11.5h-6q-49 0 -80 -25z" />
    <glyph glyph-name="onesuperior" unicode="&#xb9;" horiz-adv-x="540" 
d="M268 1434h170v-850h-215v602q-65 -44 -186 -56v152q88 6 137 40t94 112z" />
    <glyph glyph-name="ordmasculine" unicode="&#xba;" horiz-adv-x="794" 
d="M82 1067v66q0 149 83.5 225t229.5 76q143 0 229.5 -75.5t86.5 -225.5v-66q0 -129 -86 -212t-230 -83q-141 0 -227 82.5t-86 212.5zM508 1067v66q0 78 -25 106.5t-88 28.5q-62 0 -86 -29t-24 -106v-66q0 -129 110 -129q113 0 113 129z" />
    <glyph glyph-name="guillemotright" unicode="&#xbb;" horiz-adv-x="909" 
d="M262 522l-174 129v238l332 -250v-233l-332 -250v239zM680 522l-174 129v238l332 -250v-233l-332 -250v239z" />
    <glyph glyph-name="onequarter" unicode="&#xbc;" horiz-adv-x="1726" 
d="M317 -35l670 1503h254l-668 -1503h-256zM266 1434h172v-850h-217v602q-65 -44 -184 -56v152q60 4 102 22t69 47.5t58 82.5zM924 340l403 510h201v-494h129v-176h-129v-180h-197v180h-407v160zM1126 356h205v273z" />
    <glyph glyph-name="onehalf" unicode="&#xbd;" horiz-adv-x="1757" 
d="M317 -35l670 1503h254l-668 -1503h-256zM266 1434h172v-850h-217v602q-65 -44 -184 -56v152q60 4 102 22t69 47.5t58 82.5zM1274 569h-213v58q0 110 81.5 168.5t221.5 58.5q146 0 229.5 -57t83.5 -170v-33q0 -71 -38 -131t-115 -125q-38 -33 -103 -80q-33 -23 -84 -78
h340v-180h-637q3 191 119 301q57 49 144 107q83 57 118 96t41 90v33q0 69 -98 69q-90 0 -90 -69v-58z" />
    <glyph glyph-name="threequarters" unicode="&#xbe;" horiz-adv-x="1972" 
d="M561 -35l670 1503h254l-668 -1503h-256zM324 1176h-215v34q0 115 85.5 170.5t223.5 55.5q144 0 227.5 -57t83.5 -169v-49q0 -38 -22 -73t-56 -48q54 -19 84.5 -66.5t30.5 -109.5v-51q0 -110 -96.5 -178t-251.5 -68q-154 0 -249 68t-95 178v55h215v-55q0 -51 28.5 -68.5
t100.5 -17.5q78 0 105.5 17.5t27.5 68.5v57q0 74 -90 74h-94v150h69q78 0 78 57v59q0 34 -22 50t-74 16q-54 0 -74 -16.5t-20 -49.5v-34zM1167 340l404 510h201v-494h131v-176h-131v-180h-197v180h-408v160zM1370 356h205v273z" />
    <glyph glyph-name="questiondown" unicode="&#xbf;" horiz-adv-x="1079" 
d="M397 737v357h348v-357h-348zM399 623h344q-6 -131 -52.5 -224.5t-164.5 -205.5l-51 -48q-63 -60 -63 -131v-45q0 -48 31.5 -70t101.5 -22q63 0 91 21t28 71v54h344v-54q0 -163 -125.5 -250.5t-337.5 -87.5q-102 0 -186.5 19t-150.5 58.5t-103 106t-37 154.5v45
q-4 64 21.5 130t60.5 114q15 28 49 57l39 39l32 27q70 68 97.5 118.5t31.5 123.5z" />
    <glyph glyph-name="Agrave" unicode="&#xc0;" horiz-adv-x="1570" 
d="M858 1575l-346 344h303l293 -344h-250zM63 0l547 1434h353l546 -1434h-360l-92 272h-539l-94 -272h-361zM586 518h405l-205 590z" />
    <glyph glyph-name="Aacute" unicode="&#xc1;" horiz-adv-x="1570" 
d="M463 1575l293 344h303l-348 -344h-248zM63 0l547 1434h353l546 -1434h-360l-92 272h-539l-94 -272h-361zM586 518h405l-205 590z" />
    <glyph glyph-name="Acircumflex" unicode="&#xc2;" horiz-adv-x="1570" 
d="M63 0l547 1434h353l546 -1434h-360l-92 272h-539l-94 -272h-361zM586 518h405l-205 590zM416 1575l237 344h258l238 -344h-229l-138 203l-137 -203h-229z" />
    <glyph glyph-name="Atilde" unicode="&#xc3;" horiz-adv-x="1570" 
d="M543 1642l-127 76q42 92 92.5 136t118.5 44q68 3 155 -32q13 -5 36 -15t36.5 -15.5t30.5 -10t30 -4.5q12 0 22 2.5t19.5 8.5t15.5 10t15 15t13 16.5t14.5 21.5t15.5 22l129 -76q-83 -146 -158 -172q-37 -16 -79 -16q-60 0 -136 28q-14 5 -38.5 15.5t-39.5 16.5t-34.5 11
t-34.5 5q-29 0 -48 -19t-48 -68zM63 0l547 1434h353l546 -1434h-360l-92 272h-539l-94 -272h-361zM586 518h405l-205 590z" />
    <glyph glyph-name="Adieresis" unicode="&#xc4;" horiz-adv-x="1570" 
d="M434 1655v213h254v-213h-254zM874 1655v213h256v-213h-256zM63 0l547 1434h353l546 -1434h-360l-92 272h-539l-94 -272h-361zM586 518h405l-205 590z" />
    <glyph glyph-name="Aring" unicode="&#xc5;" horiz-adv-x="1570" 
d="M999 1792q0 -91 -63 -154t-154 -63t-154 63t-63 154q0 88 64 152q65 65 153 65q87 0 152 -65t65 -152zM688 1792q0 -38 28 -66t66 -28t66.5 28t28.5 66t-29 66t-68 28q-37 0 -64.5 -28t-27.5 -66zM63 0l547 1434h353l546 -1434h-360l-92 272h-539l-94 -272h-361zM586 518
h405l-205 590z" />
    <glyph glyph-name="AE" unicode="&#xc6;" horiz-adv-x="1939" 
d="M66 0l544 1434h1262v-285h-744v-266h715v-285h-715v-313h752v-285h-1100v272h-262l-94 -272h-358zM586 518h194v572z" />
    <glyph glyph-name="Ccedilla" unicode="&#xc7;" horiz-adv-x="1445" 
d="M84 631v157q0 336 175 505t495 169q277 0 433 -133.5t185 -400.5h-328q-31 136 -96 193t-194 57q-84 0 -142.5 -19t-100.5 -63t-61.5 -120t-19.5 -188v-157q0 -202 78 -293.5t246 -91.5q126 0 191.5 59t98.5 191h328q-29 -250 -175 -385.5t-398 -147.5h-15l-34 -51h20
q28 0 55 -6q68 -13 113 -55.5t45 -106.5q0 -92 -68 -142t-174 -55h-14q-136 0 -238 45l25 119q76 -30 143 -33h11q106 0 106 66q0 20 -19 31.5t-46 11.5h-7q-51 0 -79 -25l-91 70l91 139q-256 34 -397.5 201.5t-141.5 458.5z" />
    <glyph glyph-name="Egrave" unicode="&#xc8;" horiz-adv-x="1255" 
d="M102 0v1434h1092v-285h-743v-266h714v-285h-714v-313h751v-285h-1100zM694 1575l-346 344h303l291 -344h-248z" />
    <glyph glyph-name="Eacute" unicode="&#xc9;" horiz-adv-x="1255" 
d="M297 1575l293 344h303l-346 -344h-250zM102 0v1434h1092v-285h-743v-266h714v-285h-714v-313h751v-285h-1100z" />
    <glyph glyph-name="Ecircumflex" unicode="&#xca;" horiz-adv-x="1255" 
d="M252 1575l235 344h258l238 -344h-227l-140 203l-137 -203h-227zM102 0v1434h1092v-285h-743v-266h714v-285h-714v-313h751v-285h-1100z" />
    <glyph glyph-name="Edieresis" unicode="&#xcb;" horiz-adv-x="1255" 
d="M102 0v1434h1092v-285h-743v-266h714v-285h-714v-313h751v-285h-1100zM268 1655v213h256v-213h-256zM709 1655v213h256v-213h-256z" />
    <glyph glyph-name="Igrave" unicode="&#xcc;" horiz-adv-x="550" 
d="M348 1575l-346 344h303l293 -344h-250zM102 0v1434h349v-1434h-349z" />
    <glyph glyph-name="Iacute" unicode="&#xcd;" horiz-adv-x="550" 
d="M-47 1575l293 344h303l-346 -344h-250zM104 0v1434h349v-1434h-349z" />
    <glyph glyph-name="Icircumflex" unicode="&#xce;" horiz-adv-x="550" 
d="M-92 1575l237 344h258l238 -344h-229l-138 203l-137 -203h-229zM104 0v1434h349v-1434h-349z" />
    <glyph glyph-name="Idieresis" unicode="&#xcf;" horiz-adv-x="550" 
d="M-76 1655v213h256v-213h-256zM365 1655v213h256v-213h-256zM104 0v1434h349v-1434h-349z" />
    <glyph glyph-name="Eth" unicode="&#xd0;" horiz-adv-x="1513" 
d="M203 856v578h526q155 0 280 -38t218.5 -115t144.5 -203t51 -294v-149q0 -280 -186 -457q-187 -178 -508 -178h-526v592h-131v264h131zM1075 635v149q0 105 -20 175.5t-64 112.5t-107 59.5t-155 17.5h-178v-293h209v-264h-209v-307h178q170 0 258 89.5t88 260.5z" />
    <glyph glyph-name="Ntilde" unicode="&#xd1;" horiz-adv-x="1486" 
d="M508 1642l-127 76q76 180 209 180q68 3 155 -32q13 -5 36.5 -15t36.5 -15.5t30.5 -10t30.5 -4.5q14 0 26 4.5t19.5 8.5t18.5 16t15 17.5t17.5 24.5t17.5 25l131 -76q-83 -145 -159 -172q-37 -16 -80 -16q-59 0 -135 28q-5 2 -36.5 15t-41.5 16q-38 17 -70 17
q-29 0 -48 -19t-46 -68zM1044 555v879h349v-1434h-353l-596 879v-879h-348v1434h353z" />
    <glyph glyph-name="Ograve" unicode="&#xd2;" horiz-adv-x="1550" 
d="M852 1575l-346 344h303l293 -344h-250zM90 631v157q0 333 179.5 503.5t504.5 170.5q326 0 506 -170t180 -504v-157q0 -290 -182 -475t-504 -185q-317 0 -502 185q-182 185 -182 475zM1114 631v157q0 221 -80 304q-80 86 -260 86t-258 -87t-78 -303v-157
q0 -180 87.5 -277.5t248.5 -97.5q167 0 253.5 96t86.5 279z" />
    <glyph glyph-name="Oacute" unicode="&#xd3;" horiz-adv-x="1550" 
d="M457 1575l291 344h303l-346 -344h-248zM90 631v157q0 333 179.5 503.5t504.5 170.5q326 0 506 -170t180 -504v-157q0 -290 -182 -475t-504 -185q-317 0 -502 185q-182 185 -182 475zM1114 631v157q0 221 -80 304q-80 86 -260 86t-258 -87t-78 -303v-157
q0 -180 87.5 -277.5t248.5 -97.5q167 0 253.5 96t86.5 279z" />
    <glyph glyph-name="Ocircumflex" unicode="&#xd4;" horiz-adv-x="1550" 
d="M90 631v157q0 333 179.5 503.5t504.5 170.5q326 0 506 -170t180 -504v-157q0 -290 -182 -475t-504 -185q-317 0 -502 185q-182 185 -182 475zM1114 631v157q0 221 -80 304q-80 86 -260 86t-258 -87t-78 -303v-157q0 -180 87.5 -277.5t248.5 -97.5q167 0 253.5 96
t86.5 279zM410 1575l237 344h258l238 -344h-230l-137 203l-137 -203h-229z" />
    <glyph glyph-name="Otilde" unicode="&#xd5;" horiz-adv-x="1550" 
d="M537 1642l-127 76q39 92 89.5 136t118.5 44q71 3 158 -32q102 -43 133 -45q20 1 35 6.5t30.5 23.5t22 26.5t27.5 39.5l129 -76q-83 -145 -160 -172q-37 -16 -78 -16q-59 0 -135 28l-80 31q-34 17 -69 17q-28 0 -46 -18.5t-48 -68.5zM90 631v157q0 333 179.5 503.5
t504.5 170.5q326 0 506 -170t180 -504v-157q0 -290 -182 -475t-504 -185q-317 0 -502 185q-182 185 -182 475zM1114 631v157q0 216 -78 303t-260 87t-260 -87t-78 -303v-157q0 -181 87 -278t251 -97q166 0 252 96t86 279z" />
    <glyph glyph-name="Odieresis" unicode="&#xd6;" horiz-adv-x="1550" 
d="M426 1655v213h256v-213h-256zM868 1655v213h254v-213h-254zM90 631v157q0 333 179.5 503.5t504.5 170.5q326 0 506 -170t180 -504v-157q0 -290 -182 -475t-504 -185q-317 0 -502 185q-182 185 -182 475zM1114 631v157q0 221 -80 304q-80 86 -260 86t-258 -87t-78 -303
v-157q0 -180 87.5 -277.5t248.5 -97.5q167 0 253.5 96t86.5 279z" />
    <glyph glyph-name="multiply" unicode="&#xd7;" horiz-adv-x="1032" 
d="M328 645l-244 244l190 188l244 -243l242 241l188 -186l-243 -244l243 -244l-188 -188l-244 244l-244 -242l-186 186z" />
    <glyph glyph-name="Oslash" unicode="&#xd8;" horiz-adv-x="1550" 
d="M1012 1536h256l-78 -174q270 -164 270 -574v-157q0 -290 -182 -475t-504 -185q-102 0 -190 21l-41 -94h-258l82 184q-134 86 -205.5 228.5t-71.5 320.5v157q0 333 179.5 503.5t504.5 170.5q108 0 197 -18zM438 788v-157q0 -155 64 -246l350 789q-46 4 -78 4
q-180 0 -258 -87t-78 -303zM1114 631v157q0 187 -57 273l-355 -799q34 -6 72 -6q167 0 253.5 96t86.5 279z" />
    <glyph glyph-name="Ugrave" unicode="&#xd9;" horiz-adv-x="1415" 
d="M786 1575l-346 344h303l293 -344h-250zM973 541v893h348v-893q0 -251 -166 -414q-165 -160 -446 -160q-280 0 -445 162q-164 164 -164 412v893h346v-893q0 -141 67.5 -215t195.5 -74q130 0 197 74t67 215z" />
    <glyph glyph-name="Uacute" unicode="&#xda;" horiz-adv-x="1415" 
d="M391 1575l291 344h303l-346 -344h-248zM973 541v893h348v-893q0 -251 -166 -414q-165 -160 -446 -160q-280 0 -445 162q-164 164 -164 412v893h346v-893q0 -141 67.5 -215t195.5 -74q130 0 197 74t67 215z" />
    <glyph glyph-name="Ucircumflex" unicode="&#xdb;" horiz-adv-x="1415" 
d="M973 541v893h348v-893q0 -251 -166 -414q-165 -160 -446 -160q-280 0 -445 162q-164 164 -164 412v893h346v-893q0 -141 67.5 -215t195.5 -74q130 0 197 74t67 215zM344 1575l238 344h258l237 -344h-229l-137 203l-138 -203h-229z" />
    <glyph glyph-name="Udieresis" unicode="&#xdc;" horiz-adv-x="1415" 
d="M360 1655v213h256v-213h-256zM803 1655v213h254v-213h-254zM973 541v893h348v-893q0 -251 -166 -414q-165 -160 -446 -160q-280 0 -445 162q-164 164 -164 412v893h346v-893q0 -141 67.5 -215t195.5 -74q130 0 197 74t67 215z" />
    <glyph glyph-name="Yacute" unicode="&#xdd;" horiz-adv-x="1605" 
d="M481 1575l293 344h303l-346 -344h-250zM801 862l336 572h405l-567 -879v-555h-348v555l-568 879h406z" />
    <glyph glyph-name="Thorn" unicode="&#xde;" horiz-adv-x="1251" 
d="M102 0v1434h349v-187h180q120 0 220.5 -23.5t181 -71t126 -128t45.5 -186.5v-84q0 -180 -159.5 -291t-413.5 -111h-180v-352h-349zM858 754v84q0 76 -46.5 100.5t-180.5 24.5h-180v-328h180q125 0 176 26.5t51 92.5z" />
    <glyph glyph-name="germandbls" unicode="&#xdf;" horiz-adv-x="1280" 
d="M451 4h-349v1090q0 98 40 170.5t112.5 115.5t166 63.5t208.5 20.5q107 0 196.5 -20.5t161.5 -63.5t113 -116t41 -170v-113q0 -63 -40 -119.5t-106 -83.5q96 -34 150.5 -111.5t54.5 -179.5v-77q0 -180 -158 -295q-156 -111 -413 -111h-94v283h94q122 0 172.5 30.5
t50.5 100.5v78q0 85 -53 114t-195 29v235q100 2 144.5 26.5t44.5 80.5v88q0 113 -164 113q-96 0 -137 -27.5t-41 -85.5v-1065z" />
    <glyph glyph-name="agrave" unicode="&#xe0;" 
d="M666 1165l-349 344h304l292 -344h-247zM410 725h-285q29 163 154 248.5t315 85.5q103 0 187 -23t151 -72t104 -133t37 -198v-633h-266l-12 121q-55 -72 -147 -113t-195 -43q-156 -3 -267 82q-106 84 -106 236q0 27 2 41q7 77 47.5 131t99 81.5t128 44t138 24.5
t125.5 16.5t92.5 26.5t37.5 48v19q0 138 -156 141q-6 2 -14 2q-82 0 -121 -30t-49 -103zM750 385v82q-28 -19 -138 -37q-76 -11 -114 -22q-97 -24 -92 -109q5 -45 41.5 -73.5t97.5 -28.5q93 0 148.5 48t56.5 140z" />
    <glyph glyph-name="aacute" unicode="&#xe1;" 
d="M268 1165l293 344h303l-346 -344h-250zM410 725h-285q29 163 154 248.5t315 85.5q103 0 187 -23t151 -72t104 -133t37 -198v-633h-266l-12 121q-55 -72 -147 -113t-195 -43q-159 0 -266 85t-107 233q0 27 2 41q7 77 47.5 131t99 81.5t128 44t138 24.5t125.5 16.5
t92.5 26.5t37.5 48v19q0 138 -156 141q-6 2 -14 2q-84 0 -121.5 -29.5t-48.5 -103.5zM750 385v82q-28 -19 -138 -37q-76 -11 -114 -22q-97 -24 -92 -109q5 -45 41.5 -73.5t97.5 -28.5q93 0 148.5 48t56.5 140z" />
    <glyph glyph-name="acircumflex" unicode="&#xe2;" 
d="M223 1165l236 344h258l237 -344h-229l-137 203l-137 -203h-228zM410 725h-285q29 163 154 248.5t315 85.5q103 0 187 -23t151 -72t104 -133t37 -198v-633h-266l-12 121q-55 -72 -147 -113t-195 -43q-156 -3 -267 82q-106 84 -106 236q0 27 2 41q7 77 47.5 131t99 81.5
t128 44t138 24.5t125.5 16.5t92.5 26.5t37.5 48v19q0 138 -156 141q-6 2 -14 2q-82 0 -121 -30t-49 -103zM750 385v82q-28 -19 -138 -37q-76 -11 -114 -22q-97 -24 -92 -109q5 -45 41.5 -73.5t97.5 -28.5q93 0 148.5 48t56.5 140z" />
    <glyph glyph-name="atilde" unicode="&#xe3;" 
d="M350 1233l-127 76q76 180 209 180q67 3 156 -33q13 -5 36 -15t36.5 -15.5t30.5 -10t30 -4.5q15 0 25.5 4t22 12.5t15.5 10.5q22 22 25 30q3 3 13.5 19.5t13.5 19.5l131 -75q-83 -145 -160 -172q-39 -17 -80 -17q-56 0 -135 29q-5 2 -36.5 15t-41.5 16q-36 16 -70 16
q-31 0 -48 -17t-40 -58q-1 -3 -2 -4t-2 -3zM410 725h-285q29 163 154 248.5t315 85.5q103 0 187 -23t151 -72t104 -133t37 -198v-633h-266l-12 121q-56 -71 -148 -112t-194 -44q-156 -3 -267 82q-106 84 -106 236q0 27 2 41q7 77 47.5 131t99 81.5t128 44t138 24.5
t125.5 16.5t92.5 26.5t37.5 48v19q0 138 -156 141q-6 2 -14 2q-82 0 -121 -30t-49 -103zM750 385v82q-28 -19 -138 -37q-76 -11 -114 -22q-97 -24 -92 -109q5 -45 41.5 -73.5t97.5 -28.5q93 0 148.5 48t56.5 140z" />
    <glyph glyph-name="adieresis" unicode="&#xe4;" 
d="M240 1245v213h256v-213h-256zM680 1245v213h256v-213h-256zM410 725h-285q29 163 154 248.5t315 85.5q103 0 187 -23t151 -72t104 -133t37 -198v-633h-266l-12 121q-55 -72 -147 -113t-195 -43q-156 -3 -267 82q-106 84 -106 236q0 27 2 41q7 77 47.5 131t99 81.5t128 44
t138 24.5t125.5 16.5t92.5 26.5t37.5 48v19q0 138 -156 141q-6 2 -14 2q-82 0 -121 -30t-49 -103zM750 385v82q-28 -19 -138 -37q-76 -11 -114 -22q-97 -24 -92 -109q5 -45 41.5 -73.5t97.5 -28.5q93 0 148.5 48t56.5 140z" />
    <glyph glyph-name="aring" unicode="&#xe5;" 
d="M805 1382q0 -91 -63 -154t-154 -63q-90 0 -154 64q-63 63 -63 153q0 89 63 152q65 65 154 65q86 0 151 -65q66 -66 66 -152zM494 1382q0 -38 28 -66t66 -28t66 28t28 66t-29 66.5t-67 28.5q-37 0 -64.5 -28.5t-27.5 -66.5zM410 725h-285q29 163 154 248.5t315 85.5
q103 0 187 -23t151 -72t104 -133t37 -198v-633h-266l-12 121q-56 -71 -148 -112t-194 -44q-156 -3 -267 82q-106 84 -106 236q0 27 2 41q8 76 49 130.5t100 82t128 44.5t137 25.5t124 17t92 26t38 46.5v19q0 138 -156 141q-6 2 -14 2q-84 0 -121.5 -29.5t-48.5 -103.5z
M750 385v82q-28 -19 -138 -37q-76 -11 -114 -22q-97 -24 -92 -109q5 -45 41.5 -73.5t97.5 -28.5q93 0 148.5 48t56.5 140z" />
    <glyph glyph-name="ae" unicode="&#xe6;" horiz-adv-x="2013" 
d="M412 725h-285q29 163 154 248.5t315 85.5q293 0 401 -176q126 176 412 176q241 0 379.5 -126.5t138.5 -371.5v-119h-710v-43q0 -221 192 -221q73 0 118.5 36t57.5 101h324q-42 -160 -174 -254t-326 -94q-212 0 -334 119v-86h-266l-12 121q-55 -71 -147 -112t-195 -44
q-154 -3 -265 82q-106 84 -106 236q0 27 2 41q5 77 45 131t99 81.5t129 44t139.5 24.5t126 16.5t92 26.5t35.5 48v19q0 138 -156 141q-6 2 -14 2q-82 0 -121 -30t-49 -103zM1217 616h387q0 127 -45 179.5t-150 52.5q-103 0 -147.5 -54t-44.5 -178zM752 385v82
q-28 -19 -138 -37q-78 -11 -114 -22q-97 -24 -92 -109q5 -45 41.5 -73.5t97.5 -28.5q93 0 148.5 48t56.5 140z" />
    <glyph glyph-name="ccedilla" unicode="&#xe7;" horiz-adv-x="1144" 
d="M84 451v110q0 242 136 370t370 128q211 0 338 -103t145 -301h-291q-18 85 -57 111.5t-135 26.5q-100 0 -141 -50.5t-41 -181.5v-110q0 -123 42.5 -175.5t139.5 -52.5q93 0 133.5 28t60.5 109h289q-18 -183 -134 -285t-302 -114l-33 -49h17q41 0 79 -12q59 -14 98.5 -55.5
t39.5 -100.5q0 -92 -68 -142t-174 -55h-14q-136 0 -238 45l25 119q76 -30 143 -33h10q107 0 107 66q0 20 -19.5 31.5t-46.5 11.5h-6q-52 0 -80 -25l-90 70l88 137q-183 30 -287 155.5t-104 326.5z" />
    <glyph glyph-name="egrave" unicode="&#xe8;" horiz-adv-x="1206" 
d="M682 1165l-346 344h303l293 -344h-250zM90 453v108q0 242 138.5 370t377.5 128q244 0 381.5 -126.5t136.5 -371.5v-119h-708v-43q0 -221 190 -221q72 0 118 35.5t58 101.5h324q-42 -160 -173.5 -254t-324.5 -94q-237 0 -376 136.5t-142 349.5zM416 616h387q0 126 -46 179
t-151 53q-101 0 -145.5 -53t-44.5 -179z" />
    <glyph glyph-name="eacute" unicode="&#xe9;" horiz-adv-x="1206" 
d="M287 1165l293 344h303l-348 -344h-248zM90 453v108q0 242 138.5 370t377.5 128q244 0 381.5 -126.5t136.5 -371.5v-119h-708v-43q0 -221 190 -221q72 0 118 35.5t58 101.5h324q-42 -160 -173.5 -254t-324.5 -94q-239 0 -377 135q-138 138 -141 351zM416 616h387
q0 126 -46 179t-151 53q-101 0 -145.5 -53t-44.5 -179z" />
    <glyph glyph-name="ecircumflex" unicode="&#xea;" horiz-adv-x="1206" 
d="M90 453v108q0 242 138.5 370t377.5 128q244 0 381.5 -126.5t136.5 -371.5v-119h-708v-43q0 -221 190 -221q72 0 118 35.5t58 101.5h324q-42 -160 -173.5 -254t-324.5 -94q-237 0 -376 136.5t-142 349.5zM416 616h387q0 126 -46 179t-151 53q-101 0 -145.5 -53t-44.5 -179
zM240 1165l237 344h258l238 -344h-230l-137 203l-137 -203h-229z" />
    <glyph glyph-name="edieresis" unicode="&#xeb;" horiz-adv-x="1206" 
d="M258 1245v213h254v-213h-254zM698 1245v213h256v-213h-256zM90 453v108q0 242 138.5 370t377.5 128q244 0 381.5 -126.5t136.5 -371.5v-119h-708v-43q0 -223 190 -223q72 0 118 36.5t58 102.5h324q-42 -160 -173.5 -254t-324.5 -94q-237 0 -376 136.5t-142 349.5z
M416 616h387q0 126 -46 179t-151 53q-101 0 -145.5 -53t-44.5 -179z" />
    <glyph glyph-name="igrave" unicode="&#xec;" horiz-adv-x="534" 
d="M348 1165l-346 344h303l293 -344h-250zM109 0v1024h325v-1024h-325z" />
    <glyph glyph-name="iacute" unicode="&#xed;" horiz-adv-x="534" 
d="M-47 1165l293 344h303l-346 -344h-250zM111 0v1024h325v-1024h-325z" />
    <glyph glyph-name="icircumflex" unicode="&#xee;" horiz-adv-x="534" 
d="M-92 1165l237 344h258l238 -344h-229l-138 203l-137 -203h-229zM111 0v1024h325v-1024h-325z" />
    <glyph glyph-name="idieresis" unicode="&#xef;" horiz-adv-x="534" 
d="M-76 1245v213h256v-213h-256zM367 1245v213h254v-213h-254zM111 0v1024h325v-1024h-325z" />
    <glyph glyph-name="eth" unicode="&#xf0;" horiz-adv-x="1323" 
d="M1186 1444l78 -152l-160 -84q78 -141 78 -315v-467q0 -198 -152 -332q-150 -129 -395 -129q-247 0 -397 129q-152 134 -152 332v68q0 88 24 157.5t64 115t96.5 76.5t117.5 44.5t130 15.5h23q197 0 293 -84v211q0 18 -3 33l-169 -90l-78 149l149 80q-43 22 -92 25
q-10 2 -27 2q-134 0 -211 -105l-174 174q137 168 420 168q201 -3 344 -125zM834 426v68q0 105 -44 145.5t-155 40.5q-107 0 -154 -42.5t-47 -143.5v-68q0 -91 48.5 -133.5t152.5 -42.5q103 0 151 42.5t48 133.5z" />
    <glyph glyph-name="ntilde" unicode="&#xf1;" horiz-adv-x="1191" 
d="M385 1233l-127 76q42 92 92.5 136t118.5 44q67 3 156 -33q15 -6 46 -19.5t50 -19.5t37 -6q14 0 24.5 4t23 12.5t15.5 10.5q23 22 25 30q3 3 13 19.5t13 19.5l129 -75q-84 -146 -157 -172q-39 -17 -80 -17q-56 0 -135 29q-5 2 -36.5 15t-41.5 16q-36 16 -70 16
q-40 0 -67 -39q-7 -10 -29 -47zM102 1024h291v-113q103 149 309 146q178 0 285 -119t107 -340v-598h-324v561q0 129 -35.5 180.5t-128.5 51.5q-97 0 -138.5 -53.5t-41.5 -178.5v-561h-324v1024z" />
    <glyph glyph-name="ograve" unicode="&#xf2;" horiz-adv-x="1202" 
d="M676 1165l-346 344h303l293 -344h-250zM82 453v108q0 242 138 370t378 128q241 0 379.5 -126.5t138.5 -371.5v-108q0 -213 -141 -351q-138 -135 -377 -135q-238 0 -377 136t-139 350zM793 453v108q0 133 -43.5 182.5t-151.5 49.5q-106 0 -149 -50t-43 -182v-108
q0 -222 192 -222q195 0 195 222z" />
    <glyph glyph-name="oacute" unicode="&#xf3;" horiz-adv-x="1202" 
d="M281 1165l292 344h301l-346 -344h-247zM82 453v108q0 242 138 370t378 128q241 0 379.5 -126.5t138.5 -371.5v-108q0 -213 -141 -351q-138 -135 -377 -135t-377 135q-139 139 -139 351zM793 453v108q0 133 -43.5 182.5t-151.5 49.5q-106 0 -149 -50t-43 -182v-108
q0 -222 192 -222q195 0 195 222z" />
    <glyph glyph-name="ocircumflex" unicode="&#xf4;" horiz-adv-x="1202" 
d="M82 453v108q0 242 138 370t378 128q241 0 379.5 -126.5t138.5 -371.5v-108q0 -213 -141 -351q-138 -135 -377 -135q-238 0 -377 136t-139 350zM793 453v108q0 133 -43.5 182.5t-151.5 49.5q-106 0 -149 -50t-43 -182v-108q0 -222 192 -222q195 0 195 222zM233 1165
l238 344h258l238 -344h-230l-137 203l-137 -203h-230z" />
    <glyph glyph-name="otilde" unicode="&#xf5;" horiz-adv-x="1202" 
d="M360 1233l-127 76q42 92 92.5 136t118.5 44q67 3 156 -33q5 -3 28.5 -12t28.5 -12q60 -21 76 -21q14 0 24.5 4t23.5 13t16 10q18 18 22 30q3 3 14.5 19.5t14.5 19.5l129 -75q-83 -145 -160 -172q-39 -17 -78 -17q-56 0 -135 29l-80 31q-32 16 -67 16q-30 0 -49 -18.5
t-48 -67.5zM82 453v108q0 242 138 370t378 128q241 0 379.5 -126.5t138.5 -371.5v-108q0 -213 -141 -351q-138 -135 -377 -135t-377 135q-139 139 -139 351zM793 453v108q0 133 -43.5 182.5t-151.5 49.5q-106 0 -149 -50t-43 -182v-108q0 -222 192 -222q195 0 195 222z" />
    <glyph glyph-name="odieresis" unicode="&#xf6;" horiz-adv-x="1202" 
d="M250 1245v213h256v-213h-256zM692 1245v213h256v-213h-256zM82 453v108q0 242 138 370t378 128q241 0 379.5 -126.5t138.5 -371.5v-108q0 -213 -141 -351q-138 -135 -377 -135q-238 0 -377 136t-139 350zM793 453v108q0 133 -43.5 182.5t-151.5 49.5q-106 0 -149 -50
t-43 -182v-108q0 -222 192 -222q195 0 195 222z" />
    <glyph glyph-name="divide" unicode="&#xf7;" horiz-adv-x="1071" 
d="M399 909v308h267v-308h-267zM57 512v264h955v-264h-955zM399 70v307h267v-307h-267z" />
    <glyph glyph-name="oslash" unicode="&#xf8;" horiz-adv-x="1216" 
d="M803 1126h160l-60 -135q223 -119 223 -430v-108q0 -213 -141 -351q-138 -135 -379 -135q-71 0 -151 17l-39 -86h-160l61 141q-108 61 -167.5 170t-59.5 244v108q0 242 138.5 370t377.5 128q77 0 160 -17zM416 561v-108q0 -85 26 -136l211 474q-14 2 -47 2
q-105 0 -147.5 -50.5t-42.5 -181.5zM803 453v108q0 97 -25 152l-213 -480q14 -2 41 -2q197 0 197 222z" />
    <glyph glyph-name="ugrave" unicode="&#xf9;" horiz-adv-x="1189" 
d="M672 1165l-348 344h303l293 -344h-248zM768 463v561h324v-1024h-291v113q-100 -146 -322 -146q-173 0 -277 102.5t-104 295.5v659h324v-561q0 -128 36.5 -180t129.5 -52q94 0 137 54t43 178z" />
    <glyph glyph-name="uacute" unicode="&#xfa;" horiz-adv-x="1189" 
d="M274 1165l293 344h303l-346 -344h-250zM768 463v561h324v-1024h-291v113q-100 -146 -322 -146q-168 0 -274.5 100.5t-106.5 297.5v659h324v-561q0 -128 36.5 -180t129.5 -52q94 0 137 54t43 178z" />
    <glyph glyph-name="ucircumflex" unicode="&#xfb;" horiz-adv-x="1189" 
d="M227 1165l238 344h258l238 -344h-230l-137 203l-137 -203h-230zM768 463v561h324v-1024h-291v113q-100 -146 -322 -146q-173 0 -277 102.5t-104 295.5v659h324v-561q0 -128 36.5 -180t129.5 -52q94 0 137 54t43 178z" />
    <glyph glyph-name="udieresis" unicode="&#xfc;" horiz-adv-x="1189" 
d="M768 463v561h324v-1024h-291v113q-100 -146 -322 -146q-168 0 -274.5 100.5t-106.5 297.5v659h324v-561q0 -128 36.5 -180t129.5 -52q94 0 137 54t43 178zM246 1245v213h256v-213h-256zM686 1245v213h256v-213h-256z" />
    <glyph glyph-name="yacute" unicode="&#xfd;" 
d="M260 1165l293 344h303l-348 -344h-248zM580 270l239 752h314l-494 -1393h-252l113 369h-94l-365 1026h324z" />
    <glyph glyph-name="thorn" unicode="&#xfe;" horiz-adv-x="1146" 
d="M111 -369v1803h325v-482q91 108 260 105q183 0 305 -131q125 -128 125 -365v-110q0 -233 -114 -359q-112 -124 -281 -127q-93 0 -170.5 40t-124.5 112v-486h-325zM803 451v110q0 116 -46.5 170.5t-138.5 54.5t-137 -52t-45 -167v-116q0 -123 42 -175.5t140 -52.5
q99 0 142 52.5t43 175.5z" />
    <glyph glyph-name="ydieresis" unicode="&#xff;" 
d="M231 1245v213h254v-213h-254zM672 1245v213h256v-213h-256zM580 270l239 752h314l-494 -1393h-252l113 369h-94l-365 1026h324z" />
    <glyph glyph-name="Amacron" unicode="&#x100;" horiz-adv-x="1570" 
d="M63 0l547 1434h353l546 -1434h-360l-92 272h-539l-94 -272h-361zM586 518h405l-205 590zM510 1675v209h543v-209h-543z" />
    <glyph glyph-name="amacron" unicode="&#x101;" 
d="M317 1266v209h541v-209h-541zM410 725h-285q29 163 154 248.5t315 85.5q103 0 187 -23t151 -72t104 -133t37 -198v-633h-266l-12 121q-55 -72 -147 -113t-195 -43q-156 -3 -267 82q-106 84 -106 236q0 27 2 41q7 77 47.5 131t99 81.5t128 44t138 24.5t125.5 16.5
t92.5 26.5t37.5 48v19q0 138 -156 141q-6 2 -14 2q-82 0 -121 -30t-49 -103zM750 385v82q-28 -19 -138 -37q-76 -11 -114 -22q-97 -24 -92 -109q5 -45 41.5 -73.5t97.5 -28.5q93 0 148.5 48t56.5 140z" />
    <glyph glyph-name="Abreve" unicode="&#x102;" horiz-adv-x="1570" 
d="M983 1919h125q-3 -139 -97 -228t-233 -89t-233 88q-93 87 -96 229h122q5 -69 59 -113.5t148 -44.5q95 0 149 44.5t56 113.5zM63 0l547 1434h353l546 -1434h-360l-92 272h-539l-94 -272h-361zM586 518h405l-205 590z" />
    <glyph glyph-name="abreve" unicode="&#x103;" 
d="M788 1509h125q-3 -140 -98 -229q-91 -88 -231 -88t-234 88q-93 90 -96 229h123q5 -69 58.5 -113t148.5 -44t148.5 44t55.5 113zM410 725h-285q29 163 154 248.5t315 85.5q103 0 187 -23t151 -72t104 -133t37 -198v-633h-266l-12 121q-55 -72 -147 -113t-195 -43
q-156 -3 -267 82q-106 84 -106 236q0 27 2 41q7 77 47.5 131t99 81.5t128 44t138 24.5t125.5 16.5t92.5 26.5t37.5 48v19q0 138 -156 141q-6 2 -14 2q-82 0 -121 -30t-49 -103zM750 385v82q-28 -19 -138 -37q-76 -11 -114 -22q-97 -24 -92 -109q5 -45 41.5 -73.5t97.5 -28.5
q93 0 148.5 48t56.5 140z" />
    <glyph glyph-name="Aogonek" unicode="&#x104;" horiz-adv-x="1570" 
d="M63 0l547 1434h353l546 -1434h-213q-63 -31 -96 -73t-33 -83q0 -36 25.5 -60t67.5 -24q30 0 60.5 17t49.5 39l66 -127q-90 -90 -209 -90q-92 0 -157.5 52.5t-65.5 135.5v18q15 126 145 195l-92 272h-539l-94 -272h-361zM586 518h405l-205 590z" />
    <glyph glyph-name="aogonek" unicode="&#x105;" 
d="M410 725h-285q29 163 154 248.5t315 85.5q103 0 187 -23t151 -72t104 -133t37 -198v-635h-125q-60 -29 -92.5 -71.5t-32.5 -82.5q0 -36 25 -60t67 -24q31 0 64.5 18t48.5 38l64 -127q-90 -90 -207 -90q-95 0 -160.5 52.5t-65.5 135.5v18q15 124 148 195l-12 121
q-56 -71 -148 -112t-194 -44q-156 -3 -267 82q-106 84 -106 236q0 27 2 41q7 77 47.5 131t99 81.5t128 44t138 24.5t125.5 16.5t92.5 26.5t37.5 48v19q0 138 -156 141q-6 2 -14 2q-82 0 -121 -30t-49 -103zM750 385v82q-28 -19 -138 -37q-76 -11 -114 -22q-97 -24 -92 -109
q5 -45 41.5 -73.5t97.5 -28.5q93 0 148.5 48t56.5 140z" />
    <glyph glyph-name="Cacute" unicode="&#x106;" horiz-adv-x="1458" 
d="M403 1575l293 344h303l-346 -344h-250zM90 631v157q0 173 48 303.5t137.5 211t211 120t275.5 39.5q277 0 433 -133.5t185 -400.5h-327q-31 136 -95.5 193t-195.5 57q-84 0 -143 -19t-101 -63t-62 -120t-20 -188v-157q0 -201 79 -293t247 -92q125 0 191.5 59t97.5 191h327
q-29 -260 -187 -396.5t-429 -136.5q-316 0 -494 172.5t-178 495.5z" />
    <glyph glyph-name="cacute" unicode="&#x107;" horiz-adv-x="1157" 
d="M258 1165l291 344h303l-346 -344h-248zM90 451v110q0 243 135.5 370.5t372.5 127.5q209 0 336.5 -103.5t144.5 -300.5h-291q-18 84 -57 111t-133 27q-101 0 -141.5 -50t-40.5 -182v-110q0 -123 42 -175.5t140 -52.5q92 0 132.5 28t60.5 109h288q-18 -192 -146.5 -296.5
t-334.5 -104.5q-232 0 -370 130t-138 362z" />
    <glyph glyph-name="Cdotaccent" unicode="&#x10a;" horiz-adv-x="1458" 
d="M90 631v157q0 173 48 303.5t137.5 211t211 120t275.5 39.5q277 0 433 -133.5t185 -400.5h-327q-31 136 -95.5 193t-195.5 57q-84 0 -143 -19t-101 -63t-62 -120t-20 -188v-157q0 -201 79 -293t247 -92q125 0 191.5 59t97.5 191h327q-29 -260 -187 -396.5t-429 -136.5
q-316 0 -494 172.5t-178 495.5zM598 1655v213h256v-213h-256z" />
    <glyph glyph-name="cdotaccent" unicode="&#x10b;" horiz-adv-x="1157" 
d="M453 1245v213h254v-213h-254zM90 451v110q0 243 135.5 370.5t372.5 127.5q209 0 336.5 -103.5t144.5 -300.5h-291q-18 84 -57 111t-133 27q-101 0 -141.5 -50t-40.5 -182v-110q0 -123 42 -175.5t140 -52.5q92 0 132.5 28t60.5 109h288q-18 -192 -146.5 -296.5
t-334.5 -104.5q-232 0 -370 130t-138 362z" />
    <glyph glyph-name="Ccaron" unicode="&#x10c;" horiz-adv-x="1458" 
d="M723 1716l137 203h230l-238 -344h-258l-236 344h228zM90 631v157q0 173 48 303.5t137.5 211t211 120t275.5 39.5q277 0 433 -133.5t185 -400.5h-327q-31 136 -95.5 193t-195.5 57q-84 0 -143 -19t-101 -63t-62 -120t-20 -188v-157q0 -201 79 -293t247 -92q125 0 191.5 59
t97.5 191h327q-29 -260 -187 -396.5t-429 -136.5q-316 0 -494 172.5t-178 495.5z" />
    <glyph glyph-name="ccaron" unicode="&#x10d;" horiz-adv-x="1157" 
d="M575 1307l140 202h227l-237 -344h-256l-238 344h227zM90 451v110q0 243 135.5 370.5t372.5 127.5q209 0 336.5 -103.5t144.5 -300.5h-291q-18 84 -57 111t-133 27q-101 0 -141.5 -50t-40.5 -182v-110q0 -123 42 -175.5t140 -52.5q92 0 132.5 28t60.5 109h288
q-18 -192 -146.5 -296.5t-334.5 -104.5q-232 0 -370 130t-138 362z" />
    <glyph glyph-name="Dcaron" unicode="&#x10e;" horiz-adv-x="1413" 
d="M702 1716l138 203h229l-238 -344h-258l-235 344h227zM102 0v1434h527q155 0 280 -38t218.5 -115t144.5 -203t51 -294v-149q0 -278 -188 -457q-187 -178 -506 -178h-527zM975 635v149q0 200 -80.5 282.5t-265.5 82.5h-178v-864h178q170 0 258 89.5t88 260.5z" />
    <glyph glyph-name="dcaron" unicode="&#x10f;" horiz-adv-x="1605" 
d="M1278 1350v206h254v-206q0 -31 -7.5 -61t-28 -61.5t-52.5 -55.5t-85.5 -40t-121.5 -18v127q41 38 41 109zM766 911v523h324v-1434h-267l-10 117q-113 -149 -303 -152q-183 0 -309 135q-125 134 -125 361v108q0 246 112 367q114 123 283 123q200 3 295 -148zM766 461v108
q0 133 -40.5 182.5t-141.5 49.5q-102 0 -143.5 -50t-41.5 -182v-108q0 -221 185 -221q182 0 182 221z" />
    <glyph glyph-name="Dcroat" unicode="&#x110;" horiz-adv-x="1515" 
d="M203 856v578h526q155 0 280 -38t218.5 -115t144.5 -203t51 -294v-149q0 -280 -186 -457q-187 -178 -508 -178h-526v592h-131v264h131zM1075 635v149q0 105 -20 175.5t-64 112.5t-107 59.5t-155 17.5h-178v-293h209v-264h-209v-307h178q170 0 258 89.5t88 260.5z" />
    <glyph glyph-name="Emacron" unicode="&#x112;" horiz-adv-x="1255" 
d="M346 1675v209h541v-209h-541zM102 0v1434h1092v-285h-743v-266h714v-285h-714v-313h751v-285h-1100z" />
    <glyph glyph-name="emacron" unicode="&#x113;" horiz-adv-x="1206" 
d="M334 1266v209h543v-209h-543zM90 453v108q0 242 138.5 370t377.5 128q244 0 381.5 -126.5t136.5 -371.5v-119h-708v-43q0 -221 190 -221q72 0 118 35.5t58 101.5h324q-42 -160 -173.5 -254t-324.5 -94q-239 0 -377 135q-138 138 -141 351zM416 616h387q0 126 -46 179
t-151 53q-101 0 -145.5 -53t-44.5 -179z" />
    <glyph glyph-name="Edotaccent" unicode="&#x116;" horiz-adv-x="1255" 
d="M102 0v1434h1092v-285h-743v-266h714v-285h-714v-313h751v-285h-1100zM492 1655v213h256v-213h-256z" />
    <glyph glyph-name="edotaccent" unicode="&#x117;" horiz-adv-x="1206" 
d="M481 1245v213h254v-213h-254zM90 453v108q0 242 138.5 370t377.5 128q244 0 381.5 -126.5t136.5 -371.5v-119h-708v-43q0 -223 190 -223q72 0 118 36.5t58 102.5h324q-42 -160 -173.5 -254t-324.5 -94q-237 0 -376 136.5t-142 349.5zM416 616h387q0 126 -46 179t-151 53
q-101 0 -145.5 -53t-44.5 -179z" />
    <glyph glyph-name="Eogonek" unicode="&#x118;" horiz-adv-x="1255" 
d="M102 0v1434h1092v-285h-743v-266h714v-285h-714v-313h751v-285h-149q-63 -29 -97 -72t-34 -84q0 -36 25 -60t67 -24q30 0 61.5 17t50.5 39l64 -127q-90 -90 -207 -90q-94 0 -159.5 52.5t-65.5 135.5v18q15 126 145 195h-801z" />
    <glyph glyph-name="eogonek" unicode="&#x119;" horiz-adv-x="1206" 
d="M90 453v108q0 242 138.5 370t377.5 128q244 0 381.5 -126.5t136.5 -371.5v-119h-708v-43q0 -221 190 -221q72 0 118 35.5t58 101.5h324q-31 -122 -116 -207t-212 -120q-99 -57 -102 -140q0 -36 25.5 -60t68.5 -24q55 0 111 56l63 -127q-88 -88 -207 -88q-95 -2 -160 51
t-65 137v19q9 89 90 155h-33q-220 12 -350 148q-126 135 -129 338zM416 616h387q0 126 -46 179t-151 53q-101 0 -145.5 -53t-44.5 -179z" />
    <glyph glyph-name="Ecaron" unicode="&#x11a;" horiz-adv-x="1255" 
d="M616 1716l138 203h229l-238 -344h-258l-235 344h227zM102 0v1434h1092v-285h-743v-266h714v-285h-714v-313h751v-285h-1100z" />
    <glyph glyph-name="ecaron" unicode="&#x11b;" horiz-adv-x="1206" 
d="M606 1307l137 202h230l-238 -344h-258l-237 344h229zM90 453v108q0 242 138.5 370t377.5 128q244 0 381.5 -126.5t136.5 -371.5v-119h-708v-43q0 -221 190 -221q72 0 118 35.5t58 101.5h324q-42 -160 -173.5 -254t-324.5 -94q-239 0 -377 135q-138 138 -141 351zM416 616
h387q0 126 -46 179t-151 53q-101 0 -145.5 -53t-44.5 -179z" />
    <glyph glyph-name="Gbreve" unicode="&#x11e;" horiz-adv-x="1533" 
d="M967 1919h123q-3 -141 -97 -229q-91 -88 -233 -88q-140 0 -234 88q-91 88 -94 229h123q2 -69 56.5 -113.5t150.5 -44.5q95 0 149 44.5t56 113.5zM90 631v157q0 334 180 504t506 170q278 0 452 -126.5t210 -374.5h-351q-29 122 -99 169.5t-214 47.5q-180 0 -258 -87
t-78 -303v-157q0 -180 87.5 -277.5t248.5 -97.5q278 0 336 254l4 27h-299v221h617v-758h-218l-12 162q-159 -191 -428 -191q-317 0 -502 185q-182 185 -182 475z" />
    <glyph glyph-name="gbreve" unicode="&#x11f;" horiz-adv-x="1187" 
d="M797 1509h123q-3 -139 -99 -229q-91 -88 -231 -88t-234 88q-93 90 -96 229h125q2 -69 56 -113t149 -44t148.5 44t58.5 113zM88 481v90q0 226 117 355q118 130 293 133q193 0 309 -152l10 117h268v-979q0 -114 -37.5 -198.5t-104.5 -132.5t-151 -70.5t-186 -22.5
q-86 0 -164.5 17.5t-145 52t-108 93.5t-45.5 134h273q12 -123 178 -123h12q79 2 116.5 38t37.5 114v215q-38 -67 -116 -103t-177 -34q-173 5 -276 120.5t-103 335.5zM760 502v90q0 221 -182 221q-85 0 -125.5 -54t-40.5 -167v-90q0 -132 36.5 -182t129.5 -50q99 0 140.5 52
t41.5 180z" />
    <glyph glyph-name="Gdotaccent" unicode="&#x120;" horiz-adv-x="1533" 
d="M641 1655v213h254v-213h-254zM90 631v157q0 333 179.5 503.5t504.5 170.5q133 0 244 -29.5t199 -89.5t145 -157t76 -225h-351q-29 122 -99 169.5t-214 47.5q-88 0 -148 -18.5t-103.5 -62.5t-64 -120t-20.5 -189v-157q0 -180 87.5 -277.5t248.5 -97.5q278 0 336 254l4 27
h-299v221h615v-758h-216l-12 162q-159 -191 -428 -191q-317 0 -502 185q-182 185 -182 475z" />
    <glyph glyph-name="gdotaccent" unicode="&#x121;" horiz-adv-x="1187" 
d="M88 481v90q0 226 117 355q118 130 293 133q193 0 309 -152l10 117h268v-979q0 -114 -37.5 -198.5t-104.5 -132.5t-151 -70.5t-186 -22.5q-86 0 -164.5 17.5t-145 52t-108 93.5t-45.5 134h273q12 -123 178 -123h12q79 2 116.5 38t37.5 114v215q-38 -67 -116 -103t-177 -34
q-173 5 -276 120.5t-103 335.5zM760 502v90q0 221 -182 221q-85 0 -125.5 -54t-40.5 -167v-90q0 -132 36.5 -182t129.5 -50q99 0 140.5 52t41.5 180zM469 1245v213h256v-213h-256z" />
    <glyph glyph-name="Gcommaaccent" unicode="&#x122;" horiz-adv-x="1533" 
d="M90 631v157q0 333 179.5 503.5t504.5 170.5q133 0 244 -29.5t199 -89.5t145 -157t76 -225h-351q-29 122 -99 169.5t-214 47.5q-88 0 -148 -18.5t-103.5 -62.5t-64 -120t-20.5 -189v-157q0 -180 87.5 -277.5t248.5 -97.5q278 0 336 254l4 27h-299v221h615v-758h-216
l-12 162q-159 -191 -428 -191q-317 0 -502 185q-182 185 -182 475zM657 -305v184h256v-184q0 -31 -7.5 -60.5t-28.5 -61.5t-53 -56t-86 -40t-122 -18v127q41 38 41 109z" />
    <glyph glyph-name="gcommaaccent" unicode="&#x123;" horiz-adv-x="1187" 
d="M692 1194h-254v186q0 39 13.5 76.5t44.5 74t92 60t145 25.5v-129q-41 -35 -41 -107v-186zM88 481v90q0 226 117 355q118 130 293 133q193 0 309 -152l10 117h268v-979q0 -114 -37.5 -198.5t-104.5 -132.5t-151 -70.5t-186 -22.5q-116 0 -216 30t-170.5 99t-76.5 168h273
q12 -123 178 -123h12q77 2 115.5 38t38.5 114v215q-38 -67 -116.5 -103.5t-176.5 -31.5q-172 2 -275.5 118t-103.5 336zM760 502v90q0 221 -182 221q-85 0 -125.5 -54t-40.5 -167v-90q0 -132 36.5 -182t129.5 -50q99 0 140.5 52t41.5 180z" />
    <glyph glyph-name="Hbar" unicode="&#x126;" horiz-adv-x="1603" 
d="M1090 1286v148h348v-148h131v-242h-131v-1044h-348v598h-572v-598h-346v1044h-135v242h135v148h346v-148h572zM518 883h572v161h-572v-161z" />
    <glyph glyph-name="hbar" unicode="&#x127;" horiz-adv-x="1214" 
d="M143 1346v88h324v-88h281v-199h-279v-236q100 148 291 148q178 0 277.5 -113.5t99.5 -347.5v-598h-324v561q0 128 -36 180t-128 52q-97 0 -139.5 -54t-42.5 -178v-561h-324v1147h-180v199h180z" />
    <glyph glyph-name="Itilde" unicode="&#x128;" horiz-adv-x="550" 
d="M35 1642l-127 76q76 177 209 180q70 3 157 -32q102 -43 134 -45q35 0 57 22q25 17 55 74l131 -76q-83 -145 -159 -172q-37 -16 -78 -16q-62 0 -135 28l-80 31q-34 17 -70 17q-29 0 -48.5 -20.5t-45.5 -66.5zM104 0v1434h349v-1434h-349z" />
    <glyph glyph-name="itilde" unicode="&#x129;" horiz-adv-x="534" 
d="M35 1233l-127 76q76 177 209 180q68 3 157 -33q102 -43 134 -45q14 0 24.5 4t23 12.5t15.5 10.5q19 20 23 30q3 3 14 19.5t14 19.5l129 -75q-83 -145 -159 -172q-39 -17 -78 -17q-56 0 -135 29l-80 31q-32 16 -70 16q-29 0 -48.5 -20t-45.5 -66zM111 0v1024h325v-1024
h-325z" />
    <glyph glyph-name="Imacron" unicode="&#x12a;" horiz-adv-x="550" 
d="M2 1675v209h543v-209h-543zM104 0v1434h349v-1434h-349z" />
    <glyph glyph-name="imacron" unicode="&#x12b;" horiz-adv-x="534" 
d="M2 1266v209h543v-209h-543zM111 0v1024h325v-1024h-325z" />
    <glyph glyph-name="Iogonek" unicode="&#x12e;" horiz-adv-x="550" 
d="M102 0v1434h349v-1434q-132 -64 -132 -156q0 -36 25.5 -60t67.5 -24q30 0 61.5 17t50.5 39l64 -127q-90 -90 -207 -90q-96 0 -160.5 52.5t-64.5 135.5v18q15 125 143 195h-197z" />
    <glyph glyph-name="iogonek" unicode="&#x12f;" horiz-adv-x="534" 
d="M150 1245v213h253v-213h-253zM111 0v1024h325v-1024q-64 -31 -97.5 -73t-33.5 -83q0 -36 25 -60t67 -24q32 0 63.5 18t47.5 38l65 -127q-90 -90 -206 -90q-96 0 -161 52.5t-65 135.5v18q15 125 144 195h-174z" />
    <glyph glyph-name="dotlessi" unicode="&#x131;" horiz-adv-x="534" 
d="M111 0v1024h325v-1024h-325z" />
    <glyph glyph-name="IJ" unicode="&#x132;" horiz-adv-x="1484" 
d="M1036 455v979h348v-979q0 -214 -143 -351t-381 -137q-147 0 -270 72v250q145 -43 231 -43q27 0 39 2q176 15 176 207zM102 0v1434h349v-1434h-349z" />
    <glyph glyph-name="ij" unicode="&#x133;" horiz-adv-x="1089" 
d="M109 1186v270h323v-270h-323zM668 1186v270h325v-270h-325zM109 0v1024h323v-1024h-323zM668 -10v1034h325v-1112q0 -250 -284 -277q-25 -2 -76 -2q-48 0 -123 7v223q38 -3 65 0q50 6 71.5 33t21.5 94z" />
    <glyph glyph-name="Kcommaaccent" unicode="&#x136;" horiz-adv-x="1536" 
d="M451 856l573 578h420l-594 -574l610 -860h-399l-440 631l-170 -162v-469h-349v1434h349v-578zM594 -305v184h254v-184q0 -39 -13.5 -76.5t-44.5 -74t-92 -60t-145 -25.5v127q41 38 41 109z" />
    <glyph glyph-name="kcommaaccent" unicode="&#x137;" horiz-adv-x="1214" 
d="M111 0v1434h325v-760l330 362h377l-391 -399l434 -637h-371l-266 418l-113 -111v-307h-325zM547 -305v184h256v-184q0 -31 -7.5 -60.5t-28.5 -61.5t-53 -56t-86 -40t-122 -18v127q41 38 41 109z" />
    <glyph glyph-name="Lacute" unicode="&#x139;" horiz-adv-x="1183" 
d="M240 1575l290 344h304l-347 -344h-247zM102 0v1434h349v-1149h694v-285h-1043z" />
    <glyph glyph-name="lacute" unicode="&#x13a;" horiz-adv-x="530" 
d="M-51 1575l293 344h303l-346 -344h-250zM111 0v1434h325v-1434h-325z" />
    <glyph glyph-name="Lcommaaccent" unicode="&#x13b;" horiz-adv-x="1183" 
d="M102 0v1434h349v-1149h694v-285h-1043zM451 -305v184h256v-184q0 -40 -13.5 -77t-45 -74t-92.5 -60t-146 -25v127q41 38 41 109z" />
    <glyph glyph-name="lcommaaccent" unicode="&#x13c;" horiz-adv-x="530" 
d="M111 0v1434h325v-1434h-325zM162 -305v184h254v-184q0 -31 -7.5 -61t-28 -61.5t-52.5 -55.5t-85.5 -40t-121.5 -18v127q41 38 41 109z" />
    <glyph glyph-name="Lcaron" unicode="&#x13d;" horiz-adv-x="1183" 
d="M735 1376v209h254v-209q0 -40 -13 -76t-44 -72.5t-92.5 -59.5t-147.5 -25v127q43 34 43 106zM102 0v1434h349v-1149h694v-285h-1043z" />
    <glyph glyph-name="lcaron" unicode="&#x13e;" horiz-adv-x="968" 
d="M657 1376v209h256v-209q0 -39 -13.5 -76t-45 -73t-92.5 -59t-146 -25v127q41 35 41 106zM111 0v1434h325v-1434h-325z" />
    <glyph glyph-name="Ldot" unicode="&#x13f;" horiz-adv-x="1183" 
d="M102 0v1434h349v-1149h694v-285h-1043zM682 522v375h324v-375h-324z" />
    <glyph glyph-name="ldot" unicode="&#x140;" horiz-adv-x="919" 
d="M111 0v1434h325v-1434h-325zM530 453v374h324v-374h-324z" />
    <glyph glyph-name="Lslash" unicode="&#x141;" horiz-adv-x="1275" 
d="M190 715v719h349v-478l284 199v-371l-284 -198v-301h694v-285h-1043v342l-120 -84v371z" />
    <glyph glyph-name="lslash" unicode="&#x142;" horiz-adv-x="782" 
d="M160 694v740h323v-514l248 174v-346l-248 -175v-573h-323v348l-117 -82v346z" />
    <glyph glyph-name="Nacute" unicode="&#x143;" horiz-adv-x="1486" 
d="M426 1575l293 344h303l-346 -344h-250zM1044 555v879h349v-1434h-353l-596 879v-879h-348v1434h353z" />
    <glyph glyph-name="nacute" unicode="&#x144;" horiz-adv-x="1191" 
d="M305 1165l293 344h303l-348 -344h-248zM102 1024h291v-113q103 149 309 146q178 0 285 -119t107 -340v-598h-324v561q0 129 -35.5 180.5t-128.5 51.5q-97 0 -138.5 -53.5t-41.5 -178.5v-561h-324v1024z" />
    <glyph glyph-name="Ncommaaccent" unicode="&#x145;" horiz-adv-x="1486" 
d="M1044 555v879h349v-1434h-353l-596 879v-879h-348v1434h353zM639 -305v184h254v-184q0 -31 -7.5 -60.5t-28 -61.5t-52.5 -55.5t-85.5 -40t-121.5 -18.5v127q41 38 41 109z" />
    <glyph glyph-name="ncommaaccent" unicode="&#x146;" horiz-adv-x="1191" 
d="M102 1024h291v-113q103 149 309 146q178 0 285 -119t107 -340v-598h-324v561q0 129 -35.5 180.5t-128.5 51.5q-97 0 -138.5 -53.5t-41.5 -178.5v-561h-324v1024zM518 -305v184h254v-184q0 -39 -13.5 -76.5t-44.5 -74t-92 -60t-145 -25.5v127q41 38 41 109z" />
    <glyph glyph-name="Ncaron" unicode="&#x147;" horiz-adv-x="1486" 
d="M745 1716l138 203h229l-238 -344h-258l-235 344h227zM1044 555v879h349v-1434h-353l-596 879v-879h-348v1434h353z" />
    <glyph glyph-name="ncaron" unicode="&#x148;" horiz-adv-x="1191" 
d="M102 1024h291v-113q103 149 309 146q178 0 285 -119t107 -340v-598h-324v561q0 129 -35.5 180.5t-128.5 51.5q-97 0 -138.5 -53.5t-41.5 -178.5v-561h-324v1024zM625 1307l137 202h229l-237 -344h-258l-238 344h229z" />
    <glyph glyph-name="Eng" unicode="&#x14a;" horiz-adv-x="1486" 
d="M1044 555v879h349v-1420q-3 -209 -148 -342q-144 -135 -377 -135q-151 0 -270 72v248q155 -41 229 -41q29 0 41 2q162 9 174 180l-598 881v-879h-348v1434h353z" />
    <glyph glyph-name="eng" unicode="&#x14b;" horiz-adv-x="1191" 
d="M102 1024h291v-113q103 149 309 146q178 0 285 -119t107 -340v-686q0 -250 -283 -277q-25 -2 -74 -2q-50 0 -125 7v223q41 -3 68 0q45 5 67 30.5t23 81.5v586q0 129 -35.5 180.5t-128.5 51.5q-97 0 -138.5 -53.5t-41.5 -178.5v-561h-324v1024z" />
    <glyph glyph-name="Omacron" unicode="&#x14c;" horiz-adv-x="1550" 
d="M504 1675v209h543v-209h-543zM90 631v157q0 333 179.5 503.5t504.5 170.5q326 0 506 -170t180 -504v-157q0 -290 -182 -475t-504 -185q-317 0 -502 185q-182 185 -182 475zM1114 631v157q0 221 -80 304q-80 86 -260 86t-258 -87t-78 -303v-157q0 -180 87.5 -277.5
t248.5 -97.5q167 0 253.5 96t86.5 279z" />
    <glyph glyph-name="omacron" unicode="&#x14d;" horiz-adv-x="1202" 
d="M82 453v108q0 242 138 370t378 128q241 0 379.5 -126.5t138.5 -371.5v-108q0 -213 -141 -351q-138 -135 -377 -135q-238 0 -377 136t-139 350zM793 453v108q0 133 -43.5 182.5t-151.5 49.5q-106 0 -149 -50t-43 -182v-108q0 -222 192 -222q195 0 195 222zM328 1266v209
h542v-209h-542z" />
    <glyph glyph-name="Ohungarumlaut" unicode="&#x150;" horiz-adv-x="1550" 
d="M244 1575l293 344h303l-346 -344h-250zM739 1575l291 344h303l-346 -344h-248zM90 631v157q0 333 179.5 503.5t504.5 170.5q326 0 506 -170t180 -504v-157q0 -290 -182 -475t-504 -185q-317 0 -502 185q-182 185 -182 475zM1114 631v157q0 221 -80 304q-80 86 -260 86
t-258 -87t-78 -303v-157q0 -180 87.5 -277.5t248.5 -97.5q167 0 253.5 96t86.5 279z" />
    <glyph glyph-name="ohungarumlaut" unicode="&#x151;" horiz-adv-x="1202" 
d="M68 1165l292 344h304l-347 -344h-249zM563 1165l291 344h303l-346 -344h-248zM82 453v108q0 242 138 370t378 128q241 0 379.5 -126.5t138.5 -371.5v-108q0 -213 -141 -351q-138 -135 -377 -135q-238 0 -377 136t-139 350zM793 453v108q0 133 -43.5 182.5t-151.5 49.5
q-106 0 -149 -50t-43 -182v-108q0 -222 192 -222q195 0 195 222z" />
    <glyph glyph-name="OE" unicode="&#x152;" horiz-adv-x="2306" 
d="M92 631v157q0 334 179 504t505 170q219 0 369 -84v56h1089v-285h-743v-266h715v-285h-715v-313h754v-285h-1100v66q-154 -95 -369 -95q-320 0 -502 185t-182 475zM1081 522v385q-18 155 -88.5 213t-216.5 58q-119 0 -190.5 -34t-109.5 -120t-38 -236v-157q0 -181 87 -278
t251 -97q265 0 305 266z" />
    <glyph glyph-name="oe" unicode="&#x153;" horiz-adv-x="1984" 
d="M92 453v108q0 242 138 370t378 128q262 0 385 -156q123 156 385 156q241 0 379.5 -126.5t138.5 -371.5v-119h-710v-49q0 -215 192 -215q72 0 117 35.5t59 101.5h324q-41 -156 -173.5 -252t-324.5 -96q-256 0 -385 166q-132 -166 -387 -166q-238 0 -377 136t-139 350z
M1186 616h387q0 127 -45 179.5t-150 52.5q-101 0 -145 -51.5t-47 -180.5zM803 446v115q0 133 -43.5 182.5t-151.5 49.5q-106 0 -149 -50t-43 -182v-108q0 -222 192 -222q94 0 144.5 55.5t50.5 159.5z" />
    <glyph glyph-name="Racute" unicode="&#x154;" horiz-adv-x="1433" 
d="M362 1575l293 344h303l-346 -344h-250zM102 0v1434h588q91 0 172 -14t152 -45.5t122.5 -77.5t81 -113t29.5 -150v-80q0 -111 -67.5 -197t-190.5 -130l369 -627h-387l-332 563h-188v-563h-349zM911 965v61q0 135 -221 135h-239v-325h239q101 0 161 32.5t60 96.5z" />
    <glyph glyph-name="racute" unicode="&#x155;" horiz-adv-x="765" 
d="M43 1165l293 344h303l-346 -344h-250zM104 1024h291v-188q83 218 336 221v-269q-157 -5 -231 -67.5t-74 -214.5v-506h-322v1024z" />
    <glyph glyph-name="Rcommaaccent" unicode="&#x156;" horiz-adv-x="1433" 
d="M102 0v1434h588q91 0 172 -14t152 -45.5t122.5 -77.5t81 -113t29.5 -150v-80q0 -111 -67.5 -197t-190.5 -130l369 -627h-387l-332 563h-188v-563h-349zM911 965v61q0 135 -221 135h-239v-325h239q101 0 161 32.5t60 96.5zM575 -305v184h254v-184q0 -31 -7.5 -60.5
t-28 -61.5t-52 -55.5t-85 -40t-121.5 -18.5v127q40 37 40 109z" />
    <glyph glyph-name="rcommaaccent" unicode="&#x157;" horiz-adv-x="765" 
d="M102 1024h291v-188q83 218 336 221v-269q-157 -5 -231 -67.5t-74 -214.5v-506h-322v1024zM254 -305v184h254v-184q0 -31 -7.5 -60.5t-28 -61.5t-52.5 -55.5t-85.5 -40t-121.5 -18.5v127q41 38 41 109z" />
    <glyph glyph-name="Rcaron" unicode="&#x158;" horiz-adv-x="1433" 
d="M102 0v1434h588q91 0 172 -14t152 -45.5t122.5 -77.5t81 -113t29.5 -150v-80q0 -111 -67.5 -197t-190.5 -130l369 -627h-387l-332 563h-188v-563h-349zM911 965v61q0 135 -221 135h-239v-325h239q101 0 161 32.5t60 96.5zM682 1716l137 203h230l-238 -344h-258l-238 344
h230z" />
    <glyph glyph-name="rcaron" unicode="&#x159;" horiz-adv-x="765" 
d="M362 1307l138 202h229l-237 -344h-259l-235 344h227zM104 1024h291v-188q83 218 336 221v-269q-157 -5 -231 -67.5t-74 -214.5v-506h-322v1024z" />
    <glyph glyph-name="Sacute" unicode="&#x15a;" horiz-adv-x="1388" 
d="M373 1575l293 344h303l-346 -344h-250zM125 1014v35q0 202 151 307.5t416 105.5q123 0 224.5 -23.5t181.5 -71t125 -129t45 -189.5v-35h-344v53q0 71 -57 99t-175 28q-117 0 -170 -28t-53 -99v-27q0 -34 24.5 -56.5t90.5 -43.5l411 -137q305 -102 305 -371v-26
q0 -198 -167 -316q-165 -119 -441 -119q-275 0 -440 119q-164 120 -164 316v45h344v-64q0 -76 60 -110.5t200 -34.5q145 0 204.5 35t59.5 110v41q0 82 -90 109l-450 147q-139 46 -215 131t-76 199z" />
    <glyph glyph-name="sacute" unicode="&#x15b;" horiz-adv-x="1105" 
d="M229 1165l291 344h303l-346 -344h-248zM119 719v22q0 156 116 237t312 81q197 0 314.5 -79t121.5 -230v-11h-299v11q-12 102 -137 102q-114 0 -123 -76l-2 -12v-8q0 -54 135 -97l199 -61q131 -39 195.5 -107t64.5 -176v-10q0 -149 -129 -244q-125 -94 -340 -94
q-200 0 -326 87t-137 229v26h295v-22q6 -60 49.5 -92.5t118.5 -32.5q71 0 110 24t45 66l5 18q2 4 2 13q0 34 -22.5 53t-72.5 39l-270 88q-108 36 -166.5 101.5t-58.5 154.5z" />
    <glyph glyph-name="Scedilla" unicode="&#x15e;" horiz-adv-x="1388" 
d="M584 940l411 -137q305 -99 305 -371v-26q0 -182 -147 -302q-146 -116 -395 -131l-31 -45q49 0 80 -8q70 -14 112 -55.5t42 -106.5q0 -90 -65 -139t-171 -55h-25q-132 0 -233 43l25 119q82 -31 151 -31h8q99 0 99 63q0 45 -70 45q-52 -3 -82 -26l-90 71l86 129
q-232 21 -371 136q-135 117 -135 293v45h344v-64q0 -76 60 -110.5t200 -34.5q144 0 204 34.5t60 110.5v41q0 82 -90 109l-450 147q-140 44 -215.5 129.5t-75.5 200.5v35q0 202 151 307.5t416 105.5q123 0 224.5 -23.5t181.5 -71t125 -129t45 -189.5v-35h-344v53q0 71 -57 99
t-175 28q-117 0 -170 -28t-53 -99v-27q0 -34 24.5 -56.5t90.5 -43.5z" />
    <glyph glyph-name="scedilla" unicode="&#x15f;" horiz-adv-x="1105" 
d="M119 719v22q0 156 116 237t312 81q197 0 314.5 -79t121.5 -230v-11h-299v11q-12 102 -137 102q-114 0 -123 -76l-2 -12v-8q0 -54 135 -97l199 -61q131 -39 195.5 -107t64.5 -176v-10q0 -139 -110.5 -230.5t-295.5 -105.5l-26 -37h16q33 0 66 -8q69 -14 110 -55.5
t41 -106.5q0 -90 -64.5 -139t-168.5 -55h-27q-134 0 -233 45l24 117q85 -31 152 -31h8q100 0 100 63q0 45 -65 45h-6q-53 -3 -80 -24l-90 70l79 120q-160 22 -256.5 105t-105.5 205v26h295v-22q6 -60 49.5 -92.5t118.5 -32.5q71 0 110 24t45 66l5 18q2 4 2 13q0 35 -25 55.5
t-70 36.5l-270 88q-108 36 -166.5 101.5t-58.5 154.5z" />
    <glyph glyph-name="Scaron" unicode="&#x160;" horiz-adv-x="1388" 
d="M692 1716l137 203h230l-238 -344h-258l-237 344h229zM125 1014v35q0 202 151 307.5t416 105.5q123 0 224.5 -23.5t181.5 -71t125 -129t45 -189.5v-35h-344v53q0 71 -57 99t-175 28q-117 0 -170 -28t-53 -99v-27q0 -34 24.5 -56.5t90.5 -43.5l411 -137q305 -102 305 -371
v-26q0 -198 -167 -316q-165 -119 -441 -119q-275 0 -440 119q-164 120 -164 316v45h344v-64q0 -76 60 -110.5t200 -34.5q144 0 204 34.5t60 110.5v41q0 82 -90 109l-450 147q-139 46 -215 131t-76 199z" />
    <glyph glyph-name="scaron" unicode="&#x161;" horiz-adv-x="1105" 
d="M547 1307l139 202h227l-237 -344h-256l-238 344h228zM119 719v22q0 156 116 237t312 81q197 0 314.5 -79t121.5 -230v-11h-299v11q-12 102 -137 102q-114 0 -123 -76l-2 -12v-8q0 -54 135 -97l199 -61q131 -39 195.5 -107t64.5 -176v-10q0 -149 -129 -244
q-125 -94 -340 -94q-200 0 -326 87t-137 229v26h295v-22q6 -60 49.5 -92.5t118.5 -32.5q71 0 110 24t45 66l5 18q2 4 2 13q0 34 -22.5 53t-72.5 39l-270 88q-108 36 -166.5 101.5t-58.5 154.5z" />
    <glyph glyph-name="Tcaron" unicode="&#x164;" horiz-adv-x="1329" 
d="M51 1149v285h1227v-285h-447v-1149h-348v1149h-432zM664 1716l137 203h229l-237 -344h-258l-238 344h229z" />
    <glyph glyph-name="tcaron" unicode="&#x165;" horiz-adv-x="1054" 
d="M737 1350v206h254v-206q0 -31 -7.5 -60.5t-27.5 -61.5t-52 -55.5t-85.5 -40t-122.5 -18.5v127q41 38 41 109zM178 1024v285h326v-285h164v-199h-164v-544q0 -91 84 -91h80v-206h-213q-277 0 -277 241v600h-135v199h135z" />
    <glyph glyph-name="Tbar" unicode="&#x166;" horiz-adv-x="1329" 
d="M51 1149v285h1227v-285h-447v-1149h-348v1149h-432zM391 1675v209h543v-209h-543z" />
    <glyph glyph-name="tbar" unicode="&#x167;" horiz-adv-x="751" 
d="M178 1024v285h326v-285h164v-199h-164v-147h164v-199h-164v-198q0 -91 84 -91h80v-206h-213q-277 0 -277 241v254h-135v199h135v147h-135v199h135z" />
    <glyph glyph-name="Utilde" unicode="&#x168;" horiz-adv-x="1415" 
d="M471 1642l-127 76q76 180 209 180q71 3 158 -32q102 -43 133 -45q24 1 45 14.5t29 24t32 46.5q5 7 8 11l129 -76q-83 -145 -159 -172q-37 -16 -78 -16q-59 0 -135 28l-80 31q-34 17 -70 17q-28 0 -46 -18.5t-48 -68.5zM973 541v893h348v-893q0 -251 -166 -414
q-165 -160 -446 -160q-280 0 -445 162q-164 164 -164 412v893h346v-893q0 -141 67.5 -215t195.5 -74q130 0 197 74t67 215z" />
    <glyph glyph-name="utilde" unicode="&#x169;" horiz-adv-x="1189" 
d="M356 1233l-129 76q42 92 92.5 136t118.5 44q67 3 156 -33q13 -5 36 -15t36.5 -15.5t30.5 -10t30 -4.5q14 0 24.5 4t23.5 13t16 10q21 21 24 30q3 3 13.5 19.5t13.5 19.5l129 -75q-83 -146 -158 -172q-39 -17 -80 -17q-56 0 -135 29q-17 6 -49 19.5t-55 20.5t-43 7
q-29 0 -48.5 -19t-46.5 -67zM768 463v561h324v-1024h-291v113q-100 -146 -322 -146q-168 0 -274.5 100.5t-106.5 297.5v659h324v-561q0 -128 36.5 -180t129.5 -52q94 0 137 54t43 178z" />
    <glyph glyph-name="Umacron" unicode="&#x16a;" horiz-adv-x="1415" 
d="M973 541v893h348v-893q0 -251 -166 -414q-165 -160 -446 -160q-280 0 -445 162q-164 164 -164 412v893h346v-893q0 -141 67.5 -215t195.5 -74q130 0 197 74t67 215zM438 1675v209h543v-209h-543z" />
    <glyph glyph-name="umacron" unicode="&#x16b;" horiz-adv-x="1189" 
d="M324 1266v209h540v-209h-540zM768 463v561h324v-1024h-291v113q-100 -146 -322 -146q-168 0 -274.5 100.5t-106.5 297.5v659h324v-561q0 -128 36.5 -180t129.5 -52q94 0 137 54t43 178z" />
    <glyph glyph-name="Uring" unicode="&#x16e;" horiz-adv-x="1415" 
d="M928 1792q0 -91 -64 -154t-155 -63t-154 63t-63 154q0 89 63 152q65 65 154 65q88 0 153 -65q66 -66 66 -152zM614 1792q0 -38 29 -66t66 -28q38 0 67 28t29 66t-29 66t-67 28q-37 0 -66 -28t-29 -66zM973 541v893h348v-893q0 -251 -166 -414q-165 -160 -446 -160
q-280 0 -445 162q-164 164 -164 412v893h346v-893q0 -141 67.5 -215t195.5 -74q130 0 197 74t67 215z" />
    <glyph glyph-name="uring" unicode="&#x16f;" horiz-adv-x="1189" 
d="M594 1599q88 0 152.5 -64t64.5 -153q0 -91 -63 -154t-154 -63q-90 0 -154 64q-63 63 -63 153q0 89 63 152q65 65 154 65zM500 1382q0 -38 28 -66t66 -28t66 28t28 66t-29 66.5t-67 28.5q-37 0 -64.5 -28.5t-27.5 -66.5zM768 463v561h324v-1024h-291v113
q-100 -146 -322 -146q-173 0 -277 102.5t-104 295.5v659h324v-561q0 -128 36.5 -180t129.5 -52q94 0 137 54t43 178z" />
    <glyph glyph-name="Uhungarumlaut" unicode="&#x170;" horiz-adv-x="1415" 
d="M178 1575l293 344h303l-348 -344h-248zM674 1575l291 344h303l-346 -344h-248zM973 541v893h348v-893q0 -251 -166 -414q-165 -160 -446 -160q-280 0 -445 162q-164 164 -164 412v893h346v-893q0 -141 67.5 -215t195.5 -74q130 0 197 74t67 215z" />
    <glyph glyph-name="uhungarumlaut" unicode="&#x171;" horiz-adv-x="1189" 
d="M61 1165l293 344h303l-346 -344h-250zM557 1165l293 344h303l-348 -344h-248zM768 463v561h324v-1024h-291v113q-100 -146 -322 -146q-173 0 -277 102.5t-104 295.5v659h324v-561q0 -128 36.5 -180t129.5 -52q94 0 137 54t43 178z" />
    <glyph glyph-name="Uogonek" unicode="&#x172;" horiz-adv-x="1415" 
d="M973 541v893h348v-893q0 -203 -109.5 -349.5t-302.5 -197.5q-58 -29 -88 -70t-30 -80q0 -35 24.5 -59.5t67.5 -24.5q30 0 60.5 17t49.5 39l66 -127q-90 -90 -209 -90q-93 0 -158 53.5t-65 134.5v18q9 93 98 164q-58 0 -72 2q-252 15 -405 174q-148 157 -148 396v893h346
v-893q0 -141 67.5 -215t195.5 -74q130 0 197 74t67 215z" />
    <glyph glyph-name="uogonek" unicode="&#x173;" horiz-adv-x="1189" 
d="M768 463v561h324v-1026h-146q-59 -30 -93 -73t-34 -81q0 -36 25 -60t67 -24q30 0 62 17t51 39l63 -127q-90 -90 -206 -90q-95 0 -160.5 52.5t-65.5 135.5v18q15 125 146 195v113q-100 -146 -322 -146q-168 0 -274.5 100.5t-106.5 297.5v659h324v-561q0 -128 36.5 -180
t129.5 -52q94 0 137 54t43 178z" />
    <glyph glyph-name="Wcircumflex" unicode="&#x174;" horiz-adv-x="2088" 
d="M1440 428l225 1006h352l-393 -1434h-342l-238 958l-235 -958h-342l-395 1434h352l225 -1006l234 1006h323zM680 1575l238 344h258l237 -344h-229l-137 203l-138 -203h-229z" />
    <glyph glyph-name="wcircumflex" unicode="&#x175;" horiz-adv-x="1708" 
d="M1167 276l189 748h311l-326 -1024h-301l-186 610l-186 -610h-301l-326 1024h311l189 -748l190 748h248zM504 1165l235 344h258l238 -344h-229l-138 203l-137 -203h-227z" />
    <glyph glyph-name="Ycircumflex" unicode="&#x176;" horiz-adv-x="1605" 
d="M801 862l336 572h405l-567 -879v-555h-348v555l-568 879h406zM436 1575l236 344h258l237 -344h-229l-137 203l-137 -203h-228z" />
    <glyph glyph-name="ycircumflex" unicode="&#x177;" 
d="M580 270l239 752h314l-494 -1393h-252l113 369h-94l-365 1026h324zM213 1165l238 344h258l237 -344h-229l-137 203l-138 -203h-229z" />
    <glyph glyph-name="Ydieresis" unicode="&#x178;" horiz-adv-x="1605" 
d="M453 1655v213h256v-213h-256zM893 1655v213h256v-213h-256zM801 862l336 572h407l-569 -879v-555h-348v555l-568 879h406z" />
    <glyph glyph-name="Zacute" unicode="&#x179;" horiz-adv-x="1284" 
d="M322 1575l290 344h303l-346 -344h-247zM78 1149v285h1126v-191l-669 -958h677v-285h-1142v190l667 959h-659z" />
    <glyph glyph-name="zacute" unicode="&#x17a;" horiz-adv-x="1003" 
d="M184 1165l293 344h303l-348 -344h-248zM82 766v258h842v-172l-416 -594h424v-258h-858v172l415 594h-407z" />
    <glyph glyph-name="Zdotaccent" unicode="&#x17b;" horiz-adv-x="1284" 
d="M516 1655v213h254v-213h-254zM78 1149v285h1126v-191l-669 -958h677v-285h-1142v190l667 959h-659z" />
    <glyph glyph-name="zdotaccent" unicode="&#x17c;" horiz-adv-x="1003" 
d="M379 1245v213h254v-213h-254zM82 766v258h842v-172l-416 -594h424v-258h-858v172l415 594h-407z" />
    <glyph glyph-name="Zcaron" unicode="&#x17d;" horiz-adv-x="1284" 
d="M641 1716l137 203h228l-238 -344h-256l-238 344h228zM78 1149v285h1126v-191l-669 -958h677v-285h-1142v190l667 959h-659z" />
    <glyph glyph-name="zcaron" unicode="&#x17e;" horiz-adv-x="1003" 
d="M82 766v258h842v-172l-416 -594h424v-258h-858v172l415 594h-407zM504 1307l137 202h229l-237 -344h-258l-238 344h230z" />
    <glyph glyph-name="florin" unicode="&#x192;" horiz-adv-x="782" 
d="M508 1458h213v-198h-74q-90 0 -90 -103v-248h164v-198h-164v-799q0 -239 -281 -274q-77 -5 -92 -5q-50 0 -125 7v223h31h53q48 6 68 34t20 93v721h-135v198h135v248q0 140 76.5 220.5t200.5 80.5z" />
    <glyph glyph-name="Gcaron" unicode="&#x1e6;" horiz-adv-x="1533" 
d="M766 1716l137 203h227l-237 -344h-256l-238 344h228zM90 631v157q0 333 179.5 503.5t504.5 170.5q281 0 454.5 -126t209.5 -375h-351q-29 122 -99 169.5t-214 47.5q-180 0 -258 -87t-78 -303v-157q0 -180 87.5 -277.5t248.5 -97.5q278 0 336 254l4 27h-299v221h617v-758
h-218l-12 162q-159 -191 -428 -191q-317 0 -502 185q-182 185 -182 475z" />
    <glyph glyph-name="gcaron" unicode="&#x1e7;" horiz-adv-x="1187" 
d="M594 1307l137 202h230l-238 -344h-258l-236 344h228zM88 481v90q0 226 117 355q118 130 293 133q193 0 309 -152l10 117h268v-979q0 -114 -37.5 -198.5t-104.5 -132.5t-151 -70.5t-186 -22.5q-86 0 -164.5 17.5t-145 52t-108 93.5t-45.5 134h273q12 -123 178 -123h12
q77 2 115.5 38t38.5 114v215q-38 -67 -116 -103t-177 -34q-173 5 -276 120.5t-103 335.5zM760 502v90q0 221 -182 221q-85 0 -125.5 -54t-40.5 -167v-90q0 -132 36.5 -182t129.5 -50q99 0 140.5 52t41.5 180z" />
    <glyph glyph-name="Oslashacute" unicode="&#x1fe;" horiz-adv-x="1550" 
d="M756 1919h303l-346 -344h-250zM1012 1536h256l-78 -174q270 -164 270 -574v-157q0 -290 -182 -475t-504 -185q-102 0 -190 21l-43 -94h-256l82 184q-134 86 -205.5 228.5t-71.5 320.5v157q0 333 179.5 503.5t504.5 170.5q108 0 197 -18zM438 788v-157q0 -155 64 -246
l350 789q-46 4 -78 4q-180 0 -258 -87t-78 -303zM1114 631v157q0 187 -57 273l-355 -799q34 -6 72 -6q167 0 253.5 96t86.5 279z" />
    <glyph glyph-name="oslashacute" unicode="&#x1ff;" horiz-adv-x="1216" 
d="M588 1509h303l-346 -344h-250zM803 1126h160l-60 -135q223 -119 223 -430v-108q0 -213 -141 -351q-138 -135 -379 -135q-71 0 -151 17l-39 -86h-160l61 141q-108 61 -167.5 170t-59.5 244v108q0 242 138.5 370t377.5 128q77 0 160 -17zM416 561v-108q0 -85 26 -136
l211 474q-14 2 -47 2q-105 0 -147.5 -50.5t-42.5 -181.5zM803 453v108q0 97 -25 152l-213 -480q14 -2 41 -2q197 0 197 222z" />
    <glyph glyph-name="Scommaaccent" unicode="&#x218;" horiz-adv-x="1388" 
d="M125 1014v35q0 202 151 307.5t416 105.5q123 0 224.5 -23.5t181.5 -71t125 -129t45 -189.5v-35h-344v53q0 71 -57 99t-175 28q-117 0 -170 -28t-53 -99v-27q0 -33 25 -57t90 -43l411 -137q305 -102 305 -371v-26q0 -198 -167 -316q-165 -119 -441 -119q-275 0 -440 119
q-164 120 -164 316v45h344v-64q0 -76 60 -110.5t200 -34.5q144 0 204 34.5t60 110.5v41q0 82 -90 109l-450 147q-140 44 -215.5 129.5t-75.5 200.5zM588 -305v184h254v-184q0 -39 -13.5 -76t-44 -74t-92.5 -60.5t-147 -25.5v127q43 37 43 109z" />
    <glyph glyph-name="scommaaccent" unicode="&#x219;" horiz-adv-x="1105" 
d="M119 719v22q0 156 116 237t312 81q197 0 314.5 -79t121.5 -230v-11h-299v11q-12 102 -137 102q-114 0 -123 -76l-2 -12v-8q0 -54 135 -97l199 -61q131 -39 195.5 -107t64.5 -176v-10q0 -149 -129 -244q-125 -94 -340 -94q-200 0 -326 87t-137 229v26h295v-22
q6 -60 49.5 -92.5t118.5 -32.5q71 0 110 24t45 66l5 18q2 4 2 13q0 35 -25 55.5t-70 36.5l-270 88q-108 36 -166.5 101.5t-58.5 154.5zM444 -305v184h254v-184q0 -31 -7.5 -60.5t-27.5 -61.5t-52 -55.5t-85.5 -40t-122.5 -18.5v127q41 38 41 109z" />
    <glyph glyph-name="uni021A" unicode="&#x21a;" horiz-adv-x="1329" 
d="M51 1149v285h1227v-285h-447v-1149h-348v1149h-432zM557 -305v184h254v-184q0 -31 -7.5 -60.5t-28.5 -61.5t-53 -56t-86 -40t-122 -18v127q43 37 43 109z" />
    <glyph glyph-name="uni021B" unicode="&#x21b;" horiz-adv-x="751" 
d="M178 1024v285h326v-285h164v-199h-164v-544q0 -91 84 -91h80v-206h-213q-277 0 -277 241v600h-135v199h135zM248 -305v184h256v-184q0 -41 -13 -78t-44 -73.5t-92.5 -59.5t-147.5 -25v127q41 38 41 109z" />
    <glyph glyph-name="uni0228" unicode="&#x228;" horiz-adv-x="1255" 
d="M102 0v1434h1092v-285h-743v-266h714v-285h-714v-313h751v-285h-493l-60 -88h23q32 0 59 -6q69 -14 110.5 -56t41.5 -106q0 -93 -68 -142.5t-166 -52.5h-26q-133 0 -234 43l25 119q79 -30 151 -33q109 0 109 66q0 20 -18.5 31.5t-45.5 11.5h-8q-44 0 -80 -25l-90 70
l109 168h-439z" />
    <glyph glyph-name="uni0229" unicode="&#x229;" horiz-adv-x="1206" 
d="M90 453v108q0 242 138.5 370t377.5 128q244 0 381.5 -126.5t136.5 -371.5v-119h-708v-43q0 -221 190 -221q72 0 118 35.5t58 101.5h324q-37 -148 -153 -240.5t-287 -105.5l-29 -39q51 0 82 -8q69 -14 111 -56t42 -106q0 -90 -65 -139.5t-170 -54.5h-25q-132 0 -233 43
l24 119q76 -30 152 -33q107 0 107 65q0 20 -18.5 31.5t-45.5 11.5h-6q-48 0 -82 -24l-90 69l84 127q-191 27 -303 160q-108 132 -111 318zM416 616h387q0 126 -46 179t-151 53q-101 0 -145.5 -53t-44.5 -179z" />
    <glyph glyph-name="uni022A" unicode="&#x22a;" horiz-adv-x="1550" 
d="M504 1898v209h543v-209h-543zM426 1589v215h256v-215h-256zM868 1589v215h254v-215h-254zM90 631v157q0 333 179.5 503.5t504.5 170.5q326 0 506 -170t180 -504v-157q0 -290 -182 -475t-504 -185q-317 0 -502 185q-182 185 -182 475zM1114 631v157q0 221 -80 304
q-80 86 -260 86t-258 -87t-78 -303v-157q0 -180 87.5 -277.5t248.5 -97.5q167 0 253.5 96t86.5 279z" />
    <glyph glyph-name="uni022B" unicode="&#x22b;" horiz-adv-x="1202" 
d="M328 1536v209h542v-209h-542zM250 1204v213h256v-213h-256zM692 1204v213h256v-213h-256zM82 453v108q0 242 138 370t378 128q241 0 379.5 -126.5t138.5 -371.5v-108q0 -213 -141 -351q-138 -135 -377 -135q-238 0 -377 136t-139 350zM793 453v108q0 133 -43.5 182.5
t-151.5 49.5q-106 0 -149 -50t-43 -182v-108q0 -222 192 -222q195 0 195 222z" />
    <glyph glyph-name="circumflex" unicode="&#x2c6;" horiz-adv-x="882" 
d="M76 1165l235 344h258l238 -344h-229l-138 203l-137 -203h-227z" />
    <glyph glyph-name="caron" unicode="&#x2c7;" horiz-adv-x="878" 
d="M440 1307l138 202h229l-238 -344h-258l-237 344h229z" />
    <glyph glyph-name="breve" unicode="&#x2d8;" horiz-adv-x="815" 
d="M610 1509h123q-3 -142 -96 -229q-91 -88 -234 -88q-139 0 -233 88q-91 88 -94 229h123q2 -69 55.5 -113t148.5 -44q96 0 150.5 44t56.5 113z" />
    <glyph glyph-name="dotaccent" unicode="&#x2d9;" horiz-adv-x="428" 
d="M88 1245v213h256v-213h-256z" />
    <glyph glyph-name="ring" unicode="&#x2da;" horiz-adv-x="595" 
d="M514 1382q0 -91 -63 -154t-154 -63q-90 0 -154 64q-63 63 -63 153q0 89 63 152q65 65 154 65q87 0 152 -65t65 -152zM203 1382q0 -38 28 -66t66 -28t66 28t28 66t-29 66.5t-67 28.5q-37 0 -64.5 -28.5t-27.5 -66.5z" />
    <glyph glyph-name="ogonek" unicode="&#x2db;" horiz-adv-x="579" 
d="M225 0h150q-64 -29 -97.5 -72t-33.5 -84q0 -37 24.5 -60.5t67.5 -23.5q31 0 62.5 18t47.5 38l64 -127q-90 -90 -207 -90q-92 0 -158.5 53t-66.5 135q0 12 2 18q12 124 145 195z" />
    <glyph glyph-name="tilde" unicode="&#x2dc;" horiz-adv-x="909" 
d="M209 1233l-127 76q76 180 209 180q69 3 155 -33q12 -5 36.5 -15t38 -15.5t31 -10t30.5 -4.5q14 0 24.5 4t21.5 12t17 11q19 20 23 30q4 4 14 19t12 20l131 -75q-83 -145 -159 -172q-39 -17 -80 -17q-56 0 -135 29q-53 23 -78 31q-32 16 -70 16q-29 0 -48 -19t-46 -67z
" />
    <glyph glyph-name="hungarumlaut" unicode="&#x2dd;" horiz-adv-x="1253" 
d="M80 1165l293 344h303l-346 -344h-250zM575 1165l293 344h301l-346 -344h-248z" />
    <glyph glyph-name="dotbelowcomb" unicode="&#x323;" horiz-adv-x="0" 
d="M88 -393v213h256v-213h-256z" />
    <glyph glyph-name="pi" unicode="&#x3c0;" horiz-adv-x="253" 
 />
    <glyph glyph-name="Wgrave" unicode="&#x1e80;" horiz-adv-x="2088" 
d="M1122 1575l-346 344h303l293 -344h-250zM1440 428l225 1006h352l-393 -1434h-342l-238 958l-235 -958h-342l-395 1434h352l225 -1006l234 1006h323z" />
    <glyph glyph-name="wgrave" unicode="&#x1e81;" horiz-adv-x="1708" 
d="M946 1165l-346 344h301l293 -344h-248zM1167 276l189 748h311l-326 -1024h-301l-186 610l-186 -610h-301l-326 1024h311l189 -748l190 748h248z" />
    <glyph glyph-name="Wacute" unicode="&#x1e82;" horiz-adv-x="2088" 
d="M727 1575l293 344h303l-348 -344h-248zM1440 428l225 1006h352l-393 -1434h-342l-238 958l-235 -958h-342l-395 1434h352l225 -1006l234 1006h323z" />
    <glyph glyph-name="wacute" unicode="&#x1e83;" horiz-adv-x="1708" 
d="M549 1165l293 344h303l-346 -344h-250zM1167 276l189 748h311l-326 -1024h-301l-186 610l-186 -610h-301l-326 1024h311l189 -748l190 748h248z" />
    <glyph glyph-name="Wdieresis" unicode="&#x1e84;" horiz-adv-x="2088" 
d="M698 1655v213h254v-213h-254zM1139 1655v213h256v-213h-256zM1440 428l225 1006h352l-393 -1434h-342l-238 958l-235 -958h-342l-395 1434h352l225 -1006l234 1006h323z" />
    <glyph glyph-name="wdieresis" unicode="&#x1e85;" horiz-adv-x="1708" 
d="M1167 276l189 748h311l-326 -1024h-301l-186 610l-186 -610h-301l-326 1024h311l189 -748l190 748h248zM520 1245v213h256v-213h-256zM961 1245v213h256v-213h-256z" />
    <glyph glyph-name="Ygrave" unicode="&#x1ef2;" horiz-adv-x="1605" 
d="M879 1575l-347 344h304l290 -344h-247zM801 862l336 572h407l-569 -879v-555h-348v555l-568 879h406z" />
    <glyph glyph-name="ygrave" unicode="&#x1ef3;" 
d="M655 1165l-346 344h303l293 -344h-250zM580 270l239 752h314l-494 -1393h-252l113 369h-94l-365 1026h324z" />
    <glyph glyph-name="endash" unicode="&#x2013;" horiz-adv-x="1064" 
d="M88 422v266h891v-266h-891z" />
    <glyph glyph-name="emdash" unicode="&#x2014;" horiz-adv-x="1331" 
d="M88 422v266h1155v-266h-1155z" />
    <glyph glyph-name="quoteleft" unicode="&#x2018;" horiz-adv-x="522" 
d="M408 1075h-324l-2 361q0 39 9.5 75.5t35.5 76t66.5 68.5t107.5 48.5t154 21.5v-161q-29 -25 -38 -53.5t-9 -75.5v-361z" />
    <glyph glyph-name="quoteright" unicode="&#x2019;" horiz-adv-x="522" 
d="M117 1366v360h325v-360q0 -39 -9.5 -75.5t-35.5 -76t-66 -69t-107 -49t-154 -21.5v162q29 25 38 53.5t9 75.5z" />
    <glyph glyph-name="quotesinglbase" unicode="&#x201a;" horiz-adv-x="520" 
d="M115 14v361h323v-361q0 -39 -9.5 -75.5t-35 -76t-65.5 -68.5t-107 -48.5t-153 -21.5v161q29 25 38 53.5t9 75.5z" />
    <glyph glyph-name="quotedblleft" unicode="&#x201c;" horiz-adv-x="1028" 
d="M412 1075h-326v361q0 39 9.5 75.5t35.5 76t66.5 68.5t107.5 48.5t154 21.5v-161q-29 -25 -38 -53.5t-9 -75.5v-361zM899 1075h-324v361q0 39 9 75.5t34.5 76t66 68.5t108 48.5t155.5 21.5v-161q-29 -25 -39 -54t-10 -75v-361z" />
    <glyph glyph-name="quotedblright" unicode="&#x201d;" horiz-adv-x="1028" 
d="M127 1366v360h326v-360q0 -39 -9.5 -75.5t-35.5 -76t-66.5 -69t-107.5 -49t-154 -21.5v162q29 25 38 53.5t9 75.5zM616 1366v360h324v-360q0 -40 -9 -77t-34.5 -76t-66 -68t-108 -48.5t-155.5 -21.5v162q30 25 39.5 53.5t9.5 75.5z" />
    <glyph glyph-name="quotedblbase" unicode="&#x201e;" horiz-adv-x="1026" 
d="M129 14v361h324v-361q0 -39 -9.5 -75.5t-35.5 -76t-66.5 -68.5t-107.5 -48.5t-154 -21.5v161q29 25 39 54t10 75zM616 14v361h324v-361q0 -39 -9.5 -75.5t-35 -76t-66 -68.5t-108 -48.5t-154.5 -21.5v161q29 25 39 54t10 75z" />
    <glyph glyph-name="dagger" unicode="&#x2020;" horiz-adv-x="804" 
d="M240 1008v368h323v-368h182v-265h-182v-952h-323v952h-183v265h183z" />
    <glyph glyph-name="daggerdbl" unicode="&#x2021;" horiz-adv-x="804" 
d="M240 1008v368h323v-368h182v-265h-182v-319h182v-264h-182v-369h-323v369h-183v264h183v319h-183v265h183z" />
    <glyph glyph-name="bullet" unicode="&#x2022;" horiz-adv-x="729" 
d="M162 838q84 84 200 84q119 0 203 -84t84 -201t-84 -201q-82 -82 -203 -82q-118 0 -200 82t-82 201t82 201z" />
    <glyph glyph-name="ellipsis" unicode="&#x2026;" horiz-adv-x="1558" 
d="M88 0v375h326v-375h-326zM618 0v375h324v-375h-324zM1147 0v375h323v-375h-323z" />
    <glyph glyph-name="perthousand" unicode="&#x2030;" horiz-adv-x="2439" 
d="M250 -47l944 1505h256l-944 -1505h-256zM82 1040v70q0 152 88 231.5t240 79.5q147 0 237 -78t90 -233v-70q0 -133 -90 -219t-237 -86q-149 0 -238.5 87t-89.5 218zM530 1040v70q0 81 -26.5 112t-93.5 31t-93 -31t-26 -112v-70q0 -135 119 -135q120 0 120 135zM969 297v68
q0 152 87 232.5t238 80.5q147 0 237.5 -78.5t90.5 -234.5v-68q0 -135 -90 -220t-238 -85t-236.5 85t-88.5 220zM1714 297v68q0 152 88.5 232.5t239.5 80.5t239.5 -80.5t88.5 -232.5v-68q0 -135 -90 -220t-238 -85t-238 85t-90 220zM1415 297v68q0 83 -26.5 113t-94.5 30
q-64 0 -91 -31.5t-27 -111.5v-68q0 -137 118 -137q121 0 121 137zM2163 297v68q0 83 -26.5 113t-94.5 30q-67 0 -93 -31t-26 -112v-68q0 -137 119 -137q121 0 121 137z" />
    <glyph glyph-name="guilsinglleft" unicode="&#x2039;" horiz-adv-x="475" 
d="M59 406v233l332 250v-238l-174 -129l174 -127v-239z" />
    <glyph glyph-name="guilsinglright" unicode="&#x203a;" horiz-adv-x="477" 
d="M262 522l-174 129v238l332 -250v-233l-332 -250v239z" />
    <glyph glyph-name="fraction" unicode="&#x2044;" horiz-adv-x="1001" 
d="M43 -25l662 1483h253l-659 -1483h-256z" />
    <glyph glyph-name="Euro" unicode="&#x20ac;" horiz-adv-x="1378" 
d="M76 774v201h125q35 236 180.5 363.5t374.5 127.5q207 0 351.5 -108.5t188.5 -304.5h-319q-65 132 -221 129q-84 -1 -136 -54.5t-69 -152.5h346v-201h-362v-119h362v-200h-346q17 -99 69 -151.5t136 -53.5q156 -6 221 129h319q-44 -198 -188.5 -306t-351.5 -108
q-225 0 -373.5 127.5t-181.5 362.5h-125v200h110v119h-110z" />
    <glyph glyph-name="trademark" unicode="&#x2122;" horiz-adv-x="1972" 
d="M76 1233v201h772v-201h-268v-694h-242v694h-262zM1403 879l188 555h293v-895h-215v462l-162 -462h-211l-155 458v-458h-219v895h292z" />
    <glyph glyph-name="Omega" unicode="&#x2126;" horiz-adv-x="1705" 
 />
    <glyph glyph-name="oneeighth" unicode="&#x215b;" horiz-adv-x="1800" 
d="M317 -35l670 1503h254l-668 -1503h-256zM266 1434h172v-850h-217v602q-65 -44 -184 -56v152q60 4 102 22t69 47.5t58 82.5zM1063 578v57q0 78 43.5 130t110.5 73.5t155 21.5q142 0 226.5 -56.5t84.5 -168.5v-57q0 -38 -21 -71t-58 -52q54 -21 84 -68.5t30 -105.5v-45
q0 -110 -95.5 -179t-250.5 -69q-154 0 -249 69t-95 179v45q0 60 30 105.5t85 68.5q-38 19 -59 51.5t-21 71.5zM1473 588v49q0 29 -23.5 40t-77.5 11q-55 0 -76.5 -10.5t-21.5 -40.5v-49q0 -53 98 -53q101 0 101 53zM1505 236v53q0 43 -28 58t-105 15q-75 0 -102 -14.5
t-27 -58.5v-53q0 -38 30 -54t99 -16q72 0 102.5 16t30.5 54z" />
    <glyph glyph-name="threeeighths" unicode="&#x215c;" horiz-adv-x="2031" 
d="M549 -35l670 1503h254l-668 -1503h-256zM311 1176h-215v34q0 112 82.5 169t224.5 57q145 0 229.5 -57t84.5 -169v-49q0 -38 -22 -73t-58 -48q55 -19 86 -66.5t31 -109.5v-51q0 -110 -96.5 -178t-251.5 -68q-154 0 -250.5 68t-96.5 178v55h217v-55q0 -51 28.5 -68.5
t101.5 -17.5q77 0 104 18t27 68v57q0 74 -88 74h-95v150h68q78 0 78 57v59q0 34 -21 50t-73 16q-54 0 -74.5 -16.5t-20.5 -49.5v-34zM1294 578v57q0 115 86 170t224 55q142 0 226.5 -56.5t84.5 -168.5v-57q0 -38 -21.5 -71t-58.5 -52q55 -23 85 -68.5t30 -105.5v-45
q0 -110 -96 -179t-250 -69t-250.5 69t-96.5 179v45q0 60 30.5 105.5t84.5 68.5q-37 19 -57.5 52t-20.5 71zM1704 588v49q0 30 -23 40.5t-77 10.5q-56 0 -77.5 -10.5t-21.5 -40.5v-49q0 -53 99 -53q100 0 100 53zM1735 236v53q0 44 -27.5 58.5t-103.5 14.5q-75 0 -102 -14.5
t-27 -58.5v-53q0 -38 30 -54t99 -16q72 0 101.5 16t29.5 54z" />
    <glyph glyph-name="fiveeighths" unicode="&#x215d;" horiz-adv-x="1996" 
d="M512 -35l670 1503h256l-668 -1503h-258zM80 952l90 482h508v-179h-346l-29 -137q64 34 154 31q122 0 197 -63.5t75 -178.5v-61q0 -121 -92 -201q-89 -80 -240 -80q-149 0 -241 80q-90 81 -90 201v22h215v-22q0 -54 27.5 -78.5t88.5 -24.5t89 24.5t28 78.5v61
q0 60 -27 84.5t-90 24.5q-91 0 -121 -64h-196zM1257 578l3 57q0 115 85 170t224 55q142 0 225.5 -56.5t83.5 -168.5v-57q0 -38 -20.5 -71t-57.5 -52q54 -23 84.5 -68.5t30.5 -105.5v-45q0 -112 -96.5 -180t-249.5 -68q-154 0 -250 69t-96 179v45q0 60 29.5 105.5t84.5 68.5
q-37 19 -58.5 52t-21.5 71zM1669 588v49q0 28 -23.5 39.5t-76.5 11.5q-57 0 -79 -10.5t-22 -40.5v-49q0 -53 101 -53q100 0 100 53zM1700 236v53q0 43 -28 58t-103 15t-102 -14.5t-27 -58.5v-53q0 -38 30 -54t99 -16q71 0 101 15t30 55z" />
    <glyph glyph-name="seveneighths" unicode="&#x215e;" horiz-adv-x="1798" 
d="M356 -35l670 1503h256l-668 -1503h-258zM45 1255v179h633v-136q-160 -150 -233.5 -320t-73.5 -394h-217q0 194 75 365t205 306h-389zM1102 578v57q0 112 84.5 168.5t226.5 56.5t225.5 -56.5t83.5 -168.5v-57q0 -39 -21 -71.5t-59 -51.5q56 -23 86.5 -68.5t30.5 -105.5
v-45q0 -110 -96 -179t-250 -69t-250 69t-96 179v45q0 60 30 105.5t85 68.5q-37 19 -58.5 52t-21.5 71zM1513 588v49q0 29 -23.5 40t-76.5 11q-57 0 -78.5 -10.5t-21.5 -40.5v-49q0 -53 100 -53t100 53zM1544 236v53q0 44 -27.5 58.5t-103.5 14.5t-102.5 -14.5t-26.5 -58.5
v-53q0 -38 30 -54t99 -16q71 0 101 15t30 55z" />
    <glyph glyph-name="partialdiff" unicode="&#x2202;" horiz-adv-x="1794" 
 />
    <glyph glyph-name="product" unicode="&#x220f;" horiz-adv-x="1794" 
 />
    <glyph glyph-name="summation" unicode="&#x2211;" horiz-adv-x="1794" 
 />
    <glyph glyph-name="minus" unicode="&#x2212;" horiz-adv-x="1130" 
d="M88 512v266h956v-266h-956z" />
    <glyph glyph-name="radical" unicode="&#x221a;" horiz-adv-x="1794" 
 />
    <glyph glyph-name="infinity" unicode="&#x221e;" horiz-adv-x="1794" 
 />
    <glyph glyph-name="integral" unicode="&#x222b;" horiz-adv-x="1794" 
 />
    <glyph glyph-name="approxequal" unicode="&#x2248;" horiz-adv-x="1202" 
 />
    <glyph glyph-name="notequal" unicode="&#x2260;" horiz-adv-x="1073" 
d="M561 940l123 277h254l-123 -277h199v-248h-309l-78 -174h387v-250h-498l-119 -268h-256l119 268h-201v250h314l78 174h-392v248h502z" />
    <glyph glyph-name="lessequal" unicode="&#x2264;" horiz-adv-x="1224" 
d="M55 711v362l1102 359v-281l-807 -260l807 -258v-279zM55 0v276h1102v-276h-1102z" />
    <glyph glyph-name="greaterequal" unicode="&#x2265;" horiz-adv-x="1224" 
d="M877 891l-809 260v281l1103 -359v-362l-1103 -357v279zM68 0v276h1103v-276h-1103z" />
    <glyph glyph-name="lozenge" unicode="&#x25ca;" horiz-adv-x="1794" 
 />
    <glyph glyph-name="A.sc" unicode="&#xe000;" horiz-adv-x="1122" 
d="M33 0l389 1022h276l389 -1022h-309l-61 182h-311l-64 -182h-309zM442 354h236l-117 373z" />
    <glyph glyph-name="Acaron" unicode="&#xe001;" horiz-adv-x="1570" 
d="M63 0l547 1434h353l546 -1434h-360l-92 272h-539l-94 -272h-361zM586 518h405l-205 590zM782 1716l138 203h229l-238 -344h-258l-237 344h229z" />
    <glyph glyph-name="Acircumflexdotbelow" unicode="&#xe002;" horiz-adv-x="1570" 
d="M416 1575l237 344h258l238 -344h-229l-138 203l-137 -203h-229zM63 0l547 1434h353l546 -1434h-360l-92 272h-539l-94 -272h-361zM586 518h405l-205 590zM647 -393v213h256v-213h-256z" />
    <glyph glyph-name="Adieresismacron" unicode="&#xe003;" horiz-adv-x="1570" 
d="M510 1898v207h543v-207h-543zM434 1589v215h254v-215h-254zM874 1589v215h256v-215h-256zM63 0l547 1434h353l546 -1434h-360l-92 272h-539l-94 -272h-361zM586 518h405l-205 590z" />
    <glyph glyph-name="B.sc" unicode="&#xe004;" horiz-adv-x="987" 
d="M100 0v1024h439q172 0 275.5 -71.5t103.5 -209.5v-34q0 -109 -105 -174q57 -32 90 -86.5t33 -116.5v-58q0 -132 -114 -203t-304 -71h-418zM645 688v41q0 70 -96 70h-184v-174h184q44 0 70 16.5t26 46.5zM664 303v47q0 80 -121 80h-178v-205h178q59 0 90 22t31 56z" />
    <glyph glyph-name="Bdotbelow" unicode="&#xe005;" horiz-adv-x="1333" 
d="M102 0v1434h605q113 0 204.5 -20.5t162.5 -63t110 -115t39 -170.5v-55q0 -88 -59.5 -160.5t-147.5 -104.5q105 -29 169 -111.5t64 -187.5v-88q0 -171 -157 -266q-157 -92 -416 -92h-574zM887 987v51q0 61 -48 92t-132 31h-256v-291h256q83 0 131.5 31t48.5 86zM913 410
v57q0 143 -237 143h-225v-338h225q113 0 175 36t62 102zM477 -393v213h254v-213h-254z" />
    <glyph glyph-name="C.sc" unicode="&#xe006;" horiz-adv-x="1058" 
d="M66 457v108q0 243 129 367.5t362 124.5q211 0 328 -109t129 -323h-285q-24 101 -58.5 136.5t-113.5 35.5q-104 0 -146 -50t-42 -182v-108q0 -124 44 -177t144 -53q77 0 111.5 36t58.5 136h287q-12 -210 -130.5 -321t-326.5 -111q-226 0 -358.5 125.5t-132.5 364.5z" />
    <glyph glyph-name="CR" unicode="&#xe007;" horiz-adv-x="681" 
 />
    <glyph glyph-name="D.sc" unicode="&#xe008;" horiz-adv-x="1048" 
d="M100 0v1024h387q110 0 199.5 -27.5t157 -83t104.5 -146.5t37 -212v-96q0 -201 -135 -330q-132 -129 -363 -129h-387zM688 459v96q0 121 -45 167t-156 46h-90v-512h90q201 0 201 203z" />
    <glyph glyph-name="Dcircumflexbelow" unicode="&#xe009;" horiz-adv-x="1413" 
d="M102 0v1434h527q155 0 280 -38t218.5 -115t144.5 -203t51 -294v-149q0 -278 -188 -457q-187 -178 -506 -178h-527zM975 635v149q0 200 -80.5 282.5t-265.5 82.5h-178v-864h178q170 0 258 89.5t88 260.5zM334 -473l237 344h258l238 -344h-229l-138 203l-137 -203h-229z
" />
    <glyph glyph-name="Ddotbelow" unicode="&#xe00a;" horiz-adv-x="1413" 
d="M102 0v1434h527q155 0 280 -38t218.5 -115t144.5 -203t51 -294v-149q0 -278 -188 -457q-187 -178 -506 -178h-527zM975 635v149q0 200 -80.5 282.5t-265.5 82.5h-178v-864h178q170 0 258 89.5t88 260.5zM571 -393v213h256v-213h-256z" />
    <glyph glyph-name="Dlinebelow" unicode="&#xe00b;" horiz-adv-x="1413" 
d="M102 0v1434h527q155 0 280 -38t218.5 -115t144.5 -203t51 -294v-149q0 -278 -188 -457q-187 -178 -506 -178h-527zM975 635v149q0 200 -80.5 282.5t-265.5 82.5h-178v-864h178q170 0 258 89.5t88 260.5zM424 -369v209h543v-209h-543z" />
    <glyph glyph-name="E.sc" unicode="&#xe00c;" horiz-adv-x="962" 
d="M100 0v1024h799v-225h-502v-172h482v-195h-482v-207h506v-225h-803z" />
    <glyph glyph-name="Ecircumflexdotbelow" unicode="&#xe00d;" horiz-adv-x="1255" 
d="M252 1575l235 344h258l238 -344h-227l-140 203l-137 -203h-227zM102 0v1434h1092v-285h-743v-266h714v-285h-714v-313h751v-285h-1100zM489 -393v213h256v-213h-256z" />
    <glyph glyph-name="Edotbelow" unicode="&#xe00e;" horiz-adv-x="1255" 
d="M102 0v1434h1092v-285h-743v-266h714v-285h-714v-313h751v-285h-1100zM489 -393v213h256v-213h-256z" />
    <glyph glyph-name="Etilde" unicode="&#xe00f;" horiz-adv-x="1255" 
d="M379 1642l-127 76q76 180 209 180q71 3 155 -32q12 -5 36.5 -15t38 -15.5t31 -10t30.5 -4.5q23 1 42.5 13.5t30.5 26.5t31 44q3 4 4.5 6.5t3.5 5.5l131 -76q-83 -145 -159 -172q-37 -16 -80 -16q-59 0 -135 28q-53 22 -78 31q-34 17 -70 17q-29 0 -48 -19t-46 -68zM102 0
v1434h1092v-285h-743v-266h714v-285h-714v-313h751v-285h-1100z" />
    <glyph glyph-name="F.sc" unicode="&#xe010;" horiz-adv-x="923" 
d="M100 0v1024h764v-225h-467v-174h449v-195h-449v-430h-297z" />
    <glyph glyph-name="G.sc" unicode="&#xe011;" horiz-adv-x="1130" 
d="M66 459v106q0 241 130.5 365.5t364.5 124.5q200 0 329 -97.5t152 -279.5h-274q-18 66 -66 92.5t-141 26.5q-107 0 -150.5 -48.5t-43.5 -183.5v-106q0 -221 194 -221q176 0 203 145l4 20h-166v168h434v-571h-207l-8 98q-87 -118 -276 -118q-228 0 -355 133
q-124 130 -124 346z" />
    <glyph glyph-name="H.sc" unicode="&#xe012;" horiz-adv-x="1112" 
d="M717 655v369h297v-1024h-297v399h-320v-399h-297v1024h297v-369h320z" />
    <glyph glyph-name="Hdotbelow" unicode="&#xe013;" horiz-adv-x="1472" 
d="M1020 883v551h348v-1434h-348v598h-569v-598h-349v1434h349v-551h569zM606 -393v213h256v-213h-256z" />
    <glyph glyph-name="I.sc" unicode="&#xe014;" horiz-adv-x="495" 
d="M100 0v1024h297v-1024h-297z" />
    <glyph glyph-name="Icaron" unicode="&#xe015;" horiz-adv-x="550" 
d="M272 1716l138 203h229l-238 -344h-258l-235 344h227zM104 0v1434h349v-1434h-349z" />
    <glyph glyph-name="Idieresisacute" unicode="&#xe016;" horiz-adv-x="550" 
d="M-47 1874l293 342h303l-346 -342h-250zM-76 1589v215h256v-215h-256zM365 1589v215h256v-215h-256zM104 0v1434h349v-1434h-349z" />
    <glyph glyph-name="Idot" unicode="&#xe017;" horiz-adv-x="550" 
d="M145 1655v213h256v-213h-256zM102 0v1434h349v-1434h-349z" />
    <glyph glyph-name="Idotbelow" unicode="&#xe018;" horiz-adv-x="550" 
d="M147 -393v213h256v-213h-256zM102 0v1434h349v-1434h-349z" />
    <glyph glyph-name="J.sc" unicode="&#xe019;" horiz-adv-x="735" 
d="M334 344v680h301v-694q0 -159 -107 -260q-109 -103 -280 -103q-123 0 -217 64v225q124 -37 176 -37q18 0 26 2q101 9 101 123z" />
    <glyph glyph-name="K.sc" unicode="&#xe01a;" horiz-adv-x="1148" 
d="M397 690l340 334h375l-436 -422l426 -602h-344l-285 401l-76 -69v-332h-297v1024h297v-334z" />
    <glyph glyph-name="L.sc" unicode="&#xe01b;" horiz-adv-x="903" 
d="M100 0v1024h297v-768h467v-256h-764z" />
    <glyph glyph-name="Lcircumflexbelow" unicode="&#xe01c;" horiz-adv-x="1183" 
d="M102 0v1434h349v-1149h694v-285h-1043zM193 -473l237 344h256l238 -344h-228l-139 203l-137 -203h-227z" />
    <glyph glyph-name="Ldotbelow" unicode="&#xe01d;" horiz-adv-x="1183" 
d="M102 0v1434h349v-1149h694v-285h-1043zM430 -393v213h256v-213h-256z" />
    <glyph glyph-name="M.sc" unicode="&#xe01e;" horiz-adv-x="1343" 
d="M674 393l223 631h354v-1024h-270v567l-195 -567h-225l-186 555v-555h-277v1024h357z" />
    <glyph glyph-name="Macute" unicode="&#xe01f;" horiz-adv-x="1734" 
d="M547 1575l293 344h303l-346 -344h-250zM864 463l334 971h434v-1434h-307v881l-305 -881h-311l-297 881v-881h-316v1434h439z" />
    <glyph glyph-name="N.sc" unicode="&#xe020;" horiz-adv-x="1112" 
d="M725 512v512h297v-1024h-283l-352 512v-512h-297v1024h285z" />
    <glyph glyph-name="NULL" unicode="&#xe021;" horiz-adv-x="0" 
 />
    <glyph glyph-name="Ncircumflexbelow" unicode="&#xe022;" horiz-adv-x="1486" 
d="M1044 555v879h349v-1434h-353l-596 879v-879h-348v1434h353zM379 -473l237 344h258l238 -344h-229l-138 203l-137 -203h-229z" />
    <glyph glyph-name="Ndotaccent" unicode="&#xe023;" horiz-adv-x="1486" 
d="M1044 555v879h349v-1434h-353l-596 879v-879h-348v1434h353zM621 1655v213h256v-213h-256z" />
    <glyph glyph-name="Ndotbelow" unicode="&#xe024;" horiz-adv-x="1486" 
d="M1044 555v879h349v-1434h-353l-596 879v-879h-348v1434h353zM618 -393v213h254v-213h-254z" />
    <glyph glyph-name="O.sc" unicode="&#xe025;" horiz-adv-x="1130" 
d="M66 453v108q0 243 131 367.5t368 124.5t369.5 -124.5t132.5 -367.5v-108q0 -211 -135 -349q-132 -135 -367 -135q-231 0 -366 135q-133 139 -133 349zM764 453v108q0 133 -45.5 182.5t-153.5 49.5t-152 -50.5t-44 -181.5v-108q0 -224 196 -224q199 0 199 224z" />
    <glyph glyph-name="Ocaron" unicode="&#xe026;" horiz-adv-x="1550" 
d="M774 1716l139 203h228l-238 -344h-256l-237 344h227zM90 631v157q0 333 179.5 503.5t504.5 170.5q326 0 506 -170t180 -504v-157q0 -290 -182 -475t-504 -185q-317 0 -502 185q-182 185 -182 475zM1114 631v157q0 221 -80 304q-80 86 -260 86q-88 0 -148 -18.5
t-103.5 -62.5t-64 -120t-20.5 -189v-157q0 -180 87.5 -277.5t248.5 -97.5q167 0 253.5 96t86.5 279z" />
    <glyph glyph-name="Ocircumflexdotbelow" unicode="&#xe027;" horiz-adv-x="1550" 
d="M410 1575l237 344h258l238 -344h-230l-137 203l-137 -203h-229zM90 631v157q0 333 179.5 503.5t504.5 170.5q326 0 506 -170t180 -504v-157q0 -290 -182 -475t-504 -185q-317 0 -502 185q-182 185 -182 475zM1114 631v157q0 221 -80 304q-80 86 -260 86t-258 -87
t-78 -303v-157q0 -180 87.5 -277.5t248.5 -97.5q167 0 253.5 96t86.5 279zM647 -393v213h256v-213h-256z" />
    <glyph glyph-name="Odotbelow" unicode="&#xe028;" horiz-adv-x="1550" 
d="M90 631v157q0 333 179.5 503.5t504.5 170.5q326 0 506 -170t180 -504v-157q0 -290 -182 -475t-504 -185q-317 0 -502 185q-182 185 -182 475zM1114 631v157q0 221 -80 304q-80 86 -260 86t-258 -87t-78 -303v-157q0 -180 87.5 -277.5t248.5 -97.5q167 0 253.5 96
t86.5 279zM647 -393v213h256v-213h-256z" />
    <glyph glyph-name="Omacronacute" unicode="&#xe029;" horiz-adv-x="1550" 
d="M455 1845l293 342h303l-346 -342h-250zM504 1556v209h543v-209h-543zM90 631v157q0 333 179.5 503.5t504.5 170.5q326 0 506 -170t180 -504v-157q0 -290 -182 -475t-504 -185q-317 0 -502 185q-182 185 -182 475zM1114 631v157q0 221 -80 304q-80 86 -260 86t-258 -87
t-78 -303v-157q0 -180 87.5 -277.5t248.5 -97.5q167 0 253.5 96t86.5 279z" />
    <glyph glyph-name="Omacrongrave" unicode="&#xe02a;" horiz-adv-x="1550" 
d="M852 1845l-346 342h303l293 -342h-250zM504 1559v206h543v-206h-543zM90 631v157q0 333 179.5 503.5t504.5 170.5q326 0 506 -170t180 -504v-157q0 -290 -182 -475t-504 -185q-317 0 -502 185q-182 185 -182 475zM1114 631v157q0 221 -80 304q-80 86 -260 86t-258 -87
t-78 -303v-157q0 -180 87.5 -277.5t248.5 -97.5q167 0 253.5 96t86.5 279z" />
    <glyph glyph-name="Otildeacute" unicode="&#xe02b;" horiz-adv-x="1550" 
d="M457 1845l291 342h303l-346 -342h-248zM537 1528l-127 76q38 92 88.5 136.5t119.5 45.5q71 0 158 -35q84 -43 133 -43q20 0 34.5 5t30.5 23t22 26.5t28 41.5l129 -78q-83 -145 -160 -172q-37 -16 -78 -16q-59 0 -135 29l-80 30q-34 17 -69 17q-29 0 -47.5 -18t-46.5 -68z
M90 631v157q0 333 179.5 503.5t504.5 170.5q326 0 506 -170t180 -504v-157q0 -290 -182 -475t-504 -185q-317 0 -502 185q-182 185 -182 475zM1114 631v157q0 221 -80 304q-80 86 -260 86t-258 -87t-78 -303v-157q0 -180 87.5 -277.5t248.5 -97.5q167 0 253.5 96t86.5 279z
" />
    <glyph glyph-name="P.sc" unicode="&#xe02c;" horiz-adv-x="972" 
d="M100 0v1024h396q66 0 125.5 -10.5t113 -34.5t93 -59t62.5 -87t23 -116v-55q0 -138 -116 -220t-301 -82h-131v-360h-265zM678 662v53q0 76 -111 76h-200v-201h200q50 0 80.5 20t30.5 52z" />
    <glyph glyph-name="Q.sc" unicode="&#xe02d;" horiz-adv-x="1130" 
d="M66 453v108q0 242 132.5 367t366.5 125q237 0 369.5 -124.5t132.5 -367.5v-108q0 -210 -129 -342l123 -125l-92 -80l-129 129q-117 -66 -275 -66q-231 0 -366 135q-133 139 -133 349zM764 453v108q0 133 -45.5 182.5t-153.5 49.5t-152 -50.5t-44 -181.5v-108
q0 -224 196 -224q46 0 82 19l-96 94l92 80l82 -78q39 39 39 109z" />
    <glyph glyph-name="R.sc" unicode="&#xe02e;" horiz-adv-x="1038" 
d="M100 0v1024h428q63 0 121 -10.5t110.5 -34t91 -58t61 -85.5t22.5 -113v-51q0 -75 -53 -141t-133 -91l253 -440h-296l-189 377h-149v-377h-267zM686 674v51q0 74 -108 74h-211v-195h211q47 0 77.5 18.5t30.5 51.5z" />
    <glyph glyph-name="S.sc" unicode="&#xe02f;" horiz-adv-x="991" 
d="M74 715l2 24q0 154 114 235t306 81q178 0 299 -74t127 -225l2 -15h-285v13q-15 86 -143 86q-123 0 -123 -76v-12q0 -38 53 -56l287 -92q108 -36 169.5 -111t61.5 -176v-18q0 -149 -122.5 -239.5t-325.5 -90.5q-199 0 -324 90q-123 92 -123 240v29h287v-27q2 -48 45 -79.5
t115 -31.5q153 0 153 84v19q0 48 -51 65l-301 99q-104 36 -163.5 104t-59.5 154z" />
    <glyph glyph-name="Sdotbelow" unicode="&#xe030;" horiz-adv-x="1388" 
d="M125 1014v35q0 202 151 307.5t416 105.5q123 0 224.5 -23.5t181.5 -71t125 -129t45 -189.5v-35h-344v53q0 71 -57 99t-175 28q-117 0 -170 -28t-53 -99v-27q0 -33 25 -57t90 -43l411 -137q305 -102 305 -371v-26q0 -198 -167 -316q-165 -119 -441 -119q-275 0 -440 119
q-164 120 -164 316v45h344v-64q0 -76 60 -110.5t200 -34.5q144 0 204 34.5t60 110.5v41q0 82 -90 109l-450 147q-140 44 -215.5 129.5t-75.5 200.5zM565 -393v213h256v-213h-256z" />
    <glyph glyph-name="T.sc" unicode="&#xe031;" horiz-adv-x="950" 
d="M31 768v256h889v-256h-299v-768h-297v768h-293z" />
    <glyph glyph-name="Tcedilla" unicode="&#xe032;" horiz-adv-x="1329" 
d="M51 1149v285h1227v-285h-447v-1155h-86l-55 -82h21q32 0 59 -6q69 -14 111.5 -56t42.5 -106q0 -63 -34.5 -108t-86 -65t-115.5 -22h-24q-133 0 -234 43l25 119q76 -30 151 -33q107 0 107 66q0 20 -18.5 31.5t-45.5 11.5h-6q-46 0 -82 -25l-90 70l109 166l-97 2v1149h-432
z" />
    <glyph glyph-name="Tcircumflexbelow" unicode="&#xe033;" horiz-adv-x="1329" 
d="M51 1149v285h1227v-285h-447v-1149h-348v1149h-432zM297 -473l238 344h258l237 -344h-229l-137 203l-138 -203h-229z" />
    <glyph glyph-name="Tdotbelow" unicode="&#xe034;" horiz-adv-x="1329" 
d="M51 1149v285h1227v-285h-447v-1149h-348v1149h-432zM535 -393v213h256v-213h-256z" />
    <glyph glyph-name="Tlinebelow" unicode="&#xe035;" horiz-adv-x="1329" 
d="M51 1149v285h1227v-285h-447v-1149h-348v1149h-432zM387 -369v209h543v-209h-543z" />
    <glyph glyph-name="U.sc" unicode="&#xe036;" horiz-adv-x="1081" 
d="M692 387v637h301v-637q0 -180 -121 -301q-119 -119 -325 -119q-207 0 -326 119q-121 121 -121 301v637h301v-637q0 -162 146 -162q145 0 145 162z" />
    <glyph glyph-name="Ucaron" unicode="&#xe037;" horiz-adv-x="1415" 
d="M709 1716l139 203h227l-237 -344h-256l-238 344h227zM973 541v893h348v-893q0 -251 -166 -414q-165 -160 -446 -160q-280 0 -445 162q-164 164 -164 412v893h346v-893q0 -141 67.5 -215t195.5 -74q130 0 197 74t67 215z" />
    <glyph glyph-name="Udieresisacute" unicode="&#xe038;" horiz-adv-x="1415" 
d="M391 1901l291 342h303l-346 -342h-248zM360 1589v215h256v-215h-256zM803 1589v215h254v-215h-254zM973 541v893h348v-893q0 -251 -166 -414q-165 -160 -446 -160q-280 0 -445 162q-164 164 -164 412v893h346v-893q0 -141 67.5 -215t195.5 -74q130 0 197 74t67 215z" />
    <glyph glyph-name="Udieresiscaron" unicode="&#xe039;" horiz-adv-x="1415" 
d="M709 2042l139 201h227l-237 -342h-256l-238 342h227zM360 1589v215h256v-215h-256zM803 1589v215h254v-215h-254zM973 541v893h348v-893q0 -251 -166 -414q-165 -160 -446 -160q-280 0 -445 162q-164 164 -164 412v893h346v-893q0 -141 67.5 -215t195.5 -74q130 0 197 74
t67 215z" />
    <glyph glyph-name="Udieresisgrave" unicode="&#xe03a;" horiz-adv-x="1415" 
d="M786 1901l-346 342h303l293 -342h-250zM360 1589v215h256v-215h-256zM803 1589v215h254v-215h-254zM973 541v893h348v-893q0 -251 -166 -414q-165 -160 -446 -160q-280 0 -445 162q-164 164 -164 412v893h346v-893q0 -141 67.5 -215t195.5 -74q130 0 197 74t67 215z" />
    <glyph glyph-name="Udieresismacron" unicode="&#xe03b;" horiz-adv-x="1415" 
d="M438 1901v208h543v-208h-543zM360 1589v215h256v-215h-256zM803 1589v215h254v-215h-254zM973 541v893h348v-893q0 -251 -166 -414q-165 -160 -446 -160q-280 0 -445 162q-164 164 -164 412v893h346v-893q0 -141 67.5 -215t195.5 -74q130 0 197 74t67 215z" />
    <glyph glyph-name="Udotbelow" unicode="&#xe03c;" horiz-adv-x="1415" 
d="M973 541v893h348v-893q0 -251 -166 -414q-165 -160 -446 -160q-280 0 -445 162q-164 164 -164 412v893h346v-893q0 -141 67.5 -215t195.5 -74q130 0 197 74t67 215zM584 -393v213h254v-213h-254z" />
    <glyph glyph-name="V.sc" unicode="&#xe03d;" horiz-adv-x="1142" 
d="M571 338l228 686h315l-366 -1024h-351l-366 1024h315z" />
    <glyph glyph-name="W.sc" unicode="&#xe03e;" horiz-adv-x="1478" 
d="M1006 424l157 600h287l-283 -1024h-260l-166 561l-168 -561h-260l-282 1024h286l160 -600l137 600h252z" />
    <glyph glyph-name="X.sc" unicode="&#xe03f;" horiz-adv-x="1181" 
d="M592 750l188 274h361l-369 -512l381 -512h-362l-199 279l-199 -279h-362l381 512l-369 512h363z" />
    <glyph glyph-name="Y.sc" unicode="&#xe040;" 
d="M586 680l209 344h348l-408 -631v-393h-297v393l-407 631h350z" />
    <glyph glyph-name="Z.sc" unicode="&#xe041;" horiz-adv-x="927" 
d="M55 768v256h819v-170l-419 -598h426v-256h-832v170l420 598h-414z" />
    <glyph glyph-name="Zdotbelow" unicode="&#xe042;" horiz-adv-x="1284" 
d="M78 1149v285h1126v-191l-669 -958h677v-285h-1142v190l667 959h-659zM528 -393v213h256v-213h-256z" />
    <glyph glyph-name="a.ss01" unicode="&#xe043;" horiz-adv-x="1214" 
d="M766 911v113h324v-1024h-267l-10 117q-113 -149 -303 -152q-87 0 -165.5 34.5t-138 96.5t-95 157t-35.5 208v108q0 246 112 367q114 123 283 123q200 3 295 -148zM766 461v108q0 133 -40.5 182.5t-141.5 49.5q-102 0 -143.5 -50t-41.5 -182v-108q0 -221 185 -221
q182 0 182 221z" />
    <glyph glyph-name="acaron" unicode="&#xe044;" 
d="M588 1307l137 202h229l-237 -344h-258l-238 344h230zM410 725h-285q29 163 154 248.5t315 85.5q103 0 187 -23t151 -72t104 -133t37 -198v-633h-266l-12 121q-56 -71 -148 -112t-194 -44q-156 -3 -267 82q-106 84 -106 236q0 27 2 41q7 77 47.5 131t99 81.5t128 44
t138 24.5t125.5 16.5t92.5 26.5t37.5 48v19q0 138 -156 141q-6 2 -14 2q-84 0 -121.5 -29.5t-48.5 -103.5zM750 385v82q-28 -19 -138 -37q-76 -11 -114 -22q-97 -24 -92 -109q5 -45 41.5 -73.5t97.5 -28.5q93 0 148.5 48t56.5 140z" />
    <glyph glyph-name="acircumflexdotbelow" unicode="&#xe045;" 
d="M223 1165l236 344h258l237 -344h-229l-137 203l-137 -203h-228zM410 725h-285q29 163 154 248.5t315 85.5q103 0 187 -23t151 -72t104 -133t37 -198v-633h-266l-12 121q-55 -72 -147 -113t-195 -43q-156 -3 -267 82q-106 84 -106 236q0 27 2 41q7 77 47.5 131t99 81.5
t128 44t138 24.5t125.5 16.5t92.5 26.5t37.5 48v19q0 138 -156 141q-6 2 -14 2q-82 0 -121 -30t-49 -103zM750 385v82q-28 -19 -138 -37q-76 -11 -114 -22q-97 -24 -92 -109q5 -45 41.5 -73.5t97.5 -28.5q93 0 148.5 48t56.5 140zM469 -393v213h254v-213h-254z" />
    <glyph glyph-name="adieresismacron" unicode="&#xe046;" 
d="M317 1536v209h541v-209h-541zM240 1204v213h256v-213h-256zM680 1204v213h256v-213h-256zM410 725h-285q29 163 154 248.5t315 85.5q103 0 187 -23t151 -72t104 -133t37 -198v-633h-266l-12 121q-55 -72 -147 -113t-195 -43q-156 -3 -267 82q-106 84 -106 236q0 27 2 41
q7 77 47.5 131t99 81.5t128 44t138 24.5t125.5 16.5t92.5 26.5t37.5 48v19q0 138 -156 141q-6 2 -14 2q-82 0 -121 -30t-49 -103zM750 385v82q-28 -19 -138 -37q-76 -11 -114 -22q-97 -24 -92 -109q5 -45 41.5 -73.5t97.5 -28.5q93 0 148.5 48t56.5 140z" />
    <glyph glyph-name="adotbelow" unicode="&#xe047;" 
d="M410 725h-285q29 163 154 248.5t315 85.5q103 0 187 -23t151 -72t104 -133t37 -198v-633h-266l-12 121q-56 -71 -148 -112t-194 -44q-156 -3 -267 82q-106 84 -106 236q0 27 2 41q7 77 47.5 131t99 81.5t128 44t138 24.5t125.5 16.5t92.5 26.5t37.5 48v19q0 138 -156 141
q-6 2 -14 2q-82 0 -121 -30t-49 -103zM750 385v82q-28 -19 -138 -37q-76 -11 -114 -22q-97 -24 -92 -109q5 -45 41.5 -73.5t97.5 -28.5q93 0 148.5 48t56.5 140zM469 -393v213h254v-213h-254z" />
    <glyph glyph-name="apple" unicode="&#xe048;" horiz-adv-x="88" 
 />
    <glyph glyph-name="bdotbelow" unicode="&#xe049;" horiz-adv-x="1189" 
d="M100 453v981h324v-523q100 145 295 148q395 0 395 -498v-108q0 -212 -139 -351q-137 -137 -371 -137q-231 0 -368 137q-136 139 -136 351zM791 453v108q0 131 -41.5 181.5t-143.5 50.5q-101 0 -141.5 -49.5t-40.5 -182.5v-108q0 -222 182 -222q185 0 185 222zM477 -393
v213h256v-213h-256z" />
    <glyph glyph-name="circumflexbelowcomb" unicode="&#xe04a;" horiz-adv-x="0" 
d="M72 -473l237 344h258l238 -344h-230l-137 203l-137 -203h-229z" />
    <glyph glyph-name="dcircumflexbelow" unicode="&#xe04b;" horiz-adv-x="1191" 
d="M766 911v523h324v-1434h-267l-10 117q-113 -149 -303 -152q-87 0 -165.5 34.5t-138 96.5t-95 157t-35.5 208v108q0 246 112 367q114 123 283 123q200 3 295 -148zM766 461v108q0 133 -40.5 182.5t-141.5 49.5t-143 -48.5t-42 -183.5v-108q0 -221 185 -221q182 0 182 221z
M178 -473l238 344h256l237 -344h-227l-137 203l-139 -203h-228z" />
    <glyph glyph-name="ddotbelow" unicode="&#xe04c;" horiz-adv-x="1191" 
d="M766 911v523h324v-1434h-267l-10 117q-113 -149 -303 -152q-87 0 -165.5 34.5t-138 96.5t-95 157t-35.5 208v108q0 246 112 367q114 123 283 123q200 3 295 -148zM766 461v108q0 133 -40.5 182.5t-141.5 49.5t-143 -48.5t-42 -183.5v-108q0 -221 185 -221q182 0 182 221z
M416 -393v213h256v-213h-256z" />
    <glyph glyph-name="dlinebelow" unicode="&#xe04d;" horiz-adv-x="1191" 
d="M766 911v523h324v-1434h-267l-10 117q-113 -149 -303 -152q-87 0 -165.5 34.5t-138 96.5t-95 157t-35.5 208v108q0 246 112 367q114 123 283 123q200 3 295 -148zM766 461v108q0 133 -40.5 182.5t-141.5 49.5t-143 -48.5t-42 -183.5v-108q0 -221 185 -221q182 0 182 221z
M268 -369v209h543v-209h-543z" />
    <glyph glyph-name="dslash" unicode="&#xe04e;" horiz-adv-x="1234" 
d="M766 1335v99h324v-99h118v-209h-118v-1126h-267l-10 117q-113 -149 -303 -152q-87 0 -165.5 34.5t-138 96.5t-95 157t-35.5 208v108q0 246 112 367q114 123 283 123q200 3 295 -148v215h-174v209h174zM766 461v108q0 133 -40.5 182.5t-141.5 49.5t-143 -48.5t-42 -183.5
v-108q0 -221 185 -221q182 0 182 221z" />
    <glyph glyph-name="e.ss01" unicode="&#xe04f;" horiz-adv-x="1200" 
d="M90 453v108q0 242 138.5 370t377.5 128q132 3 247 -40t187 -132t68 -205q0 -86 -35.5 -148.5t-99.5 -93.5q-110 -55 -273 -55q-96 0 -284 31q0 -126 46 -182t144 -56q72 0 118 35.5t58 101.5h324q-42 -160 -173.5 -254t-324.5 -94q-237 0 -376 136.5t-142 349.5zM416 633
v-43q88 -15 159 -15q213 0 213 132q0 10 -2 16q-9 125 -180 125q-100 0 -145 -49.5t-45 -165.5z" />
    <glyph glyph-name="ecircumflexdotbelow" unicode="&#xe050;" horiz-adv-x="1206" 
d="M240 1165l237 344h258l238 -344h-230l-137 203l-137 -203h-229zM90 453v108q0 242 138.5 370t377.5 128q244 0 381.5 -126.5t136.5 -371.5v-119h-708v-43q0 -221 190 -221q72 0 118 35.5t58 101.5h324q-42 -160 -173.5 -254t-324.5 -94q-237 0 -376 136.5t-142 349.5z
M416 616h387q0 126 -46 179t-151 53q-101 0 -145.5 -53t-44.5 -179zM477 -393v213h256v-213h-256z" />
    <glyph glyph-name="edotbelow" unicode="&#xe051;" horiz-adv-x="1206" 
d="M90 453v108q0 242 138.5 370t377.5 128q244 0 381.5 -126.5t136.5 -371.5v-119h-708v-43q0 -221 190 -221q72 0 118 35.5t58 101.5h324q-42 -160 -173.5 -254t-324.5 -94q-237 0 -376 136.5t-142 349.5zM416 616h387q0 126 -46 179t-151 53q-101 0 -145.5 -53t-44.5 -179
zM477 -393v213h256v-213h-256z" />
    <glyph glyph-name="eight.dnom" unicode="&#xe052;" horiz-adv-x="870" 
d="M123 578v57q0 115 86 170t225 55q142 0 225.5 -56.5t83.5 -168.5v-57q0 -39 -20.5 -72t-58.5 -51q55 -23 84.5 -68.5t29.5 -105.5v-45q0 -110 -95 -179t-249 -69q-156 0 -251 68t-95 180v45q0 60 30 105.5t85 68.5q-37 19 -58.5 52t-21.5 71zM532 588v49q0 29 -23 40
t-75 11q-56 0 -78 -10.5t-22 -40.5v-49q0 -53 100 -53q98 0 98 53zM565 236v53q0 44 -27.5 58.5t-103.5 14.5q-75 0 -103 -15t-28 -58v-53q0 -38 29.5 -54t101.5 -16t101.5 16t29.5 54z" />
    <glyph glyph-name="eight.lf" unicode="&#xe053;" horiz-adv-x="1316" 
d="M147 946v94q0 97 39.5 170t110.5 116.5t161 65t199 21.5q108 0 198 -21.5t161 -65t111 -116.5t40 -170v-94q0 -65 -38 -121.5t-105 -83.5q96 -35 149.5 -111.5t53.5 -176.5v-78q0 -178 -158 -293q-155 -113 -412 -113q-256 0 -411 113q-158 115 -158 293v78q0 101 53 177
t150 111q-67 27 -105.5 83.5t-38.5 121.5zM829 963v81q0 52 -40.5 72.5t-131.5 20.5q-94 0 -133 -20t-39 -73v-81q0 -95 172 -95t172 95zM883 375v90q0 77 -48 103t-178 26q-129 0 -175 -26t-46 -103v-90q0 -66 51 -93.5t170 -27.5q121 0 173.5 27.5t52.5 93.5z" />
    <glyph glyph-name="eight.numr" unicode="&#xe054;" horiz-adv-x="870" 
d="M123 1161v58q0 113 83.5 170t225.5 57q145 0 228 -57t83 -170v-58q0 -38 -20.5 -70.5t-58.5 -50.5q55 -23 84.5 -68.5t29.5 -105.5v-47q0 -109 -95.5 -177.5t-248.5 -68.5q-155 0 -250.5 68.5t-95.5 177.5v47q0 124 115 174q-37 19 -58.5 51.5t-21.5 69.5zM532 1174v49
q0 29 -23 40t-75 11q-56 0 -78 -10.5t-22 -40.5v-49q0 -54 100 -54q98 0 98 54zM565 819v55q0 44 -27.5 59t-103.5 15q-75 0 -103 -15t-28 -59v-55q0 -37 30 -53t101 -16q72 0 101.5 15.5t29.5 53.5z" />
    <glyph glyph-name="eight.osf" unicode="&#xe055;" horiz-adv-x="1316" 
d="M147 946v94q0 97 39.5 170t110.5 116.5t161 65t199 21.5q108 0 198 -21.5t161 -65t111 -116.5t40 -170v-94q0 -65 -38 -121.5t-105 -83.5q96 -35 149.5 -111.5t53.5 -176.5v-78q0 -178 -158 -293q-155 -113 -412 -113q-256 0 -411 113q-158 115 -158 293v78q0 101 53 177
t150 111q-67 27 -105.5 83.5t-38.5 121.5zM829 963v81q0 52 -40.5 72.5t-131.5 20.5q-94 0 -133 -20t-39 -73v-81q0 -95 172 -95t172 95zM883 375v90q0 77 -48 103t-178 26q-129 0 -175 -26t-46 -103v-90q0 -66 51 -93.5t170 -27.5q121 0 173.5 27.5t52.5 93.5z" />
    <glyph glyph-name="eight.tf" unicode="&#xe056;" horiz-adv-x="1302" 
d="M139 946v94q0 97 39.5 170t110.5 116.5t161 65t199 21.5q108 0 198 -21.5t161 -65t111 -116.5t40 -170v-94q0 -65 -38 -121.5t-105 -83.5q97 -35 150 -111t53 -177v-78q0 -178 -158 -293q-155 -113 -412 -113q-256 0 -411 113q-158 115 -158 293v78q0 101 53 177t150 111
q-67 29 -105.5 84t-38.5 121zM821 963v81q0 52 -40.5 72.5t-131.5 20.5q-93 0 -132.5 -20t-39.5 -73v-81q0 -95 172 -95t172 95zM872 375v90q0 77 -47 103t-178 26q-129 0 -175 -26t-46 -103v-90q0 -66 51.5 -93.5t169.5 -27.5q123 0 174 27t51 94z" />
    <glyph glyph-name="eight.tosf" unicode="&#xe057;" horiz-adv-x="1302" 
d="M143 946v94q0 97 39.5 170t110.5 116.5t161 65t199 21.5t199.5 -21.5t161.5 -65t111 -116.5t40 -170v-94q0 -65 -38.5 -121.5t-106.5 -83.5q98 -35 151.5 -111.5t53.5 -176.5v-78q0 -178 -158 -293q-155 -113 -414 -113q-256 0 -411 113q-158 115 -158 293v78
q0 100 53.5 176.5t149.5 111.5q-67 27 -105.5 83.5t-38.5 121.5zM827 963v81q0 52 -41.5 72.5t-132.5 20.5q-93 0 -132.5 -19.5t-39.5 -73.5v-81q0 -95 172 -95q174 0 174 95zM877 375v90q0 77 -47 103t-177 26t-176.5 -26t-46.5 -103v-90q0 -67 51.5 -94t171.5 -27t172 27
t52 94z" />
    <glyph glyph-name="etilde" unicode="&#xe058;" horiz-adv-x="1206" 
d="M367 1233l-127 76q42 92 92.5 136t118.5 44q66 3 155 -33q6 -4 31 -13t29 -11q60 -21 73 -21q14 0 24.5 4t23.5 13t16 10q21 21 24 30q1 4 11.5 19t15.5 20l129 -75q-83 -146 -158 -172q-39 -17 -80 -17q-56 0 -135 29q-5 2 -36.5 15t-41.5 16q-36 16 -69 16
q-29 0 -48 -18.5t-48 -67.5zM90 453v108q0 242 138.5 370t377.5 128q244 0 381.5 -126.5t136.5 -371.5v-119h-708v-43q0 -221 190 -221q73 0 118.5 35.5t57.5 101.5h324q-42 -160 -173.5 -254t-324.5 -94q-239 0 -377 135q-138 138 -141 351zM416 616h387q0 126 -46 179
t-151 53q-101 0 -145.5 -53t-44.5 -179z" />
    <glyph glyph-name="f_b" unicode="&#xe059;" horiz-adv-x="1927" 
d="M465 1458h213v-198h-74q-90 0 -90 -103v-133h164v-199h-164v-825h-326v825h-135v199h135v133q0 140 76.5 220.5t200.5 80.5zM840 453v981h323v-523q103 145 295 148q188 2 291.5 -118.5t103.5 -379.5v-108q0 -212 -137.5 -350t-369.5 -138q-231 0 -368.5 138t-137.5 350z
M1530 453v108q0 131 -41.5 181.5t-142.5 50.5q-100 0 -141.5 -50t-41.5 -182v-108q0 -222 183 -222q184 0 184 222z" />
    <glyph glyph-name="f_f" unicode="&#xe05a;" horiz-adv-x="1474" 
d="M465 1458h213v-198h-74q-90 0 -90 -103v-133h164v-199h-164v-825h-326v825h-135v199h135v133q0 140 76.5 220.5t200.5 80.5zM1204 1458h211v-198h-72q-92 0 -92 -103v-133h164v-199h-164v-825h-323v825h-135v199h135v133q0 141 75.5 221t200.5 80z" />
    <glyph glyph-name="f_f_j" unicode="&#xe05c;" horiz-adv-x="2033" 
d="M465 1458h213v-198h-74q-90 0 -90 -103v-133h164v-199h-164v-825h-326v825h-135v199h135v133q0 140 76.5 220.5t200.5 80.5zM1204 1458h211v-198h-72q-92 0 -92 -103v-133h164v-199h-164v-825h-323v825h-135v199h135v133q0 141 75.5 221t200.5 80zM1616 1186v270h323
v-270h-323zM1616 -10v1034h323v-1112q0 -250 -282 -277q-25 -2 -76 -2q-48 0 -123 7v223q38 -3 66 0q50 5 71 32.5t21 94.5z" />
    <glyph glyph-name="f_h" unicode="&#xe05e;" horiz-adv-x="1923" 
d="M465 1458h213v-198h-74q-90 0 -90 -103v-133h164v-199h-164v-825h-326v825h-135v199h135v133q0 140 76.5 220.5t200.5 80.5zM850 0v1434h324v-523q100 148 292 148q177 0 276 -113.5t99 -347.5v-598h-323v561q0 129 -35.5 180.5t-128.5 51.5q-97 0 -138.5 -53.5
t-41.5 -178.5v-561h-324z" />
    <glyph glyph-name="f_j" unicode="&#xe05f;" horiz-adv-x="1296" 
d="M465 1458h213v-198h-74q-90 0 -90 -103v-133h164v-199h-164v-825h-326v825h-135v199h135v133q0 140 76.5 220.5t200.5 80.5zM879 1186v270h323v-270h-323zM879 -10v1034h323v-1112q0 -250 -282 -277q-27 -2 -76 -2q-50 0 -125 7v223q40 -3 67 0q50 5 71.5 33t21.5 94z
" />
    <glyph glyph-name="f_k" unicode="&#xe060;" horiz-adv-x="1951" 
d="M465 1458h213v-198h-74q-90 0 -90 -103v-133h164v-199h-164v-825h-326v825h-135v199h135v133q0 140 76.5 220.5t200.5 80.5zM850 0v1434h324v-760l329 362h379l-393 -399l434 -637h-369l-268 418l-112 -111v-307h-324z" />
    <glyph glyph-name="five.dnom" unicode="&#xe061;" horiz-adv-x="823" 
d="M98 375l88 479h510v-176h-348l-29 -137q65 30 154 30q123 -2 199 -64t76 -177v-62q0 -123 -92.5 -201.5t-241.5 -78.5q-147 0 -239.5 78.5t-92.5 201.5v21h217v-21q0 -54 27 -78t88 -24t88.5 24t27.5 78v62q0 59 -26.5 82.5t-89.5 23.5q-91 0 -121 -61h-195z" />
    <glyph glyph-name="five.lf" unicode="&#xe062;" horiz-adv-x="1253" 
d="M106 608l146 791h838v-285h-578l-53 -256q100 71 264 68q205 -2 328 -104.5t123 -293.5v-102q0 -198 -152 -332q-150 -129 -397 -129q-246 0 -396 129q-149 131 -149 332v31h348v-31q0 -91 47.5 -133.5t149.5 -42.5q105 0 153.5 42.5t48.5 133.5v102q0 102 -47.5 144.5
t-154.5 42.5q-151 0 -203 -107h-316z" />
    <glyph glyph-name="five.numr" unicode="&#xe063;" horiz-adv-x="823" 
d="M98 952l88 482h510v-179h-348l-29 -137q64 34 154 31q122 0 198.5 -63.5t76.5 -178.5v-59q0 -124 -92 -202.5t-242 -78.5q-147 0 -239.5 79t-92.5 202v20h217v-20q0 -56 27 -80.5t88 -24.5t88.5 24.5t27.5 80.5v59q0 61 -26.5 85t-89.5 24q-91 0 -121 -64h-195z" />
    <glyph glyph-name="five.osf" unicode="&#xe064;" horiz-adv-x="1253" 
d="M106 233l146 791h838v-285h-578l-53 -256q100 71 264 68q205 -2 328 -104t123 -293v-101q0 -201 -152 -332q-149 -131 -397 -131q-245 0 -395 130t-150 333v31h348v-31q0 -92 47 -135t150 -43q105 0 153.5 43t48.5 135v101q0 101 -47.5 143.5t-154.5 42.5
q-151 0 -203 -107h-316z" />
    <glyph glyph-name="five.tf" unicode="&#xe065;" horiz-adv-x="1302" 
d="M129 608l145 791h838v-285h-577l-54 -256q100 71 264 68q205 -2 328 -104.5t123 -293.5v-102q0 -198 -152 -332q-150 -129 -397 -129q-245 0 -395 129q-150 132 -150 332v31h349v-31q0 -91 47 -133.5t149 -42.5q105 0 154 42.5t49 133.5v102q0 101 -48 144t-155 43
q-151 0 -203 -107h-315z" />
    <glyph glyph-name="five.tosf" unicode="&#xe066;" horiz-adv-x="1302" 
d="M133 233l146 791h837v-285h-577l-54 -256q103 71 265 68q203 -3 325 -102q127 -100 127 -295v-101q0 -202 -151 -332q-149 -131 -398 -131q-244 0 -395.5 130t-151.5 333v31h349v-31q0 -92 47.5 -135t150.5 -43q104 0 152.5 43t48.5 135v101q0 102 -48.5 144t-152.5 42
q-152 0 -204 -107h-316z" />
    <glyph glyph-name="four.dnom" unicode="&#xe067;" horiz-adv-x="847" 
d="M43 340l406 510h198v-494h131v-176h-131v-180h-196v180h-408v160zM248 356h203v273z" />
    <glyph glyph-name="four.lf" unicode="&#xe068;" horiz-adv-x="1325" 
d="M43 555l672 846h323v-821h215v-283h-215v-299h-317v299h-678v258zM367 580h354v475z" />
    <glyph glyph-name="four.numr" unicode="&#xe069;" horiz-adv-x="847" 
d="M43 924l406 510h198v-492h131v-178h-131v-180h-196v180h-408v160zM248 942h203v270z" />
    <glyph glyph-name="four.osf" unicode="&#xe06a;" horiz-adv-x="1325" 
d="M43 258l672 848h323v-821h215v-285h-215v-299h-317v299h-678v258zM367 285h354v473z" />
    <glyph glyph-name="four.tf" unicode="&#xe06b;" horiz-adv-x="1302" 
d="M45 555l672 846h323v-821h217v-283h-217v-299h-315v299h-680v258zM371 580h354v475z" />
    <glyph glyph-name="four.tosf" unicode="&#xe06c;" horiz-adv-x="1302" 
d="M47 258l672 848h323v-821h215v-285h-215v-299h-317v299h-678v258zM371 285h354v473z" />
    <glyph glyph-name="hdotbelow" unicode="&#xe06d;" horiz-adv-x="1183" 
d="M111 0v1434h323v-523q103 148 295 148q177 0 276 -113.5t99 -347.5v-598h-324v561q0 129 -35.5 180.5t-128.5 51.5q-97 0 -139.5 -54t-42.5 -178v-561h-323zM426 -393v213h254v-213h-254z" />
    <glyph glyph-name="icaron" unicode="&#xe06e;" horiz-adv-x="534" 
d="M272 1307l140 202h227l-238 -344h-256l-237 344h227zM111 0v1024h325v-1024h-325z" />
    <glyph glyph-name="idieresisacute" unicode="&#xe06f;" horiz-adv-x="534" 
d="M-47 1509l293 342h303l-346 -342h-250zM-76 1204v213h256v-213h-256zM367 1204v213h254v-213h-254zM111 0v1024h325v-1024h-325z" />
    <glyph glyph-name="idotbelow" unicode="&#xe070;" horiz-adv-x="528" 
d="M109 1186v270h323v-270h-323zM109 0v1024h323v-1024h-323zM143 -393v213h254v-213h-254z" />
    <glyph glyph-name="increment" unicode="&#xe071;" horiz-adv-x="1705" 
 />
    <glyph glyph-name="lcircumflexbelow" unicode="&#xe072;" horiz-adv-x="530" 
d="M-94 -473l235 344h258l238 -344h-229l-138 203l-137 -203h-227zM113 0v1434h325v-1434h-325z" />
    <glyph glyph-name="ldotbelow" unicode="&#xe073;" horiz-adv-x="530" 
d="M141 -393v213h256v-213h-256zM111 0v1434h325v-1434h-325z" />
    <glyph glyph-name="macronbelowcomb" unicode="&#xe074;" horiz-adv-x="0" 
d="M88 -369v209h543v-209h-543z" />
    <glyph glyph-name="macute" unicode="&#xe075;" horiz-adv-x="1789" 
d="M655 1165l293 344h303l-346 -344h-250zM102 1024h291v-113q109 145 285 148q99 0 177.5 -40.5t111.5 -107.5q136 148 342 148q178 0 279.5 -116.5t101.5 -342.5v-600h-326v569q0 132 -33.5 182t-116.5 50h-16q-62 -5 -95.5 -32.5t-45.5 -84.5v-47v-68v-569h-324v569
q0 132 -35 182t-108 50t-118.5 -57.5t-45.5 -174.5v-569h-324v1024z" />
    <glyph glyph-name="middot" unicode="&#xe076;" horiz-adv-x="495" 
d="M88 453v374h324v-374h-324z" />
    <glyph glyph-name="ncircumflexbelow" unicode="&#xe077;" horiz-adv-x="1191" 
d="M102 1024h291v-113q103 149 309 146q178 0 285 -119t107 -340v-598h-324v561q0 129 -35.5 180.5t-128.5 51.5q-97 0 -138.5 -53.5t-41.5 -178.5v-561h-324v1024zM258 -473l238 344h258l237 -344h-229l-137 203l-138 -203h-229z" />
    <glyph glyph-name="ndotaccent" unicode="&#xe078;" horiz-adv-x="1191" 
d="M102 1024h291v-113q103 149 309 146q178 0 285 -119t107 -340v-598h-324v561q0 129 -35.5 180.5t-128.5 51.5q-97 0 -138.5 -53.5t-41.5 -178.5v-561h-324v1024zM500 1245v213h256v-213h-256z" />
    <glyph glyph-name="ndotbelow" unicode="&#xe079;" horiz-adv-x="1191" 
d="M102 1024h291v-113q103 149 309 146q178 0 285 -119t107 -340v-598h-324v561q0 129 -35.5 180.5t-128.5 51.5q-97 0 -138.5 -53.5t-41.5 -178.5v-561h-324v1024zM496 -393v213h256v-213h-256z" />
    <glyph glyph-name="nine.dnom" unicode="&#xe07a;" horiz-adv-x="851" 
d="M88 541v41q0 124 92 202t240 78t240 -78t92 -202v-283q0 -149 -89 -230t-235 -81q-126 0 -211.5 60.5t-103.5 170.5h180q24 -82 117 -82h14q113 9 113 117v80q-46 -34 -131 -37q-10 -2 -31 -2q-45 0 -85 7.5t-77.5 25.5t-64.5 45.5t-43.5 70.5t-16.5 97zM537 541v41
q0 54 -28 79t-89 25q-62 0 -89.5 -24.5t-27.5 -79.5v-41q0 -61 26.5 -85t90.5 -24q66 0 91.5 24t25.5 85z" />
    <glyph glyph-name="nine.lf" unicode="&#xe07b;" horiz-adv-x="1282" 
d="M88 879v71q0 203 150 332t399 129q243 0 393 -129q152 -131 152 -332v-473q0 -251 -150 -383q-147 -129 -383 -129q-207 0 -346.5 98t-171.5 279h287q47 -139 200 -139h23q193 17 193 198v152q-71 -71 -224 -74q-16 -2 -51 -2q-73 0 -138.5 12t-127.5 41.5t-106.5 74
t-71.5 115t-27 159.5zM834 879v71q0 91 -47.5 134.5t-149.5 43.5q-105 0 -154 -43.5t-49 -134.5v-71q0 -102 46.5 -143.5t156.5 -41.5q109 0 153 40.5t44 144.5z" />
    <glyph glyph-name="nine.numr" unicode="&#xe07c;" horiz-adv-x="851" 
d="M88 1122v43q0 124 92 202.5t240 78.5t240 -78.5t92 -202.5v-284q0 -148 -89.5 -229t-234.5 -81q-127 0 -212 59.5t-103 172.5h180q24 -84 117 -84q8 0 14 2q113 9 113 115v79q-44 -33 -131 -36h-31q-56 0 -104.5 12.5t-91 39t-67 75.5t-24.5 116zM537 1122v43
q0 54 -28 78.5t-89 24.5t-89 -24.5t-28 -78.5v-43q0 -61 26 -83.5t91 -22.5q67 0 92 22.5t25 83.5z" />
    <glyph glyph-name="nine.osf" unicode="&#xe07d;" horiz-adv-x="1282" 
d="M88 526v70q0 203 150 332q149 131 399 131q244 0 393 -131q152 -131 152 -332v-473q0 -128 -41.5 -227t-115 -160.5t-168.5 -93t-208 -31.5q-207 0 -346.5 98t-171.5 279h287q24 -70 76 -105t122 -35h25q193 18 193 199v154q-73 -73 -224 -76q-16 -2 -51 -2
q-73 0 -138.5 12t-127.5 41.5t-106.5 74t-71.5 115t-27 160.5zM834 526v70q0 91 -47.5 134.5t-149.5 43.5q-106 0 -154.5 -43t-48.5 -135v-70q0 -102 46.5 -144t156.5 -42q109 0 153 41t44 145z" />
    <glyph glyph-name="nine.tf" unicode="&#xe07e;" horiz-adv-x="1302" 
d="M102 879v71q0 203 150 332t399 129q246 0 396 -129q149 -128 149 -332v-473q0 -252 -149 -383q-147 -129 -381 -129q-208 0 -348.5 98t-172.5 279h287q47 -139 201 -139h24q89 8 141 55.5t52 142.5v152q-71 -71 -223 -74q-18 -2 -54 -2q-73 0 -138 12t-127 41.5t-107 74
t-72 115t-27 159.5zM850 879v71q0 91 -48.5 134.5t-150.5 43.5q-105 0 -152.5 -43t-47.5 -135v-71q0 -102 45.5 -143.5t154.5 -41.5q111 0 155 40.5t44 144.5z" />
    <glyph glyph-name="nine.tosf" unicode="&#xe07f;" horiz-adv-x="1302" 
d="M106 526v70q0 201 152 332q149 131 397 131q247 0 396 -131q151 -130 151 -332v-473q0 -128 -41.5 -227t-114.5 -160.5t-168 -93t-208 -31.5q-207 0 -347.5 98t-172.5 279h288q21 -69 74.5 -104.5t124.5 -35.5h25q192 18 192 199v154q-73 -73 -223 -76q-18 -2 -51 -2
q-74 0 -140 12t-128.5 41.5t-107 74t-71.5 115t-27 160.5zM854 526v70q0 91 -47.5 134.5t-151.5 43.5t-152 -43t-48 -135v-70q0 -102 46.5 -144t153.5 -42q111 0 155 41t44 145z" />
    <glyph glyph-name="ocaron" unicode="&#xe080;" horiz-adv-x="1202" 
d="M600 1307l137 202h228l-238 -344h-256l-238 344h228zM82 453v108q0 242 138 370t378 128q241 0 379.5 -126.5t138.5 -371.5v-108q0 -213 -141 -351q-138 -135 -377 -135q-238 0 -377 136t-139 350zM793 453v108q0 133 -43.5 182.5t-151.5 49.5q-106 0 -149 -50t-43 -182
v-108q0 -222 192 -222q195 0 195 222z" />
    <glyph glyph-name="ocircumflexdotbelow" unicode="&#xe081;" horiz-adv-x="1202" 
d="M233 1165l238 344h258l238 -344h-230l-137 203l-137 -203h-230zM82 453v108q0 242 138 370t378 128q241 0 379.5 -126.5t138.5 -371.5v-108q0 -213 -141 -351q-138 -135 -377 -135q-238 0 -377 136t-139 350zM793 453v108q0 133 -43.5 182.5t-151.5 49.5q-106 0 -149 -50
t-43 -182v-108q0 -222 192 -222q195 0 195 222zM473 -393v213h254v-213h-254z" />
    <glyph glyph-name="odotbelow" unicode="&#xe082;" horiz-adv-x="1202" 
d="M82 453v108q0 242 138 370t378 128q241 0 379.5 -126.5t138.5 -371.5v-108q0 -213 -141 -351q-138 -135 -377 -135q-238 0 -377 136t-139 350zM793 453v108q0 133 -43.5 182.5t-151.5 49.5q-106 0 -149 -50t-43 -182v-108q0 -222 192 -222q195 0 195 222zM473 -393v213
h254v-213h-254z" />
    <glyph glyph-name="omacronacute" unicode="&#xe083;" horiz-adv-x="1202" 
d="M281 1536l292 342h301l-346 -342h-247zM328 1225v209h542v-209h-542zM82 453v108q0 242 138 370t378 128q241 0 379.5 -126.5t138.5 -371.5v-108q0 -213 -141 -351q-138 -135 -377 -135q-238 0 -377 136t-139 350zM793 453v108q0 133 -43.5 182.5t-151.5 49.5
q-106 0 -149 -50t-43 -182v-108q0 -222 192 -222q195 0 195 222z" />
    <glyph glyph-name="omacrongrave" unicode="&#xe084;" horiz-adv-x="1202" 
d="M676 1536l-346 342h303l293 -342h-250zM328 1225v209h542v-209h-542zM82 453v108q0 242 138 370t378 128q241 0 379.5 -126.5t138.5 -371.5v-108q0 -213 -141 -351q-138 -135 -377 -135q-238 0 -377 136t-139 350zM793 453v108q0 133 -43.5 182.5t-151.5 49.5
q-106 0 -149 -50t-43 -182v-108q0 -222 192 -222q195 0 195 222z" />
    <glyph glyph-name="one.dnom" unicode="&#xe085;" horiz-adv-x="540" 
d="M268 850h170v-850h-215v602q-63 -43 -186 -55v151q89 6 137.5 39.5t93.5 112.5z" />
    <glyph glyph-name="one.lf" unicode="&#xe086;" horiz-adv-x="792" 
d="M414 1405h276v-1405h-348v1012q-114 -81 -309 -99v238q159 12 239 78q43 36 73.5 74t68.5 102z" />
    <glyph glyph-name="one.numr" unicode="&#xe087;" horiz-adv-x="538" 
d="M268 1434h170v-850h-215v602q-65 -44 -186 -56v152q88 6 137 40t94 112z" />
    <glyph glyph-name="one.osf" unicode="&#xe088;" horiz-adv-x="647" 
d="M311 1024h234v-1024h-293v686q-68 -37 -217 -59v221q123 3 178 47q29 25 47.5 50t50.5 79z" />
    <glyph glyph-name="one.tf" unicode="&#xe089;" horiz-adv-x="968" 
d="M539 1405h274v-1405h-346v1012q-114 -81 -309 -99v238q159 12 239 78q43 36 73.5 74t68.5 102z" />
    <glyph glyph-name="one.tosf" unicode="&#xe08a;" horiz-adv-x="892" 
d="M471 1024h234v-1024h-293v686q-68 -37 -217 -59v221q80 3 133 24q49 22 75.5 52t67.5 100z" />
    <glyph glyph-name="otildeacute" unicode="&#xe08b;" horiz-adv-x="1202" 
d="M281 1536l292 342h301l-346 -342h-247zM360 1192l-127 74q74 179 211 182q69 3 156 -35q5 -3 28.5 -12t28.5 -12q44 -19 76 -19q9 0 17 1t15.5 5t13 6t12.5 9.5t10.5 10.5t11.5 14t10.5 14.5t12 17.5t12.5 18l129 -77q-83 -145 -160 -172q-39 -17 -78 -17q-56 0 -135 29
q-38 19 -80 33q-32 16 -69 16q-29 0 -47.5 -18.5t-47.5 -67.5zM82 453v108q0 242 138 370t378 128q241 0 379.5 -126.5t138.5 -371.5v-108q0 -213 -141 -351q-138 -135 -377 -135q-238 0 -377 136t-139 350zM793 453v108q0 133 -43.5 182.5t-151.5 49.5q-106 0 -149 -50
t-43 -182v-108q0 -222 192 -222q195 0 195 222z" />
    <glyph glyph-name="overscore" unicode="&#xe08c;" horiz-adv-x="716" 
d="M88 1266v209h543v-209h-543z" />
    <glyph glyph-name="sdotbelow" unicode="&#xe08d;" horiz-adv-x="1105" 
d="M119 719v22q0 156 116 237t312 81q197 0 314.5 -79t121.5 -230v-11h-299v11q-12 102 -137 102q-114 0 -123 -76l-2 -12v-8q0 -54 135 -97l199 -61q131 -39 195.5 -107t64.5 -176v-10q0 -149 -129 -244q-125 -94 -340 -94q-200 0 -326 87t-137 229v26h295v-22
q6 -60 49.5 -92.5t118.5 -32.5q71 0 110 24t45 66l5 18q2 4 2 13q0 35 -25 55.5t-70 36.5l-270 88q-108 36 -166.5 101.5t-58.5 154.5zM424 -393v213h254v-213h-254z" />
    <glyph glyph-name="seven.dnom" unicode="&#xe08e;" horiz-adv-x="692" 
d="M31 672v178h633v-135q-160 -151 -234 -321t-74 -394h-217q0 193 75 365t206 307h-389z" />
    <glyph glyph-name="seven.lf" unicode="&#xe08f;" horiz-adv-x="1161" 
d="M68 1118v283h1040v-215q-257 -248 -385 -535q-125 -280 -125 -653h-348q0 323 125.5 609t347.5 511h-655z" />
    <glyph glyph-name="seven.numr" unicode="&#xe090;" horiz-adv-x="692" 
d="M31 1255v179h633v-136q-160 -151 -234 -320.5t-74 -393.5h-217q0 193 75 364.5t206 306.5h-389z" />
    <glyph glyph-name="seven.osf" unicode="&#xe091;" horiz-adv-x="1161" 
d="M68 739v285h1040v-215q-264 -255 -385.5 -533.5t-124.5 -656.5h-348q0 326 125.5 611t347.5 509h-655z" />
    <glyph glyph-name="seven.tf" unicode="&#xe092;" horiz-adv-x="1302" 
d="M131 1118v283h1040v-215q-263 -254 -384.5 -533t-124.5 -655h-351q0 322 126.5 608t348.5 512h-655z" />
    <glyph glyph-name="seven.tosf" unicode="&#xe093;" horiz-adv-x="1302" 
d="M133 739v285h1043v-215q-262 -253 -388 -535q-124 -278 -124 -655h-349q0 338 131 621q133 287 342 499h-655z" />
    <glyph glyph-name="six.dnom" unicode="&#xe094;" horiz-adv-x="837" 
d="M92 276v304q0 147 86.5 219.5t235.5 72.5q128 0 212.5 -60t102.5 -173h-178q-27 84 -117 84h-14q-113 -9 -113 -117v-59q46 34 131 37q10 2 31 2q56 0 104.5 -12.5t91 -39.5t67 -76.5t24.5 -117.5v-64q0 -124 -92.5 -202t-241.5 -78t-239.5 79t-90.5 201zM539 276v64
q0 61 -26.5 85t-90.5 24t-89.5 -23t-25.5 -86v-64q0 -54 27.5 -78t87.5 -24q62 0 89.5 24.5t27.5 77.5z" />
    <glyph glyph-name="six.lf" unicode="&#xe095;" horiz-adv-x="1267" 
d="M92 426v506q0 128 41 222.5t115.5 149.5t167.5 81t207 26q208 0 348 -97.5t172 -279.5h-289q-44 142 -199 142q-16 0 -24 -2q-90 -6 -141.5 -56.5t-51.5 -142.5v-117q70 70 224 76q18 2 53 2q73 0 138 -12t127 -41.5t107 -74.5t72 -115.5t27 -160.5v-106
q0 -198 -152 -332q-150 -129 -397 -129q-244 0 -394.5 130t-150.5 331zM838 426v106q0 102 -47 144.5t-154 42.5q-110 0 -154.5 -41.5t-44.5 -145.5v-106q0 -91 48 -133.5t151 -42.5q104 0 152.5 42.5t48.5 133.5z" />
    <glyph glyph-name="six.numr" unicode="&#xe096;" horiz-adv-x="837" 
d="M92 852v301q0 147 86.5 220t235.5 73q123 0 210 -59.5t105 -172.5h-178q-27 82 -117 82h-14q-113 -9 -113 -116v-60q49 36 131 39h31q56 0 105 -12.5t91 -39.5t66.5 -76t24.5 -116v-63q0 -124 -91.5 -202.5t-242.5 -78.5q-147 0 -238.5 78.5t-91.5 202.5zM539 852v63
q0 59 -26.5 83t-90.5 24t-89.5 -23t-25.5 -84v-63q0 -54 27.5 -79t87.5 -25q62 0 89.5 24.5t27.5 79.5z" />
    <glyph glyph-name="six.osf" unicode="&#xe097;" horiz-adv-x="1267" 
d="M92 426v506q0 128 41 222.5t115.5 149.5t167.5 81t207 26q208 0 348 -97.5t172 -279.5h-289q-44 142 -199 142q-16 0 -24 -2q-90 -6 -141.5 -56.5t-51.5 -142.5v-117q70 70 224 76q18 2 53 2q73 0 138 -12t127 -41.5t107 -74.5t72 -115.5t27 -160.5v-106
q0 -198 -152 -332q-150 -129 -397 -129q-244 0 -394.5 130t-150.5 331zM838 426v106q0 102 -47 144.5t-154 42.5q-110 0 -154.5 -41.5t-44.5 -145.5v-106q0 -91 48 -133.5t151 -42.5q104 0 152.5 42.5t48.5 133.5z" />
    <glyph glyph-name="six.tf" unicode="&#xe098;" horiz-adv-x="1302" 
d="M104 426v506q0 128 41 222.5t115.5 149.5t168 81t208.5 26q208 0 347 -97.5t171 -279.5h-287q-47 142 -200 142q-15 0 -23 -2q-92 -6 -142 -56.5t-50 -142.5v-117q70 70 223 76q18 2 51 2q74 0 140 -12t127.5 -41.5t106 -74.5t71 -115.5t26.5 -160.5v-106
q0 -199 -151 -332q-150 -129 -398 -129q-245 0 -395 129q-150 132 -150 332zM852 426v106q0 102 -47 144.5t-156 42.5t-152.5 -41t-43.5 -146v-106q0 -91 47 -133.5t149 -42.5q105 0 154 42.5t49 133.5z" />
    <glyph glyph-name="six.tosf" unicode="&#xe099;" horiz-adv-x="1302" 
d="M104 426v506q0 128 41 222.5t115.5 149.5t167.5 81t207 26q208 0 348 -97.5t172 -279.5h-287q-47 142 -200 142q-17 0 -25 -2q-90 -6 -141 -56.5t-51 -142.5v-117q70 70 223 76q18 2 53 2q73 0 138 -12t127 -41.5t107 -74.5t72 -115.5t27 -160.5v-106q0 -199 -151 -332
q-150 -129 -398 -129q-244 0 -394.5 130t-150.5 331zM850 426v106q0 102 -47 144.5t-154 42.5q-109 0 -153.5 -41t-44.5 -146v-106q0 -91 47.5 -133.5t150.5 -42.5q104 0 152.5 42.5t48.5 133.5z" />
    <glyph glyph-name="tcedilla" unicode="&#xe09a;" horiz-adv-x="751" 
d="M178 1024v285h326v-285h164v-199h-164v-544q0 -91 84 -91h80v-206h-213q-3 0 -23 4l-35 -51h21q30 0 61 -7q69 -14 110.5 -56t41.5 -107q0 -90 -65 -139.5t-171 -55.5h-14q-148 0 -244 45l25 119q79 -30 151 -33q107 0 107 64q0 45 -64 45h-6q-52 -3 -80 -25l-92 70
l109 161q-109 59 -109 207v600h-135v199h135z" />
    <glyph glyph-name="tcircumflexbelow" unicode="&#xe09b;" horiz-adv-x="751" 
d="M178 1024v285h326v-285h164v-199h-164v-544q0 -91 84 -91h80v-206h-213q-277 0 -277 241v600h-135v199h135zM-10 -473l237 344h256l238 -344h-227l-138 203l-139 -203h-227z" />
    <glyph glyph-name="tdotbelow" unicode="&#xe09c;" horiz-adv-x="751" 
d="M178 1024v285h326v-285h164v-199h-164v-544q0 -91 84 -91h80v-206h-213q-277 0 -277 241v600h-135v199h135zM227 -393v213h256v-213h-256z" />
    <glyph glyph-name="three.dnom" unicode="&#xe09d;" horiz-adv-x="868" 
d="M340 600h-215v35q0 112 82.5 168.5t226.5 56.5q138 0 223.5 -55t85.5 -170v-53q0 -38 -20.5 -71t-56.5 -50q55 -18 84.5 -64.5t29.5 -109.5v-54q0 -109 -95.5 -177t-250.5 -68t-250.5 68t-95.5 177v56h217v-56q0 -50 28.5 -68t100.5 -18q76 0 103.5 18t27.5 68v60
q0 71 -90 74h-94v147h70q77 3 77 57v64q0 33 -21 49t-73 16q-53 0 -73.5 -15.5t-20.5 -49.5v-35z" />
    <glyph glyph-name="three.lf" unicode="&#xe09e;" horiz-adv-x="1310" 
d="M489 989h-348v51q0 97 39.5 170t110 116.5t161 65t199.5 21.5q108 0 198.5 -21.5t162 -65t111.5 -116.5t40 -170v-82q0 -64 -39.5 -121t-103.5 -81q96 -30 149.5 -108.5t53.5 -182.5v-90q0 -178 -158 -293q-155 -113 -414 -113q-256 0 -411 113q-158 115 -158 293v88h348
v-88q0 -85 48 -116.5t173 -31.5q131 0 178.5 31t47.5 117v100q0 66 -37.5 97.5t-118.5 31.5h-152v236h111q135 3 135 102v98q0 59 -37 87t-127 28q-91 0 -126.5 -26.5t-35.5 -88.5v-51z" />
    <glyph glyph-name="three.numr" unicode="&#xe09f;" horiz-adv-x="868" 
d="M340 1182h-215v35q0 112 82.5 168.5t226.5 56.5q138 0 223.5 -55t85.5 -170v-54q0 -39 -21 -73.5t-56 -47.5q55 -18 84.5 -65t29.5 -111v-51q0 -109 -95.5 -177.5t-250.5 -68.5t-250.5 68t-95.5 178v55h217v-55q0 -49 28 -67.5t101 -18.5q76 0 103.5 18t27.5 68v59
q0 72 -90 72h-94v150h70q77 0 77 57v64q0 34 -21 49.5t-75 15.5q-52 0 -72 -15.5t-20 -49.5v-35z" />
    <glyph glyph-name="three.osf" unicode="&#xe0a0;" horiz-adv-x="1310" 
d="M489 633h-348v53q0 78 26 141t72 105.5t111 71t140 41t161 12.5t160.5 -13t140 -42t112 -71.5t73 -105t26.5 -139.5v-82q0 -66 -39 -122.5t-104 -80.5q96 -30 149.5 -108t53.5 -182v-91q0 -180 -158 -292q-155 -113 -414 -113q-254 0 -411.5 111.5t-157.5 293.5v86h348
v-86q0 -88 48.5 -118.5t172.5 -30.5q131 0 178.5 31.5t47.5 117.5v101q0 64 -37.5 96t-118.5 33h-152v235h111q135 3 135 103v98q0 59 -37 87t-127 28q-91 0 -126.5 -26.5t-35.5 -88.5v-53z" />
    <glyph glyph-name="three.tf" unicode="&#xe0a1;" horiz-adv-x="1302" 
d="M487 989h-348v51q0 97 40 170t111 116.5t161 65t198 21.5q109 0 199.5 -21.5t161.5 -65t111 -116.5t40 -170v-82q0 -65 -38 -121.5t-105 -80.5q96 -30 150.5 -108.5t54.5 -182.5v-90q0 -178 -158 -293q-155 -113 -416 -113q-252 0 -410.5 113t-158.5 293v88h348v-88
q0 -85 49 -116.5t172 -31.5q133 0 179 30.5t46 117.5v100q0 66 -37 97.5t-116 31.5h-152v236h109q135 3 135 102v98q0 59 -37 87t-127 28t-126 -27t-36 -88v-51z" />
    <glyph glyph-name="three.tosf" unicode="&#xe0a2;" horiz-adv-x="1302" 
d="M487 633h-346v53q0 98 39.5 171t110 115.5t160.5 63.5t200 21q106 0 196 -21.5t162 -64.5t113 -116t41 -169v-82q0 -66 -39 -122.5t-104 -80.5q94 -31 148.5 -109t54.5 -181v-91q0 -180 -158 -292q-155 -113 -414 -113q-256 0 -411 113q-158 112 -158 292v86h348v-86
q0 -88 48.5 -118.5t172.5 -30.5q132 0 177.5 31t45.5 118v101q0 64 -36.5 96t-116.5 33h-152v235h109q137 3 137 103v98q0 59 -38 87t-126 28q-92 0 -128 -26.5t-36 -88.5v-53z" />
    <glyph glyph-name="tlinebelow" unicode="&#xe0a3;" horiz-adv-x="751" 
d="M178 1024v285h326v-285h164v-199h-164v-544q0 -91 84 -91h80v-206h-213q-277 0 -277 241v600h-135v199h135zM80 -369v209h543v-209h-543z" />
    <glyph glyph-name="two.dnom" unicode="&#xe0a4;" horiz-adv-x="804" 
d="M322 569h-213v62q0 108 82 167.5t221 59.5q141 0 227 -56.5t86 -170.5v-37q0 -70 -38 -130.5t-116 -125.5q-42 -37 -102 -80q-33 -23 -84 -78h340v-180h-637q3 120 47 211q19 36 55 72t64 57l80 57l16 11q80 56 113 92q47 47 47 94v37q0 67 -98 67q-90 0 -90 -67v-62z
" />
    <glyph glyph-name="two.lf" unicode="&#xe0a5;" horiz-adv-x="1214" 
d="M451 946h-345v96q0 181 134.5 278t365.5 97q240 0 377 -94.5t137 -280.5v-57q0 -120 -62.5 -219.5t-191.5 -204.5q-6 -4 -15 -11.5t-23.5 -19.5t-26.5 -22l-72 -55q-126 -107 -176 -166h567v-287h-1046q5 127 26.5 213t67.5 154q29 42 43 60.5t37.5 43t56.5 51.5
q51 43 82 64l94 65l27 19q148 106 208 173t60 142v57q0 62 -39.5 91.5t-130.5 29.5q-155 0 -155 -121v-96z" />
    <glyph glyph-name="two.numr" unicode="&#xe0a6;" horiz-adv-x="804" 
d="M322 1153h-213v61q0 110 81.5 169t221.5 59t226.5 -57t86.5 -171v-34q0 -72 -38 -132.5t-116 -125.5q-42 -37 -102 -80q-33 -23 -84 -78h340v-180h-637q3 120 47 211q17 35 55 73q45 42 64 56l80 57q4 4 16 10q81 57 120.5 99.5t39.5 89.5v34q0 68 -98 68q-90 0 -90 -68
v-61z" />
    <glyph glyph-name="two.osf" unicode="&#xe0a7;" horiz-adv-x="970" 
d="M387 711h-287v53q0 138 106 215.5t277 77.5q82 0 151.5 -17t125 -51t86.5 -91.5t31 -133.5v-35q0 -90 -48.5 -168.5t-144.5 -157.5q-123 -91 -158 -145h351v-258h-799q-3 169 55 279q20 44 70 94q45 48 78 71l98 68l18 14l78 56l55 47q60 50 60 100v35q0 70 -105 70
q-98 0 -98 -70v-53z" />
    <glyph glyph-name="two.tf" unicode="&#xe0a8;" horiz-adv-x="1302" 
d="M506 946h-346v96q0 181 135 278t367 97q239 0 376.5 -95t137.5 -280v-57q0 -120 -62.5 -219.5t-191.5 -204.5q-2 -2 -66 -53l-72 -55q-133 -113 -178 -166h570v-287h-1049q8 130 29 215t65 152q29 42 43 60.5t37.5 43t56.5 51.5q40 34 84 64l93 65l26 19
q149 105 209.5 172t60.5 143v57q0 62 -39 91.5t-130 29.5q-156 0 -156 -121v-96z" />
    <glyph glyph-name="two.tosf" unicode="&#xe0a9;" horiz-adv-x="1024" 
d="M426 711h-287v53q0 138 105.5 215.5t275.5 77.5q111 0 197 -28.5t141 -96.5t55 -168v-35q-4 -100 -52.5 -176.5t-139.5 -149.5q-119 -88 -156 -145h348v-258h-798q0 159 55 279q20 44 70 94q52 52 79 71q2 1 36.5 26t60.5 42l20 14l78 56l55 47q58 53 58 100v35
q0 70 -103 70q-98 0 -98 -70v-53z" />
    <glyph glyph-name="ucaron" unicode="&#xe0aa;" horiz-adv-x="1189" 
d="M594 1307l137 202h230l-238 -344h-258l-238 344h230zM768 463v561h324v-1024h-291v113q-100 -146 -322 -146q-173 0 -277 102.5t-104 295.5v659h324v-561q0 -128 36.5 -180t129.5 -52q94 0 137 54t43 178z" />
    <glyph glyph-name="udieresisacute" unicode="&#xe0ab;" horiz-adv-x="1189" 
d="M274 1518l293 342h303l-346 -342h-250zM246 1204v213h256v-213h-256zM686 1204v213h256v-213h-256zM768 463v561h324v-1024h-291v113q-100 -146 -322 -146q-173 0 -277 102.5t-104 295.5v659h324v-561q0 -128 36.5 -180t129.5 -52q94 0 137 54t43 178z" />
    <glyph glyph-name="udieresiscaron" unicode="&#xe0ac;" horiz-adv-x="1189" 
d="M594 1657l137 203h230l-238 -342h-258l-238 342h230zM246 1204v213h256v-213h-256zM686 1204v213h256v-213h-256zM768 463v561h324v-1024h-291v113q-100 -146 -322 -146q-173 0 -277 102.5t-104 295.5v659h324v-561q0 -128 36.5 -180t129.5 -52q94 0 137 54t43 178z" />
    <glyph glyph-name="udieresisgrave" unicode="&#xe0ad;" horiz-adv-x="1189" 
d="M672 1518l-348 342h303l293 -342h-248zM246 1204v213h256v-213h-256zM686 1204v213h256v-213h-256zM768 463v561h324v-1024h-291v113q-100 -146 -322 -146q-173 0 -277 102.5t-104 295.5v659h324v-561q0 -128 36.5 -180t129.5 -52q94 0 137 54t43 178z" />
    <glyph glyph-name="udieresismacron" unicode="&#xe0ae;" horiz-adv-x="1189" 
d="M324 1526v209h540v-209h-540zM246 1204v213h256v-213h-256zM686 1204v213h256v-213h-256zM768 463v561h324v-1024h-291v113q-100 -146 -322 -146q-168 0 -274.5 100.5t-106.5 297.5v659h324v-561q0 -128 36.5 -180t129.5 -52q94 0 137 54t43 178z" />
    <glyph glyph-name="udotbelow" unicode="&#xe0af;" horiz-adv-x="1189" 
d="M768 463v561h324v-1024h-291v113q-100 -146 -322 -146q-168 0 -274.5 100.5t-106.5 297.5v659h324v-561q0 -128 36.5 -180t129.5 -52q94 0 137 54t43 178zM483 -393v213h256v-213h-256z" />
    <glyph glyph-name="zdotbelow" unicode="&#xe0b0;" horiz-adv-x="1003" 
d="M82 766v258h842v-172l-416 -594h424v-258h-858v172l415 594h-407zM385 -393v213h254v-213h-254z" />
    <glyph glyph-name="zero.dnom" unicode="&#xe0b1;" horiz-adv-x="872" 
d="M90 373v102q0 195 92.5 293t253.5 98t253.5 -98t92.5 -293v-102q0 -170 -93.5 -277.5t-252.5 -107.5t-252.5 107.5t-93.5 277.5zM567 360v115q0 119 -31 166t-100 47q-66 0 -97.5 -46.5t-31.5 -166.5v-115q0 -98 34 -146t95 -48q63 0 97 48.5t34 145.5z" />
    <glyph glyph-name="zero.lf" unicode="&#xe0b2;" horiz-adv-x="1320" 
d="M90 600v170q0 319 149.5 483t419.5 164q273 0 422.5 -163.5t149.5 -483.5v-170q0 -273 -152 -457q-150 -178 -420 -178q-267 0 -417 178q-152 184 -152 457zM883 582v188q0 203 -55 284t-169 81t-167.5 -84t-53.5 -281v-188q0 -163 58 -247.5t163 -84.5q106 0 165 84.5
t59 247.5z" />
    <glyph glyph-name="zero.numr" unicode="&#xe0b3;" horiz-adv-x="872" 
d="M90 950v105q0 192 91.5 291.5t254.5 99.5q161 0 253.5 -98t92.5 -293v-105q0 -165 -92 -274t-254 -109t-254 109t-92 274zM567 940v115q0 120 -32 166.5t-99 46.5q-68 0 -98.5 -48.5t-30.5 -164.5v-115q0 -96 34 -145.5t95 -49.5q63 0 97 49t34 146z" />
    <glyph glyph-name="zero.osf" unicode="&#xe0b4;" horiz-adv-x="1052" 
d="M90 449v118q0 237 117 364.5t319 127.5q203 0 320 -126.5t117 -365.5v-118q0 -208 -119 -345q-116 -137 -318 -137q-200 0 -319 137q-117 138 -117 345zM659 436v131q0 131 -31.5 182.5t-101.5 51.5t-101.5 -51.5t-31.5 -182.5v-131q0 -104 35 -157.5t98 -53.5
q133 0 133 211z" />
    <glyph glyph-name="zero.tf" unicode="&#xe0b5;" horiz-adv-x="1302" 
d="M80 600v170q0 320 149 483.5t420 163.5t420.5 -163.5t149.5 -483.5v-170q0 -273 -152 -457q-150 -178 -418 -178t-418 178q-151 183 -151 457zM872 582v188q0 198 -54 281.5t-169 83.5t-168 -83.5t-53 -281.5v-188q0 -167 58 -249.5t163 -82.5t164 84.5t59 247.5z" />
    <glyph glyph-name="zero.tosf" unicode="&#xe0b6;" horiz-adv-x="1024" 
d="M78 449v118q0 237 117 364.5t319 127.5q203 0 319.5 -126.5t116.5 -365.5v-118q0 -208 -119 -345q-116 -137 -317 -137q-200 0 -319 137q-117 138 -117 345zM647 436v131q0 131 -31.5 182.5t-101.5 51.5t-101.5 -51.5t-31.5 -182.5v-131q0 -106 36 -158.5t97 -52.5
q133 0 133 211z" />
    <glyph glyph-name="commaaccent" unicode="&#xf6c3;" horiz-adv-x="0" 
d="M109 -305v184h253v-184q0 -39 -13.5 -76t-44 -74t-91.5 -60.5t-145 -25.5v127q41 38 41 109z" />
    </font>
</defs>
</svg>
