<svg width="47" height="44" viewBox="0 0 47 44" fill="none" xmlns="http://www.w3.org/2000/svg">
<g clip-path="url(#clip0)">
<path d="M11.1848 24.2423L12.4283 14.9489L1.64246 7.5009L11.4973 10.8214L13.8247 7.26939L22.323 2.02405L41.0552 12.2898L42.026 27.9531L33.6807 39.4889L27.0842 40.4943L30.4955 34.2832V28.3037L28.0151 23.6338L25.4949 21.9735L21.6181 25.9489V30.1557L18.5925 32.9735L14.749 33.4366L13.0467 34.3957L10.2538 33.5093L9.09011 29.3421L11.1848 26.4119V24.2423Z" fill="white"/>
<path d="M28.4075 7.42146C26.3527 6.99813 24.1051 7.11058 24.1051 7.11058C24.1051 7.11058 23.367 10.5038 18.792 11.3968C18.8253 11.3968 24.8366 13.4407 28.4075 7.42146Z" fill="#94A6C3"/>
<path d="M30.2694 38.2123C32.7497 36.2809 34.6116 33.6218 35.4694 30.6122C35.5093 30.4997 35.8551 30.3013 36.0879 30.1492C36.4735 29.9177 36.8659 29.7258 36.939 29.415C37.092 28.5286 37.1718 27.6026 37.1718 26.6765C37.1718 26.3326 36.8193 25.982 36.4735 25.638C36.2009 25.4065 35.9283 25.1353 35.9283 24.9435C35.5426 21.4312 33.9134 18.1504 31.3134 15.7625L31.0407 16.0337C33.561 18.3885 35.1902 21.5899 35.5426 24.9832C35.5825 25.2941 35.8884 25.5984 36.2009 25.9092C36.4735 26.1407 36.7861 26.4913 36.7861 26.6435C36.7861 27.5298 36.7063 28.4162 36.5533 29.3025C36.5134 29.4546 36.1677 29.6134 35.895 29.7655C35.5093 29.9573 35.1569 30.1492 35.0838 30.4601C34.1528 33.7409 32.0183 36.5984 29.1855 38.4504C29.6909 37.3723 31.2801 33.8599 32.1313 32.0806L31.9784 26.3723L27.0509 21.6296L24.2581 22.0133L21.1926 26.9543C21.1926 26.9543 22.6289 28.7667 20.6074 30.89C18.6324 32.9736 17.0764 33.4366 17.0764 33.4366L15.6401 32.6627C16.0657 32.1203 16.9235 31.3133 17.5818 30.7709C18.7056 29.8449 19.8294 29.7655 19.8294 28.7667C19.8759 26.6765 17.6217 27.252 17.6217 27.252L16.8038 28.0259L16.458 30.8834L14.7557 33.0067L14.5628 32.967L11.77 32.3518C11.77 32.3518 13.4789 31.4655 13.7516 30.4601C14.0242 29.4943 13.2063 26.2929 13.1664 26.1011C13.2063 26.1407 13.9843 26.7956 14.3301 27.8738C14.9485 26.1738 15.7664 24.5533 15.9992 24.4011C16.2319 24.249 19.3705 22.5887 19.3705 22.5887L18.3265 25.3272L19.1046 24.9038L20.9665 20.353C20.9665 20.353 22.7885 19.4667 24.145 19.4667C26.5855 19.427 30.1962 16.457 28.5671 11.1323C29.0325 11.3241 37.0986 15.3392 38.4951 23.2105C39.5391 29.2628 36.0879 34.9315 30.2694 38.2123Z" fill="#94A6C3"/>
<path d="M21.0396 8.26818C21.9307 7.22308 21.5849 5.68188 21.5849 5.68188L18.9849 9.5051C18.945 9.5051 19.9092 9.54479 21.0396 8.26818Z" fill="#1B314F"/>
<path d="M12.3086 29.1437L12.6211 27.6025C12.6211 27.6025 11.3377 29.8383 11.2247 30.1491C11.105 30.4997 11.3045 31.1149 11.8032 31.0752C12.3086 31.0355 12.927 30.3013 12.927 29.7655C12.927 29.071 12.3086 29.1437 12.3086 29.1437Z" fill="#1B314F"/>
<path d="M35.3487 4.60366C35.3487 4.60366 37.2904 4.68304 39.3053 4.91455C34.7635 1.36253 30.4612 0.32405 26.9701 0.32405C22.1624 0.32405 18.904 2.29519 18.7045 2.40763L20.2207 0.0131659C20.2207 0.0131659 14.1694 -0.568915 12.0349 5.8009C11.4896 4.45153 10.9909 2.48039 10.9909 2.48039C10.9909 2.48039 7.84559 5.22543 9.32182 9.77624C5.71104 8.46656 0.557529 6.64756 0.358038 6.61449C0.0854013 6.5748 0.00560498 6.69386 0.00560498 6.69386C0.00560498 6.69386 -0.0741913 6.80631 0.158548 7.00475C0.590778 7.34209 8.73665 13.3283 10.5254 14.4858C10.1397 15.8749 10.1397 16.5297 10.5254 17.1845C11.0707 18.0709 11.1039 18.5339 11.0308 19.1888C10.951 19.8436 10.2528 25.5189 10.0998 26.2134C9.94689 26.9079 8.31772 29.3752 8.39086 30.1094C8.47066 30.8436 9.47476 33.9657 10.3725 34.3162C11.0308 34.5477 12.66 35.0504 13.7439 35.0504C14.1295 35.0504 14.482 34.9711 14.6349 34.8189C15.2932 34.2435 15.4861 34.1244 15.9516 34.1244C15.9915 34.1244 16.0314 34.1244 16.0646 34.1244C16.2574 34.1244 16.4902 34.1641 16.7628 34.1641C17.3812 34.1641 18.1992 34.045 18.7777 33.5093C19.6288 32.6626 21.1051 31.505 21.5705 30.9627C22.1557 30.2284 22.4616 29.2296 22.3087 28.2242C22.189 27.2982 22.6943 26.4846 23.2795 25.6776C24.0176 24.7119 25.3742 22.9789 25.3742 22.9789C28.054 24.9765 29.7231 28.0258 29.7231 31.4191C29.7231 37.4383 24.4499 42.3 17.9332 42.3C16.9224 42.3 15.9582 42.1875 14.9874 41.956C17.9731 42.9945 20.4933 43.3451 22.5547 43.3451C26.9368 43.3451 29.2642 41.7642 29.2642 41.7642C29.2642 41.7642 28.453 42.8093 27.1297 43.9999C27.1696 43.9999 27.1696 43.9999 27.1696 43.9999C34.4244 42.9945 37.9554 37.0547 37.9554 37.0547C37.9554 37.0547 37.6827 38.9861 37.337 40.2958C46.9857 33.0793 45.3565 24.0504 45.3166 23.7462C45.3964 23.8586 46.3672 25.0162 46.866 25.6379C48.422 9.73656 35.3487 4.60366 35.3487 4.60366ZM20.4933 29.9969C20.3404 30.1888 19.682 30.7708 19.2166 31.1942C18.7511 31.6175 18.2457 32.0408 17.86 32.4311C17.7071 32.5832 17.3945 32.6626 16.9291 32.6626C16.7761 32.6626 16.6165 32.6626 16.5035 32.6626C16.4237 32.6626 16.3505 32.6626 16.2707 32.6626C16.1909 32.6626 16.151 32.6626 16.1178 32.6626C15.9981 32.6626 15.8851 32.6626 15.7654 32.6626C16.3505 31.8887 18.0529 30.116 18.638 29.7323C19.3363 29.2693 19.6887 28.8063 19.2565 27.9993C18.8309 27.1857 17.7071 27.3842 17.7071 27.3842C17.7071 27.3842 18.3654 27.113 18.9506 27.113C18.2125 26.9212 17.2815 27.113 16.8559 27.5363C16.3904 27.9596 16.4702 29.4678 16.2774 30.4269C16.0846 31.4323 15.4262 31.935 14.4155 32.861C13.8702 33.3637 13.4845 33.5159 13.172 33.5159C12.5137 33.4034 11.7357 33.205 11.1904 33.0132C10.8047 32.5105 10.2195 30.8502 10.0666 30.1557C10.1796 29.772 10.6451 28.9584 10.8778 28.4954C11.3433 27.6091 11.616 27.1064 11.6958 26.6434C11.8487 25.9885 12.3541 21.9338 12.5469 20.2405C13.0523 20.8953 13.7505 21.9801 13.5909 22.6746C14.7147 21.0937 13.9035 19.5459 13.5111 18.9308C13.1653 18.3156 12.6999 17.0787 13.0855 15.769C13.4712 14.4593 14.8677 10.828 14.8677 10.828C14.8677 10.828 15.3331 11.6415 15.9915 11.4828C16.6498 11.3307 21.9629 3.37997 21.9629 3.37997C21.9629 3.37997 23.3992 6.50204 21.8831 8.78406C20.3337 11.0595 18.8176 11.4828 18.8176 11.4828C18.8176 11.4828 20.9521 11.8664 22.9271 10.4377C23.7383 12.3295 24.5164 14.294 24.5563 14.5652C24.4366 14.8364 22.8872 18.5405 22.7342 18.772C22.6544 18.8514 22.1158 19.0035 21.7235 19.0829C21.0652 19.2747 20.6795 19.3938 20.5199 19.5063C20.2473 19.7378 19.0038 23.131 18.4252 24.7913C17.727 24.9831 17.0288 25.3734 16.5234 26.1406C16.7961 25.9488 17.6472 25.8298 18.2723 25.757C18.8176 25.7173 20.48 26.6037 20.9122 28.2639C20.9122 28.3036 20.9122 28.3036 20.9122 28.3433C20.9987 28.9518 20.8058 29.5339 20.4933 29.9969ZM16.8493 30.4599C17.2017 29.9572 17.1618 29.1106 17.2017 28.8394C17.2416 28.5682 17.3147 28.0655 17.6273 27.9927C17.9398 27.9133 18.6779 28.0324 18.6779 28.5682C18.6779 29.0709 18.1327 29.1833 17.747 29.5339C17.4677 29.7985 16.9224 30.3806 16.8493 30.4599ZM32.3231 23.0847C32.7088 21.1202 32.7487 19.4203 32.6356 18.0312C34.1451 20.0354 35.0761 22.4696 35.3487 24.9765C35.3886 25.2874 35.6945 25.5916 36.007 25.9025C36.2797 26.134 36.5922 26.4449 36.5922 26.6367C36.5922 27.5231 36.5124 28.4094 36.3595 29.3024C36.3196 29.4148 35.9738 29.6133 35.7011 29.7654C35.3155 29.9572 34.963 30.1491 34.8899 30.4599C34.0387 33.4299 32.21 36.0559 29.7696 37.9079C33.3737 34.1641 35.116 27.9861 32.3231 23.0847ZM29.8827 38.2519C32.4029 36.3204 34.3446 33.6217 35.1958 30.5724C35.2357 30.4599 35.5814 30.2615 35.8142 30.1094C36.1999 29.9176 36.5922 29.686 36.6653 29.3752C36.8183 28.4888 36.8981 27.5628 36.8981 26.6367C36.8981 26.2928 36.5456 25.9422 36.1999 25.5983C36.007 25.3667 35.6945 25.0955 35.6945 24.9037C35.3819 22.0859 34.2582 19.4269 32.5159 17.2242C31.7379 12.594 28.6392 11.1653 28.5594 11.1256C28.6392 11.2447 30.654 14.1352 29.2576 17.5285C27.8213 20.9615 24.1373 20.4257 23.8248 20.4587C23.5123 20.4587 22.3153 21.9999 20.7992 24.8574C20.6063 24.778 19.7884 24.5862 18.8575 24.745C19.5557 22.8135 20.6063 20.0751 20.7992 19.8436C20.879 19.7642 21.4575 19.6121 21.8498 19.4996C22.5879 19.3078 22.9337 19.1888 23.0534 19.0366C23.1332 18.9176 23.5189 18.0312 23.9046 17.1052C24.257 17.1052 25.1481 17.0258 25.2212 16.9861C25.301 16.9067 26.0391 15.0216 26.0391 14.7901C26.0391 14.5983 24.523 10.8544 23.9445 9.42567C24.2171 9.11479 24.4898 8.73114 24.7557 8.30781C32.7088 9.16109 38.9196 15.8749 38.9196 24.0108C38.9196 30.2615 35.2357 35.7053 29.8827 38.2519Z" fill="#1B314F"/>
<path d="M19.5634 17.4161C20.3015 16.5694 19.9158 14.9885 18.5526 14.7173C18.9051 13.9104 19.4038 12.2898 19.4038 12.2898C19.4038 12.2898 15.4472 18.4612 15.1014 18.5802C14.749 18.6993 14.4032 17.3433 14.4032 17.3433C13.6651 20.1611 15.6467 20.5447 15.8795 19.6584C16.9634 19.3806 18.8253 18.223 19.5634 17.4161Z" fill="#1B314F"/>
<path d="M16.1853 18.9176L18.2002 15.4846C18.2002 15.4846 19.3639 16.0667 18.7787 16.9927C18.0473 18.0709 16.1853 18.9176 16.1853 18.9176Z" fill="#FFD923"/>
<path d="M41.1283 34.8191C40.5431 35.593 39.8848 36.4 39.1135 37.1739C44.114 27.6026 39.3462 18.8449 39.1534 18.501C39.5058 18.8515 39.8516 19.2352 40.1641 19.5791C44.001 23.8191 44.4665 30.1889 41.1283 34.8191Z" fill="#D82122"/>
<path d="M45.7831 22.5093C44.0342 17.8395 41.5539 13.8641 36.0879 10.279C30.8147 6.80638 25.1491 7.07758 24.8366 7.11727C24.7967 7.11727 24.7568 7.11727 24.7568 7.11727C24.9496 7.03789 25.1425 6.99821 25.3353 6.96513C26.5389 6.58149 28.0883 6.27061 29.6443 6.07878C33.7605 5.49009 37.9099 6.87914 40.7427 9.85569C40.7826 9.89538 40.7826 9.89538 40.8224 9.93507C44.0409 13.3283 45.71 17.5683 45.7831 22.5093Z" fill="#D82122"/>
<path d="M34.8444 3.40654C29.0658 2.32837 25.342 2.86414 22.6621 3.86956C22.5823 3.55867 22.3097 2.94352 22.077 2.44081C21.2724 3.40654 20.4145 4.56408 19.8759 5.2983C18.3997 6.30371 17.7813 7.26943 17.7813 7.26943C18.6324 4.37226 21.1194 2.21592 24.145 1.67353C24.9962 1.52139 25.9271 1.44202 26.9379 1.44202C29.6111 1.4817 32.2842 2.13654 34.8444 3.40654Z" fill="#D82122"/>
<path d="M13.4723 10.8148C8.93718 10.6627 10.4467 5.41071 10.5265 5.10645C10.5265 5.14613 10.8323 9.23393 13.4723 10.8148Z" fill="#D82122"/>
<path d="M17.9342 1.36267C14.4431 3.44625 15.1413 8.4204 15.1413 8.4204C11.8032 3.37349 17.6616 1.48173 17.9342 1.36267Z" fill="#D82122"/>
<path d="M12.1955 12.2039C12.4283 12.3957 12.661 12.7463 12.3884 13.249C12.2354 13.5202 12.0027 13.4805 11.6503 13.3284C11.1848 13.0969 8.39191 11.4763 5.87167 9.81604C8.74434 10.8215 11.6503 11.8996 12.1157 12.1311C12.1157 12.1311 12.1556 12.1708 12.1955 12.2039Z" fill="white"/>
</g>
<defs>
<clipPath id="clip0">
<rect width="47" height="44" fill="white"/>
</clipPath>
</defs>
</svg>
