<svg width="39" height="39" viewBox="0 0 39 39" fill="none" xmlns="http://www.w3.org/2000/svg">
<path d="M11.9258 16.3881L19.4999 8.814L27.0776 16.3914L31.4846 11.9844L19.4999 0L7.51917 11.9808L11.926 16.3878L11.9258 16.3881ZM0 19.5L4.40714 15.0922L8.81396 19.4991L4.40683 23.9062L0 19.5ZM11.9258 22.6124L19.4999 30.186L27.0774 22.6088L31.4868 27.0134L31.4846 27.0158L19.4999 39L7.51917 27.0192L7.51293 27.013L11.9263 22.6119L11.9258 22.6124ZM30.1859 19.5019L34.593 15.0947L38.9998 19.5016L34.5929 23.9087L30.1859 19.5019Z" fill="#F3BA2F"/>
<path d="M23.9696 19.4977H23.9715L19.4999 15.0258L16.1948 18.33L15.8151 18.7099L15.032 19.4932L15.0257 19.4992L15.032 19.5056L19.4999 23.9743L23.9718 19.5024L23.974 19.4999L23.9699 19.4977" fill="#F3BA2F"/>
</svg>
