<svg width="23" height="20" viewBox="0 0 23 20" fill="none" xmlns="http://www.w3.org/2000/svg">
<path d="M15.3395 11.7546C14.4627 11.7546 13.7515 12.7394 13.7515 13.9549C13.7515 15.1704 14.4627 16.1558 15.3395 16.1558C16.2157 16.1558 16.9263 15.1704 16.9263 13.9549C16.9263 12.7394 16.2157 11.7546 15.3395 11.7546Z" fill="#1D2040"/>
<path fill-rule="evenodd" clip-rule="evenodd" d="M20.0922 0.616699C21.0558 3.04515 21.047 5.58268 20.8661 6.02915C21.9988 7.26066 22.6911 8.74014 22.6911 10.7615C22.6911 19.5483 15.4121 19.689 13.5741 19.689C13.1975 19.689 12.4816 19.69 11.6995 19.6911L11.4581 19.6914L11.2145 19.6911C10.4333 19.69 9.71893 19.689 9.34217 19.689C7.50409 19.689 0.225098 19.5483 0.225098 10.7615C0.225098 8.74014 0.917406 7.26066 2.05017 6.02915C1.86926 5.58268 1.86039 3.04515 2.82465 0.616699C2.82465 0.616699 5.03578 0.859306 8.38145 3.159C9.08381 2.96468 10.271 2.86811 11.4581 2.86811C12.6453 2.86811 13.833 2.96527 14.5342 3.159C17.8804 0.859306 20.0922 0.616699 20.0922 0.616699ZM3.23264 13.5761C3.23264 18.0581 6.81893 18.6089 11.4239 18.6089H11.4925C16.098 18.6089 19.6843 18.0581 19.6843 13.5761C19.6843 12.5032 19.3059 11.5059 18.4073 10.6792C17.3138 9.67362 15.6676 9.79017 13.7392 9.9267C13.0246 9.97729 12.2713 10.0306 11.4931 10.0306C11.4818 10.0306 11.4706 10.0306 11.4582 10.03C11.4469 10.0306 11.4351 10.0306 11.4239 10.0306C10.6456 10.0306 9.89234 9.97729 9.17781 9.9267C7.24956 9.79017 5.60344 9.67362 4.50906 10.6792C3.61042 11.5059 3.23264 12.5032 3.23264 13.5761Z" fill="#1D2040"/>
<path d="M7.5756 11.7546C6.69941 11.7546 5.98877 12.7394 5.98877 13.9549C5.98877 15.1704 6.69941 16.1558 7.5756 16.1558C8.45296 16.1558 9.1636 15.1704 9.1636 13.9549C9.16301 12.7394 8.45237 11.7546 7.5756 11.7546Z" fill="#1D2040"/>
</svg>
