<svg width="24" height="18" viewBox="0 0 24 18" fill="none" xmlns="http://www.w3.org/2000/svg">
<path d="M17.5985 17.5803C17.5985 17.5803 16.8624 16.6881 16.2513 15.9091C18.9179 15.1443 19.9318 13.4448 19.9318 13.4448C19.0985 13.9972 18.3068 14.3937 17.5985 14.6628C16.5846 15.1019 15.6124 15.3851 14.6541 15.5551C12.7097 15.9233 10.9181 15.8242 9.39033 15.5409C8.23758 15.3143 7.2376 14.9886 6.40428 14.6487C5.93207 14.4645 5.43208 14.2379 4.9182 13.9405C4.86264 13.898 4.7932 13.8839 4.73765 13.8414C4.69598 13.8272 4.68209 13.7989 4.65431 13.7847C4.29321 13.5723 4.08488 13.4307 4.08488 13.4307C4.08488 13.4307 5.05708 15.0877 7.64037 15.8808C7.02927 16.6739 6.27928 17.5945 6.27928 17.5945C1.79326 17.4387 0.0849609 14.4221 0.0849609 14.4221C0.0849609 7.75146 3.01546 2.34133 3.01546 2.34133C5.93207 0.117799 8.72368 0.17445 8.72368 0.17445L8.93201 0.429377C5.26541 1.50574 3.58489 3.13444 3.58489 3.13444C3.58489 3.13444 4.02933 2.87951 4.77931 2.53961C6.94594 1.56239 8.68201 1.2933 9.39033 1.23665C9.51533 1.22248 9.61255 1.19416 9.73755 1.19416C10.9736 1.02421 12.3764 0.981719 13.8347 1.15167C15.7652 1.37827 17.8346 1.95894 19.9457 3.13444C19.9457 3.13444 18.3346 1.57655 14.8902 0.50019L15.168 0.17445C15.168 0.17445 17.9457 0.117799 20.8762 2.35549C20.8762 2.35549 23.8067 7.76562 23.8067 14.4362C23.8206 14.4221 22.0845 17.4387 17.5985 17.5803ZM8.15424 7.90724C7.00149 7.90724 6.08484 8.94112 6.08484 10.2016C6.08484 11.4621 7.01538 12.4959 8.15424 12.4959C9.307 12.4959 10.2236 11.4621 10.2236 10.2016C10.2375 8.94112 9.307 7.90724 8.15424 7.90724ZM15.5708 7.90724C14.418 7.90724 13.5014 8.94112 13.5014 10.2016C13.5014 11.4621 14.4319 12.4959 15.5708 12.4959C16.7235 12.4959 17.6402 11.4621 17.6402 10.2016C17.6402 8.94112 16.7235 7.90724 15.5708 7.90724Z" fill="#1D2040"/>
</svg>
