<svg width="44" height="44" viewBox="0 0 44 44" fill="none" xmlns="http://www.w3.org/2000/svg">
<path d="M41.2253 11.5718C40.6709 12.1263 40.055 12.5399 39.3885 12.8433L31.158 4.61301C31.4614 3.94657 31.875 3.3307 32.4295 2.77623C33.0634 2.1423 33.0634 1.11284 32.4295 0.477103C31.7955 -0.158635 30.766 -0.156829 30.1303 0.477103C26.7582 3.84904 26.9389 8.39131 27.5114 12.6627C23.2959 12.1389 18.8709 12.1136 15.4916 15.4928C12.1142 18.8701 12.1376 23.2968 12.6614 27.5122C8.38992 26.9397 3.84751 26.7591 0.475463 30.131C-0.158488 30.7649 -0.158488 31.7944 0.475463 32.4301C1.10941 33.0659 2.13891 33.0641 2.77466 32.4301C3.32553 31.8793 3.93781 31.4675 4.59886 31.1641L12.8366 39.4016C12.5332 40.0626 12.1214 40.6749 11.5705 41.2257C10.9366 41.8596 10.9366 42.8891 11.5705 43.5248C12.2045 44.1606 13.234 44.1588 13.8697 43.5248C17.2418 40.1529 17.0611 35.6106 16.4886 31.3393C20.7041 31.863 25.1291 31.8883 28.5084 28.5092C31.8877 25.13 31.8624 20.7051 31.3386 16.4897C35.6101 17.0623 40.1525 17.2429 43.5245 13.8709C44.1585 13.237 44.1585 12.2075 43.5245 11.5718C42.8906 10.9361 41.8611 10.9379 41.2253 11.5718ZM13.5699 35.5348L8.46758 30.4326C9.93958 30.4254 11.5163 30.6259 13.1418 30.8625C13.3766 32.4861 13.5753 34.0646 13.5699 35.5348ZM16.0046 27.9962C15.7643 26.2787 15.5855 24.6189 15.6686 23.0783L20.9208 28.3304C19.3838 28.4152 17.7222 28.2364 16.0046 27.9962ZM24.5945 27.4056L16.5952 19.4066C16.9004 18.8304 17.2923 18.2904 17.7908 17.7919C18.2857 17.2971 18.8221 16.9088 19.3947 16.6035L27.3994 24.608C27.0942 25.1788 26.7059 25.717 26.211 26.2118C25.7107 26.7085 25.1707 27.1004 24.5945 27.4056ZM28.3296 20.9417L23.0611 15.6734C24.6053 15.5885 26.2724 15.7673 27.9954 16.0075C28.2375 17.7305 28.4145 19.3957 28.3296 20.9417ZM30.8618 13.1413C30.627 11.523 30.4265 9.95176 30.4319 8.48523L35.518 13.5711C34.0514 13.5747 32.4783 13.3761 30.8618 13.1413Z" fill="url(#paint0_linear)"/>
<defs>
<linearGradient id="paint0_linear" x1="1.02812e-06" y1="44" x2="47.5" y2="-2" gradientUnits="userSpaceOnUse">
<stop stop-color="#CB00E0"/>
<stop offset="1" stop-color="#5900FC"/>
</linearGradient>
</defs>
</svg>
