<svg width="21" height="22" viewBox="0 0 21 22" fill="none" xmlns="http://www.w3.org/2000/svg">
<path fill-rule="evenodd" clip-rule="evenodd" d="M14.4725 2.3305C15.4032 2.70297 16.324 3.07147 17.2171 3.33623C22.1203 4.69247 21.621 7.42534 19.2143 9.70953C18.8699 10.0791 18.5084 10.4313 18.1857 10.7457C17.9564 10.9691 17.7467 11.1734 17.5766 11.3513C15.7491 13.2582 12.4836 16.9904 13.0129 20.794V20.8042C12.9595 20.8133 12.9042 20.8244 12.8477 20.8357C12.7774 20.8498 12.7054 20.8642 12.6334 20.8756C7.77015 21.8953 2.50742 19.0502 0.270508 15.3894C1.36829 12.8843 1.54444 10.6866 1.77591 7.79884C1.78658 7.66565 1.79738 7.53098 1.80838 7.39475C1.99812 4.5905 2.78703 2.26552 7.46057 0.950069C8.53908 0.684939 9.65754 0.776715 10.796 1.05204C11.8245 0.797109 13.0129 0.786912 13.652 1.34776C14.0914 1.72506 14.3011 2.04118 14.361 2.28591C14.3982 2.30078 14.4353 2.31564 14.4725 2.3305ZM6.48193 4.78425C6.48193 6.18127 7.59039 7.30298 8.94852 7.30298C10.3166 7.30298 11.4151 6.17108 11.4151 4.78425C11.4151 3.38722 10.3066 2.26552 8.94852 2.26552C7.58041 2.26552 6.48193 3.39742 6.48193 4.78425ZM15.7491 10.7599C16.568 10.5457 17.3569 10.25 18.1159 9.88289C18.8648 9.50559 19.6038 9.0773 20.2329 8.49606L20.203 8.46546C19.5539 8.99572 18.7949 9.37302 18.036 9.68914C17.277 10.0155 16.4881 10.2602 15.6792 10.4335C14.8803 10.5967 14.0615 10.6681 13.2526 10.6375C12.4537 10.6069 11.6448 10.4437 10.9458 9.98486L10.9158 10.0155C11.485 10.6783 12.3638 10.974 13.2226 11.0556C14.0814 11.1372 14.9303 10.974 15.7491 10.7599Z" fill="#1D2040"/>
</svg>
