<svg width="50" height="53" viewBox="0 0 50 53" fill="none" xmlns="http://www.w3.org/2000/svg">
<path d="M29.4592 37.5989H20.5425C20.4261 37.5989 20.3131 37.5534 20.2301 37.4713L13.9239 31.2252C13.8409 31.143 13.795 31.0329 13.795 30.9157V22.0824C13.795 21.967 13.8409 21.8552 13.9239 21.773L20.2301 15.5269C20.3131 15.4447 20.4243 15.3993 20.5425 15.3993H29.4592C29.5757 15.3993 29.6887 15.4447 29.7716 15.5269L36.0779 21.773C36.1608 21.8552 36.2067 21.9653 36.2067 22.0824V30.9157C36.2067 31.0311 36.1608 31.143 36.0779 31.2252L29.7716 37.4713C29.6869 37.5534 29.5757 37.5989 29.4592 37.5989ZM20.7243 36.7248H29.2756L35.3225 30.7357V22.2642L29.2756 16.2751H20.7243L14.6775 22.2642V30.7357L20.7243 36.7248Z" fill="url(#paint0_linear)"/>
<path d="M28.9933 26.5L24.9992 30.456L21.005 26.5L24.9992 22.5439L28.9933 26.5Z" fill="url(#paint1_linear)"/>
<path d="M29.9481 50.7677C29.7433 50.7677 29.5598 50.6243 29.5157 50.418C29.4662 50.182 29.6216 49.9513 29.8598 49.9023C35.2218 48.815 40.1037 45.9009 43.609 41.6948C47.1601 37.4329 49.1157 32.0364 49.1157 26.5C49.1157 21.0266 47.1989 15.6791 43.7202 11.4416C40.2908 7.26354 35.4954 4.32668 30.2181 3.17465C29.9798 3.12221 29.8298 2.88971 29.8828 2.65371C29.9357 2.41771 30.1705 2.26912 30.4087 2.32156C35.8802 3.51729 40.8503 6.56079 44.4068 10.8909C48.0126 15.284 50 20.8273 50 26.5018C50 32.2409 47.972 37.835 44.2903 42.2525C40.6579 46.6124 35.596 49.6331 30.0381 50.7607C30.0081 50.7642 29.9781 50.7677 29.9481 50.7677Z" fill="url(#paint2_linear)"/>
<path d="M19.6265 50.6767C19.5948 50.6767 19.563 50.6732 19.5295 50.6662C14.0722 49.46 9.1161 46.413 5.57379 42.0864C1.9803 37.6986 0 32.1622 0 26.5C0 20.836 1.9803 15.2997 5.57556 10.9101C9.11963 6.58349 14.0774 3.53649 19.5348 2.33202C19.773 2.28133 20.0078 2.42817 20.0607 2.66417C20.1137 2.90017 19.9636 3.13267 19.7254 3.18511C14.4604 4.34762 9.67736 7.28624 6.25861 11.4608C2.79219 15.6965 0.882488 21.0371 0.882488 26.5C0.882488 31.9629 2.79219 37.3035 6.25861 41.5375C9.67736 45.712 14.4569 48.6506 19.7218 49.8149C19.9601 49.8673 20.1101 50.1016 20.0572 50.3376C20.0113 50.5386 19.8277 50.6767 19.6265 50.6767Z" fill="url(#paint3_linear)"/>
<path d="M24.9991 45.1107C20.8814 45.1107 16.972 43.8153 13.6944 41.3662C10.5228 38.9974 8.14887 35.6288 7.00869 31.8825C6.9381 31.6518 7.07047 31.407 7.30345 31.3371C7.53642 31.2672 7.78352 31.3983 7.85412 31.629C8.94134 35.1987 11.204 38.4101 14.2274 40.6669C17.3515 43.0007 21.0773 44.2348 25.0009 44.2348C28.9438 44.2348 32.6838 42.9902 35.8166 40.6354C38.8489 38.3559 41.108 35.1218 42.1794 31.5259C42.2482 31.2951 42.4935 31.1623 42.7283 31.2305C42.9613 31.2986 43.0954 31.5416 43.0266 31.7724C41.9023 35.5449 39.5319 38.9397 36.3514 41.3294C33.0615 43.8031 29.1362 45.1107 24.9991 45.1107Z" fill="url(#paint4_linear)"/>
<path d="M7.38466 21.8342C7.34407 21.8342 7.30171 21.829 7.26111 21.8168C7.02637 21.7486 6.89223 21.5073 6.96107 21.2748C8.07653 17.4901 10.4451 14.083 13.6309 11.6828C16.9226 9.20222 20.8532 7.89111 24.9991 7.89111C29.1292 7.89111 33.0474 9.19347 36.332 11.6566C39.509 14.0393 41.8811 17.4254 43.0107 21.1874C43.0795 21.4182 42.9472 21.6629 42.7142 21.7311C42.4812 21.7993 42.2341 21.6682 42.1653 21.4374C41.0886 17.8502 38.8277 14.6249 35.799 12.3541C32.6697 10.0064 28.935 8.76693 24.9991 8.76693C21.0473 8.76693 17.3003 10.0168 14.1639 12.3803C11.1282 14.6686 8.87077 17.9149 7.80649 21.5231C7.75177 21.7101 7.57704 21.8342 7.38466 21.8342Z" fill="url(#paint5_linear)"/>
<path d="M24.9991 4.35286C26.2127 4.35286 27.1965 3.37844 27.1965 2.17643C27.1965 0.974421 26.2127 0 24.9991 0C23.7855 0 22.8017 0.974421 22.8017 2.17643C22.8017 3.37844 23.7855 4.35286 24.9991 4.35286Z" fill="url(#paint6_linear)"/>
<path d="M24.8879 53C26.1015 53 27.0853 52.0256 27.0853 50.8236C27.0853 49.6216 26.1015 48.6472 24.8879 48.6472C23.6743 48.6472 22.6905 49.6216 22.6905 50.8236C22.6905 52.0256 23.6743 53 24.8879 53Z" fill="url(#paint7_linear)"/>
<path d="M6.6522 28.6765C7.86579 28.6765 8.84959 27.702 8.84959 26.5C8.84959 25.298 7.86579 24.3236 6.6522 24.3236C5.43861 24.3236 4.4548 25.298 4.4548 26.5C4.4548 27.702 5.43861 28.6765 6.6522 28.6765Z" fill="url(#paint8_linear)"/>
<path d="M43.3478 28.6765C44.5613 28.6765 45.5452 27.702 45.5452 26.5C45.5452 25.298 44.5613 24.3236 43.3478 24.3236C42.1342 24.3236 41.1504 25.298 41.1504 26.5C41.1504 27.702 42.1342 28.6765 43.3478 28.6765Z" fill="url(#paint9_linear)"/>
<defs>
<linearGradient id="paint0_linear" x1="7.86264" y1="4.65376" x2="42.1543" y2="49.2151" gradientUnits="userSpaceOnUse">
<stop stop-color="#00FF50"/>
<stop offset="1" stop-color="#00A2FF"/>
</linearGradient>
<linearGradient id="paint1_linear" x1="7.86271" y1="4.65378" x2="42.1544" y2="49.2152" gradientUnits="userSpaceOnUse">
<stop stop-color="#00FF50"/>
<stop offset="1" stop-color="#00A2FF"/>
</linearGradient>
<linearGradient id="paint2_linear" x1="13.2744" y1="0.489253" x2="47.5661" y2="45.0506" gradientUnits="userSpaceOnUse">
<stop stop-color="#00FF50"/>
<stop offset="1" stop-color="#00A2FF"/>
</linearGradient>
<linearGradient id="paint3_linear" x1="2.29828" y1="8.9358" x2="36.59" y2="53.4972" gradientUnits="userSpaceOnUse">
<stop stop-color="#00FF50"/>
<stop offset="1" stop-color="#00A2FF"/>
</linearGradient>
<linearGradient id="paint4_linear" x1="4.84789" y1="6.97377" x2="39.1396" y2="51.5352" gradientUnits="userSpaceOnUse">
<stop stop-color="#00FF50"/>
<stop offset="1" stop-color="#00A2FF"/>
</linearGradient>
<linearGradient id="paint5_linear" x1="10.861" y1="2.3465" x2="45.1527" y2="46.9079" gradientUnits="userSpaceOnUse">
<stop stop-color="#00FF50"/>
<stop offset="1" stop-color="#00A2FF"/>
</linearGradient>
<linearGradient id="paint6_linear" x1="19.761" y1="-4.50241" x2="54.0527" y2="40.0589" gradientUnits="userSpaceOnUse">
<stop stop-color="#00FF50"/>
<stop offset="1" stop-color="#00A2FF"/>
</linearGradient>
<linearGradient id="paint7_linear" x1="-4.10519" y1="13.8635" x2="30.1866" y2="58.4248" gradientUnits="userSpaceOnUse">
<stop stop-color="#00FF50"/>
<stop offset="1" stop-color="#00A2FF"/>
</linearGradient>
<linearGradient id="paint8_linear" x1="-3.57854" y1="13.4583" x2="30.7132" y2="58.0196" gradientUnits="userSpaceOnUse">
<stop stop-color="#00FF50"/>
<stop offset="1" stop-color="#00A2FF"/>
</linearGradient>
<linearGradient id="paint9_linear" x1="19.3039" y1="-4.15061" x2="53.5956" y2="40.4107" gradientUnits="userSpaceOnUse">
<stop stop-color="#00FF50"/>
<stop offset="1" stop-color="#00A2FF"/>
</linearGradient>
</defs>
</svg>
