<svg width="52" height="55" viewBox="0 0 52 55" fill="none" xmlns="http://www.w3.org/2000/svg">
<g clip-path="url(#clip0)">
<g clip-path="url(#clip1)">
<path d="M26.3999 53.2973C26.153 53.2973 25.9525 53.0986 25.9525 52.8538V27.9003C25.9525 27.6555 26.153 27.4568 26.3999 27.4568C26.6469 27.4568 26.8474 27.6555 26.8474 27.9003V52.8538C26.8474 53.0986 26.6469 53.2973 26.3999 53.2973Z" fill="url(#paint0_linear)"/>
<path d="M26.4015 28.3438C26.2476 28.3438 26.0973 28.264 26.0132 28.122C25.8897 27.9092 25.9631 27.6395 26.1778 27.5171L47.9765 15.0412C48.1913 14.9188 48.4651 14.9915 48.5886 15.2044C48.7121 15.4173 48.6387 15.687 48.4239 15.8112L26.6253 28.287C26.5537 28.3243 26.4767 28.3438 26.4015 28.3438Z" fill="url(#paint1_linear)"/>
<path d="M26.3999 28.3438C26.3247 28.3438 26.2477 28.3243 26.1762 28.2853L4.59226 15.9301C4.3775 15.8077 4.30412 15.5362 4.42761 15.3233C4.5511 15.1104 4.82492 15.0377 5.03969 15.1601L26.6236 27.5135C26.8383 27.636 26.9117 27.9074 26.7864 28.1185C26.7059 28.264 26.5556 28.3438 26.3999 28.3438Z" fill="url(#paint2_linear)"/>
<path d="M40.5343 19.8102L26.4027 27.8986L12.2694 19.8102L26.4027 11.7201L40.5343 19.8102Z" fill="#1E1E1E"/>
<path d="M40.5331 35.9869L26.4016 44.077L26.3998 27.8985H26.4016L40.5331 19.8102V35.9869Z" fill="#1E1E1E"/>
<path d="M12.2665 19.8102L26.3998 27.8985V44.077L12.2665 35.9869V19.8102Z" fill="#1E1E1E"/>
<path d="M26.4017 53.2973C26.3229 53.2973 26.2442 53.276 26.1762 53.2387L4.37752 40.7611C4.23971 40.6813 4.15381 40.5358 4.15381 40.3761V15.4227C4.15381 15.2506 4.25224 15.1015 4.39721 15.0288L26.178 2.56183C26.3158 2.48199 26.4876 2.48199 26.6254 2.56183L48.4241 15.0394C48.5726 15.1246 48.6549 15.2825 48.6478 15.444V40.3779C48.6478 40.5358 48.5619 40.683 48.4241 40.7629L26.6254 53.2405C26.5574 53.276 26.4804 53.2973 26.4017 53.2973ZM5.04866 40.1189L26.3999 52.341L47.7529 40.1189V15.6781L26.4017 3.45778L5.04866 15.6781V40.1189Z" fill="white"/>
<path d="M40.5332 19.8101L26.4016 27.8985L12.2683 19.8101L26.4016 11.72L40.5332 19.8101Z" fill="url(#paint3_linear)"/>
<path d="M26.4028 28.342C26.3258 28.342 26.2489 28.3225 26.1791 28.2835L12.0457 20.1933C11.9079 20.1135 11.822 19.968 11.822 19.8083C11.822 19.6504 11.9079 19.5032 12.0457 19.4233L26.1791 11.3332C26.3169 11.2534 26.4887 11.2534 26.6265 11.3332L40.7598 19.4233C40.8976 19.5032 40.9835 19.6486 40.9835 19.8083C40.9835 19.9662 40.8976 20.1135 40.7598 20.1933L26.6265 28.2835C26.5567 28.3225 26.4797 28.342 26.4028 28.342ZM13.1643 19.8101L26.4028 27.3875L39.6413 19.8101L26.4028 12.2327L13.1643 19.8101Z" fill="#1E1E1E"/>
<path d="M40.5331 35.9868L26.4016 44.0769L26.3998 27.8984H26.4016L40.5331 19.8101V35.9868Z" fill="url(#paint4_linear)"/>
<path d="M26.4017 44.5205C26.3247 44.5205 26.2477 44.501 26.1779 44.4602C26.0401 44.3803 25.9542 44.2349 25.9542 44.077V27.8985C25.9542 27.7406 26.0401 27.5933 26.1779 27.5135L40.3113 19.4251C40.4491 19.3453 40.6209 19.3453 40.7587 19.4251C40.8965 19.5049 40.9824 19.6504 40.9824 19.8101V35.9868C40.9824 36.1447 40.8965 36.292 40.7587 36.3718L26.6254 44.462C26.5556 44.501 26.4786 44.5205 26.4017 44.5205ZM26.8491 28.1557V43.3088L40.0876 35.7313V20.5783L26.8491 28.1557Z" fill="#1E1E1E"/>
<path d="M12.2665 19.8101L26.3998 27.8984V44.0769L12.2665 35.9868V19.8101Z" fill="url(#paint5_linear)"/>
<path d="M26.3998 44.5205C26.3229 44.5205 26.2459 44.501 26.1761 44.4602L12.0428 36.3701C11.905 36.2902 11.8191 36.1447 11.8191 35.9851V19.8066C11.8191 19.6487 11.905 19.5014 12.0428 19.4216C12.1806 19.3417 12.3524 19.3417 12.4902 19.4216L26.6236 27.5117C26.7614 27.5915 26.8473 27.737 26.8473 27.8967V44.0752C26.8473 44.2331 26.7614 44.3803 26.6236 44.4584C26.5538 44.501 26.4768 44.5205 26.3998 44.5205ZM12.7139 35.7314L25.9524 43.3088V28.1557L12.7139 20.5783V35.7314Z" fill="#1E1E1E"/>
<path d="M33.4673 19.8102L26.4015 23.8553L19.334 19.8102L26.4015 15.7651L33.4673 19.8102Z" fill="#1E1E1E"/>
<path d="M30.3462 19.8103L26.4016 22.0688L22.4553 19.8103L26.4016 17.5518L30.3462 19.8103Z" fill="white"/>
<path d="M37.0002 33.9662L29.9344 38.0112V29.9211L37.0002 25.8778V33.9662Z" fill="#1E1E1E"/>
<path d="M35.4397 33.0738L31.4934 35.3322V30.8153L35.4397 28.5568V33.0738Z" fill="white"/>
<path d="M15.8011 25.876L22.8669 29.921V38.0112L15.8011 33.9661V25.876Z" fill="#1E1E1E"/>
<path d="M17.36 28.555L21.3063 30.8153V35.3305L17.36 33.072V28.555Z" fill="white"/>
<path d="M4.60125 40.8196C4.44734 40.8196 4.297 40.7398 4.21289 40.5979C4.0894 40.385 4.16278 40.1153 4.37754 39.9929L19.1104 31.5603C19.3252 31.4379 19.599 31.5107 19.7225 31.7235C19.846 31.9364 19.7726 32.2061 19.5579 32.3285L4.82497 40.7611C4.75338 40.8001 4.67642 40.8196 4.60125 40.8196Z" fill="url(#paint6_linear)"/>
<path d="M26.4017 20.2537C26.1547 20.2537 25.9542 20.055 25.9542 19.8101V3.16326C25.9542 2.91843 26.1547 2.71973 26.4017 2.71973C26.6486 2.71973 26.8491 2.91843 26.8491 3.16326V19.8101C26.8491 20.055 26.6486 20.2537 26.4017 20.2537Z" fill="url(#paint7_linear)"/>
<path d="M48.2004 40.8196C48.1252 40.8196 48.0482 40.8001 47.9766 40.7611L33.2438 32.3285C33.029 32.2061 32.9556 31.9347 33.0791 31.7218C33.2026 31.5089 33.4764 31.4361 33.6912 31.5586L48.4241 39.9911C48.6388 40.1135 48.7122 40.385 48.5887 40.5961C48.5046 40.7398 48.3543 40.8196 48.2004 40.8196Z" fill="url(#paint8_linear)"/>
<path d="M26.4 5.88315C27.9153 5.88315 29.1436 4.66547 29.1436 3.16338C29.1436 1.66129 27.9153 0.443604 26.4 0.443604C24.8847 0.443604 23.6564 1.66129 23.6564 3.16338C23.6564 4.66547 24.8847 5.88315 26.4 5.88315Z" fill="url(#paint9_linear)"/>
<path d="M26.3999 6.32663C24.6406 6.32663 23.2089 4.90731 23.2089 3.16331C23.2089 1.41932 24.6406 0 26.3999 0C28.1592 0 29.591 1.41932 29.591 3.16331C29.591 4.90731 28.1592 6.32663 26.3999 6.32663ZM26.3999 0.887076C25.1346 0.887076 24.1037 1.90721 24.1037 3.16331C24.1037 4.41941 25.1328 5.43955 26.3999 5.43955C27.6652 5.43955 28.6961 4.41941 28.6961 3.16331C28.6961 1.90721 27.6652 0.887076 26.3999 0.887076Z" fill="#1E1E1E"/>
<path d="M48.0089 18.2649C49.5241 18.2649 50.7525 17.0472 50.7525 15.5451C50.7525 14.043 49.5241 12.8253 48.0089 12.8253C46.4936 12.8253 45.2653 14.043 45.2653 15.5451C45.2653 17.0472 46.4936 18.2649 48.0089 18.2649Z" fill="url(#paint10_linear)"/>
<path d="M48.0088 18.7085C46.2495 18.7085 44.8177 17.2891 44.8177 15.5451C44.8177 13.8012 46.2495 12.3818 48.0088 12.3818C49.7681 12.3818 51.1999 13.8012 51.1999 15.5451C51.1999 17.2891 49.7681 18.7085 48.0088 18.7085ZM48.0088 13.2689C46.7435 13.2689 45.7126 14.289 45.7126 15.5451C45.7126 16.7995 46.7417 17.8214 48.0088 17.8214C49.2741 17.8214 50.305 16.8012 50.305 15.5451C50.305 14.2908 49.2741 13.2689 48.0088 13.2689Z" fill="#1E1E1E"/>
<path d="M48.0089 42.9753C49.5241 42.9753 50.7525 41.7576 50.7525 40.2555C50.7525 38.7534 49.5241 37.5358 48.0089 37.5358C46.4936 37.5358 45.2653 38.7534 45.2653 40.2555C45.2653 41.7576 46.4936 42.9753 48.0089 42.9753Z" fill="url(#paint11_linear)"/>
<path d="M48.0088 43.4188C46.2495 43.4188 44.8177 41.9995 44.8177 40.2555C44.8177 38.5115 46.2495 37.0922 48.0088 37.0922C49.7681 37.0922 51.1999 38.5115 51.1999 40.2555C51.1999 41.9995 49.7681 43.4188 48.0088 43.4188ZM48.0088 37.9793C46.7435 37.9793 45.7126 38.9994 45.7126 40.2555C45.7126 41.5099 46.7417 42.5318 48.0088 42.5318C49.2741 42.5318 50.305 41.5116 50.305 40.2555C50.305 39.0012 49.2741 37.9793 48.0088 37.9793Z" fill="#1E1E1E"/>
<path d="M26.4016 55.3553C27.9168 55.3553 29.1452 54.1376 29.1452 52.6355C29.1452 51.1335 27.9168 49.9158 26.4016 49.9158C24.8863 49.9158 23.658 51.1335 23.658 52.6355C23.658 54.1376 24.8863 55.3553 26.4016 55.3553Z" fill="url(#paint12_linear)"/>
<path d="M26.4016 55.7971C24.6423 55.7971 23.2106 54.3778 23.2106 52.6338C23.2106 50.8898 24.6423 49.4705 26.4016 49.4705C28.1609 49.4705 29.5927 50.8898 29.5927 52.6338C29.5927 54.3795 28.1609 55.7971 26.4016 55.7971ZM26.4016 50.3593C25.1363 50.3593 24.1054 51.3794 24.1054 52.6355C24.1054 53.8899 25.1345 54.9118 26.4016 54.9118C27.6669 54.9118 28.6978 53.8916 28.6978 52.6355C28.6978 51.3794 27.6687 50.3593 26.4016 50.3593Z" fill="#1E1E1E"/>
<path d="M4.79099 42.9487C6.30625 42.9487 7.53461 41.731 7.53461 40.2289C7.53461 38.7268 6.30625 37.5092 4.79099 37.5092C3.27573 37.5092 2.04736 38.7268 2.04736 40.2289C2.04736 41.731 3.27573 42.9487 4.79099 42.9487Z" fill="url(#paint13_linear)"/>
<path d="M4.7909 43.3923C3.03162 43.3923 1.59985 41.9729 1.59985 40.2289C1.59985 38.4849 3.03162 37.0656 4.7909 37.0656C6.55019 37.0656 7.98196 38.4849 7.98196 40.2289C7.98196 41.9729 6.55019 43.3923 4.7909 43.3923ZM4.7909 37.9527C3.52558 37.9527 2.49471 38.9728 2.49471 40.2289C2.49471 41.4833 3.52379 42.5052 4.7909 42.5052C6.05623 42.5052 7.0871 41.485 7.0871 40.2289C7.0871 38.9728 6.05623 37.9527 4.7909 37.9527Z" fill="#1E1E1E"/>
<path d="M4.79099 18.2384C6.30625 18.2384 7.53461 17.0207 7.53461 15.5186C7.53461 14.0165 6.30625 12.7988 4.79099 12.7988C3.27573 12.7988 2.04736 14.0165 2.04736 15.5186C2.04736 17.0207 3.27573 18.2384 4.79099 18.2384Z" fill="url(#paint14_linear)"/>
<path d="M4.7909 18.6819C3.03162 18.6819 1.59985 17.2625 1.59985 15.5185C1.59985 13.7745 3.03162 12.3552 4.7909 12.3552C6.55019 12.3552 7.98196 13.7745 7.98196 15.5185C7.98196 17.2625 6.55019 18.6819 4.7909 18.6819ZM4.7909 13.2423C3.52379 13.2423 2.49471 14.2642 2.49471 15.5185C2.49471 16.7729 3.52379 17.7948 4.7909 17.7948C6.05623 17.7948 7.0871 16.7746 7.0871 15.5185C7.0871 14.2642 6.05623 13.2423 4.7909 13.2423Z" fill="#1E1E1E"/>
</g>
</g>
<defs>
<linearGradient id="paint0_linear" x1="-0.293053" y1="13.9142" x2="55.3145" y2="70.009" gradientUnits="userSpaceOnUse">
<stop stop-color="#00FF50"/>
<stop offset="1" stop-color="#00A2FF"/>
</linearGradient>
<linearGradient id="paint1_linear" x1="14.596" y1="-0.845745" x2="70.2035" y2="55.2494" gradientUnits="userSpaceOnUse">
<stop stop-color="#00FF50"/>
<stop offset="1" stop-color="#00A2FF"/>
</linearGradient>
<linearGradient id="paint2_linear" x1="3.71928" y1="9.93655" x2="59.3268" y2="66.0317" gradientUnits="userSpaceOnUse">
<stop stop-color="#00FF50"/>
<stop offset="1" stop-color="#00A2FF"/>
</linearGradient>
<linearGradient id="paint3_linear" x1="10.08" y1="3.63103" x2="65.6875" y2="59.7261" gradientUnits="userSpaceOnUse">
<stop stop-color="#00FF50"/>
<stop offset="1" stop-color="#00A2FF"/>
</linearGradient>
<linearGradient id="paint4_linear" x1="7.49302" y1="6.1954" x2="63.1006" y2="62.2905" gradientUnits="userSpaceOnUse">
<stop stop-color="#00FF50"/>
<stop offset="1" stop-color="#00A2FF"/>
</linearGradient>
<linearGradient id="paint5_linear" x1="0.426559" y1="13.2005" x2="56.0341" y2="69.2956" gradientUnits="userSpaceOnUse">
<stop stop-color="#00FF50"/>
<stop offset="1" stop-color="#00A2FF"/>
</linearGradient>
<linearGradient id="paint6_linear" x1="-5.38282" y1="18.9595" x2="50.2247" y2="75.0546" gradientUnits="userSpaceOnUse">
<stop stop-color="#00FF50"/>
<stop offset="1" stop-color="#00A2FF"/>
</linearGradient>
<linearGradient id="paint7_linear" x1="14.2783" y1="-0.530876" x2="69.8858" y2="55.5648" gradientUnits="userSpaceOnUse">
<stop stop-color="#00FF50"/>
<stop offset="1" stop-color="#00A2FF"/>
</linearGradient>
<linearGradient id="paint8_linear" x1="9.05025" y1="4.65192" x2="64.6577" y2="60.747" gradientUnits="userSpaceOnUse">
<stop stop-color="#00FF50"/>
<stop offset="1" stop-color="#00A2FF"/>
</linearGradient>
<linearGradient id="paint9_linear" x1="18.4761" y1="-4.69179" x2="74.0836" y2="51.4033" gradientUnits="userSpaceOnUse">
<stop stop-color="#00FF50"/>
<stop offset="1" stop-color="#00A2FF"/>
</linearGradient>
<linearGradient id="paint10_linear" x1="23.035" y1="-9.21119" x2="78.6425" y2="46.8838" gradientUnits="userSpaceOnUse">
<stop stop-color="#00FF50"/>
<stop offset="1" stop-color="#00A2FF"/>
</linearGradient>
<linearGradient id="paint11_linear" x1="10.5717" y1="3.1439" x2="66.1791" y2="59.2389" gradientUnits="userSpaceOnUse">
<stop stop-color="#00FF50"/>
<stop offset="1" stop-color="#00A2FF"/>
</linearGradient>
<linearGradient id="paint12_linear" x1="-6.47577" y1="20.0429" x2="49.1317" y2="76.138" gradientUnits="userSpaceOnUse">
<stop stop-color="#00FF50"/>
<stop offset="1" stop-color="#00A2FF"/>
</linearGradient>
<linearGradient id="paint13_linear" x1="-11.0237" y1="24.5514" x2="44.5839" y2="80.6465" gradientUnits="userSpaceOnUse">
<stop stop-color="#00FF50"/>
<stop offset="1" stop-color="#00A2FF"/>
</linearGradient>
<linearGradient id="paint14_linear" x1="1.4394" y1="12.1968" x2="57.0469" y2="68.2919" gradientUnits="userSpaceOnUse">
<stop stop-color="#00FF50"/>
<stop offset="1" stop-color="#00A2FF"/>
</linearGradient>
<clipPath id="clip0">
<rect width="52" height="55" fill="white" transform="translate(-0.00012207)"/>
</clipPath>
<clipPath id="clip1">
<rect width="49.6" height="55.7971" fill="white" transform="translate(1.59985)"/>
</clipPath>
</defs>
</svg>
