<svg width="55" height="58" viewBox="0 0 55 58" fill="none" xmlns="http://www.w3.org/2000/svg">
<g clip-path="url(#clip0)">
<g clip-path="url(#clip1)">
<path d="M51.3584 19.6078C51.0803 19.6078 50.8546 19.3835 50.8546 19.1072V12.1462C50.8546 8.18417 47.6099 4.9589 43.6196 4.9589H32.6805C32.4024 4.9589 32.1767 4.73467 32.1767 4.45839C32.1767 4.18211 32.4024 3.95789 32.6805 3.95789H43.6196C48.1641 3.95789 51.8622 7.63161 51.8622 12.1462V19.1072C51.8622 19.3835 51.6365 19.6078 51.3584 19.6078Z" fill="url(#paint0_linear)"/>
<path d="M2.79557 23.5898C2.51746 23.5898 2.29175 23.3656 2.29175 23.0893V12.1462C2.29175 7.63161 5.98984 3.95789 10.5344 3.95789H17.5275C17.8056 3.95789 18.0313 4.18211 18.0313 4.45839C18.0313 4.73467 17.8056 4.9589 17.5275 4.9589H10.5344C6.54606 4.9589 3.2994 8.18217 3.2994 12.1462V23.0893C3.2994 23.3656 3.07369 23.5898 2.79557 23.5898Z" fill="url(#paint1_linear)"/>
<path d="M43.6196 53.2018H36.6264C36.3483 53.2018 36.1226 52.9776 36.1226 52.7013C36.1226 52.425 36.3483 52.2008 36.6264 52.2008H43.6196C47.6079 52.2008 50.8545 48.9775 50.8545 45.0135V34.1345C50.8545 33.8582 51.0802 33.634 51.3583 33.634C51.6364 33.634 51.8622 33.8582 51.8622 34.1345V45.0135C51.8622 49.5281 48.1641 53.2018 43.6196 53.2018Z" fill="url(#paint2_linear)"/>
<path d="M21.4694 53.2018H10.5344C5.98984 53.2018 2.29175 49.5281 2.29175 45.0135V38.0805C2.29175 37.8042 2.51746 37.58 2.79557 37.58C3.07369 37.58 3.2994 37.8042 3.2994 38.0805V45.0135C3.2994 48.9755 6.54405 52.2008 10.5344 52.2008H21.4694C21.7475 52.2008 21.9732 52.425 21.9732 52.7013C21.9732 52.9776 21.7475 53.2018 21.4694 53.2018Z" fill="url(#paint3_linear)"/>
<path d="M-0.84613 38.0805L2.79553 34.4628L6.4392 38.0805H-0.84613Z" fill="url(#paint4_linear)"/>
<path d="M27.0779 46.565C26.3182 46.565 25.5584 46.3708 24.8792 45.9824L13.005 39.1735C11.6487 38.3967 10.8063 36.9473 10.8063 35.3917V21.7719C10.8063 20.2163 11.6487 18.7668 13.005 17.9901L24.8792 11.1791C26.2355 10.4024 27.9203 10.4024 29.2746 11.1791L41.1488 17.9901C42.5051 18.7688 43.3475 20.2163 43.3475 21.7719V35.3917C43.3475 36.9473 42.5051 38.3967 41.1488 39.1735L29.2746 45.9824C28.5975 46.3708 27.8377 46.565 27.0779 46.565ZM25.383 12.044L13.5089 18.8549C12.4629 19.4535 11.814 20.5707 11.814 21.7699V35.3897C11.814 36.5889 12.4629 37.706 13.5089 38.3047L25.383 45.1136C26.429 45.7122 27.7269 45.7142 28.7708 45.1136L40.645 38.3047C41.6909 37.706 42.3398 36.5889 42.3398 35.3897V21.7699C42.3398 20.5707 41.6909 19.4535 40.645 18.8549L28.7708 12.044C27.7269 11.4454 26.429 11.4454 25.383 12.044Z" fill="url(#paint5_linear)"/>
<path d="M37.0437 22.865L27.078 28.5808L17.1103 22.865L27.078 17.1472L37.0437 22.865Z" fill="url(#paint6_linear)"/>
<path d="M37.0437 34.2966L27.078 40.0124V28.5808L37.0437 22.865V34.2966Z" fill="url(#paint7_linear)"/>
<path d="M17.1103 22.865L27.076 28.5808H27.078L27.076 40.0124L17.1103 34.2966V22.865Z" fill="url(#paint8_linear)"/>
<path d="M17.465 0.840698L21.1066 4.45837L17.465 8.07804V0.840698Z" fill="url(#paint9_linear)"/>
<path d="M55 19.1072L51.3583 22.7268L47.7147 19.1072H55Z" fill="url(#paint10_linear)"/>
<path d="M36.6265 56.319L32.9848 52.7013L36.6265 49.0816V56.319Z" fill="url(#paint11_linear)"/>
<path d="M27.0779 7.01094C28.497 7.01094 29.6475 5.86811 29.6475 4.45835C29.6475 3.04859 28.497 1.90576 27.0779 1.90576C25.6588 1.90576 24.5084 3.04859 24.5084 4.45835C24.5084 5.86811 25.6588 7.01094 27.0779 7.01094Z" fill="url(#paint12_linear)"/>
<path d="M51.3584 31.1334C52.7775 31.1334 53.9279 29.9905 53.9279 28.5808C53.9279 27.171 52.7775 26.0282 51.3584 26.0282C49.9393 26.0282 48.7889 27.171 48.7889 28.5808C48.7889 29.9905 49.9393 31.1334 51.3584 31.1334Z" fill="url(#paint13_linear)"/>
<path d="M27.0779 55.2539C28.497 55.2539 29.6475 54.111 29.6475 52.7013C29.6475 51.2915 28.497 50.1487 27.0779 50.1487C25.6588 50.1487 24.5084 51.2915 24.5084 52.7013C24.5084 54.111 25.6588 55.2539 27.0779 55.2539Z" fill="url(#paint14_linear)"/>
<path d="M2.79559 31.1334C4.21469 31.1334 5.36511 29.9905 5.36511 28.5808C5.36511 27.171 4.21469 26.0282 2.79559 26.0282C1.37649 26.0282 0.226074 27.171 0.226074 28.5808C0.226074 29.9905 1.37649 31.1334 2.79559 31.1334Z" fill="url(#paint15_linear)"/>
<path d="M27.078 29.0813C26.9913 29.0813 26.9047 29.0593 26.8261 29.0153L16.8604 23.2995C16.7052 23.2094 16.6085 23.0452 16.6085 22.865C16.6085 22.6868 16.7052 22.5207 16.8604 22.4306L26.8261 16.7148C26.9812 16.6247 27.1747 16.6247 27.3299 16.7148L37.2956 22.4306C37.4508 22.5207 37.5475 22.6848 37.5475 22.865C37.5475 23.0432 37.4508 23.2094 37.2956 23.2995L27.3299 29.0153C27.2513 29.0593 27.1646 29.0813 27.078 29.0813ZM18.1179 22.865L27.076 28.0042L36.034 22.865L27.076 17.7258L18.1179 22.865Z" fill="#F6F6FF"/>
<path d="M27.078 40.5129C26.9913 40.5129 26.9047 40.4909 26.8261 40.4468C26.6709 40.3567 26.5742 40.1926 26.5742 40.0124V28.5808C26.5742 28.4026 26.6709 28.2364 26.8261 28.1484L36.7918 22.4326C36.9469 22.3425 37.1404 22.3425 37.2956 22.4326C37.4508 22.5227 37.5475 22.6868 37.5475 22.867V34.2986C37.5475 34.4768 37.4508 34.6429 37.2956 34.733L27.3299 40.4488C27.2513 40.4909 27.1646 40.5129 27.078 40.5129ZM27.5818 28.8691V39.1455L36.5399 34.0063V23.7299L27.5818 28.8691Z" fill="#F6F6FF"/>
<path d="M27.076 40.5129C26.9893 40.5129 26.9026 40.4909 26.824 40.4469L16.8584 34.7311C16.7032 34.641 16.6064 34.4768 16.6064 34.2966V22.865C16.6064 22.6869 16.7032 22.5207 16.8584 22.4306C17.0135 22.3405 17.207 22.3405 17.3622 22.4306L27.3279 28.1464C27.4831 28.2365 27.5798 28.4007 27.5798 28.5788V40.0104C27.5798 40.1886 27.4831 40.3548 27.3279 40.4449C27.2513 40.4909 27.1646 40.5129 27.076 40.5129ZM17.6141 34.0083L26.5721 39.1476V28.8711L17.6141 23.7319V34.0083Z" fill="#F6F6FF"/>
</g>
</g>
<defs>
<linearGradient id="paint0_linear" x1="22.0821" y1="-13.7218" x2="72.4882" y2="38.727" gradientUnits="userSpaceOnUse">
<stop stop-color="#00FF50"/>
<stop offset="1" stop-color="#00A2FF"/>
</linearGradient>
<linearGradient id="paint1_linear" x1="2.09316" y1="5.48862" x2="52.4993" y2="57.9374" gradientUnits="userSpaceOnUse">
<stop stop-color="#00FF50"/>
<stop offset="1" stop-color="#00A2FF"/>
</linearGradient>
<linearGradient id="paint2_linear" x1="4.65613" y1="3.02538" x2="55.0623" y2="55.4742" gradientUnits="userSpaceOnUse">
<stop stop-color="#00FF50"/>
<stop offset="1" stop-color="#00A2FF"/>
</linearGradient>
<linearGradient id="paint3_linear" x1="-15.3176" y1="22.2213" x2="35.0885" y2="74.6701" gradientUnits="userSpaceOnUse">
<stop stop-color="#00FF50"/>
<stop offset="1" stop-color="#00A2FF"/>
</linearGradient>
<linearGradient id="paint4_linear" x1="-13.9389" y1="20.8963" x2="36.4672" y2="73.3451" gradientUnits="userSpaceOnUse">
<stop stop-color="#00FF50"/>
<stop offset="1" stop-color="#00A2FF"/>
</linearGradient>
<linearGradient id="paint5_linear" x1="3.38225" y1="4.2496" x2="53.7884" y2="56.6984" gradientUnits="userSpaceOnUse">
<stop stop-color="#00FF50"/>
<stop offset="1" stop-color="#00A2FF"/>
</linearGradient>
<linearGradient id="paint6_linear" x1="6.25812" y1="1.48582" x2="56.6642" y2="53.9347" gradientUnits="userSpaceOnUse">
<stop stop-color="#00FF50"/>
<stop offset="1" stop-color="#00A2FF"/>
</linearGradient>
<linearGradient id="paint7_linear" x1="4.51871" y1="3.15746" x2="54.9248" y2="55.6063" gradientUnits="userSpaceOnUse">
<stop stop-color="#00FF50"/>
<stop offset="1" stop-color="#00A2FF"/>
</linearGradient>
<linearGradient id="paint8_linear" x1="-0.629381" y1="8.10506" x2="49.7768" y2="60.5539" gradientUnits="userSpaceOnUse">
<stop stop-color="#00FF50"/>
<stop offset="1" stop-color="#00A2FF"/>
</linearGradient>
<linearGradient id="paint9_linear" x1="10.5821" y1="-2.6698" x2="60.9883" y2="49.7791" gradientUnits="userSpaceOnUse">
<stop stop-color="#00FF50"/>
<stop offset="1" stop-color="#00A2FF"/>
</linearGradient>
<linearGradient id="paint10_linear" x1="20.69" y1="-12.384" x2="71.0961" y2="40.0647" gradientUnits="userSpaceOnUse">
<stop stop-color="#00FF50"/>
<stop offset="1" stop-color="#00A2FF"/>
</linearGradient>
<linearGradient id="paint11_linear" x1="-3.84899" y1="11.1991" x2="46.5572" y2="63.648" gradientUnits="userSpaceOnUse">
<stop stop-color="#00FF50"/>
<stop offset="1" stop-color="#00A2FF"/>
</linearGradient>
<linearGradient id="paint12_linear" x1="15.5167" y1="-7.41219" x2="65.9228" y2="45.0366" gradientUnits="userSpaceOnUse">
<stop stop-color="#00FF50"/>
<stop offset="1" stop-color="#00A2FF"/>
</linearGradient>
<linearGradient id="paint13_linear" x1="15.925" y1="-7.80468" x2="66.3311" y2="44.6443" gradientUnits="userSpaceOnUse">
<stop stop-color="#00FF50"/>
<stop offset="1" stop-color="#00A2FF"/>
</linearGradient>
<linearGradient id="paint14_linear" x1="-8.75092" y1="15.9103" x2="41.6552" y2="68.3591" gradientUnits="userSpaceOnUse">
<stop stop-color="#00FF50"/>
<stop offset="1" stop-color="#00A2FF"/>
</linearGradient>
<linearGradient id="paint15_linear" x1="-9.15951" y1="16.303" x2="41.2466" y2="68.7518" gradientUnits="userSpaceOnUse">
<stop stop-color="#00FF50"/>
<stop offset="1" stop-color="#00A2FF"/>
</linearGradient>
<clipPath id="clip0">
<rect width="55" height="58" fill="white" transform="translate(0 0.00012207)"/>
</clipPath>
<clipPath id="clip1">
<rect width="55.8462" height="55.4783" fill="white" transform="translate(-0.84613 0.840698)"/>
</clipPath>
</defs>
</svg>
