<svg width="53" height="56" viewBox="0 0 53 56" fill="none" xmlns="http://www.w3.org/2000/svg">
<g clip-path="url(#clip0)">
<path d="M26.5002 52.7523C26.2606 52.7523 26.0662 52.5587 26.0662 52.3201V28.0018C26.0662 27.7632 26.2606 27.5695 26.5002 27.5695C26.7397 27.5695 26.9341 27.7632 26.9341 28.0018V52.3201C26.9341 52.5587 26.7397 52.7523 26.5002 52.7523Z" fill="url(#paint0_linear)"/>
<path d="M26.5018 28.434C26.3526 28.434 26.2067 28.3562 26.1252 28.2179C26.0054 28.0104 26.0766 27.7476 26.2849 27.6283L47.4277 15.47C47.636 15.3507 47.9015 15.4216 48.0213 15.6291C48.1411 15.8366 48.0699 16.0994 47.8616 16.2204L26.7188 28.3787C26.6494 28.415 26.5747 28.434 26.5018 28.434Z" fill="url(#paint1_linear)"/>
<path d="M26.5002 28.434C26.4272 28.434 26.3526 28.415 26.2832 28.3769L5.34867 16.3362C5.14037 16.2169 5.0692 15.9524 5.18897 15.7449C5.30875 15.5374 5.57433 15.4666 5.78264 15.5859L26.7171 27.6248C26.9254 27.7441 26.9966 28.0087 26.8751 28.2144C26.797 28.3562 26.6512 28.434 26.5002 28.434Z" fill="url(#paint2_linear)"/>
<path d="M40.2097 20.1176L26.5033 28.0001L12.7952 20.1176L26.5033 12.2334L40.2097 20.1176Z" fill="#F6F6FF"/>
<path d="M40.2081 35.8825L26.5018 43.7667L26.5 28H26.5018L40.2081 20.1176V35.8825Z" fill="#F6F6FF"/>
<path d="M12.7919 20.1176L26.5001 28V43.7667L12.7919 35.8825V20.1176Z" fill="#F6F6FF"/>
<path d="M26.5019 52.7523C26.4255 52.7523 26.3491 52.7316 26.2831 52.6953L5.14034 40.5353C5.00668 40.4575 4.92336 40.3157 4.92336 40.1601V15.8418C4.92336 15.6741 5.01883 15.5289 5.15943 15.458L26.2849 3.30835C26.4185 3.23055 26.5852 3.23055 26.7188 3.30835L47.8616 15.4684C48.0057 15.5513 48.0856 15.7052 48.0786 15.8626V40.1618C48.0786 40.3157 47.9953 40.4592 47.8616 40.537L26.7188 52.697C26.6529 52.7316 26.5782 52.7523 26.5019 52.7523ZM5.79129 39.9094L26.5001 51.8204L47.2107 39.9094V16.0908L26.5019 4.18149L5.79129 16.0908V39.9094Z" fill="url(#paint3_linear)"/>
<path d="M40.2082 20.1176L26.5019 28.0001L12.7937 20.1176L26.5019 12.2334L40.2082 20.1176Z" fill="url(#paint4_linear)"/>
<path d="M26.5018 28.4323C26.4272 28.4323 26.3525 28.4133 26.2848 28.3752L12.5767 20.491C12.4431 20.4132 12.3598 20.2715 12.3598 20.1158C12.3598 19.962 12.4431 19.8185 12.5767 19.7407L26.2848 11.8564C26.4185 11.7786 26.5851 11.7786 26.7188 11.8564L40.4269 19.7407C40.5606 19.8185 40.6439 19.9602 40.6439 20.1158C40.6439 20.2697 40.5606 20.4132 40.4269 20.491L26.7188 28.3752C26.6511 28.4133 26.5765 28.4323 26.5018 28.4323ZM13.6617 20.1176L26.5018 27.5021L39.342 20.1176L26.5018 12.733L13.6617 20.1176Z" fill="#F6F6FF"/>
<path d="M40.2082 35.8825L26.5019 43.7667L26.5001 28H26.5019L40.2082 20.1176V35.8825Z" fill="url(#paint5_linear)"/>
<path d="M26.5018 44.199C26.4272 44.199 26.3526 44.18 26.2849 44.1403C26.1512 44.0625 26.0679 43.9207 26.0679 43.7668V28.0001C26.0679 27.8462 26.1512 27.7027 26.2849 27.6249L39.9929 19.7424C40.1266 19.6646 40.2933 19.6646 40.4269 19.7424C40.5606 19.8202 40.6439 19.962 40.6439 20.1176V35.8826C40.6439 36.0365 40.5606 36.18 40.4269 36.2578L26.7188 44.142C26.6511 44.18 26.5765 44.199 26.5018 44.199ZM26.9358 28.2508V43.0181L39.776 35.6336V20.8663L26.9358 28.2508Z" fill="#F6F6FF"/>
<path d="M12.7919 20.1176L26.5001 28V43.7667L12.7919 35.8825V20.1176Z" fill="url(#paint6_linear)"/>
<path d="M26.5001 44.199C26.4255 44.199 26.3508 44.1799 26.2831 44.1402L12.575 36.256C12.4414 36.1782 12.358 36.0364 12.358 35.8808V20.1141C12.358 19.9602 12.4414 19.8167 12.575 19.7389C12.7087 19.6611 12.8753 19.6611 13.009 19.7389L26.7171 27.6231C26.8507 27.7009 26.9341 27.8427 26.9341 27.9983V43.765C26.9341 43.9189 26.8507 44.0624 26.7171 44.1384C26.6494 44.1799 26.5747 44.199 26.5001 44.199ZM13.226 35.6335L26.0661 43.0181V28.2507L13.226 20.8662V35.6335Z" fill="#F6F6FF"/>
<path d="M33.355 20.1176L26.5018 24.0597L19.6469 20.1176L26.5018 16.1755L33.355 20.1176Z" fill="#F6F6FF"/>
<path d="M30.3277 20.1176L26.5019 22.3186L22.6743 20.1176L26.5019 17.9166L30.3277 20.1176Z" fill="#F6F6FF"/>
<path d="M36.7816 33.9132L29.9284 37.8553V29.9711L36.7816 26.0308V33.9132Z" fill="#F6F6FF"/>
<path d="M35.268 33.0436L31.4404 35.2446V30.8425L35.268 28.6415V33.0436Z" fill="#F6F6FF"/>
<path d="M16.2203 26.0291L23.0735 29.9712V37.8554L16.2203 33.9133V26.0291Z" fill="#F6F6FF"/>
<path d="M17.7322 28.6398L21.5598 30.8425V35.2428L17.7322 33.0418V28.6398Z" fill="#F6F6FF"/>
<path d="M5.35733 40.5923C5.20804 40.5923 5.06223 40.5145 4.98065 40.3762C4.86087 40.1687 4.93204 39.9059 5.14034 39.7866L19.43 31.5687C19.6383 31.4494 19.9039 31.5203 20.0236 31.7278C20.1434 31.9352 20.0722 32.1981 19.8639 32.3174L5.57431 40.5353C5.50488 40.5733 5.43023 40.5923 5.35733 40.5923Z" fill="url(#paint7_linear)"/>
<path d="M26.5018 20.5498C26.2623 20.5498 26.0679 20.3561 26.0679 20.1175V3.89441C26.0679 3.65581 26.2623 3.46216 26.5018 3.46216C26.7414 3.46216 26.9358 3.65581 26.9358 3.89441V20.1175C26.9358 20.3561 26.7414 20.5498 26.5018 20.5498Z" fill="url(#paint8_linear)"/>
<path d="M47.6446 40.5923C47.5717 40.5923 47.4971 40.5733 47.4277 40.5353L33.138 32.3174C32.9297 32.1981 32.8586 31.9335 32.9783 31.7261C33.0981 31.5186 33.3637 31.4477 33.572 31.567L47.8616 39.7849C48.0699 39.9042 48.1411 40.1687 48.0213 40.3745C47.9397 40.5145 47.7939 40.5923 47.6446 40.5923Z" fill="url(#paint9_linear)"/>
<path d="M26.5001 6.54499C27.9698 6.54499 29.1612 5.3583 29.1612 3.89444C29.1612 2.43059 27.9698 1.2439 26.5001 1.2439C25.0304 1.2439 23.839 2.43059 23.839 3.89444C23.839 5.3583 25.0304 6.54499 26.5001 6.54499Z" fill="url(#paint10_linear)"/>
<path d="M26.5001 6.97723C24.7937 6.97723 23.405 5.59404 23.405 3.89444C23.405 2.19484 24.7937 0.811646 26.5001 0.811646C28.2064 0.811646 29.5951 2.19484 29.5951 3.89444C29.5951 5.59404 28.2064 6.97723 26.5001 6.97723ZM26.5001 1.67614C25.2728 1.67614 24.273 2.67031 24.273 3.89444C24.273 5.11857 25.2711 6.11274 26.5001 6.11274C27.7273 6.11274 28.7272 5.11857 28.7272 3.89444C28.7272 2.67031 27.7273 1.67614 26.5001 1.67614Z" fill="#F6F6FF"/>
<path d="M47.4589 18.6116C48.9286 18.6116 50.12 17.4249 50.12 15.9611C50.12 14.4972 48.9286 13.3105 47.4589 13.3105C45.9892 13.3105 44.7978 14.4972 44.7978 15.9611C44.7978 17.4249 45.9892 18.6116 47.4589 18.6116Z" fill="url(#paint11_linear)"/>
<path d="M47.4589 19.0439C45.7526 19.0439 44.3639 17.6607 44.3639 15.9611C44.3639 14.2615 45.7526 12.8783 47.4589 12.8783C49.1653 12.8783 50.554 14.2615 50.554 15.9611C50.554 17.6607 49.1653 19.0439 47.4589 19.0439ZM47.4589 13.7428C46.2317 13.7428 45.2318 14.737 45.2318 15.9611C45.2318 17.1835 46.2299 18.1794 47.4589 18.1794C48.6862 18.1794 49.686 17.1852 49.686 15.9611C49.686 14.7387 48.6862 13.7428 47.4589 13.7428Z" fill="#F6F6FF"/>
<path d="M47.4589 42.6931C48.9286 42.6931 50.12 41.5064 50.12 40.0425C50.12 38.5787 48.9286 37.392 47.4589 37.392C45.9892 37.392 44.7978 38.5787 44.7978 40.0425C44.7978 41.5064 45.9892 42.6931 47.4589 42.6931Z" fill="url(#paint12_linear)"/>
<path d="M47.4589 43.1253C45.7526 43.1253 44.3639 41.7421 44.3639 40.0425C44.3639 38.3429 45.7526 36.9597 47.4589 36.9597C49.1653 36.9597 50.554 38.3429 50.554 40.0425C50.554 41.7421 49.1653 43.1253 47.4589 43.1253ZM47.4589 37.8242C46.2317 37.8242 45.2318 38.8184 45.2318 40.0425C45.2318 41.2649 46.2299 42.2608 47.4589 42.2608C48.6862 42.2608 49.686 41.2666 49.686 40.0425C49.686 38.8201 48.6862 37.8242 47.4589 37.8242Z" fill="#F6F6FF"/>
<path d="M26.5019 54.7579C27.9716 54.7579 29.163 53.5712 29.163 52.1074C29.163 50.6435 27.9716 49.4568 26.5019 49.4568C25.0322 49.4568 23.8408 50.6435 23.8408 52.1074C23.8408 53.5712 25.0322 54.7579 26.5019 54.7579Z" fill="url(#paint13_linear)"/>
<path d="M26.5019 55.1885C24.7955 55.1885 23.4068 53.8053 23.4068 52.1057C23.4068 50.4061 24.7955 49.0229 26.5019 49.0229C28.2082 49.0229 29.5969 50.4061 29.5969 52.1057C29.5969 53.807 28.2082 55.1885 26.5019 55.1885ZM26.5019 49.8891C25.2746 49.8891 24.2748 50.8833 24.2748 52.1074C24.2748 53.3298 25.2729 54.3257 26.5019 54.3257C27.7291 54.3257 28.729 53.3315 28.729 52.1074C28.729 50.8833 27.7309 49.8891 26.5019 49.8891Z" fill="#F6F6FF"/>
<path d="M5.54134 42.6671C7.01101 42.6671 8.20242 41.4804 8.20242 40.0166C8.20242 38.5527 7.01101 37.366 5.54134 37.366C4.07167 37.366 2.88026 38.5527 2.88026 40.0166C2.88026 41.4804 4.07167 42.6671 5.54134 42.6671Z" fill="url(#paint14_linear)"/>
<path d="M5.54132 43.0994C3.83496 43.0994 2.44627 41.7162 2.44627 40.0166C2.44627 38.317 3.83496 36.9338 5.54132 36.9338C7.24767 36.9338 8.63636 38.317 8.63636 40.0166C8.63636 41.7162 7.24767 43.0994 5.54132 43.0994ZM5.54132 37.7983C4.31406 37.7983 3.31421 38.7924 3.31421 40.0166C3.31421 41.239 4.31233 42.2349 5.54132 42.2349C6.76857 42.2349 7.76843 41.2407 7.76843 40.0166C7.76843 38.7924 6.76857 37.7983 5.54132 37.7983Z" fill="#F6F6FF"/>
<path d="M5.54134 18.5856C7.01101 18.5856 8.20242 17.3989 8.20242 15.9351C8.20242 14.4712 7.01101 13.2845 5.54134 13.2845C4.07167 13.2845 2.88026 14.4712 2.88026 15.9351C2.88026 17.3989 4.07167 18.5856 5.54134 18.5856Z" fill="url(#paint15_linear)"/>
<path d="M5.54132 19.0179C3.83496 19.0179 2.44627 17.6347 2.44627 15.9351C2.44627 14.2355 3.83496 12.8523 5.54132 12.8523C7.24767 12.8523 8.63636 14.2355 8.63636 15.9351C8.63636 17.6347 7.24767 19.0179 5.54132 19.0179ZM5.54132 13.7168C4.31233 13.7168 3.31421 14.7127 3.31421 15.9351C3.31421 17.1575 4.31233 18.1534 5.54132 18.1534C6.76857 18.1534 7.76843 17.1592 7.76843 15.9351C7.76843 14.7127 6.76857 13.7168 5.54132 13.7168Z" fill="#F6F6FF"/>
</g>
<defs>
<linearGradient id="paint0_linear" x1="0.166086" y1="12.6759" x2="41.2216" y2="55.8638" gradientUnits="userSpaceOnUse">
<stop stop-color="#00FF50"/>
<stop offset="1" stop-color="#00A2FF"/>
</linearGradient>
<linearGradient id="paint1_linear" x1="14.8439" y1="-1.27727" x2="55.8999" y2="41.9114" gradientUnits="userSpaceOnUse">
<stop stop-color="#00FF50"/>
<stop offset="1" stop-color="#00A2FF"/>
</linearGradient>
<linearGradient id="paint2_linear" x1="3.80374" y1="9.21775" x2="44.8592" y2="52.4058" gradientUnits="userSpaceOnUse">
<stop stop-color="#00FF50"/>
<stop offset="1" stop-color="#00A2FF"/>
</linearGradient>
<linearGradient id="paint3_linear" x1="6.26321" y1="6.87976" x2="47.3187" y2="50.0678" gradientUnits="userSpaceOnUse">
<stop stop-color="#00FF50"/>
<stop offset="1" stop-color="#00A2FF"/>
</linearGradient>
<linearGradient id="paint4_linear" x1="10.2162" y1="3.12199" x2="51.2716" y2="46.31" gradientUnits="userSpaceOnUse">
<stop stop-color="#00FF50"/>
<stop offset="1" stop-color="#00A2FF"/>
</linearGradient>
<linearGradient id="paint5_linear" x1="7.87336" y1="5.34906" x2="48.9288" y2="48.5371" gradientUnits="userSpaceOnUse">
<stop stop-color="#00FF50"/>
<stop offset="1" stop-color="#00A2FF"/>
</linearGradient>
<linearGradient id="paint6_linear" x1="0.699752" y1="12.1684" x2="41.7552" y2="55.3564" gradientUnits="userSpaceOnUse">
<stop stop-color="#00FF50"/>
<stop offset="1" stop-color="#00A2FF"/>
</linearGradient>
<linearGradient id="paint7_linear" x1="3.84447" y1="25.7504" x2="40.32" y2="69.4915" gradientUnits="userSpaceOnUse">
<stop stop-color="#00FF50"/>
<stop offset="1" stop-color="#00A2FF"/>
</linearGradient>
<linearGradient id="paint8_linear" x1="23.9569" y1="8.97859" x2="60.4324" y2="52.7198" gradientUnits="userSpaceOnUse">
<stop stop-color="#00FF50"/>
<stop offset="1" stop-color="#00A2FF"/>
</linearGradient>
<linearGradient id="paint9_linear" x1="20.3048" y1="12.0242" x2="56.7802" y2="55.7653" gradientUnits="userSpaceOnUse">
<stop stop-color="#00FF50"/>
<stop offset="1" stop-color="#00A2FF"/>
</linearGradient>
<linearGradient id="paint10_linear" x1="18.3506" y1="-4.6108" x2="59.406" y2="38.5773" gradientUnits="userSpaceOnUse">
<stop stop-color="#00FF50"/>
<stop offset="1" stop-color="#00A2FF"/>
</linearGradient>
<linearGradient id="paint11_linear" x1="23.2677" y1="-9.28515" x2="64.3232" y2="33.9029" gradientUnits="userSpaceOnUse">
<stop stop-color="#00FF50"/>
<stop offset="1" stop-color="#00A2FF"/>
</linearGradient>
<linearGradient id="paint12_linear" x1="11.1925" y1="2.19382" x2="52.248" y2="45.3818" gradientUnits="userSpaceOnUse">
<stop stop-color="#00FF50"/>
<stop offset="1" stop-color="#00A2FF"/>
</linearGradient>
<linearGradient id="paint13_linear" x1="-5.8239" y1="18.3701" x2="35.2315" y2="61.5581" gradientUnits="userSpaceOnUse">
<stop stop-color="#00FF50"/>
<stop offset="1" stop-color="#00A2FF"/>
</linearGradient>
<linearGradient id="paint14_linear" x1="-10.7305" y1="23.0343" x2="30.3249" y2="66.2224" gradientUnits="userSpaceOnUse">
<stop stop-color="#00FF50"/>
<stop offset="1" stop-color="#00A2FF"/>
</linearGradient>
<linearGradient id="paint15_linear" x1="1.34437" y1="11.5556" x2="42.3998" y2="54.7437" gradientUnits="userSpaceOnUse">
<stop stop-color="#00FF50"/>
<stop offset="1" stop-color="#00A2FF"/>
</linearGradient>
<clipPath id="clip0">
<rect width="48.1077" height="54.3768" fill="white" transform="translate(2.44627 0.811646)"/>
</clipPath>
</defs>
</svg>
