<svg width="50" height="54" viewBox="0 0 50 54" fill="none" xmlns="http://www.w3.org/2000/svg">
<path d="M20.5408 16.137L14.2345 22.5009V31.4991L20.5408 37.8631H29.4592L35.7637 31.4991V22.5009L29.4592 16.137H20.5408Z" stroke="white" stroke-width="1.5" stroke-miterlimit="10" stroke-linecap="round" stroke-linejoin="round"/>
<path d="M28.9933 27L24.9991 31.0307L21.005 27L24.9991 22.9694L28.9933 27Z" fill="url(#paint0_linear)"/>
<path d="M29.9481 51.7255C29.7433 51.7255 29.5598 51.5795 29.5156 51.3693C29.4662 51.1288 29.6215 50.8937 29.8598 50.8439C35.2218 49.736 40.1037 46.7669 43.609 42.4815C47.1601 38.1391 49.1157 32.6408 49.1157 27C49.1157 21.4233 47.1989 15.9749 43.7202 11.6574C40.2908 7.40057 35.4954 4.40829 30.2181 3.23453C29.9798 3.18109 29.8298 2.94421 29.8828 2.70375C29.9357 2.4633 30.1704 2.31191 30.4087 2.36534C35.8801 3.58363 40.8503 6.68456 44.4067 11.0964C48.0126 15.5723 50 21.2203 50 27.0018C50 32.8492 47.972 38.5488 44.2903 43.0497C40.6579 47.4918 35.596 50.5696 30.0381 51.7184C30.0081 51.722 29.9781 51.7255 29.9481 51.7255Z" fill="url(#paint1_linear)"/>
<path d="M19.6265 51.6352C19.5948 51.6352 19.563 51.6317 19.5295 51.6245C14.0722 50.3956 9.1161 47.2911 5.57379 42.8828C1.9803 38.4122 0 32.7714 0 27.0023C0 21.2315 1.9803 15.5907 5.57556 11.1183C9.11963 6.71004 14.0774 3.60554 19.5348 2.37835C19.773 2.3267 20.0078 2.47631 20.0607 2.71677C20.1137 2.95722 19.9636 3.19411 19.7254 3.24754C14.4604 4.43198 9.67736 7.42605 6.2586 11.6794C2.79219 15.995 0.882488 21.4363 0.882488 27.0023C0.882488 32.5683 2.79219 38.0097 6.2586 42.3235C9.67736 46.5768 14.4569 49.5709 19.7218 50.7571C19.9601 50.8106 20.1101 51.0492 20.0572 51.2897C20.0113 51.4945 19.8277 51.6352 19.6265 51.6352Z" fill="url(#paint2_linear)"/>
<path d="M24.9991 45.9618C20.8814 45.9618 16.972 44.642 13.6945 42.1467C10.5228 39.7333 8.14891 36.301 7.00874 32.4841C6.93814 32.249 7.07052 31.9996 7.30349 31.9284C7.53647 31.8571 7.78356 31.9907 7.85416 32.2258C8.94139 35.8629 11.2041 39.1348 14.2275 41.4342C17.3515 43.812 21.0774 45.0695 25.0009 45.0695C28.9439 45.0695 32.6838 43.8013 35.8167 41.4022C38.8489 39.0796 41.1081 35.7845 42.1794 32.1207C42.2482 31.8856 42.4936 31.7503 42.7283 31.8197C42.9613 31.8892 43.0954 32.1368 43.0266 32.3719C41.9023 36.2155 39.5319 39.6745 36.3515 42.1093C33.0615 44.6296 29.1362 45.9618 24.9991 45.9618Z" fill="url(#paint3_linear)"/>
<path d="M7.38463 22.2463C7.34404 22.2463 7.30168 22.2409 7.26108 22.2284C7.02634 22.159 6.8922 21.9132 6.96104 21.6763C8.0765 17.8202 10.4451 14.3488 13.6309 11.9033C16.9226 9.37588 20.8532 8.04004 24.9991 8.04004C29.1291 8.04004 33.0474 9.36697 36.332 11.8766C39.509 14.3042 41.8811 17.7543 43.0107 21.5872C43.0795 21.8223 42.9471 22.0717 42.7141 22.1412C42.4812 22.2106 42.2341 22.077 42.1652 21.8419C41.0886 18.1871 38.8277 14.9009 35.799 12.5872C32.6697 10.1952 28.935 8.93238 24.9991 8.93238C21.0473 8.93238 17.3003 10.2059 14.1639 12.614C11.1281 14.9454 8.87074 18.253 7.80646 21.9292C7.75174 22.1198 7.57701 22.2463 7.38463 22.2463Z" fill="url(#paint4_linear)"/>
<path d="M24.9992 4.43499C26.2127 4.43499 27.1966 3.44218 27.1966 2.21749C27.1966 0.992806 26.2127 0 24.9992 0C23.7856 0 22.8018 0.992806 22.8018 2.21749C22.8018 3.44218 23.7856 4.43499 24.9992 4.43499Z" fill="white"/>
<path d="M24.888 54C26.1015 54 27.0854 53.0072 27.0854 51.7825C27.0854 50.5578 26.1015 49.565 24.888 49.565C23.6744 49.565 22.6906 50.5578 22.6906 51.7825C22.6906 53.0072 23.6744 54 24.888 54Z" fill="white"/>
<path d="M6.65211 29.2175C7.8657 29.2175 8.8495 28.2247 8.8495 27C8.8495 25.7753 7.8657 24.7825 6.65211 24.7825C5.43852 24.7825 4.45471 25.7753 4.45471 27C4.45471 28.2247 5.43852 29.2175 6.65211 29.2175Z" fill="white"/>
<path d="M43.3478 29.2175C44.5614 29.2175 45.5452 28.2247 45.5452 27C45.5452 25.7753 44.5614 24.7825 43.3478 24.7825C42.1342 24.7825 41.1504 25.7753 41.1504 27C41.1504 28.2247 42.1342 29.2175 43.3478 29.2175Z" fill="white"/>
<defs>
<linearGradient id="paint0_linear" x1="7.98911" y1="9.83401" x2="69.5526" y2="70.8395" gradientUnits="userSpaceOnUse">
<stop stop-color="#00FF50"/>
<stop offset="1" stop-color="#00A2FF"/>
</linearGradient>
<linearGradient id="paint1_linear" x1="11.8938" y1="5.89349" x2="73.4573" y2="66.899" gradientUnits="userSpaceOnUse">
<stop stop-color="#00FF50"/>
<stop offset="1" stop-color="#00A2FF"/>
</linearGradient>
<linearGradient id="paint2_linear" x1="3.95699" y1="13.9053" x2="65.5205" y2="74.9108" gradientUnits="userSpaceOnUse">
<stop stop-color="#00FF50"/>
<stop offset="1" stop-color="#00A2FF"/>
</linearGradient>
<linearGradient id="paint3_linear" x1="4.60301" y1="13.2511" x2="66.1666" y2="74.2565" gradientUnits="userSpaceOnUse">
<stop stop-color="#00FF50"/>
<stop offset="1" stop-color="#00A2FF"/>
</linearGradient>
<linearGradient id="paint4_linear" x1="11.3593" y1="6.433" x2="72.9228" y2="67.4385" gradientUnits="userSpaceOnUse">
<stop stop-color="#00FF50"/>
<stop offset="1" stop-color="#00A2FF"/>
</linearGradient>
</defs>
</svg>
