<svg width="55" height="58" viewBox="0 0 55 58" fill="none" xmlns="http://www.w3.org/2000/svg">
<g clip-path="url(#clip0)">
<g clip-path="url(#clip1)">
<path d="M51.3582 19.6076C51.0801 19.6076 50.8544 19.3834 50.8544 19.1071V12.1461C50.8544 8.18405 47.6097 4.95878 43.6194 4.95878H32.6803C32.4022 4.95878 32.1765 4.73455 32.1765 4.45827C32.1765 4.18199 32.4022 3.95776 32.6803 3.95776H43.6194C48.1639 3.95776 51.862 7.63149 51.862 12.1461V19.1071C51.862 19.3834 51.6363 19.6076 51.3582 19.6076Z" fill="url(#paint0_linear)"/>
<path d="M2.79557 23.5897C2.51746 23.5897 2.29175 23.3654 2.29175 23.0892V12.1461C2.29175 7.63149 5.98984 3.95776 10.5344 3.95776H17.5275C17.8056 3.95776 18.0313 4.18199 18.0313 4.45827C18.0313 4.73455 17.8056 4.95878 17.5275 4.95878H10.5344C6.54606 4.95878 3.2994 8.18205 3.2994 12.1461V23.0892C3.2994 23.3654 3.07369 23.5897 2.79557 23.5897Z" fill="url(#paint1_linear)"/>
<path d="M43.6195 53.2017H36.6264C36.3483 53.2017 36.1226 52.9775 36.1226 52.7012C36.1226 52.4249 36.3483 52.2007 36.6264 52.2007H43.6195C47.6078 52.2007 50.8545 48.9774 50.8545 45.0134V34.1344C50.8545 33.8581 51.0802 33.6339 51.3583 33.6339C51.6364 33.6339 51.8621 33.8581 51.8621 34.1344V45.0134C51.8621 49.528 48.164 53.2017 43.6195 53.2017Z" fill="url(#paint2_linear)"/>
<path d="M21.4694 53.2017H10.5344C5.98984 53.2017 2.29175 49.5279 2.29175 45.0134V38.0803C2.29175 37.8041 2.51746 37.5798 2.79557 37.5798C3.07369 37.5798 3.2994 37.8041 3.2994 38.0803V45.0134C3.2994 48.9754 6.54405 52.2007 10.5344 52.2007H21.4694C21.7475 52.2007 21.9732 52.4249 21.9732 52.7012C21.9732 52.9774 21.7475 53.2017 21.4694 53.2017Z" fill="url(#paint3_linear)"/>
<path d="M-0.846191 38.0804L2.79547 34.4627L6.43914 38.0804H-0.846191Z" fill="url(#paint4_linear)"/>
<path d="M27.078 46.5649C26.3182 46.5649 25.5584 46.3707 24.8793 45.9823L13.0051 39.1734C11.6488 38.3966 10.8064 36.9471 10.8064 35.3916V21.7718C10.8064 20.2162 11.6488 18.7667 13.0051 17.9899L24.8793 11.179C26.2356 10.4022 27.9204 10.4022 29.2747 11.179L41.1488 17.9899C42.5051 18.7687 43.3475 20.2162 43.3475 21.7718V35.3916C43.3475 36.9471 42.5051 38.3966 41.1488 39.1734L29.2747 45.9823C28.5975 46.3707 27.8377 46.5649 27.078 46.5649ZM25.3831 12.0439L13.5089 18.8548C12.463 19.4534 11.814 20.5705 11.814 21.7698V35.3896C11.814 36.5888 12.463 37.7059 13.5089 38.3045L25.3831 45.1134C26.4291 45.712 27.7269 45.714 28.7708 45.1134L40.645 38.3045C41.691 37.7059 42.3399 36.5888 42.3399 35.3896V21.7698C42.3399 20.5705 41.691 19.4534 40.645 18.8548L28.7708 12.0439C27.7269 11.4453 26.4291 11.4453 25.3831 12.0439Z" fill="white"/>
<path d="M37.0437 22.8649L27.0781 28.5807L17.1104 22.8649L27.0781 17.1471L37.0437 22.8649Z" fill="url(#paint5_linear)"/>
<path d="M27.0786 29.0812C26.992 29.0812 26.9053 29.0592 26.8267 29.0151L16.861 23.2993C16.7059 23.2093 16.6091 23.0451 16.6091 22.8649C16.6091 22.6867 16.7059 22.5206 16.861 22.4305L26.8267 16.7147C26.9819 16.6246 27.1754 16.6246 27.3306 16.7147L37.2962 22.4305C37.4514 22.5206 37.5482 22.6847 37.5482 22.8649C37.5482 23.0431 37.4514 23.2093 37.2962 23.2993L27.3306 29.0151C27.252 29.0592 27.1653 29.0812 27.0786 29.0812ZM18.1186 22.8649L27.0766 28.0041L36.0347 22.8649L27.0766 17.7257L18.1186 22.8649Z" fill="#1E1E1E"/>
<path d="M37.0436 34.2965L27.0779 40.0123V28.5807L37.0436 22.8649V34.2965Z" fill="url(#paint6_linear)"/>
<path d="M27.0778 40.5128C26.9911 40.5128 26.9045 40.4908 26.8259 40.4467C26.6707 40.3566 26.574 40.1925 26.574 40.0123V28.5807C26.574 28.4025 26.6707 28.2363 26.8259 28.1482L36.7916 22.4324C36.9467 22.3423 37.1402 22.3423 37.2954 22.4324C37.4506 22.5225 37.5473 22.6867 37.5473 22.8669V34.2985C37.5473 34.4767 37.4506 34.6428 37.2954 34.7329L27.3297 40.4487C27.2511 40.4908 27.1645 40.5128 27.0778 40.5128ZM27.5816 28.869V39.1454L36.5397 34.0062V23.7298L27.5816 28.869Z" fill="#1E1E1E"/>
<path d="M17.1101 22.8649L27.0758 28.5807H27.0778L27.0758 40.0123L17.1101 34.2965V22.8649Z" fill="url(#paint7_linear)"/>
<path d="M27.076 40.5128C26.9893 40.5128 26.9026 40.4908 26.8241 40.4467L16.8584 34.731C16.7032 34.6409 16.6064 34.4767 16.6064 34.2965V22.8649C16.6064 22.6867 16.7032 22.5206 16.8584 22.4305C17.0135 22.3404 17.207 22.3404 17.3622 22.4305L27.3279 28.1463C27.4831 28.2364 27.5798 28.4005 27.5798 28.5787V40.0103C27.5798 40.1885 27.4831 40.3547 27.3279 40.4447C27.2513 40.4908 27.1646 40.5128 27.076 40.5128ZM17.6141 34.0082L26.5721 39.1474V28.871L17.6141 23.7318V34.0082Z" fill="#1E1E1E"/>
<path d="M17.4648 0.840576L21.1065 4.45824L17.4648 8.07792V0.840576Z" fill="url(#paint8_linear)"/>
<path d="M54.9999 19.1071L51.3583 22.7267L47.7146 19.1071H54.9999Z" fill="url(#paint9_linear)"/>
<path d="M36.6265 56.3189L32.9849 52.7012L36.6265 49.0815V56.3189Z" fill="url(#paint10_linear)"/>
<path d="M27.0781 7.01082C28.4972 7.01082 29.6476 5.86798 29.6476 4.45823C29.6476 3.04847 28.4972 1.90564 27.0781 1.90564C25.659 1.90564 24.5085 3.04847 24.5085 4.45823C24.5085 5.86798 25.659 7.01082 27.0781 7.01082Z" fill="white"/>
<path d="M52.3436 30.9386C53.6547 30.3991 54.2773 28.9058 53.7342 27.6034C53.1911 26.3009 51.688 25.6824 50.3769 26.2219C49.0658 26.7614 48.4432 28.2547 48.9863 29.5571C49.5294 30.8596 51.0325 31.4781 52.3436 30.9386Z" fill="white"/>
<path d="M28.8943 54.5054C29.8978 53.5086 29.8978 51.8924 28.8943 50.8956C27.8909 49.8987 26.264 49.8987 25.2605 50.8956C24.2571 51.8924 24.2571 53.5086 25.2605 54.5054C26.264 55.5023 27.8909 55.5023 28.8943 54.5054Z" fill="white"/>
<path d="M5.29637 29.1687C5.62248 27.7968 4.76726 26.4219 3.38619 26.098C2.00512 25.774 0.621175 26.6236 0.295065 27.9956C-0.0310456 29.3675 0.82417 30.7424 2.20524 31.0663C3.58632 31.3903 4.97026 30.5407 5.29637 29.1687Z" fill="white"/>
</g>
</g>
<defs>
<linearGradient id="paint0_linear" x1="22.8138" y1="-12.3651" x2="85.4553" y2="50.6918" gradientUnits="userSpaceOnUse">
<stop stop-color="#00FF50"/>
<stop offset="1" stop-color="#00A2FF"/>
</linearGradient>
<linearGradient id="paint1_linear" x1="3.33177" y1="6.98884" x2="65.9733" y2="70.0457" gradientUnits="userSpaceOnUse">
<stop stop-color="#00FF50"/>
<stop offset="1" stop-color="#00A2FF"/>
</linearGradient>
<linearGradient id="paint2_linear" x1="5.32652" y1="5.00705" x2="67.968" y2="68.064" gradientUnits="userSpaceOnUse">
<stop stop-color="#00FF50"/>
<stop offset="1" stop-color="#00A2FF"/>
</linearGradient>
<linearGradient id="paint3_linear" x1="-14.1404" y1="24.3459" x2="48.501" y2="87.4028" gradientUnits="userSpaceOnUse">
<stop stop-color="#00FF50"/>
<stop offset="1" stop-color="#00A2FF"/>
</linearGradient>
<linearGradient id="paint4_linear" x1="-12.5852" y1="22.8009" x2="50.0563" y2="85.8577" gradientUnits="userSpaceOnUse">
<stop stop-color="#00FF50"/>
<stop offset="1" stop-color="#00A2FF"/>
</linearGradient>
<linearGradient id="paint5_linear" x1="7.21431" y1="3.13188" x2="69.8558" y2="66.1888" gradientUnits="userSpaceOnUse">
<stop stop-color="#00FF50"/>
<stop offset="1" stop-color="#00A2FF"/>
</linearGradient>
<linearGradient id="paint6_linear" x1="5.38988" y1="4.94409" x2="68.0314" y2="68.001" gradientUnits="userSpaceOnUse">
<stop stop-color="#00FF50"/>
<stop offset="1" stop-color="#00A2FF"/>
</linearGradient>
<linearGradient id="paint7_linear" x1="0.406677" y1="9.89439" x2="63.0482" y2="72.9513" gradientUnits="userSpaceOnUse">
<stop stop-color="#00FF50"/>
<stop offset="1" stop-color="#00A2FF"/>
</linearGradient>
<linearGradient id="paint8_linear" x1="11.6717" y1="-1.29629" x2="74.3132" y2="61.7606" gradientUnits="userSpaceOnUse">
<stop stop-color="#00FF50"/>
<stop offset="1" stop-color="#00A2FF"/>
</linearGradient>
<linearGradient id="paint9_linear" x1="21.2452" y1="-10.8067" x2="83.8866" y2="52.2502" gradientUnits="userSpaceOnUse">
<stop stop-color="#00FF50"/>
<stop offset="1" stop-color="#00A2FF"/>
</linearGradient>
<linearGradient id="paint10_linear" x1="-3.02844" y1="13.3071" x2="59.6131" y2="76.3641" gradientUnits="userSpaceOnUse">
<stop stop-color="#00FF50"/>
<stop offset="1" stop-color="#00A2FF"/>
</linearGradient>
<clipPath id="clip0">
<rect width="55" height="58" fill="white"/>
</clipPath>
<clipPath id="clip1">
<rect width="55.8462" height="55.4783" fill="white" transform="translate(-0.846191 0.840576)"/>
</clipPath>
</defs>
</svg>
