<svg width="19" height="15" viewBox="0 0 19 15" fill="none" xmlns="http://www.w3.org/2000/svg">
<path fill-rule="evenodd" clip-rule="evenodd" d="M2.59924 14.6138H16.6547C17.6698 14.6138 18.4952 13.7792 18.4952 12.7544V2.16776C18.4952 1.14122 17.6698 0.306641 16.6547 0.306641H2.59924C1.58412 0.306641 0.758789 1.14122 0.758789 2.16776V12.7527C0.758789 13.7792 1.58412 14.6138 2.59924 14.6138ZM8.24947 8.23906C8.5646 8.5151 8.95061 8.65192 9.33603 8.65192C9.72145 8.65192 10.1069 8.5151 10.4208 8.24087L17.1376 2.40358C17.3473 2.22216 17.3742 1.89851 17.1985 1.68213C17.0228 1.46576 16.7094 1.43562 16.4991 1.61885L9.77885 7.45674C9.52054 7.68215 9.14566 7.68215 8.88735 7.45674L2.16707 1.61885C1.95738 1.43743 1.64342 1.46576 1.46769 1.68213C1.29197 1.89851 1.31891 2.22216 1.52861 2.40358L8.24947 8.23906Z" fill="#1D2040"/>
</svg>
