<svg width="26" height="26" viewBox="0 0 26 26" fill="none" xmlns="http://www.w3.org/2000/svg">
<path fill-rule="evenodd" clip-rule="evenodd" d="M21.8144 15.452C21.3742 15.7361 20.8559 15.7713 20.462 15.5444C19.9615 15.2559 19.6864 14.5803 19.6864 13.6407V10.8296C19.6864 9.47209 19.1607 8.50613 18.2817 8.24531C16.792 7.80224 15.6717 9.66314 15.2506 10.362L12.6234 14.711V9.39542C12.5939 8.17241 12.2048 7.44087 11.4662 7.22028C10.9774 7.07447 10.2461 7.13292 9.53575 8.2428L3.64974 17.8924C2.86175 16.365 2.45096 14.6644 2.45309 12.9381C2.45309 7.12538 7.01564 2.39676 12.6234 2.39676C18.2312 2.39676 22.7931 7.12538 22.7931 12.9381C22.7931 12.9482 22.7956 12.957 22.7962 12.9664C22.7962 12.9764 22.7943 12.9852 22.795 12.9953C22.8479 14.1209 22.4909 15.0158 21.8144 15.452ZM25.0528 12.9387V12.9092L25.0522 12.8803C25.0208 5.80119 19.458 0.0544434 12.6228 0.0544434C5.76974 0.0544434 0.193359 5.83387 0.193359 12.9381C0.193359 20.0417 5.76974 25.8218 12.6234 25.8218C15.7683 25.8218 18.7698 24.6013 21.0739 22.3859C21.5318 21.946 21.5589 21.205 21.1342 20.7312C21.0342 20.6186 20.9132 20.5276 20.7784 20.4633C20.6435 20.3991 20.4974 20.363 20.3487 20.3572C20.2 20.3513 20.0517 20.3758 19.9124 20.4293C19.773 20.4827 19.6456 20.5639 19.5374 20.6683C17.6698 22.4739 15.1955 23.48 12.6234 23.4795C9.6207 23.4795 6.91899 22.1226 5.05569 19.9707L10.3637 11.2689V15.2804C10.3637 17.2073 11.0956 17.8301 11.7093 18.0124C12.3236 18.1946 13.2624 18.0702 14.2479 16.4362L17.1675 11.6039C17.2611 11.448 17.3472 11.3135 17.426 11.1972V13.6407C17.426 15.4419 18.1327 16.8824 19.3644 17.5919C20.4749 18.2317 21.871 18.1739 23.0086 17.4411C24.3874 16.5518 25.1304 14.9134 25.0528 12.9387Z" fill="#1D2040"/>
</svg>
