<svg width="18" height="15" viewBox="0 0 18 15" fill="none" xmlns="http://www.w3.org/2000/svg">
<path d="M5.96513 3.07417V14.1449C5.96513 14.3017 5.92449 14.4362 5.84618 14.5452C5.76727 14.6537 5.65011 14.7109 5.49589 14.7109C5.3877 14.7109 5.28249 14.685 5.18087 14.6349L0.730541 12.4361C0.595447 12.3742 0.483665 12.2668 0.391012 12.1206C0.29836 11.9738 0.25293 11.827 0.25293 11.6819V0.921948C0.25293 0.796352 0.284013 0.689035 0.349169 0.601177C0.411934 0.513319 0.504587 0.468506 0.627128 0.468506C0.716194 0.468506 0.856071 0.515088 1.04855 0.610022L5.93883 3.02582C5.95437 3.04646 5.96513 3.06179 5.96513 3.07417Z" fill="#1D2040"/>
<path d="M6.57764 4.02783L11.6861 12.2012L6.57764 9.69038V4.02783Z" fill="#1D2040"/>
<path d="M17.3983 4.19775V14.1451C17.3983 14.302 17.3529 14.4299 17.2638 14.526C17.1748 14.6245 17.054 14.6729 16.8998 14.6729C16.7462 14.6729 16.5973 14.6316 16.4503 14.5502L12.2324 12.4746L17.3983 4.19775Z" fill="#1D2040"/>
<path d="M17.3705 3.06482C17.3705 3.08369 16.5516 4.40387 14.9155 7.02361C13.28 9.64512 12.3212 11.1776 12.0414 11.6245L8.30957 5.64151L11.4096 0.667964C11.5178 0.492253 11.684 0.403809 11.9063 0.403809C11.9954 0.403809 12.0779 0.423266 12.155 0.461003L17.3317 3.00998C17.3562 3.02001 17.3705 3.03888 17.3705 3.06482Z" fill="#1D2040"/>
</svg>
