<svg width="44" height="44" viewBox="0 0 44 44" fill="none" xmlns="http://www.w3.org/2000/svg">
<path fill-rule="evenodd" clip-rule="evenodd" d="M7.91167 6.875C7.21766 3.3 9.99369 0 13.6025 0C16.795 0 19.4322 2.6125 19.4322 5.775V12.925C20.265 12.925 21.0978 12.7875 21.9306 12.7875C22.7634 12.7875 23.4574 12.7875 24.2902 12.925V5.775C24.2902 2.6125 26.9274 0 30.1199 0C33.7287 0 36.5047 3.3 35.9495 6.875L34.4227 15.2625C39.836 17.6 44 21.725 44 26.8125V29.975C44 34.2375 41.224 37.8125 37.1987 40.15C33.1735 42.625 27.8991 44 21.9306 44C15.9621 44 10.6877 42.625 6.66246 40.15C2.77603 37.8125 0 34.2375 0 29.975V26.8125C0 21.725 4.02524 17.6 9.43849 15.2625L7.91167 6.875ZM32.3407 16.3625L34.1451 6.4625C34.5615 3.9875 32.7571 1.65 30.1199 1.65C27.8991 1.65 26.0946 3.4375 26.0946 5.6375V14.7125C25.5394 14.575 24.8454 14.575 24.2902 14.575C23.4574 14.575 22.7634 14.4375 21.9306 14.4375C21.0978 14.4375 20.265 14.4375 19.4322 14.575C18.877 14.575 18.183 14.7125 17.6278 14.7125V5.775C17.6278 3.575 15.8233 1.7875 13.6025 1.7875C11.1041 1.7875 9.16088 4.125 9.71609 6.6L11.5205 16.5C5.69085 18.7 1.80442 22.55 1.80442 26.95V30.1125C1.80442 36.85 10.8265 42.35 21.9306 42.35C33.0347 42.35 42.0568 36.85 42.0568 30.1125V26.95C42.1956 22.4125 38.3091 18.5625 32.3407 16.3625Z" fill="#633001"/>
<path d="M42.1956 29.975C42.1956 36.7125 33.1735 42.2125 22.0694 42.2125C10.9653 42.2125 1.94322 36.7125 1.94322 29.975V26.8125H42.3344V29.975H42.1956Z" fill="#FEDC90"/>
<path fill-rule="evenodd" clip-rule="evenodd" d="M9.71609 6.59998C9.16089 4.12498 11.1041 1.78748 13.6025 1.78748C15.8234 1.78748 17.6278 3.57498 17.6278 5.77498V14.85C19.0158 14.7125 20.4038 14.575 21.9306 14.575C23.3186 14.575 24.7066 14.7125 26.0946 14.85V5.77498C26.0946 3.57498 27.8991 1.78748 30.1199 1.78748C32.6183 1.78748 34.5615 4.12498 34.1451 6.59998L32.3407 16.5C38.1704 18.7 42.1956 22.55 42.1956 26.95C42.1956 33.6875 33.1735 39.1875 22.0694 39.1875C10.9653 39.1875 1.94322 33.6875 1.94322 26.95C1.94322 22.55 5.82966 18.7 11.6593 16.5L9.71609 6.59998Z" fill="#D1884F"/>
<path d="M16.3785 25.9875C16.3785 27.775 15.4069 29.2875 14.1577 29.2875C12.9085 29.2875 11.9369 27.775 11.9369 25.9875C11.9369 24.2 12.9085 22.6875 14.1577 22.6875C15.4069 22.6875 16.3785 24.2 16.3785 25.9875Z" fill="#633001"/>
<path d="M31.7855 25.9875C31.7855 27.775 30.8139 29.2875 29.5647 29.2875C28.3154 29.2875 27.3438 27.775 27.3438 25.9875C27.3438 24.2 28.3154 22.6875 29.5647 22.6875C30.8139 22.6875 31.7855 24.2 31.7855 25.9875Z" fill="#633001"/>
</svg>
