<svg width="46" height="40" viewBox="0 0 46 40" fill="none" xmlns="http://www.w3.org/2000/svg">
<g clip-path="url(#clip0)">
<path d="M34.7396 12.1791C33.901 11.7015 32.8229 11.7015 31.8646 12.1791L25.1562 16.1194L20.6042 18.6269L14.0156 22.5672C13.1771 23.0448 12.099 23.0448 11.1406 22.5672L5.98958 19.4627C5.15104 18.9851 4.55208 18.0299 4.55208 16.9552V10.9851C4.55208 10.0299 5.03125 9.07465 5.98958 8.47763L11.1406 5.49256C11.9792 5.01494 13.0573 5.01494 14.0156 5.49256L19.1667 8.59703C20.0052 9.07465 20.6042 10.0299 20.6042 11.1045V15.0448L25.1562 12.4179V8.35823C25.1562 7.403 24.6771 6.44778 23.7187 5.85077L14.1354 0.238824C13.2969 -0.238788 12.2187 -0.238788 11.2604 0.238824L1.4375 5.97017C0.479167 6.44778 0 7.403 0 8.35823V19.5821C0 20.5373 0.479167 21.4926 1.4375 22.0896L11.1406 27.7015C11.9792 28.1791 13.0573 28.1791 14.0156 27.7015L20.6042 23.8806L25.1562 21.2538L31.7448 17.4329C32.5833 16.9552 33.6615 16.9552 34.6198 17.4329L39.7708 20.4179C40.6094 20.8955 41.2083 21.8508 41.2083 22.9254V28.8955C41.2083 29.8508 40.7292 30.806 39.7708 31.403L34.7396 34.3881C33.901 34.8657 32.8229 34.8657 31.8646 34.3881L26.7135 31.403C25.875 30.9254 25.276 29.9702 25.276 28.8955V25.0746L20.724 27.7015V31.6418C20.724 32.597 21.2031 33.5523 22.1615 34.1493L31.8646 39.7612C32.7031 40.2388 33.7812 40.2388 34.7396 39.7612L44.4427 34.1493C45.2812 33.6717 45.8802 32.7164 45.8802 31.6418V20.2985C45.8802 19.3433 45.401 18.3881 44.4427 17.7911L34.7396 12.1791Z" fill="#8247E5"/>
</g>
<defs>
<clipPath id="clip0">
<rect width="46" height="40" fill="white"/>
</clipPath>
</defs>
</svg>
