<svg width="41" height="41" viewBox="0 0 41 41" fill="none" xmlns="http://www.w3.org/2000/svg">
<circle cx="20.5" cy="20.5" r="20.5" fill="white"/>
<path d="M21.3659 20.3572C20.6471 19.93 19.8607 19.6814 19.0539 19.4899C17.9892 19.2373 16.9077 19.1383 15.8169 19.193C15.0485 19.2315 14.2866 19.3386 13.5793 19.6762C13.4944 19.7169 13.4123 19.7646 13.3343 19.817C12.7615 20.2012 12.6748 20.7129 13.0886 21.2659C13.1742 21.3799 13.2697 21.487 13.3849 21.6273C13.0136 21.6291 12.6841 21.5581 12.3558 21.4929C11.4774 21.3188 10.6514 21.0138 9.94362 20.4486C9.60252 20.1768 9.2911 19.8712 9.06351 19.4922C9.15664 19.3409 9.31206 19.2699 9.45758 19.1861C9.73815 19.0685 9.99194 18.9002 10.2696 18.7739C11.5182 18.2041 12.8226 17.8542 14.1882 17.7262C14.7301 17.6755 15.2726 17.6237 15.8181 17.6441C17.4316 17.7041 19.0073 17.9864 20.5475 18.4666C20.9422 18.5894 21.3339 18.7239 21.7443 18.8653C21.7437 18.7495 21.6779 18.6785 21.6337 18.6034C21.4684 18.3211 21.2786 18.0551 21.0662 17.8048C20.9893 17.7145 20.8816 17.6348 20.884 17.4945C21.1005 17.544 21.3176 17.5923 21.5342 17.6435C21.5906 17.6569 21.6599 17.6918 21.6971 17.6441C21.7466 17.5812 21.6721 17.5265 21.6401 17.4788C21.3205 17.0032 20.923 16.5969 20.4963 16.218C20.7221 16.087 20.955 16.1941 21.175 16.2221C23.4353 16.5102 25.4941 17.3158 27.2904 18.7245C29.6683 20.59 31.205 22.9999 31.8528 25.9633C32.07 26.9581 32.1223 27.9686 32.0496 28.9756C31.9221 30.7265 31.372 32.3418 30.3371 33.7767C30.2696 33.871 30.177 33.9461 30.1269 34.0532C29.8918 34.4024 29.5478 34.6393 29.2299 34.8978C27.5116 36.2913 25.5081 37.0172 23.3497 37.3559C21.6634 37.6208 19.9683 37.6592 18.2733 37.445C15.5823 37.105 13.1119 36.1702 10.8674 34.6463C10.3284 34.2802 9.79985 33.8989 9.32603 33.4472C9.30798 33.4268 9.30915 33.407 9.32894 33.3884C9.43022 33.3483 9.49425 33.4216 9.56119 33.4717C10.6998 34.332 11.9646 34.9315 13.3384 35.3064C13.7947 35.431 14.2604 35.5072 14.7261 35.5823C14.832 35.6207 14.9443 35.6027 15.0526 35.6207C15.0747 35.6236 15.0968 35.6283 15.1184 35.6347C16.179 35.7598 17.2331 35.6865 18.2791 35.502C20.5784 35.0963 22.6203 34.1329 24.3695 32.5863C25.5616 31.5321 26.5029 30.2876 27.0006 28.7521C27.4959 27.2241 27.4284 25.7223 26.7287 24.2473C26.5855 24.9091 26.238 25.4569 25.8038 25.9557C25.3637 26.4459 24.859 26.858 24.288 27.1874C24.2217 27.2259 24.1483 27.298 24.0726 27.2398C24.0069 27.1892 24.0465 27.1019 24.0662 27.0355C24.2059 26.5757 24.2973 26.1059 24.3538 25.6286C24.5569 23.6216 23.7822 22.0604 22.1849 20.8759C21.9242 20.6849 21.65 20.5126 21.3659 20.3572Z" fill="#262F71"/>
<path d="M30.1275 34.0548C30.1258 33.8837 30.2637 33.7877 30.3475 33.6678C31.1421 32.5333 31.6264 31.2771 31.8773 29.9191C32.0327 29.0774 32.0461 28.2287 31.9908 27.3859C31.9052 26.0866 31.5734 24.8375 31.0501 23.6407C30.6648 22.7594 30.1881 21.934 29.6124 21.1657C29.0018 20.3507 28.2939 19.629 27.5099 18.9788C26.2886 17.9659 24.9126 17.2436 23.4061 16.7657C22.6064 16.5119 21.7885 16.3355 20.9497 16.2604C20.799 16.247 20.6505 16.2109 20.4975 16.2203C19.9666 15.8297 19.4293 15.4496 18.8228 15.1789C18.8245 15.1585 18.8263 15.1387 18.828 15.1184C19.0457 15.1184 19.2634 15.1219 19.4811 15.1178C22.5295 15.0631 25.3387 15.8105 27.7928 17.6667C30.3371 19.5911 31.9268 22.1337 32.5222 25.2723C33.0304 27.9493 32.6363 30.4785 31.1526 32.7981C30.8598 33.2539 30.5396 33.6934 30.1275 34.0548Z" fill="#161F42"/>
<path d="M27.7782 5.36505C27.4732 6.29872 27.0896 7.19455 26.5413 8.01588C25.9848 8.84943 25.3131 9.57471 24.5401 10.2098C24.4958 10.2464 24.4563 10.2884 24.4144 10.3279C24.1478 10.4636 23.9289 10.6679 23.6821 10.832C22.7793 11.4327 21.8165 11.9153 20.8106 12.3169C20.7862 12.3268 20.7583 12.3297 20.7356 12.3356C20.6919 12.2704 20.7437 12.2465 20.7705 12.2209C21.3415 11.6778 21.6954 11.0049 21.9312 10.2639C21.9649 10.1585 22.0074 10.0939 22.1151 10.0514C23.8887 9.34944 25.3044 8.18236 26.4639 6.68523C26.5692 6.54902 26.6723 6.41106 26.8027 6.23993C26.4435 6.23236 26.1688 6.41339 25.8655 6.4617C25.8085 6.4652 25.7339 6.51293 25.7206 6.40466C26.8224 5.09962 27.6455 3.64091 28.1525 2.0064C28.1845 1.90279 28.1525 1.76018 28.2969 1.70837C28.3085 1.71594 28.3132 1.72467 28.3114 1.73457C28.3097 1.74505 28.3068 1.75028 28.3039 1.75028C28.2817 2.90515 28.1327 4.04138 27.8184 5.15433C27.7992 5.22244 27.7916 5.29462 27.7782 5.36505Z" fill="#161F42"/>
<path d="M20.884 17.4953C21.2414 17.8964 21.5615 18.3242 21.8176 18.7974C21.8427 18.8428 21.9067 18.8946 21.8497 18.9488C21.806 18.9895 21.7554 18.9395 21.7099 18.9226C20.5271 18.4825 19.3152 18.1455 18.0725 17.9319C17.4473 17.8242 16.8134 17.777 16.1784 17.7311C15.6027 17.6897 15.0328 17.7101 14.4664 17.7555C13.1632 17.8597 11.8942 18.1385 10.6881 18.6601C10.3162 18.8207 9.93547 18.9651 9.59029 19.1828C9.55071 19.2078 9.50356 19.2486 9.45816 19.1857C10.5106 18.4371 11.6654 17.9022 12.8995 17.5337C14.5945 17.0279 16.3256 16.9039 18.083 17.0424C18.9794 17.1129 19.8653 17.2508 20.7425 17.4464C20.7908 17.4575 20.8368 17.479 20.884 17.4953Z" fill="#161F42"/>
<path d="M35.7498 16.4413C34.7253 15.9436 33.6409 15.6403 32.521 15.4581C32.2212 15.4092 31.9226 15.3498 31.617 15.3475C31.2264 15.1007 30.8434 14.8399 30.4429 14.6094C29.1361 13.855 27.7379 13.3509 26.2466 13.1123C26.2216 13.1082 26.1989 13.0942 26.1785 13.0663C26.5825 13.0267 26.9789 13.0925 27.3736 13.1443C27.7746 13.1967 28.1745 13.2712 28.5692 13.3608C28.9557 13.4487 29.3393 13.5558 29.717 13.6769C30.1012 13.8003 30.4778 13.9482 30.855 14.0925C31.2281 14.2351 31.5855 14.415 31.9767 14.6211C31.8807 14.3347 31.7089 14.1438 31.6036 13.9179C31.5937 13.8574 31.5093 13.805 31.5652 13.7409C31.6257 13.6728 31.6857 13.7456 31.7386 13.7695C31.89 13.8382 32.0343 13.9208 32.1863 13.9889C33.4599 14.6467 34.6491 15.4319 35.7562 16.3429C35.8173 16.4244 35.8173 16.4244 35.7498 16.4413Z" fill="#161F42"/>
<path d="M20.235 9.94792C19.8642 11.484 18.6989 12.4928 17.1238 12.6401C16.8205 12.6686 16.5172 12.7029 16.2116 12.6744C16.2506 12.5621 16.3577 12.572 16.4439 12.5481C16.7856 12.455 17.1249 12.3554 17.4416 12.1919C18.0359 11.8851 18.4707 11.4317 18.7187 10.8053C18.7478 10.7314 18.7746 10.6557 18.8374 10.6016C19.2979 10.374 19.7793 10.1825 20.1809 9.84954C20.2641 9.84605 20.2548 9.89436 20.235 9.94792Z" fill="#161F42"/>
<path d="M10.8581 16.4053C10.8593 16.3477 10.8616 16.2901 10.8622 16.2325C10.8686 15.8524 10.6527 15.7074 10.2999 15.8686C9.89247 16.0549 9.63635 16.3873 9.45706 16.7866C9.41632 16.7942 9.39478 16.7825 9.40759 16.7365C9.53565 16.2616 9.78362 15.8686 10.1957 15.5892C10.2988 15.5194 10.4134 15.4781 10.5357 15.4571C10.7336 15.4228 10.9239 15.531 10.967 15.7249C11.02 15.9624 10.9938 16.1952 10.8581 16.4053Z" fill="#161F42"/>
<path d="M24.4149 25.6405C24.0185 25.9659 23.6273 26.2988 23.1622 26.5264C23.1133 26.5503 23.0691 26.598 22.9829 26.5678C23.136 26.2406 23.2658 25.9071 23.345 25.5573C23.689 24.045 23.37 22.6701 22.48 21.4151C22.2605 21.1054 21.9648 20.8668 21.7035 20.5961C21.6616 20.5525 21.615 20.4977 21.5388 20.5344C21.4602 20.496 21.4218 20.418 21.3659 20.3575C21.4037 20.3091 21.4427 20.3359 21.48 20.3569C22.5335 20.9547 23.4125 21.73 23.9492 22.8383C24.2152 23.3878 24.37 23.9687 24.4247 24.5828C24.4562 24.9402 24.4573 25.2883 24.4149 25.6405Z" fill="#0E1F66"/>
<path d="M21.5806 20.5207C21.5044 20.4538 21.4497 20.3665 21.3705 20.303C20.8059 19.9456 20.1801 19.7326 19.5427 19.5545C18.779 19.3408 17.9996 19.2122 17.2074 19.1563C16.2237 19.0865 15.2481 19.1115 14.29 19.3612C13.833 19.4806 13.3825 19.629 13.0414 19.9893C12.762 20.2844 12.7038 20.618 12.8697 20.9911C12.9605 21.196 13.0915 21.3747 13.2562 21.5714C12.7352 21.5149 12.2591 21.4282 11.7905 21.2978C10.7532 21.0085 9.8731 20.4794 9.21127 19.615C9.17227 19.5638 9.1356 19.5067 9.06458 19.4928C8.81137 19.6453 8.59542 19.8455 8.37015 20.0341C8.25257 20.1325 8.17806 20.1884 8.12858 19.9596C8.04826 19.5859 7.99936 19.2076 7.91903 18.8344C7.90448 18.5882 7.88993 18.3426 7.87538 18.0963C7.88178 17.8781 7.88876 17.6604 7.89517 17.4427C7.92311 17.2692 7.95047 17.0957 7.97841 16.9223C8.08143 16.6015 8.18388 16.2814 8.28691 15.9607C8.47842 15.6417 8.62103 15.2942 8.85619 14.9991C8.96679 14.8605 9.103 14.7383 9.17285 14.5695C9.50289 14.2796 9.77647 13.928 10.1339 13.6696C10.3382 13.5217 10.4872 13.2866 10.7678 13.2551C10.7253 13.4443 10.6828 13.6335 10.6397 13.8221C10.6048 14.0642 10.5728 14.3058 10.7206 14.527C10.7916 14.6772 10.8999 14.7819 11.0693 14.8105C11.3242 14.9158 11.5745 14.8786 11.8231 14.7866C12.2009 14.7028 12.5367 14.5299 12.8464 14.3023C13.3348 14.0043 13.7265 13.5904 14.1421 13.2068C14.2312 13.1242 14.2632 13.1352 14.3494 13.1917C14.7469 13.4519 15.1777 13.5031 15.6748 13.3698C15.5677 13.3395 15.4984 13.3244 15.4315 13.3005C15.1026 13.1835 14.7877 13.045 14.5898 12.733C14.5461 12.6457 14.5024 12.5589 14.4588 12.4716C14.4052 12.3011 14.3796 12.1265 14.3785 11.9483C14.3726 11.7411 14.4303 11.5444 14.478 11.3465C14.6101 11.1165 14.7289 10.8825 14.9111 10.68C15.2947 10.2539 15.7813 10.0071 16.304 9.81149C16.7045 9.67062 17.1003 9.5187 17.4822 9.33243C18.3658 8.96164 19.2063 8.51285 19.9747 7.93775C20.5469 7.50933 21.0649 7.02911 21.3769 6.36494C21.4776 6.15074 21.5143 6.38765 21.583 6.40336C21.6691 6.58032 21.7553 6.75727 21.8414 6.93423C22.0003 7.37429 22.1144 7.82482 22.1581 8.30272C23.7134 7.30676 25.0755 6.12978 26.2368 4.69552C23.8223 3.8381 21.3676 3.50456 18.8343 3.73798C17.2179 3.887 15.6567 4.25371 14.1526 4.85384C11.3312 5.98018 8.97436 7.73634 7.08606 10.1194C5.63841 11.946 4.62092 13.9886 4.00857 16.2348C3.69424 17.3874 3.51961 18.5632 3.45733 19.7547C3.43463 20.186 3.39621 20.6185 3.42997 21.0522C3.54522 20.9567 3.47246 20.8386 3.46839 20.7268C3.4876 20.8438 3.52776 20.9521 3.57375 21.0592C3.74895 21.4666 3.94803 21.8625 4.15059 22.2565C5.04294 23.9941 6.1815 25.5471 7.69144 26.7962C9.98719 28.6962 12.6211 29.5454 15.6038 29.2323C16.9565 29.0902 18.2319 28.6921 19.4205 28.0256C20.5754 27.3777 21.544 26.5325 22.2081 25.3684C22.576 24.7228 22.7792 24.0214 22.7594 23.2862C22.7303 22.221 22.3071 21.2996 21.5806 20.5207Z" fill="#418ACA"/>
<path d="M16.4158 11.8274C16.2208 12.0742 16.1003 12.349 16.2109 12.6743C16.662 12.544 17.1207 12.4363 17.5351 12.2029C18.1801 11.8402 18.6469 11.3332 18.8367 10.601C18.3111 10.7785 17.793 10.9747 17.2883 11.2052C16.9565 11.3571 16.6445 11.5375 16.4158 11.8274Z" fill="#418ACA"/>
<path d="M10.3666 15.7869C10.281 15.8073 10.203 15.8463 10.1302 15.8946C9.80835 16.1088 9.55514 16.3783 9.43698 16.7561C9.43581 16.7584 9.43465 16.7613 9.43407 16.7636C9.42534 16.7549 9.41661 16.7462 9.40787 16.7368C9.35432 16.8102 9.35258 16.8963 9.33511 16.9831C9.38925 16.979 9.40089 16.9441 9.41835 16.9161C9.4754 16.8614 9.53535 16.809 9.58949 16.7514C9.79263 16.5366 10.0325 16.3818 10.3241 16.3241C10.5901 16.2712 10.7339 16.3742 10.795 16.6396C10.7804 16.5506 10.8969 16.5023 10.8584 16.4056C10.8806 16.3591 10.887 16.3084 10.8934 16.259C10.9446 15.8806 10.7397 15.6978 10.3666 15.7869Z" fill="#418ACA"/>
<path d="M36.7966 24.8951C37.2035 23.3625 37.3717 21.8042 37.3368 20.2192C37.2949 18.3239 36.9445 16.4909 36.2861 14.7144C35.5236 12.6573 34.3967 10.8208 32.9222 9.20027C32.2086 8.4162 31.4292 7.69791 30.5758 7.06459C29.6963 6.41149 28.7725 5.83057 27.7789 5.36548C27.6642 5.4394 27.6421 5.56746 27.6054 5.68213C27.4745 6.09076 27.3185 6.48949 27.1322 6.87541C26.5164 8.15077 25.6432 9.22356 24.5576 10.1281C24.4936 10.1811 24.4016 10.2178 24.4156 10.3278C24.5757 10.386 24.7457 10.3639 24.9104 10.3842C26.7748 10.6159 28.549 11.1549 30.2342 11.9797C31.4397 12.57 32.5718 13.2755 33.6161 14.1247C34.4898 14.8349 35.3216 15.5829 36.0096 16.4793C35.9957 16.509 36.005 16.5346 36.0224 16.5596C35.9933 16.566 35.9823 16.5375 35.9625 16.5264C35.8804 16.4804 35.8076 16.4193 35.7198 16.3844C35.4869 16.2494 35.2436 16.137 34.9916 16.0439C33.9793 15.6696 32.9345 15.4309 31.864 15.3011C31.7779 15.2907 31.6894 15.2773 31.6178 15.3477C32.3815 15.9554 33.1091 16.5957 33.7436 17.3466C34.4485 18.1813 35.0416 19.083 35.5119 20.0638C36.2372 21.576 36.6395 23.1745 36.7192 24.852C36.7192 24.9428 36.7192 25.0337 36.7192 25.1629C36.7704 25.0546 36.8077 24.9824 36.7966 24.8951Z" fill="#418ACA"/>
<path d="M15.084 35.6685C16.5205 35.7349 17.9112 35.505 19.2593 35.0108C20.562 34.5329 21.7622 33.8705 22.8414 32.995C23.8933 32.1417 24.7984 31.162 25.4032 29.9367C25.728 29.2778 25.93 28.584 25.9975 27.8412C26.0569 27.1834 25.9463 26.5635 25.7676 25.943C25.7874 25.7917 25.9259 25.7218 26.0068 25.6159C26.3194 25.2055 26.5505 24.762 26.646 24.2521C26.6559 24.1991 26.6815 24.1496 26.7164 24.053C26.9213 24.4773 27.0773 24.8696 27.1827 25.2829C27.3352 25.8825 27.4219 26.4925 27.3759 27.1084C27.2962 28.1899 26.9807 29.201 26.4422 30.1504C25.9096 31.0893 25.2228 31.8972 24.43 32.6143C23.7367 33.2418 22.9672 33.7692 22.1412 34.2157C21.1412 34.7558 20.0917 35.1598 18.9863 35.4194C18.2971 35.5812 17.5997 35.6819 16.8908 35.7215C16.5508 35.7407 16.2097 35.7704 15.8721 35.7483C15.6102 35.7308 15.3412 35.7489 15.084 35.6685Z" fill="#0E1F66"/>
<path d="M14.7364 35.6266C14.1444 35.5754 13.5687 35.4409 13.0006 35.2721C11.9243 34.952 10.9243 34.4683 9.9848 33.8559C9.76186 33.7104 9.57384 33.5154 9.33111 33.3978C9.19199 33.3774 9.13378 33.2418 9.02261 33.1824C6.74955 31.1632 5.17268 28.6916 4.23377 25.8068C3.73084 24.2619 3.46541 22.6758 3.43107 21.0511C3.4334 21.0069 3.4235 20.9662 3.42117 20.9161C3.4171 20.8369 3.41943 20.7432 3.42467 20.6338C3.53817 20.887 3.65401 21.0989 3.7454 21.2991C4.59001 23.1513 5.67153 24.8411 7.16051 26.248C8.74437 27.744 10.5849 28.7411 12.7515 29.0933C15.2929 29.5066 17.6707 29.0636 19.857 27.6939C20.9473 27.0111 21.8425 26.1275 22.3565 24.9238C22.9799 23.4639 22.7453 22.1071 21.7959 20.8573C21.7127 20.7479 21.6242 20.6425 21.5381 20.5348C21.651 20.4382 21.711 20.55 21.775 20.6035C22.3449 21.0826 22.7814 21.6618 23.0888 22.3416C23.3827 22.993 23.5358 23.681 23.5451 24.3877C23.5544 25.1031 23.406 25.7992 23.0829 26.4733C23.1697 26.4768 23.2197 26.4349 23.271 26.4046C23.5719 26.2282 23.8583 26.0327 24.1231 25.8033C24.2052 25.7317 24.278 25.624 24.4142 25.6403C24.3397 26.1729 24.2396 26.7003 24.0539 27.2568C24.4386 27.0426 24.7576 26.8255 25.0638 26.5862C25.3158 26.3895 25.519 26.1427 25.7658 25.943C25.8711 25.9878 25.8711 26.092 25.8956 26.1799C26.2978 27.6317 26.0068 28.9873 25.2896 30.2673C24.42 31.8198 23.1412 32.9752 21.6493 33.9101C20.4385 34.6691 19.1329 35.2005 17.7382 35.5114C16.8616 35.707 15.9768 35.7588 15.0833 35.668C14.9739 35.6086 14.8476 35.6802 14.7364 35.6266Z" fill="#161F42"/>
</svg>
