<svg width="150" height="48" viewBox="0 0 150 48" fill="none" xmlns="http://www.w3.org/2000/svg">
<path d="M64.2133 7.97339C65.9239 7.97339 67.4486 8.19623 68.7875 8.64192C70.1262 9.06285 71.242 9.68186 72.1345 10.499C73.0519 11.2913 73.746 12.257 74.217 13.3958C74.6882 14.5101 74.9237 15.773 74.9237 17.1844C74.9237 18.2985 74.7502 19.4127 74.403 20.527C74.0808 21.6411 73.5353 22.6563 72.7667 23.5725C72.023 24.4886 71.0313 25.2315 69.7916 25.8008C68.552 26.3456 67.0147 26.6181 65.18 26.6181H61.3123V35.309H55.9199V7.97339H64.2133ZM65.1429 21.4184C65.9611 21.4184 66.6428 21.2822 67.1883 21.0099C67.7338 20.7374 68.1553 20.3908 68.4527 19.9699C68.7751 19.549 68.9982 19.1155 69.1223 18.6698C69.2709 18.1994 69.3454 17.7661 69.3454 17.37C69.3454 17.0729 69.2957 16.7015 69.1966 16.2559C69.1223 15.7852 68.9487 15.3148 68.6758 14.8443C68.4032 14.3739 67.9817 13.9777 67.4114 13.6559C66.8661 13.3341 66.1222 13.1731 65.18 13.1731H61.3123V21.4184H65.1429ZM70.2007 24.7611L76.9692 35.309H70.6841L63.7668 24.9095L70.2007 24.7611Z" fill="#1D2040"/>
<path d="M85.8037 36.0889C84.3409 36.0889 83.1136 35.6432 82.1219 34.7519C81.1303 33.8358 80.6096 32.6595 80.5601 31.2234V19.0785H85.7665V29.2921C85.816 30.0103 86.002 30.592 86.3244 31.0377C86.6468 31.4587 87.1921 31.6691 87.9607 31.6691C88.7294 31.6691 89.3863 31.4092 89.9318 30.8892C90.5019 30.3692 90.9358 29.6635 91.2334 28.7721C91.5558 27.856 91.7168 26.8284 91.7168 25.6895V19.0785H96.9234V35.309H92.2004L91.7913 32.3377L91.8656 32.6719C91.4937 33.3405 91.0227 33.9346 90.4524 34.4546C89.8821 34.9746 89.2004 35.3708 88.407 35.6432C87.6383 35.9403 86.7706 36.0889 85.8037 36.0889Z" fill="#1D2040"/>
<path d="M112.951 35.7547C111.588 35.7547 110.435 35.5318 109.493 35.0861C108.575 34.6156 107.77 34.009 107.075 33.2662L107.484 32.1519V35.309H102.278V6.00491H107.447V21.864V20.1926C108.092 19.6479 108.947 19.1898 110.013 18.8184C111.079 18.4471 112.294 18.2613 113.658 18.2613C115.071 18.2613 116.36 18.5957 117.525 19.2641C118.691 19.9327 119.621 20.9108 120.315 22.1983C121.034 23.461 121.393 25.0086 121.393 26.8408C121.393 28.673 120.996 30.2578 120.203 31.5948C119.435 32.932 118.406 33.9594 117.116 34.6776C115.827 35.3955 114.439 35.7547 112.951 35.7547ZM111.798 31.3721C112.567 31.3721 113.274 31.1739 113.918 30.7778C114.588 30.3816 115.121 29.8369 115.517 29.1435C115.914 28.4503 116.112 27.6704 116.112 26.8036C116.112 25.9371 115.914 25.1696 115.517 24.5009C115.121 23.8325 114.588 23.3125 113.918 22.941C113.274 22.5449 112.567 22.3469 111.798 22.3469C111.129 22.3469 110.497 22.4582 109.902 22.6811C109.331 22.8793 108.836 23.1763 108.414 23.5724C108.017 23.9438 107.707 24.4019 107.484 24.9466V28.9207C107.782 29.4655 108.129 29.9236 108.526 30.2949C108.947 30.6415 109.431 30.914 109.976 31.112C110.521 31.2854 111.129 31.3721 111.798 31.3721Z" fill="#1D2040"/>
<path d="M125.485 19.0785H130.692V35.309H125.485V19.0785ZM125.374 13.3217C125.374 12.554 125.671 11.9228 126.266 11.4276C126.886 10.9323 127.543 10.6846 128.237 10.6846C128.931 10.6846 129.564 10.9323 130.134 11.4276C130.729 11.9228 131.026 12.554 131.026 13.3217C131.026 14.0892 130.729 14.7207 130.134 15.2159C129.564 15.6863 128.931 15.9215 128.237 15.9215C127.543 15.9215 126.886 15.6863 126.266 15.2159C125.671 14.7207 125.374 14.0892 125.374 13.3217Z" fill="#1D2040"/>
<path d="M149.851 33.8605C149.132 34.4299 148.227 34.8879 147.136 35.2347C146.07 35.5813 145.016 35.7547 143.975 35.7547C142.115 35.7547 140.491 35.4203 139.103 34.7519C137.739 34.0585 136.673 33.0805 135.905 31.8177C135.161 30.5302 134.789 28.9827 134.789 27.1752C134.789 25.3675 135.198 23.8325 136.016 22.5696C136.834 21.2821 137.901 20.3041 139.215 19.6355C140.553 18.9671 141.954 18.6328 143.417 18.6328C144.88 18.6328 146.144 18.8308 147.21 19.227C148.301 19.6231 149.231 20.1431 149.999 20.7869L147.471 24.1296C147.124 23.8573 146.64 23.5848 146.02 23.3125C145.425 23.0153 144.719 22.8669 143.901 22.8669C143.181 22.8669 142.524 23.0525 141.929 23.4238C141.334 23.7954 140.863 24.303 140.516 24.9466C140.169 25.5905 139.996 26.3332 139.996 27.1752C139.996 27.9675 140.181 28.6978 140.553 29.3664C140.925 30.035 141.433 30.5672 142.078 30.9635C142.748 31.3349 143.529 31.5205 144.421 31.5205C144.991 31.5205 145.512 31.4464 145.983 31.2977C146.479 31.1244 146.9 30.8892 147.248 30.592L149.851 33.8605Z" fill="#1D2040"/>
<path d="M40.9079 12.035L20.2176 1.52588e-05L0.0424836 11.8186L-0.000488281 35.629L20.3464 47.6639L40.9079 35.8887V12.035ZM20.2606 3.63649L35.5421 12.5546L20.3464 21.4726L5.06483 12.5546L20.2606 3.63649ZM18.5006 42.7286L3.13313 33.854V16.1044L18.4576 25.0224V42.7286H18.5006ZM22.4498 25.2821L37.7743 16.3641V34.0703L22.4498 43.0317V25.2821Z" fill="#1D2040"/>
</svg>
