<svg width="42" height="42" viewBox="0 0 42 42" fill="none" xmlns="http://www.w3.org/2000/svg">
<g clip-path="url(#clip0)">
<g clip-path="url(#clip1)">
<path d="M8.74999 4.02502L41.3 26.25L33.25 38.15L0.699989 15.75L8.74999 4.02502Z" fill="url(#paint0_linear)"/>
<path d="M41.3 26.25C38.5 30.275 29.05 28.7 20.125 22.4C11.025 16.275 6.12499 8.05002 8.74999 4.02502C11.55 1.77622e-05 21 1.57502 29.925 7.87502C39.025 13.825 43.925 22.225 41.3 26.25Z" fill="url(#paint1_linear)"/>
<path d="M33.25 37.9749C30.45 41.9999 21 40.4249 12.075 34.1249C3.14999 27.8249 -1.92501 19.7749 0.874991 15.5749C3.67499 11.5499 13.125 13.1249 22.05 19.4249C30.975 25.7249 35.875 33.9499 33.25 37.9749Z" fill="url(#paint2_linear)"/>
<path d="M41.3 26.25L33.25 38.15C30.45 42.175 21 40.425 12.075 34.3C10.325 33.075 8.74999 31.85 7.17499 30.45C8.39999 30.275 9.97499 29.575 11.55 27.825C14.35 24.85 15.75 24.15 16.975 24.325C18.2 24.325 19.6 25.55 21.875 28.525C24.15 31.5 27.3 32.375 29.225 30.8C29.4 30.625 29.575 30.625 29.75 30.45C31.325 29.225 31.85 28.7 34.825 23.1C35.525 21.7 37.975 19.425 41.3 20.475C42.175 22.75 42.175 24.675 41.3 26.25Z" fill="#0E0F23"/>
<path fill-rule="evenodd" clip-rule="evenodd" d="M40.075 25.5501C37.625 29.0501 29.05 27.3001 20.825 21.5251C12.425 15.7501 7.525 8.40005 9.975 4.90005C12.425 1.40005 21 3.15005 29.225 8.92505C37.45 14.7001 42.35 22.0501 40.075 25.5501ZM32.375 20.3001C31.15 22.0501 26.95 21.1751 22.75 18.375C18.725 15.5751 16.275 11.9001 17.5 10.1501C18.725 8.40005 22.925 9.27505 27.125 12.0751C31.15 14.8751 33.6 18.5501 32.375 20.3001Z" fill="white"/>
<path d="M8.04999 8.04998C8.04999 7.87498 7.87499 7.69998 7.69999 7.87498C7.52499 8.04998 7.34999 8.04998 7.34999 8.22498C7.52499 8.74998 7.69999 9.09998 7.69999 9.44998C7.69999 9.62498 7.87499 9.79998 8.04999 9.62498C8.22499 9.62498 8.39999 9.44998 8.22499 9.27498C8.22499 8.92498 8.22499 8.57498 8.04999 8.04998Z" fill="white"/>
<path d="M8.92499 10.85C8.92499 10.675 8.74999 10.5 8.57499 10.675C8.39999 10.85 8.39999 10.85 8.39999 11.025C10.325 15.4 14.35 20.125 19.6 23.625C19.775 23.8 19.95 23.625 20.125 23.625C20.3 23.45 20.125 23.275 20.125 23.1C14.7 19.6 10.85 15.05 8.92499 10.85Z" fill="white"/>
<path d="M30.1 28C29.925 28 29.75 28 29.75 28.175C29.75 28.35 29.75 28.525 29.925 28.525C30.45 28.7 31.15 28.875 31.675 29.05C31.85 29.05 32.025 29.05 32.025 28.875C32.025 28.7 32.025 28.525 31.85 28.525C31.325 28.35 30.625 28.175 30.1 28Z" fill="white"/>
<path d="M33.25 28.7001C33.075 28.7001 32.9 28.8751 32.9 29.0501C32.9 29.2251 33.075 29.4001 33.25 29.4001C34.65 29.5751 36.225 29.7501 37.45 29.5751C37.625 29.5751 37.8 29.4001 37.8 29.2251C37.8 29.0501 37.625 28.8751 37.45 28.8751C36.05 29.0501 34.65 28.8751 33.25 28.7001Z" fill="white"/>
</g>
</g>
<defs>
<linearGradient id="paint0_linear" x1="15.1273" y1="0.865049" x2="21.5824" y2="23.0309" gradientUnits="userSpaceOnUse">
<stop stop-color="#03B8FF"/>
<stop offset="1" stop-color="#FA52A0"/>
</linearGradient>
<linearGradient id="paint1_linear" x1="20.4431" y1="-0.683182" x2="26.8984" y2="21.4828" gradientUnits="userSpaceOnUse">
<stop stop-color="#03B8FF"/>
<stop offset="1" stop-color="#FA52A0"/>
</linearGradient>
<linearGradient id="paint2_linear" x1="9.82799" y1="2.40812" x2="16.2832" y2="24.5741" gradientUnits="userSpaceOnUse">
<stop stop-color="#03B8FF"/>
<stop offset="1" stop-color="#FA52A0"/>
</linearGradient>
<clipPath id="clip0">
<rect width="42" height="42" fill="white" transform="translate(0 0.000976562)"/>
</clipPath>
<clipPath id="clip1">
<rect width="42" height="42" fill="white"/>
</clipPath>
</defs>
</svg>
