<svg width="21" height="18" viewBox="0 0 21 18" fill="none" xmlns="http://www.w3.org/2000/svg">
<path fill-rule="evenodd" clip-rule="evenodd" d="M5.70559 10.111L1.2098 8.40342C0.753071 8.22945 0.749498 7.57336 1.20444 7.39465L19.6545 0.151541C20.0457 -0.00223867 20.4494 0.34629 20.3637 0.764287L17.0529 16.9718C16.9749 17.3547 16.5342 17.5281 16.2228 17.2977L11.7032 13.9585C11.4287 13.756 11.0547 13.7667 10.7921 13.9846L8.28576 16.0633C7.99517 16.3056 7.55691 16.1708 7.44556 15.8056L5.70559 10.111ZM15.9511 3.69555L7.16489 9.20198C6.82785 9.41395 6.66946 9.82779 6.77843 10.2149L7.72821 13.6118C7.7955 13.8522 8.13908 13.8279 8.17183 13.5791L8.41895 11.7165C8.4654 11.3656 8.62975 11.0426 8.88461 10.8009L16.1357 3.94195C16.2714 3.8137 16.1089 3.59639 15.9511 3.69555Z" fill="#1D2040"/>
</svg>
