<svg width="22" height="22" viewBox="0 0 22 22" fill="none" xmlns="http://www.w3.org/2000/svg">
<path d="M18.836 7.36364C17.4629 4.40993 14.4696 2.36364 11 2.36364C6.95776 2.36364 3.56261 5.14133 2.6223 8.89303C2.53075 9.25829 2.16043 9.48018 1.79517 9.38863C1.42991 9.29709 1.20802 8.92677 1.29957 8.56151C2.38831 4.21763 6.31753 1 11 1C14.684 1 17.9016 2.99198 19.6364 5.95599V4.40909C19.6364 4.03253 19.9416 3.72727 20.3182 3.72727C20.6947 3.72727 21 4.03253 21 4.40909V7.81818C21 8.32026 20.593 8.72727 20.0909 8.72727H16.6818C16.3053 8.72727 16 8.42201 16 8.04545C16 7.6689 16.3053 7.36364 16.6818 7.36364H18.836Z" fill="#4AA956"/>
<path d="M19.3777 13.107C19.4692 12.7417 19.8395 12.5198 20.2048 12.6114C20.5701 12.7029 20.7919 13.0732 20.7004 13.4385C19.6117 17.7824 15.6824 21 11 21C7.31596 21 4.09844 19.008 2.36364 16.0441V17.5909C2.36364 17.9675 2.05837 18.2727 1.68182 18.2727C1.30526 18.2727 1 17.9675 1 17.5909V14.1818C1 13.6797 1.40701 13.2727 1.90909 13.2727H5.31818C5.69474 13.2727 6 13.578 6 13.9545C6 14.3311 5.69474 14.6364 5.31818 14.6364H3.16402C4.53709 17.5901 7.53032 19.6364 11 19.6364C15.0422 19.6364 18.4374 16.8587 19.3777 13.107Z" fill="#4AA956"/>
<path d="M18.836 7.36364C17.4629 4.40993 14.4696 2.36364 11 2.36364C6.95776 2.36364 3.56261 5.14133 2.6223 8.89303C2.53075 9.25829 2.16043 9.48018 1.79517 9.38863C1.42991 9.29709 1.20802 8.92677 1.29957 8.56151C2.38831 4.21763 6.31753 1 11 1C14.684 1 17.9016 2.99198 19.6364 5.95599V4.40909C19.6364 4.03253 19.9416 3.72727 20.3182 3.72727C20.6947 3.72727 21 4.03253 21 4.40909V7.81818C21 8.32026 20.593 8.72727 20.0909 8.72727H16.6818C16.3053 8.72727 16 8.42201 16 8.04545C16 7.6689 16.3053 7.36364 16.6818 7.36364H18.836Z" stroke="#4AA956" stroke-width="0.3"/>
<path d="M19.3777 13.107C19.4692 12.7417 19.8395 12.5198 20.2048 12.6114C20.5701 12.7029 20.7919 13.0732 20.7004 13.4385C19.6117 17.7824 15.6824 21 11 21C7.31596 21 4.09844 19.008 2.36364 16.0441V17.5909C2.36364 17.9675 2.05837 18.2727 1.68182 18.2727C1.30526 18.2727 1 17.9675 1 17.5909V14.1818C1 13.6797 1.40701 13.2727 1.90909 13.2727H5.31818C5.69474 13.2727 6 13.578 6 13.9545C6 14.3311 5.69474 14.6364 5.31818 14.6364H3.16402C4.53709 17.5901 7.53032 19.6364 11 19.6364C15.0422 19.6364 18.4374 16.8587 19.3777 13.107Z" stroke="#4AA956" stroke-width="0.3"/>
</svg>
