<svg width="70" height="22" viewBox="0 0 70 22" fill="none" xmlns="http://www.w3.org/2000/svg">
<path d="M29.4518 3.38269C31.0403 3.38269 32.2575 3.77126 33.1032 4.54841C33.9603 5.31412 34.3889 6.34269 34.3889 7.63412C34.3889 8.35412 34.2346 9.06269 33.9261 9.75984C33.6289 10.457 33.1203 11.0113 32.4003 11.4227L35.3318 15.9998H32.4346L29.7775 11.9884H28.1146V15.9998H25.6289V3.38269H29.4518ZM29.8803 9.58841C30.3832 9.58841 30.7718 9.48555 31.046 9.27984C31.3318 9.06269 31.5318 8.81127 31.646 8.52555C31.7603 8.22841 31.8175 7.95984 31.8175 7.71984C31.8175 7.58269 31.7946 7.41127 31.7489 7.20555C31.7146 6.98841 31.6346 6.77127 31.5089 6.55412C31.3832 6.33698 31.1889 6.15412 30.926 6.00555C30.6746 5.85698 30.3318 5.78269 29.8975 5.78269H28.1146V9.58841H29.8803Z" fill="#4AA956"/>
<path d="M39.404 16.3598C38.7297 16.3598 38.164 16.1541 37.7069 15.7427C37.2497 15.3198 37.0097 14.777 36.9869 14.1141V8.50841H39.3869V13.2227C39.4097 13.5541 39.4954 13.8227 39.644 14.0284C39.7926 14.2227 40.044 14.3198 40.3983 14.3198C40.9354 14.3198 41.3583 14.0627 41.6669 13.5484C41.9754 13.0227 42.1297 12.3598 42.1297 11.5598V8.50841H44.5297V15.9998H42.3526L42.1811 14.7998C41.9297 15.2684 41.5697 15.6456 41.1011 15.9313C40.6326 16.217 40.0669 16.3598 39.404 16.3598Z" fill="#4AA956"/>
<path d="M51.918 16.2056C51.3466 16.2056 50.8552 16.1198 50.4437 15.9484C50.0437 15.777 49.6952 15.5427 49.398 15.2456V15.9998H46.998V2.47412H49.3809V9.02269C49.678 8.77127 50.0723 8.55984 50.5637 8.38841C51.0552 8.21698 51.6152 8.13127 52.2437 8.13127C52.8952 8.13127 53.4894 8.28555 54.0266 8.59412C54.5637 8.90269 54.9923 9.35412 55.3123 9.94841C55.6437 10.5313 55.8094 11.2456 55.8094 12.0913C55.8094 12.937 55.6266 13.6684 55.2609 14.2856C54.9066 14.9027 54.4323 15.377 53.838 15.7084C53.2437 16.0398 52.6037 16.2056 51.918 16.2056ZM51.3866 14.1827C51.7409 14.1827 52.0666 14.0913 52.3637 13.9084C52.6723 13.7256 52.918 13.4741 53.1009 13.1541C53.2837 12.8341 53.3752 12.4741 53.3752 12.0741C53.3752 11.6741 53.2837 11.3198 53.1009 11.0113C52.918 10.7027 52.6723 10.4627 52.3637 10.2913C52.0666 10.1084 51.7409 10.017 51.3866 10.017C50.918 10.017 50.5066 10.1256 50.1523 10.3427C49.798 10.5598 49.5466 10.8513 49.398 11.217V13.0513C49.8094 13.8056 50.4723 14.1827 51.3866 14.1827Z" fill="#4AA956"/>
<path d="M57.6956 8.50841H60.0956V15.9998H57.6956V8.50841ZM57.6441 5.85127C57.6441 5.49698 57.7813 5.20555 58.0556 4.97698C58.3413 4.74841 58.6441 4.63412 58.9641 4.63412C59.2841 4.63412 59.5756 4.74841 59.8384 4.97698C60.1127 5.20555 60.2498 5.49698 60.2498 5.85127C60.2498 6.20555 60.1127 6.49698 59.8384 6.72555C59.5756 6.94269 59.2841 7.05127 58.9641 7.05127C58.6441 7.05127 58.3413 6.94269 58.0556 6.72555C57.7813 6.49698 57.6441 6.20555 57.6441 5.85127Z" fill="#4AA956"/>
<path d="M68.9272 15.3313C68.5958 15.5941 68.1786 15.8056 67.6758 15.9656C67.1844 16.1256 66.6986 16.2056 66.2186 16.2056C64.9386 16.2056 63.9101 15.857 63.1329 15.1598C62.3672 14.4627 61.9844 13.4913 61.9844 12.2456C61.9844 11.4113 62.1729 10.7027 62.5501 10.1198C62.9272 9.52555 63.4186 9.07412 64.0244 8.76555C64.6415 8.45698 65.2872 8.30269 65.9615 8.30269C66.6358 8.30269 67.2186 8.39412 67.7101 8.57698C68.2129 8.75984 68.6415 8.99984 68.9958 9.29698L67.8301 10.8398C67.6701 10.7141 67.4472 10.5884 67.1615 10.4627C66.8872 10.3256 66.5615 10.257 66.1844 10.257C65.6929 10.257 65.2701 10.4456 64.9158 10.8227C64.5615 11.1884 64.3844 11.6627 64.3844 12.2456C64.3844 12.8056 64.5672 13.2798 64.9329 13.6684C65.3101 14.057 65.8072 14.2513 66.4244 14.2513C66.9501 14.2513 67.3844 14.1084 67.7272 13.8227L68.9272 15.3313Z" fill="#4AA956"/>
<path d="M18.8576 5.55495L9.32023 0L0.0202754 5.45504L0.000488281 16.4451L9.37959 22L18.8576 16.5649V5.55495ZM9.34002 1.67847L16.3842 5.79473L9.37959 9.91099L2.33537 5.79473L9.34002 1.67847ZM8.52874 19.7221L1.44495 15.6258V7.43324L8.50896 11.5495V19.7221H8.52874ZM10.3492 11.6694L17.4132 7.55313V15.7257L10.3492 19.8619V11.6694Z" fill="#4AA956"/>
</svg>
