<svg width="23" height="19" viewBox="0 0 23 19" fill="none" xmlns="http://www.w3.org/2000/svg">
<path d="M22.2766 3.03793C21.4711 3.39738 20.6076 3.64059 19.6996 3.74967C20.6265 3.19113 21.3361 2.30472 21.6725 1.2526C20.803 1.77002 19.8435 2.14556 18.8207 2.34883C18.0021 1.47018 16.8377 0.922363 15.5459 0.922363C13.0678 0.922363 11.0582 2.94494 11.0582 5.43724C11.0582 5.79132 11.0979 6.13647 11.1743 6.46671C7.44528 6.27834 4.13916 4.4799 1.9258 1.74796C1.53904 2.41381 1.3193 3.18934 1.3193 4.01792C1.3193 5.58448 2.11178 6.96743 3.3147 7.77634C2.57909 7.75131 1.88789 7.54804 1.28199 7.20945V7.26608C1.28199 9.45318 2.82962 11.279 4.88129 11.6945C4.50519 11.7959 4.10895 11.8525 3.69909 11.8525C3.40888 11.8525 3.12873 11.8239 2.85391 11.7684C3.42546 13.5639 5.08208 14.8694 7.0449 14.9051C5.5097 16.1158 3.57472 16.8353 1.47211 16.8353C1.10963 16.8353 0.753079 16.8132 0.401855 16.7733C2.38778 18.0573 4.74566 18.8054 7.28004 18.8054C15.5347 18.8054 20.0473 11.924 20.0473 5.95644L20.0319 5.37167C20.9138 4.73861 21.6767 3.94341 22.2766 3.03793Z" fill="#1D2040"/>
</svg>
