<svg width="48" height="55" viewBox="0 0 48 55" fill="none" xmlns="http://www.w3.org/2000/svg">
<g clip-path="url(#clip0)">
<path d="M18.8235 12.5155C18.2246 12.4303 18.1961 12.402 18.4813 12.3736C19.0232 12.2884 20.2781 12.402 21.1622 12.6006C23.2157 13.0831 25.0695 14.3318 27.0374 16.517L27.5508 17.113L28.2923 16.9995C31.4581 16.4886 34.7094 16.886 37.4189 18.1347C38.1604 18.4752 39.3298 19.1563 39.4724 19.3266C39.5294 19.3834 39.615 19.7523 39.672 20.1213C39.8717 21.4551 39.7861 22.4484 39.3583 23.2146C39.1301 23.6403 39.1301 23.7539 39.2727 24.1228C39.3868 24.4066 39.7291 24.6053 40.0428 24.6053C40.7273 24.6053 41.4403 23.5268 41.7825 22.0227L41.9251 21.4267L42.1818 21.7105C43.6364 23.3282 44.7772 25.5702 44.9483 27.1594L45.0053 27.5851L44.7487 27.2162C44.3209 26.5635 43.9216 26.1378 43.3797 25.7688C42.41 25.1161 41.3832 24.9174 38.6738 24.7755C36.221 24.6336 34.8235 24.435 33.4545 23.9809C31.1159 23.2146 29.918 22.2214 27.1515 18.5604C25.9251 16.9427 25.1551 16.0629 24.385 15.3251C22.7023 13.7074 21.0196 12.856 18.8235 12.5155Z" fill="#FF007A"/>
<path d="M40.0713 16.1198C40.1283 15.0413 40.2709 14.3318 40.5847 13.6791C40.6987 13.4237 40.8128 13.1967 40.8413 13.1967C40.8699 13.1967 40.8128 13.3953 40.7273 13.6224C40.4991 14.2467 40.4706 15.1265 40.6132 16.1198C40.8128 17.3969 40.8984 17.5671 42.2674 18.9578C42.8948 19.6105 43.6364 20.4335 43.9216 20.7741L44.4064 21.3984L43.9216 20.9443C43.3226 20.3767 41.9536 19.2983 41.6399 19.1564C41.4403 19.0429 41.4118 19.0429 41.2691 19.1848C41.1551 19.2983 41.1265 19.4686 41.1265 20.2916C41.098 21.5687 40.9269 22.3633 40.4991 23.1863C40.2709 23.612 40.2424 23.5269 40.4421 23.0444C40.5847 22.6755 40.6132 22.5052 40.6132 21.2849C40.6132 18.8159 40.328 18.2199 38.5882 17.2266C38.1604 16.9712 37.4189 16.6022 36.9911 16.4036C36.5347 16.2049 36.1925 16.0346 36.221 16.0346C36.2781 15.9779 37.9608 16.4603 38.6167 16.7441C39.615 17.1414 39.7861 17.1698 39.9002 17.1414C39.9857 17.0563 40.0428 16.8293 40.0713 16.1198Z" fill="#FF007A"/>
<path d="M19.9929 20.3483C18.795 18.7022 18.0249 16.1481 18.1961 14.2466L18.2531 13.6506L18.5383 13.7074C19.0517 13.7925 19.9358 14.1331 20.3636 14.3885C21.5044 15.0696 22.0178 16.0062 22.5027 18.3333C22.6453 19.0144 22.8449 19.809 22.9305 20.0645C23.0731 20.4902 23.615 21.4835 24.0713 22.1078C24.385 22.5619 24.1854 22.7889 23.4724 22.7322C22.3886 22.6186 20.934 21.6254 19.9929 20.3483Z" fill="#FF007A"/>
<path d="M38.6168 32.6936C32.9697 30.4232 30.9733 28.465 30.9733 25.1445C30.9733 24.6621 31.0018 24.2648 31.0018 24.2648C31.0303 24.2648 31.23 24.435 31.4866 24.6337C32.6275 25.5419 33.9109 25.9392 37.4759 26.45C39.5579 26.7622 40.7558 26.9892 41.8396 27.3582C45.2906 28.4934 47.4296 30.8205 47.943 33.9707C48.0856 34.8788 48 36.61 47.7718 37.5181C47.5722 38.2276 47.0018 39.5331 46.8592 39.5615C46.8307 39.5615 46.7736 39.4196 46.7736 39.1925C46.7166 38.0006 46.1176 36.8654 45.1194 35.9856C43.9216 34.9639 42.3815 34.1977 38.6168 32.6936Z" fill="#FF007A"/>
<path d="M34.6239 33.63C34.5669 33.2043 34.4242 32.6651 34.3387 32.438L34.1961 32.0123L34.4528 32.3245C34.8235 32.7502 35.1087 33.261 35.3654 33.9705C35.5651 34.5097 35.5651 34.68 35.5651 35.5598C35.5651 36.4112 35.5365 36.6099 35.3654 37.0923C35.0802 37.8586 34.738 38.3978 34.1676 38.9938C33.1408 40.0438 31.8004 40.6114 29.8895 40.8668C29.5472 40.8952 28.5775 40.9803 27.7219 41.0371C25.5829 41.1506 24.1569 41.3777 22.8735 41.8317C22.7023 41.8885 22.5312 41.9453 22.5027 41.9169C22.4456 41.8601 23.3298 41.3493 24.0428 41.0087C25.041 40.5263 26.0677 40.2708 28.3209 39.8735C29.4332 39.7033 30.574 39.4762 30.8592 39.3627C33.6827 38.4829 35.0802 36.2977 34.6239 33.63Z" fill="#FF007A"/>
<path d="M37.2192 38.1992C36.4777 36.5815 36.3066 35.049 36.7059 33.6017C36.7629 33.4598 36.82 33.3179 36.877 33.3179C36.934 33.3179 37.1052 33.403 37.2763 33.5165C37.6185 33.7436 38.3315 34.1409 40.1569 35.1342C42.467 36.3829 43.779 37.3478 44.6916 38.4546C45.4902 39.4195 45.975 40.5263 46.2032 41.8886C46.3458 42.6548 46.2602 44.4995 46.0606 45.2658C45.4332 47.678 44.0071 49.6079 41.9251 50.7147C41.6114 50.885 41.3547 50.9985 41.3262 50.9985C41.2977 50.9985 41.4118 50.7147 41.5829 50.3741C42.2674 48.9268 42.3529 47.5361 41.8396 45.9753C41.5258 45.0103 40.8699 43.8468 39.5579 41.8886C37.9893 39.6182 37.6185 39.0222 37.2192 38.1992Z" fill="#FF007A"/>
<path d="M15.9715 46.8834C18.082 45.1239 20.6774 43.8751 23.0731 43.4778C24.0998 43.3075 25.8111 43.3643 26.7522 43.6197C28.2638 44.017 29.6328 44.8684 30.3458 45.9185C31.0303 46.9402 31.344 47.8199 31.6578 49.7781C31.7718 50.5444 31.9144 51.339 31.943 51.5093C32.1711 52.531 32.6275 53.3256 33.1979 53.7513C34.082 54.404 35.6221 54.4324 37.1337 53.8648C37.3904 53.7797 37.6185 53.6946 37.6185 53.7229C37.6756 53.7797 36.9055 54.2905 36.3922 54.5459C35.6792 54.9149 35.1087 55.0284 34.3387 55.0284C32.9697 55.0284 31.8004 54.3189 30.8592 52.8999C30.6595 52.6161 30.2603 51.7931 29.918 51.0269C28.9198 48.7281 28.4064 48.047 27.2371 47.2807C26.2103 46.628 24.8984 46.4861 23.9002 46.9685C22.5882 47.5929 22.246 49.2673 23.1587 50.289C23.5294 50.7147 24.2139 51.0552 24.7843 51.1404C25.8396 51.2823 26.7522 50.4593 26.7522 49.4092C26.7522 48.7281 26.4956 48.3308 25.8111 48.0186C24.8984 47.6213 23.9002 48.0754 23.9287 48.9551C23.9287 49.3241 24.0998 49.5511 24.4706 49.7214C24.6988 49.8349 24.6988 49.8349 24.5276 49.8065C23.7005 49.6362 23.5009 48.6146 24.1569 47.9618C24.9554 47.1672 26.6382 47.5078 27.2086 48.6146C27.4367 49.0686 27.4652 49.9768 27.2656 50.5444C26.7808 51.7931 25.4118 52.4458 24.0143 52.0769C23.0731 51.8215 22.6738 51.5661 21.533 50.4025C19.5366 48.3592 18.7665 47.9618 15.9144 47.5361L15.3726 47.451L15.9715 46.8834Z" fill="#FF007A"/>
<path fill-rule="evenodd" clip-rule="evenodd" d="M0.968524 1.22033C7.6138 9.25181 17.8527 21.7389 18.366 22.42C18.7938 22.9876 18.6227 23.5268 17.9097 23.9241C17.5104 24.1512 16.6833 24.3782 16.284 24.3782C15.8277 24.3782 15.2858 24.1512 14.915 23.7822C14.6584 23.5268 13.5461 21.9092 11.0363 18.0212C9.12539 15.0413 7.49972 12.5722 7.4712 12.5439C7.35712 12.4871 7.35712 12.4871 10.8366 18.6739C13.0327 22.5619 13.7457 23.9525 13.7457 24.1228C13.7457 24.4917 13.6316 24.6904 13.1753 25.2012C12.4052 26.0526 12.063 27.0175 11.8063 29.0325C11.5211 31.2745 10.7511 32.8638 8.55498 35.5599C7.27155 37.1491 7.07191 37.4329 6.75819 38.0857C6.3589 38.8803 6.24482 39.3344 6.18778 40.356C6.13073 41.4345 6.24482 42.1156 6.55854 43.1373C6.84375 44.0454 7.15747 44.6414 7.92753 45.805C8.5835 46.8266 8.98278 47.5929 8.98278 47.8767C8.98278 48.1037 9.03982 48.1037 10.0666 47.8767C12.5193 47.3091 14.5443 46.3442 15.6566 45.1522C16.3411 44.4143 16.5122 44.017 16.5122 42.9954C16.5122 42.3426 16.4837 42.2007 16.3126 41.8034C16.0273 41.1791 15.4855 40.6682 14.3161 39.8736C12.776 38.8235 12.12 37.9721 11.9489 36.8369C11.8063 35.872 11.9774 35.2193 12.8331 33.4314C13.7172 31.5867 13.9454 30.8204 14.088 28.9474C14.1735 27.7554 14.3161 27.273 14.6584 26.904C15.0291 26.5067 15.3429 26.3648 16.227 26.2513C17.6815 26.0526 18.6227 25.6837 19.3642 24.9742C20.0202 24.3782 20.3054 23.7822 20.3339 22.9025L20.3625 22.2497L19.9917 21.8524C18.6512 20.3199 0.0843887 0 -0.0011728 0C-0.0296933 0 0.426635 0.539216 0.968524 1.22033ZM9.72432 41.5764C10.038 41.0371 9.86692 40.356 9.35355 40.0155C8.8687 39.7033 8.12717 39.8452 8.12717 40.2709C8.12717 40.3844 8.18421 40.4979 8.35533 40.5547C8.61202 40.6966 8.64054 40.8385 8.44089 41.1507C8.24125 41.4628 8.24125 41.7466 8.49794 41.9453C8.89722 42.2575 9.43911 42.0872 9.72432 41.5764Z" fill="#FF007A"/>
<path fill-rule="evenodd" clip-rule="evenodd" d="M21.2763 26.6486C20.5918 26.8473 19.9358 27.5851 19.7362 28.323C19.6221 28.7771 19.6791 29.6001 19.8788 29.8555C20.1925 30.2528 20.4777 30.3663 21.2763 30.3663C22.8449 30.3663 24.1854 29.6852 24.328 28.8622C24.4706 28.1811 23.8717 27.2446 23.0446 26.8189C22.6168 26.5918 21.7326 26.5067 21.2763 26.6486ZM23.1016 28.0676C23.3298 27.727 23.2442 27.3581 22.8164 27.1027C22.0463 26.6202 20.877 27.0175 20.877 27.7554C20.877 28.1243 21.4759 28.5217 22.0463 28.5217C22.4171 28.5217 22.9305 28.2946 23.1016 28.0676Z" fill="#FF007A"/>
</g>
<defs>
<clipPath id="clip0">
<rect width="48" height="55" fill="white"/>
</clipPath>
</defs>
</svg>
